<svg version="1.1" id="Layer_1" xmlns="http://www.w3.org/2000/svg" xmlns:xlink="http://www.w3.org/1999/xlink" x="0px" y="0px"
	 width="537px" height="195.7px" viewBox="0 0 537 195.7" style="enable-background:new 0 0 537 195.7;" xml:space="preserve">
<style type="text/css">
	.st0{fill:#CAA778;}
	.st1{fill:#808387;}
	.st2{fill:#FFFFFF;}
</style>
<path class="st0" d="M160.7,34.6c-0.4,0.4-1,0.7-1.2,1.2c-1.6,4.8-5,7.9-9.3,10.4c-6,3.4-9.8,8.6-11.5,15.3c0,0.1-0.1,0.3-0.1,0.4
	c0.3,3.1-1.4,4.9-3.9,6.4c-4.4,2.7-7,7-8.8,11.7c-0.1,0.3-0.2,0.7-0.2,1c0.4,3.2-0.9,6.1-1.7,9.1c-1.6,6.2-3.2,12.4-4.8,18.6
	c-0.2,0.8-0.3,1.6-0.2,2.4c1,6.4,2.1,12.7,3.2,19.1c0.8,4.8,1.5,9.5,2.3,14.3c1,6,2,12,2.9,18c0.9,5.9,1.8,11.9,2.7,17.8
	c0.4,2.3,0.7,4.6,1.1,6.9c0.6,2.9,0.8,5.7-0.5,8.5c-0.5,0-1,0-1.5,0c-0.9-3.1-1.8-6.1-2.6-9.2c-2-7.7-4-15.4-6.1-23.1
	c-2-7.4-4-14.7-6-22c-0.4-1.6-0.9-3.2-1.4-4.8c-0.1-0.3-0.5-0.6-0.8-0.7c-0.2,0-0.5,0.4-0.7,0.7c-0.2,0.3-0.2,0.7-0.3,1
	c-1.2,4.4-2.3,8.9-3.5,13.3c-2,7.1-4.1,14.2-6,21.3c-1.5,5.4-2.8,10.9-4.2,16.4c-0.6,2.4-1.1,4.8-1.7,7.2c-0.6,0-1.2,0-1.8,0
	c-2.1-3.8-0.7-7.7-0.1-11.5c1.1-7.3,2.3-14.5,3.5-21.8c1.3-7.7,2.5-15.4,3.8-23.2c1.4-8.8,2.7-17.6,4.3-26.3
	c0.7-3.5-0.6-6.6-1.4-9.8c-1.9-8-3.9-16.1-5.9-24.1c-1-3.9-3.4-6.9-6.4-9.4c-1.1-0.9-2.3-1.7-3.4-2.5c-1.3-0.9-2.1-2-2.2-3.6
	c-0.5-6.7-4-11.7-9.2-15.7c-1.8-1.4-3.9-2.4-5.7-3.7c-5.4-4.1-7.4-9.8-7.3-16.3c0.1-3.9,1.2-7.4,4.1-10.2c0.9-0.8,1-1.8,0.4-2.9
	c-1.4-2.6-2.8-5.2-4.3-7.7c-0.3-0.6-0.7-1.4-1.3-1.7c-1.5-0.8-1.2-2.1-0.8-3c0.3-0.8,1.5-1.5,2.4-1.6C68,0.1,68,0.3,69.2,3.3
	c1.2,3,2.5,5.9,3.7,8.8c0.7,1.7,1.8,2.4,3.8,2.3c4.5-0.2,8.2,1.9,11.5,4.8c1.2,1.1,2.5,2.1,4.2,2.6c1.1,0.4,1.9,1.9,2.5,3
	c0.9,1.7,1.2,3.7,2.1,5.4c1.4,2.6,0.8,4.6-0.9,6.8c-3.1,4-5.5,8.4-6.5,13.5c-0.6,2.8,0.3,5.6,1.4,8.1c1.9,4.7,5.1,8.5,9,11.5
	c4.5,3.5,7.2,8.2,9.8,13c0.6,1,1,2.1,1.5,3.1c0.3,0.5,0.7,0.9,1.1,1.3c0.4-0.4,0.8-0.7,1.1-1.2c1.6-2.8,3.1-5.6,4.6-8.4
	c1.6-2.9,3.7-5.3,6.3-7.4c4-3.3,7.5-7.2,9.6-12c1.9-4.3,2.1-8.6-0.1-12.9c-1.2-2.3-2.5-4.6-3.6-6.9c-1-2-0.9-4.2-0.4-6.3
	c1.2-6,3.8-11.3,8.9-15c4.3-3.2,9.2-4.4,14.4-2.5c3,1.1,5.1,3.3,6.3,6.2c0.2,0.5,0.8,0.8,1.3,1.2C160.7,26.7,160.7,30.6,160.7,34.6z
	 M90.2,34.8c0-6.4-4.4-12.9-10.3-15.3c-5.2-2.1-10.6,0.7-11.4,6.3c-0.9,6.6,1.8,11.9,7,15.9c2.6,2,5.6,3.2,9,2.1
	C88.1,42.6,90.2,39.3,90.2,34.8z M134.7,34.9c0,0.6-0.1,1.1,0,1.7c0.8,5,4.7,8.8,10.2,7.4c7.6-2,13.2-11.5,11.2-19.1
	c-1.2-4.5-5.5-6.8-9.4-5.9C140.1,20.6,134.7,27.7,134.7,34.9z M114.5,107.9c-0.8-0.8-1.1-1.4-1.6-1.5c-0.5-0.1-1.1,0.2-1.6,0.5
	c-0.7,0.5-1.2,1.2-1.9,1.7c-0.8,0.7-0.9,1.5-0.3,2.3c0.7,0.8,1.4,1.7,2.2,2.3c0.5,0.3,1.3,0.4,1.9,0.2c0.4-0.1,0.5-0.9,0.8-1.3
	c-0.5-0.2-1.1-0.3-1.6-0.5c-0.6-0.3-1.4-0.5-1.6-1c-0.6-1.4,0-2,1.5-2.2C113,108.4,113.5,108.2,114.5,107.9z M113.9,109.8
	c0.5,0.6,0.9,1.1,1.2,1.5c0.3-0.4,1-0.9,1-1.3c0-0.5-0.6-1-0.9-1.5C114.8,108.9,114.4,109.3,113.9,109.8z"/>

	<path class="st1" d="M219.3,58.4V59h-5.4l-3.8-10.6h-17.7L188.6,59h-5.3v-0.6l14.9-39.9h6.2L219.3,58.4z M208.5,43.9l-7.1-19.8
		h-0.2L194,43.9H208.5z"/>
	<path class="st1" d="M236.1,19.1v-0.6h5.3l12.2,33.8h0.2l12-33.8h5.3v0.6L256.1,59H251L236.1,19.1z"/>
	<path class="st1" d="M323.9,58.4V59h-5.4l-3.8-10.6H297L293.1,59h-5.3v-0.6l14.9-39.9h6.2L323.9,58.4z M313.1,43.9l-7.1-19.8h-0.2
		l-7.1,19.8H313.1z"/>
	<path class="st1" d="M348.8,18.5h13.4c11.5,0,18.1,8.1,18.1,20.3c0,11.3-6,20.3-18.1,20.3h-13.4V18.5z M361.7,54.5
		c9.3,0,13.4-7.2,13.4-15.7c0-8.4-4.1-15.6-13.4-15.6h-7.9v31.3H361.7z"/>
	<path class="st1" d="M437.7,58.4V59h-5.4l-3.8-10.6h-17.7L406.9,59h-5.3v-0.6l14.9-39.9h6.2L437.7,58.4z M426.9,43.9l-7.1-19.8
		h-0.2l-7.1,19.8H426.9z"/>

	<path class="st2" d="M2.3,93.1h33.1c10.3,0,17.9,1.4,23.1,4.1c5.1,2.8,7.7,7.4,7.7,14c0,10.1-6.1,16.2-18.3,18.1v0.2
		c14.8,1.8,22.1,8.3,22.1,19.3c0,8-3,13.7-9.1,16.9c-6,3.2-14.8,4.8-26.1,4.8H2.3v-2.1h7.2V95.2H2.3V93.1z M31.1,95.2v34.1H34
		c3.8,0,6.5-1.2,8-3.5c1.5-2.3,2.3-5.9,2.3-10.7v-5.2c0-5.5-0.7-9.3-2-11.5c-1.3-2.2-3.9-3.3-7.6-3.3H31.1z M31.1,131.3v37.1h5.2
		c4.1,0,6.9-1.4,8.5-4.2c1.6-2.8,2.4-6.9,2.4-12.4v-5.9c0-4.9-1-8.5-3-11c-2-2.4-5.5-3.7-10.6-3.7H31.1z"/>
	<path class="st2" d="M191.1,131.3h-5.9v37.1h7.2v2.1h-36v-2.1h7.2V95.2h-7.2v-2.1h33.4c9.6,0,16.4,0.5,20.4,1.5
		c4,1,6.8,2.2,8.5,3.6c3.5,2.9,5.3,7.5,5.3,13.7c0,6.3-1.5,10.8-4.6,13.4c-3.1,2.7-7.8,4.3-14.2,4.8v0.3c6,0.8,10.1,2.6,12.5,5.3
		c2.4,2.7,3.5,7.3,3.5,13.7v5.9c0,3.8,0.2,6.4,0.6,7.7c0.4,1.3,1.3,2,2.6,2s2.4-0.6,3.2-1.8c0.8-1.2,1.5-3.8,2.2-7.7l1.9,0.2
		c-0.8,6.3-2.2,10.5-4.3,12.6c-2,2.1-6.1,3.2-12.1,3.2c-6,0-10.3-1.4-12.9-4.3c-2.5-2.8-3.8-8.2-3.8-16v-8.1c0-4.1-0.5-7.2-1.6-9.1
		C195.9,132.3,194,131.3,191.1,131.3z M185.2,95.2v34.1h3.5c4.2,0,7.3-1.3,9.4-3.9c2-2.6,3-6.8,3-12.6v-3.2c0-5.8-1-9.7-2.9-11.6
		c-2-1.9-5.1-2.8-9.4-2.8H185.2z"/>
	<path class="st2" d="M241.9,93.1H275c10.3,0,17.9,1.4,23.1,4.1c5.1,2.8,7.7,7.4,7.7,14c0,10.1-6.1,16.2-18.3,18.1v0.2
		c14.8,1.8,22.1,8.3,22.1,19.3c0,8-3,13.7-9.1,16.9c-6,3.2-14.8,4.8-26.1,4.8h-32.5v-2.1h7.2V95.2h-7.2V93.1z M270.7,95.2v34.1h2.9
		c3.8,0,6.5-1.2,8-3.5c1.5-2.3,2.3-5.9,2.3-10.7v-5.2c0-5.5-0.7-9.3-2-11.5c-1.3-2.2-3.9-3.3-7.6-3.3H270.7z M270.7,131.3v37.1h5.2
		c4.1,0,6.9-1.4,8.5-4.2c1.6-2.8,2.4-6.9,2.4-12.4v-5.9c0-4.9-1-8.5-3-11c-2-2.4-5.5-3.7-10.6-3.7H270.7z"/>
	<path class="st2" d="M320.3,93.1h57.5L379,115h-2c-3.1-7.5-6.3-12.6-9.7-15.3c-3.4-2.8-8.4-4.1-14.9-4.1h-3.9v34.2h3.8
		c3.5,0,6.4-1.3,8.7-3.9c2.4-2.6,4-6.1,5-10.6h1.7v32.8h-1.9c-1.3-5.5-3.1-9.5-5.4-11.8c-2.3-2.4-5.3-3.5-9.2-3.5h-2.7v35.5h4.2
		c6.8,0,12.6-2,17.3-6.1c4.8-4.1,8-9.3,9.8-15.6h2.2l-0.9,24.1h-60.7v-2.4h6.5V95.5h-6.5V93.1z"/>
	<path class="st2" d="M428.9,131.3H423v37.1h7.2v2.1h-36v-2.1h7.2V95.2h-7.2v-2.1h33.4c9.6,0,16.4,0.5,20.4,1.5c4,1,6.8,2.2,8.5,3.6
		c3.5,2.9,5.3,7.5,5.3,13.7c0,6.3-1.5,10.8-4.6,13.4c-3.1,2.7-7.8,4.3-14.2,4.8v0.3c6,0.8,10.1,2.6,12.5,5.3
		c2.4,2.7,3.5,7.3,3.5,13.7v5.9c0,3.8,0.2,6.4,0.6,7.7c0.4,1.3,1.3,2,2.6,2s2.4-0.6,3.2-1.8c0.8-1.2,1.5-3.8,2.2-7.7l1.9,0.2
		c-0.8,6.3-2.2,10.5-4.3,12.6c-2,2.1-6.1,3.2-12.1,3.2c-6,0-10.3-1.4-12.9-4.3c-2.5-2.8-3.8-8.2-3.8-16v-8.1c0-4.1-0.5-7.2-1.6-9.1
		C433.7,132.3,431.8,131.3,428.9,131.3z M423,95.2v34.1h3.5c4.2,0,7.3-1.3,9.4-3.9c2-2.6,3-6.8,3-12.6v-3.2c0-5.8-1-9.7-2.9-11.6
		c-2-1.9-5.1-2.8-9.4-2.8H423z"/>
	<path class="st2" d="M511.1,169.3c3.7,0,7-1,9.8-3c2.8-2,4.3-5,4.3-9c0-4-1.5-7.1-4.6-9.2c-3.1-2.1-7.4-4-13.1-5.6
		c-5.6-1.6-9.7-3-12.3-4.1c-2.5-1.2-5-2.7-7.2-4.6c-4.6-3.8-6.9-9.8-6.9-17.8c0-6.6,2.3-12.2,7-16.9c4.7-4.7,11.1-7.1,19.2-7.1
		c3.9,0,8,0.6,12.2,1.7c4.2,1.1,6.9,1.7,7.9,1.7c1,0,2-0.7,2.8-2.2h1.2l0.8,22.4h-1.8c-3.5-6.4-7.2-11.6-11.1-15.4
		c-3.9-3.9-8.1-5.8-12.6-5.8s-8.1,1.1-10.6,3.2c-2.5,2.1-3.8,4.9-3.8,8.4c0,3.5,1.5,6.2,4.5,8.1c3,1.9,6.7,3.4,11,4.6
		c4.4,1.2,7.2,2,8.6,2.4c1.4,0.4,3.1,1.1,5.1,1.8c2,0.8,3.7,1.6,5,2.4c1.3,0.8,2.7,1.9,4.1,3.2c1.4,1.3,2.6,2.7,3.4,4.3
		c2,3.5,3,7.7,3,12.6c0,8-2.5,14.4-7.5,19.2c-5,4.8-11.5,7.2-19.6,7.2c-4.2,0-9-0.6-14.4-1.7c-5.4-1.1-8.4-1.7-9-1.7
		c-1,0-2,1.1-3,3.3h-1.5l-1.1-26.3h1.9c3.2,6.4,7.4,12,12.4,16.8C500.2,166.9,505.5,169.3,511.1,169.3z"/>

</svg>
