<svg width="189" height="96" fill="none" xmlns="http://www.w3.org/2000/svg"><path d="M11.14 66.375c-1.171 0-2.296-.188-3.421-.563-2.485-.984-3.75-3.046-3.75-6.093 0-1.828.375-3.75 1.172-5.766 2.578 3.984 6.843 7.406 12.75 10.172-2.297 1.5-4.547 2.25-6.75 2.25zM11 69.328c3.422-.094 6.75-1.406 9.984-3.89a53.829 53.829 0 007.36 2.39c3.843.89 7.312 1.313 10.36 1.313 6.28 0 10.874-1.875 13.827-5.579 2.578-3.609 3.844-7.124 3.844-10.64 0-.984-.094-1.969-.328-2.953-.984-3.703-2.531-6.61-4.688-8.719 3.235-1.406 6.141-3.422 8.766-6 2.906-3.094 4.36-6.094 4.36-9.047 0-2.11-.75-4.219-2.297-6.234-5.11-5.86-12.188-8.766-21.141-8.766-.984 0-1.969.047-3.047.094-10.453 1.219-18.14 6.515-22.969 15.937-1.875 3.797-2.812 7.172-2.812 10.125 0 2.063.469 3.938 1.406 5.578 1.172 1.829 2.578 3.235 4.313 4.126 1.687.89 3.187 1.5 4.546 1.734 1.313.234 2.11.375 2.344.375.422 0 .797-.14 1.125-.375.281-.234.422-.563.469-.984 0-.422-.14-.75-.375-1.032-.235-.281-.563-.422-.985-.468-.046 0-.375-.047-1.03-.188a13.85 13.85 0 01-2.532-.61 12.302 12.302 0 01-2.953-1.453c-.985-.609-1.781-1.5-2.438-2.671-.703-1.125-1.03-2.485-1.03-4.078 0-2.438.843-5.344 2.53-8.766 2.953-5.485 6.47-9.235 10.453-11.25 3.985-1.969 7.36-3 10.22-3.14.984-.048 1.921-.095 2.859-.095 8.015 0 14.297 2.579 18.797 7.688 1.124 1.406 1.687 2.86 1.687 4.406 0 1.5-.516 3.047-1.594 4.688a19.98 19.98 0 01-5.39 5.297c-2.157 1.453-4.032 2.437-5.578 2.953-1.079-.797-1.688-1.266-1.876-1.407-.187-.093-.421-.14-.703-.14-.515 0-.937.234-1.265.75-.328.656-.516 1.219-.516 1.687 0 .563.094.985.328 1.266.516.703 1.266 1.031 2.25 1.031.282 0 .61-.047.938-.093 2.625 2.39 4.312 5.156 5.062 8.343.14.75.235 1.5.235 2.297 0 2.953-1.125 5.953-3.328 9.047-2.344 2.953-6.141 4.453-11.438 4.453-4.828 0-9.89-.984-15.234-2.953 4.359-4.125 8.343-9 11.906-14.625 3.516-5.625 6.422-10.594 8.719-14.86 1.734-3.093 2.812-4.921 3.234-5.53 1.078-1.079 2.25-1.782 3.563-2.063.609.047 1.171.094 1.593.094 1.922 0 2.907-.563 2.907-1.641 0-1.031-.797-1.594-2.391-1.64-.703 0-1.547.093-2.438.328-1.593-.141-3.422-.422-5.484-.75-2.063-.329-3.938-.704-5.578-1.032-1.688-.328-2.766-.562-3.234-.703a1.172 1.172 0 00-.657-.187c-.468 0-.843.234-1.125.656-.14.281-.234.562-.234.844 0 .468.187.843.61 1.172 1.077.515 4.734 1.312 11.062 2.296-.797.61-2.203 2.86-4.313 6.75-7.265 13.828-14.297 23.72-21.14 29.672-8.157-3.703-12.797-7.781-13.875-12.234-.141-.797-.61-1.219-1.407-1.219-.515 0-.937.234-1.265.75-.14.14-.516.984-1.125 2.484-.656 1.547-1.125 3-1.36 4.454-.234 1.453-.375 2.53-.375 3.28 0 4.407 1.829 7.36 5.532 8.813 1.453.563 2.906.844 4.359.844zm53.719-3.14h-.235c-.234 0-.468-.094-.703-.235-.89-.844-1.312-1.594-1.36-2.25-.046-.656-.093-1.078-.093-1.312 0-1.688.422-3.375 1.266-5.11 1.265-2.672 2.953-4.968 5.062-6.89 2.063-1.875 3.89-2.813 5.438-2.813 1.36 0 2.297.422 2.906 1.313.422.562.61 1.265.61 2.109-.047.422-.094.797-.141 1.219-.188.422-1.125 2.25-2.813 5.437-1.36 1.782-2.953 3.563-4.875 5.39-1.922 1.829-3.61 2.907-5.062 3.142zM65 69.094c2.484-.328 5.297-2.203 8.484-5.625v.656c0 1.5.563 2.625 1.641 3.375.797.422 1.64.656 2.484.656 2.391-.14 4.688-1.312 6.985-3.469 2.297-2.156 4.125-4.312 5.531-6.515.14-.234.234-.516.234-.75 0-.563-.234-.984-.656-1.266a1.58 1.58 0 00-.797-.234c-.469 0-.89.234-1.219.656-1.546 2.344-3.234 4.36-5.156 6.047-1.922 1.734-3.515 2.578-4.781 2.578-.422 0-.797-.094-1.172-.234-.14 0-.187-.328-.187-1.031 0-2.954 2.296-8.391 6.89-16.313.14-.328.235-.61.235-.844 0-.515-.235-.937-.704-1.218-.234-.141-.515-.235-.75-.235-.515 0-.937.281-1.265.844-.328.562-.703 1.125-1.031 1.687-.094-.234-.235-.422-.375-.609-1.079-1.594-2.813-2.438-5.157-2.578-2.296 0-4.687 1.078-7.078 3.187a25.107 25.107 0 00-6.187 8.157c-1.032 2.343-1.547 4.453-1.547 6.28 0 2.298.797 4.267 2.437 5.813.75.657 1.782.985 3.141.985zm29.766-9.75a85.69 85.69 0 013.984-4.266c3.609-3.516 6.234-5.297 7.781-5.297l.281.094v.047c0 .797-.75 2.016-2.203 3.656a22.8 22.8 0 01-4.64 3.797c-1.781 1.078-3.516 1.734-5.203 1.969zm-8.907 9.703c.329 0 .704-.188 1.125-.563.282-.28 1.875-2.156 4.735-5.625 1.547 3.141 3.937 5.11 7.172 5.953.656.141 1.312.188 2.015.188 4.688 0 10.032-3.281 16.078-9.797.235-.328.375-.656.375-1.031a1.88 1.88 0 00-.468-1.031c-.329-.235-.657-.375-1.032-.375-.421.047-.75.187-1.031.468-5.484 5.953-10.125 8.907-14.016 8.907-2.484 0-4.546-1.313-6.093-3.891 2.203-.234 4.36-.984 6.469-2.25s3.937-2.719 5.484-4.36c.797-.796 1.5-1.734 2.109-2.812.61-1.031.938-1.969.938-2.86 0-.796-.281-1.5-.844-2.156-.609-.609-1.453-.937-2.531-.937-1.922 0-4.266 1.219-7.031 3.703-3.141 2.813-6.891 6.844-11.204 12.094 1.36-3.188 4.125-8.344 8.297-15.422 2.906-4.828 5.578-9.094 8.063-12.75 2.484-3.656 4.265-6 5.343-7.031a1.52 1.52 0 00.469-1.125c0-.328-.14-.657-.422-.985a1.377 1.377 0 00-1.031-.422c-.984 0-3.375 2.86-7.172 8.532-5.297 7.922-9.75 15.328-13.36 22.172-3.046 5.765-4.546 9.515-4.546 11.343 0 .422.047.704.188.891.421.797 1.03 1.172 1.921 1.172zm34.735-11.484a5.312 5.312 0 01-2.532-.61c1.126-2.766 2.954-5.25 5.532-7.453.422-.375.984-.797 1.734-1.266.703-.422 1.36-.703 1.875-.843.516-.094.891-.141 1.125-.141.891 0 1.641.328 2.25.938.281.328.422.703.422 1.218 0 .422-.141 1.032-.422 1.782-.937 2.203-3.094 3.984-6.516 5.437-1.453.61-2.578.938-3.468.938zm2.625 11.39c5.39 0 11.437-3.75 18.14-11.203.235-.328.375-.656.375-1.078-.046-.375-.187-.703-.468-.938-.328-.234-.657-.375-.985-.375-.422 0-.797.188-1.125.516-6.047 6.797-11.39 10.172-16.125 10.172-2.578 0-4.406-1.219-5.484-3.703-.235-.516-.328-1.125-.328-1.782l.047-.703a8.784 8.784 0 003.234.61c1.078 0 2.203-.235 3.375-.657 4.875-1.828 8.016-4.312 9.375-7.453.422-1.078.656-2.062.656-2.953 0-1.687-.75-3.047-2.297-4.125a6.047 6.047 0 00-3.234-.937c-2.016 0-4.266.984-6.656 2.906-2.531 2.156-4.407 4.453-5.578 6.938-1.172 2.484-1.782 4.593-1.782 6.28 0 1.032.188 2.016.516 3 1.594 3.657 4.359 5.485 8.344 5.485zm18.047-18.89c-.422-.516-.61-1.266-.61-2.157 0-1.36.422-2.484 1.313-3.468.375-.376.75-.563 1.078-.563.281.14.469.234.515.328.047.094.094.281.094.563 0 1.172-.797 2.906-2.39 5.297zm9.515 19.078c4.266-.516 8.485-4.079 12.703-10.641.141-.234.188-.516.188-.797 0-.516-.234-.89-.656-1.172a1.583 1.583 0 00-.797-.234c-.516 0-.938.234-1.219.703-1.922 3.047-3.797 5.297-5.625 6.797-1.922 1.64-3.469 2.437-4.641 2.437-.703 0-1.031-.609-1.031-1.78 0-1.173.375-2.72 1.172-4.688 1.266-3.094 2.906-6.235 4.969-9.422.14-.282.234-.563.234-.797 0-.469-.187-.844-.562-1.172-.704-.516-1.407-.75-2.063-.75-.984 0-2.062.563-3.328 1.688-1.641 1.453-3.328 2.203-5.063 2.203-.421 0-.796-.047-1.218-.094.797-1.125 1.406-2.297 1.922-3.516.515-1.218.75-2.25.75-3.093 0-1.079-.328-2.016-.938-2.766-.656-.703-1.547-1.078-2.672-1.078-1.078 0-2.109.515-3.047 1.5-1.406 1.5-2.109 3.281-2.109 5.39 0 2.578.984 4.407 3 5.578l.141.047c1.125.61 2.531.938 4.265.938 2.297 0 4.406-.844 6.328-2.484-3.14 5.39-4.687 9.609-4.687 12.609 0 1.406.375 2.531 1.125 3.328.703.844 1.687 1.266 2.859 1.266zm-.469 22.453c-.796 0-1.5-.188-2.203-.516-1.031-.516-1.547-1.219-1.547-2.203 0-1.781 1.5-3.938 4.5-6.422 2.86-2.39 7.266-4.734 13.219-6.937 1.078-.375 2.157-.75 3.188-1.172-5.391 9.234-10.36 14.86-14.907 16.781a5.864 5.864 0 01-2.25.469zm-.046 2.906c1.078 0 2.203-.234 3.375-.703 5.625-2.39 11.671-9.516 18.187-21.281 6.328-2.86 10.5-5.438 12.563-7.641 2.484-2.672 3.75-4.688 3.75-5.953 0-.61-.329-1.078-.938-1.313a1.245 1.245 0 00-.562-.14c-.61 0-1.079.328-1.313.937-.234.75-.984 1.969-2.203 3.61-1.219 1.687-4.219 3.75-8.953 6.234 3.984-7.828 7.172-14.766 9.469-20.719.047-.187.093-.375.093-.562 0-.516-.281-.938-.796-1.266a1.659 1.659 0 00-.657-.14c-.515 0-.89.234-1.219.656-2.859 4.406-6.093 8.718-9.703 12.984-3.609 4.266-6.375 6.563-8.39 6.89-.281-.046-.469-.14-.61-.28-.14-.141-.187-.516-.187-1.126 0-2.671 1.922-7.968 5.812-15.796.516-.985.75-1.641.75-1.922 0-.657-.328-1.125-.984-1.36a1.666 1.666 0 00-.469-.093c-.656 0-1.125.328-1.359.984-4.453 8.578-6.703 14.672-6.703 18.281 0 1.125.234 2.016.703 2.625.703 1.078 1.781 1.594 3.328 1.594 2.625 0 6.75-3.469 12.422-10.453-1.688 3.703-3.656 7.594-5.86 11.719a106.137 106.137 0 01-6.515 2.53c-6.985 2.579-11.953 5.298-15 8.157-3.047 2.86-4.594 5.484-4.594 7.875 0 2.11 1.031 3.75 3.094 4.828 1.125.563 2.297.844 3.469.844z" fill="#55328B"/><circle cx="80.5" cy="86.5" r="1.5" fill="#55328B"/><path d="M34.449 91h1.356l-2.988-7.92H31.28L28.293 91h1.32l.756-2.076h3.336L34.449 91zm-3.708-3.12l.936-2.568.336-1.116h.036l.36 1.14.912 2.544h-2.58zm13.163-4.8h-1.356L40.7 88.36l-.48 1.56-.48-1.572-1.848-5.268h-1.368l2.94 7.92h1.5l2.94-7.92zM50.792 91h1.356l-2.988-7.92h-1.535L44.636 91h1.32l.756-2.076h3.336L50.792 91zm-3.708-3.12l.936-2.568.336-1.116h.036l.36 1.14.912 2.544h-2.58zm10.265-4.8h-2.796V91h2.796c2.484 0 3.936-1.416 3.936-3.96s-1.452-3.96-3.936-3.96zm0 6.828h-1.512v-5.736h1.512c1.668 0 2.592 1.044 2.592 2.868 0 1.824-.924 2.868-2.592 2.868zM69.129 91h1.355l-2.988-7.92H65.96L62.972 91h1.32l.756-2.076h3.336L69.128 91zm-3.709-3.12l.936-2.568.336-1.116h.036l.36 1.14L68 87.88h-2.58zM91.74 91h5.508v-1.104h-2.496c-.324 0-1.008.024-1.308.048v-.024c2.628-1.68 3.66-2.952 3.66-4.464 0-1.392-.996-2.496-2.748-2.496-1.668 0-2.712.96-2.868 2.46l1.116.516c.084-1.152.684-1.86 1.68-1.86.936 0 1.5.588 1.5 1.428 0 1.32-1.008 2.412-4.044 4.548V91zm10.971.12c2.004 0 3.06-1.416 3.06-4.08s-1.056-4.08-3.06-4.08-3.048 1.416-3.048 4.08 1.044 4.08 3.048 4.08zm0-1.092c-1.152 0-1.74-.996-1.74-2.988s.588-2.988 1.74-2.988c1.152 0 1.752.996 1.752 2.988s-.6 2.988-1.752 2.988zm7.576-6.948c-.42.6-1.764 1.32-2.4 1.404l.24 1.116c.72-.156 1.452-.564 2.004-1.092-.012.228-.024.444-.024.636V91h1.26v-7.92h-1.08zm6.771-.12c-1.752 0-2.832.996-2.832 2.604 0 1.56 1.092 2.556 2.628 2.556.888 0 1.872-.348 2.112-1.356h.048v.132c0 1.92-.504 3.12-1.968 3.12-1.032 0-1.356-.492-1.584-1.236l-1.212.564c.468 1.176 1.344 1.776 2.796 1.776 2.016 0 3.144-1.356 3.144-4.068 0-2.496-1.104-4.092-3.132-4.092zm0 1.128c.924 0 1.548.588 1.548 1.488 0 .864-.624 1.452-1.548 1.452-.984 0-1.548-.552-1.548-1.452 0-.936.564-1.488 1.548-1.488z" fill="#55328B"/></svg>