<svg width="69" height="69" viewBox="0 0 69 69" fill="none" xmlns="http://www.w3.org/2000/svg">
<circle cx="34.5" cy="34.5" r="34.5" fill="#F86635"/>
<path d="M13.4247 26.7679H18.0309L22.6758 38.2639L27.3207 26.7679H31.8881L22.6758 46.1989L13.4247 26.7679ZM36.2469 31.4902L34.5438 28.471C35.3567 28.0065 36.3631 27.5033 37.6017 27.0388C38.8403 26.5743 40.2338 26.3421 41.8595 26.3421C44.0271 26.3421 45.8076 26.8453 47.2011 27.7743C48.5946 28.7419 49.2913 30.0967 49.2913 31.8772V44.5732H45.1883V42.0186C44.6464 42.9862 43.8723 43.7217 42.7885 44.2249C41.7047 44.7281 40.466 44.9603 39.15 44.9603C37.3307 44.9603 35.8211 44.4958 34.6599 43.5669C33.4987 42.6379 32.9181 41.3218 32.9181 39.5413C32.9181 37.6833 33.5761 36.2512 34.9696 35.2061C36.3631 34.161 38.221 33.6191 40.5434 33.6191C41.5111 33.6191 42.4014 33.7739 43.1755 34.0061C43.9497 34.2384 44.6464 34.5093 45.1883 34.819V32.3417C45.1883 31.5289 44.84 30.9096 44.1432 30.4451C43.4465 29.9806 42.6336 29.7483 41.666 29.7483C40.3886 29.7483 39.2661 29.9806 38.3371 30.4064C37.3694 30.8709 36.6727 31.2192 36.2469 31.4902ZM37.1372 39.309C37.1372 40.1606 37.4469 40.7799 38.0662 41.167C38.6855 41.5928 39.4983 41.7863 40.4273 41.7863C41.7821 41.7863 42.9046 41.4767 43.8336 40.8573C44.7238 40.238 45.1883 39.1155 45.1883 37.5285V37.1801C44.0271 36.5995 42.6723 36.2899 41.1628 36.2899C39.808 36.2899 38.8016 36.5608 38.1436 37.1027C37.4469 37.6446 37.1372 38.3801 37.1372 39.309Z" fill="white"/>
</svg>
