<svg width="234" height="46" viewBox="0 0 234 46" fill="none" xmlns="http://www.w3.org/2000/svg">
<path fill-rule="evenodd" clip-rule="evenodd" d="M216.302 24.6554C222.02 20.5286 216.279 25.6272 216.3 24.6742C216.3 24.67 216.3 24.6564 216.302 24.6554ZM83.2561 16.5513C83.1767 17.5367 82.7555 19.377 81.9979 22.07C81.6269 23.37 81.3406 24.3878 81.142 25.1183H85.6147C85.0734 23.1662 84.6303 21.4681 84.2917 20.0207C83.9542 18.5775 83.718 17.4207 83.58 16.5513H83.2561ZM93.2715 30.2535C92.8922 31.5023 92.5453 32.2715 92.2359 32.5672C91.9256 32.8588 91.2599 33.0061 90.2504 33.0061H86.0369C86.2532 32.562 86.411 32.1043 86.5176 31.6235C86.619 31.147 86.6702 30.6329 86.6702 30.0916C86.6702 29.8836 86.6284 29.5648 86.5448 29.1291C86.457 28.6943 86.3326 28.1677 86.1707 27.5427H80.5589C80.4429 27.8573 80.3551 28.1813 80.2945 28.5146C80.2349 28.8428 80.2067 29.1667 80.2067 29.4813C80.2067 29.7812 80.3091 29.9996 80.5171 30.1469C80.7251 30.2912 81.049 30.3653 81.4796 30.3653H81.6175C81.211 31.5995 80.8599 32.3498 80.5589 32.6132C80.2632 32.8765 79.6247 33.0061 78.6486 33.0061H76.1824C76.5983 32.354 77.126 30.7854 77.7593 28.3014C78.3978 25.8174 78.9161 23.9155 79.3143 22.5967C79.656 21.4597 80.0782 20.1775 80.5725 18.7625C81.072 17.3413 81.3176 16.5272 81.3176 16.3193C81.3176 16.0789 81.2246 15.9033 81.0354 15.8009C80.8452 15.6943 80.4617 15.6212 79.8828 15.5742C80.1608 14.7559 80.3917 14.1916 80.5683 13.8959C80.7439 13.5991 80.933 13.3817 81.142 13.2427C81.2946 13.1361 81.512 13.0578 81.7847 13.0066C82.0627 12.9554 82.5058 12.9323 83.1213 12.9323H84.8424H85.5875C86.0682 12.9323 86.388 12.9554 86.5542 13.0066C86.7255 13.0578 86.8363 13.1455 86.8875 13.2699C87.0955 13.6503 87.4613 14.6169 87.9796 16.1667C88.4979 17.7165 89.0434 19.4794 89.6119 21.4597C90.0654 23.023 90.496 24.6742 90.9077 26.4141C91.3195 28.153 91.5598 29.1113 91.634 29.2911C91.7772 29.6432 91.9538 29.893 92.1659 30.0362C92.3791 30.1793 92.6749 30.2535 93.0542 30.2535H93.2715ZM94.9394 17.0685H99.1864C98.969 17.6558 98.807 18.2254 98.7056 18.7719C98.599 19.3174 98.5478 19.8452 98.5478 20.3489V28.2084C98.5478 29.0873 98.691 29.7362 98.9732 30.1563C99.2605 30.5775 99.7005 30.7854 100.292 30.7854C101.032 30.7854 101.564 30.5179 101.884 29.9808C102.202 29.4395 102.364 28.547 102.364 27.2888V21.8244C102.364 21.0386 102.263 20.5244 102.059 20.2746C101.855 20.0249 101.472 19.8723 100.902 19.8211C101.282 18.5629 101.615 17.7906 101.907 17.5033C102.193 17.2117 102.707 17.0685 103.447 17.0685H107.736C107.509 17.7029 107.343 18.2943 107.232 18.8503C107.125 19.4052 107.069 19.9047 107.069 20.3489V28.5376C107.069 29.2127 107.162 29.6432 107.348 29.8282C107.532 30.0132 107.911 30.1156 108.481 30.1333C108.073 31.5075 107.726 32.331 107.444 32.5996C107.157 32.8724 106.63 33.0061 105.862 33.0061H104.589C104.183 33.0061 103.845 33.0207 103.586 33.0479C103.323 33.0761 103.095 33.1127 102.907 33.1681C102.989 32.701 103.054 32.2662 103.109 31.8639C103.165 31.4616 103.207 31.0864 103.235 30.7447C102.772 31.6236 102.166 32.2809 101.416 32.7281C100.667 33.1775 99.7736 33.4001 98.7328 33.4001C97.0357 33.4001 95.8005 32.9277 95.0219 31.9883C94.2455 31.0498 93.8568 29.5461 93.8568 27.478V21.8244C93.8568 21.0469 93.7502 20.5338 93.537 20.2799C93.3248 20.0301 92.9319 19.8723 92.353 19.8211C92.7323 18.5817 93.0699 17.8136 93.3614 17.5179C93.6582 17.2169 94.1807 17.0685 94.9394 17.0685ZM115.908 12.2155V17.0685H117.181C117.624 17.0685 118.022 17.0267 118.374 16.9389C118.725 16.8564 119.063 16.7122 119.378 16.5136C119.044 17.8972 118.706 18.7844 118.374 19.1784C118.041 19.5713 117.522 19.7668 116.815 19.7668H115.908V28.4268C115.908 29.1761 116.001 29.7174 116.181 30.0456C116.361 30.3737 116.657 30.5409 117.074 30.5409C117.282 30.5409 117.532 30.4667 117.833 30.3141C118.128 30.1657 118.328 30.0916 118.429 30.0916C118.706 30.0916 119.063 30.4155 119.497 31.0676C119.6 31.2202 119.674 31.3404 119.729 31.4198C118.906 32.0813 118.124 32.5672 117.383 32.8765C116.643 33.1869 115.913 33.3436 115.186 33.3436C113.807 33.3436 112.799 32.9413 112.165 32.1366C111.531 31.3362 111.217 30.0508 111.217 28.2879V19.7668H110.55C110.328 19.7668 110.069 19.8075 109.787 19.8859C109.501 19.9695 109.19 20.0855 108.857 20.2423C109.103 18.9747 109.385 18.1282 109.714 17.707C110.037 17.2817 110.523 17.0685 111.161 17.0685H111.462V15.6578C111.462 14.9451 111.531 14.4549 111.67 14.1958C111.809 13.9324 112.086 13.6963 112.488 13.4883C112.526 13.4737 112.642 13.4423 112.831 13.3953C113.914 13.132 114.941 12.739 115.908 12.2155ZM126.653 19.4648C125.912 19.4648 125.357 19.9235 124.996 20.8348C124.635 21.746 124.455 23.1474 124.455 25.0357C124.455 26.9502 124.635 28.362 124.991 29.2639C125.347 30.1657 125.903 30.6193 126.653 30.6193C127.392 30.6193 127.938 30.1658 128.294 29.2587C128.646 28.3474 128.822 26.9419 128.822 25.0357C128.822 23.138 128.646 21.7366 128.294 20.8254C127.938 19.9183 127.392 19.4648 126.653 19.4648ZM126.624 16.7404C128.849 16.7404 130.589 17.4761 131.857 18.9517C133.12 20.423 133.753 22.4493 133.753 25.0357C133.753 27.6305 133.12 29.6621 131.857 31.1324C130.589 32.609 128.849 33.3436 126.624 33.3436C124.413 33.3436 122.674 32.609 121.415 31.1324C120.153 29.6621 119.523 27.6305 119.523 25.0357C119.523 22.4493 120.153 20.423 121.415 18.9517C122.674 17.4761 124.413 16.7404 126.624 16.7404ZM149.813 14.0714C149.453 14.7601 149.171 15.2596 148.971 15.5742C148.772 15.8939 148.61 16.1071 148.486 16.2127C148.351 16.3057 148.12 16.407 147.801 16.5189C147.482 16.6296 146.941 16.7864 146.182 16.986C146.251 16.7676 146.307 16.5878 146.344 16.4447C146.38 16.3004 146.399 16.1761 146.399 16.0789C146.399 15.7508 146.275 15.5052 146.033 15.3338C145.789 15.1624 145.437 15.0746 144.975 15.0746C143.753 15.0746 142.837 15.6902 142.217 16.9254C141.597 18.1606 141.287 19.9977 141.287 22.4358C141.287 25.1737 141.643 27.1728 142.356 28.4404C143.073 29.7028 144.197 30.3371 145.734 30.3371C146.265 30.3371 146.82 30.2587 147.389 30.1009C147.958 29.939 148.643 29.6704 149.449 29.2911V29.6432C149.449 30.892 149.013 31.8179 148.138 32.4282C147.269 33.0385 145.927 33.3436 144.118 33.3436C141.5 33.3436 139.465 32.4418 138.02 30.6329C136.573 28.8292 135.852 26.2887 135.852 23.0178C135.852 19.8535 136.651 17.3329 138.258 15.454C139.863 13.5761 142 12.6366 144.678 12.6366C145.534 12.6366 146.395 12.7568 147.25 12.9982C148.111 13.2333 148.963 13.5949 149.813 14.0714ZM155.14 0.121483C167.221 -0.157536 179.574 2.29826 190.8 1.76739C195.387 1.55002 196.481 0.121483 205.309 0.121483C204.646 3.95356 198.69 2.69013 192.119 4.71224C186.584 6.41666 181.99 9.03129 182.589 8.98845C188.916 8.53595 188.728 9.57889 195.043 9.67817C196.438 9.70011 200.981 8.59553 208.836 8.18797C211.041 8.07406 198.714 10.4693 202.95 10.9698C205.824 11.3095 201.889 13.179 201.07 13.5092C199.229 14.2512 197.383 14.9116 195.533 15.525C196.769 15.5898 197.99 15.9128 198.937 16.7927C198.873 16.7958 198.807 16.7958 198.74 16.7958C198.652 16.7958 198.463 16.7916 198.18 16.7822C197.894 16.7728 197.657 16.7676 197.468 16.7676C196.672 16.7676 196.02 17.0591 195.511 17.6464C194.998 18.2348 194.521 19.2662 194.081 20.7376C194.081 20.1681 194.095 19.5714 194.127 18.9517C194.161 18.3267 194.207 17.6329 194.271 16.8742C194.045 16.939 193.799 16.986 193.532 17.0184C193.263 17.0508 192.976 17.0643 192.671 17.0643C192.615 17.0643 192.434 17.0591 192.133 17.055C191.833 17.0456 191.561 17.0414 191.329 17.0414C190.543 17.0414 190.001 17.1804 189.705 17.4667C189.413 17.7488 189.066 18.5817 188.668 19.9507C189.238 19.9695 189.617 20.0709 189.802 20.2517C189.987 20.4324 190.08 20.8619 190.08 21.5381V29.7268C190.08 30.2305 190.015 30.7583 189.881 31.2996C189.751 31.8409 189.552 32.4094 189.279 33.0061H193.942C194.678 33.0061 195.187 32.8629 195.474 32.5714C195.766 32.285 196.103 31.5023 196.492 30.2263C195.816 30.1845 195.363 30.0456 195.137 29.8146C194.91 29.5826 194.798 29.0653 194.798 28.2596V23.4484C194.798 22.6531 194.965 22.047 195.298 21.6259C195.636 21.2047 196.172 20.9268 196.913 20.793C197.005 20.7742 197.149 20.7512 197.348 20.724C198.061 20.6268 198.56 20.4084 198.852 20.0761C199.032 19.8681 199.194 19.5118 199.337 19.0123C199.424 18.7124 199.515 18.3184 199.607 17.8283C207.176 14.4978 218.062 7.42197 222.633 11.2729C223.78 12.2385 209.806 20.2119 208.231 20.6655C205.909 21.3353 205.562 20.5662 206.799 22.1358C210.404 26.712 225.987 13.6701 230.758 12.1695C231.853 11.8246 229.183 14.9336 228.587 15.1311C223.535 16.8146 219.852 22.1599 214.924 24.2405C214.163 24.5624 211.476 25.1141 209.565 25.5865C209.023 24.8654 208.08 23.9552 206.732 22.8569C206.464 22.6291 206.264 22.4629 206.136 22.3521C206.103 22.325 206.047 22.2821 205.973 22.2184C204.729 21.1629 204.104 20.4554 204.104 20.1033C204.104 19.8859 204.17 19.703 204.312 19.562C205.815 18.0833 209.834 22.2121 210.067 16.7122C209.716 16.8888 209.359 17.0184 208.999 17.1051C208.637 17.1981 208.273 17.2451 207.897 17.2451C207.592 17.2451 207.037 17.1709 206.233 17.0184C205.427 16.87 204.784 16.7958 204.294 16.7958C203.031 16.7958 202.022 17.1479 201.269 17.846C200.514 18.5441 200.135 19.4836 200.135 20.6592C200.135 21.1211 200.196 21.5747 200.311 22.0188C200.427 22.4682 200.602 22.8882 200.825 23.2864C201.25 24.0221 202.318 25.1235 204.026 26.5939C204.447 26.9555 204.771 27.2324 204.983 27.4226C205.436 27.8301 205.756 28.1854 205.945 28.4916C206.136 28.801 206.233 29.1113 206.233 29.4301C206.233 29.8418 206.071 30.194 205.747 30.4719C205.419 30.7541 205.006 30.892 204.512 30.892C203.859 30.892 203.318 30.6705 202.882 30.2211C202.453 29.7728 202.236 29.2033 202.236 28.5052C202.236 28.362 202.244 28.2136 202.268 28.0653C202.291 27.9179 202.318 27.7695 202.356 27.6264C201.226 28.2137 200.436 28.7226 199.977 29.1573C199.524 29.592 199.205 30.0968 199.024 30.6747C199.644 31.3006 200.303 31.819 200.997 32.2318C193.578 34.3019 186.14 38.6921 178.78 37.6627C169.571 36.3732 159.868 37.1486 150.689 38.5468C144.57 39.4779 153.737 38.9146 155.338 39.3306C166.978 42.3538 181.703 40.4571 193.101 35.7524C195.451 34.7826 196.79 36.4484 196.984 36.3919C199.49 35.6667 202.008 34.374 204.55 34.0814C212.066 33.2151 199.018 40.2449 196.948 40.7194C195.077 41.1478 193.217 41.7665 191.351 42.2556C185.89 43.6862 180.337 42.6318 174.879 44.1543C172.389 44.8482 170.223 45.3112 167.945 45.2485H61.1278C60.3315 45.2485 59.6554 44.586 59.6554 43.7761V41.1311C61.1028 40.9576 62.5532 40.8396 64.011 40.8396C66.7187 40.8396 68.141 39.2052 68.304 36.9019C68.9717 36.7473 69.4734 36.1474 69.4765 35.4337C69.4765 32.1126 70.2268 28.8532 70.2268 25.5311C70.2268 18.2755 67.1336 15.7832 64.3956 14.666C63.5492 14.3212 62.7549 13.5803 62.2272 12.6836L61.5981 11.6167H62.0673H63.5826H65.0989C66.191 11.6167 67.0834 10.7242 67.0834 9.63324V8.64047C67.0834 8.09497 66.6372 7.64875 66.0917 7.64875H63.059C62.5135 7.64875 62.0673 8.09497 62.0673 8.64047V10.1568H60.7255C59.0096 7.32898 56.906 4.15315 54.5024 1.88337C53.6486 1.07766 52.5169 0.515453 51.2399 0.121483H155.14ZM210.515 27.8949C211.253 27.874 212.189 27.5323 213.774 26.8489C219.334 24.4495 214.352 28.0329 210.416 30.0257C210.521 29.6338 210.572 29.2137 210.572 28.7644C210.572 28.4624 210.553 28.1729 210.515 27.8949ZM133.336 36.2655C140.064 35.8297 146.838 36.1568 153.577 36.0429C155.036 36.0178 140.559 37.2625 135.383 37.2625C134.494 37.2625 132.554 36.3167 133.336 36.2655ZM173.081 8.53597C172.517 8.75647 187.123 5.93492 185.785 5.79175C179.532 5.1198 179.089 6.19617 173.081 8.53597ZM187.769 17.7844C186.937 17.9955 186.105 18.1982 185.271 18.3926C184.065 17.2901 182.504 16.7404 180.581 16.7404C178.368 16.7404 176.629 17.4761 175.37 18.9517C174.961 19.4303 174.617 19.9685 174.34 20.5652C173.254 20.7501 172.169 20.9288 171.085 21.1023V14.386C171.085 13.8624 171.14 13.3263 171.256 12.7798C171.367 12.2343 171.534 11.6741 171.751 11.1057H167.476C166.727 11.1057 166.214 11.2488 165.926 11.5404C165.644 11.8278 165.311 12.6 164.932 13.8582C165.501 13.9 165.885 14.0474 166.088 14.2888C166.292 14.5333 166.394 15.0422 166.394 15.8197V21.8286C165.522 21.9603 164.65 22.0909 163.78 22.2205C163.477 20.9288 162.944 19.8389 162.181 18.9517C160.913 17.4761 159.175 16.7404 156.95 16.7404C154.738 16.7404 152.999 17.4761 151.74 18.9517C150.477 20.423 149.848 22.4493 149.848 25.0357C149.848 27.6305 150.477 29.6621 151.74 31.1324C152.999 32.609 154.738 33.3436 156.95 33.3436C159.175 33.3436 160.913 32.609 162.181 31.1324C163.433 29.6756 164.067 27.6671 164.079 25.1068L164.466 25.0849C165.108 25.0107 165.751 24.9312 166.394 24.8455V29.7268C166.394 30.1982 166.338 30.7029 166.232 31.2536C166.121 31.7991 165.963 32.3812 165.755 33.0061H170.002C170.752 33.0061 171.27 32.8587 171.565 32.5578C171.857 32.262 172.194 31.4845 172.575 30.2263C172.005 30.1845 171.617 30.032 171.404 29.7812C171.191 29.5273 171.085 29.0236 171.085 28.2649V22.8945C171.951 22.8433 172.816 22.7691 173.68 22.6792C173.547 23.4055 173.479 24.1903 173.479 25.0357C173.479 27.6305 174.108 29.6621 175.37 31.1324C176.629 32.609 178.368 33.3436 180.581 33.3436C182.806 33.3436 184.545 32.609 185.812 31.1324C187.076 29.6621 187.71 27.6305 187.71 25.0357C187.71 22.4493 187.076 20.423 185.812 18.9517C185.782 18.9172 185.751 18.8816 185.72 18.8472C186.392 18.4877 187.078 18.1271 187.769 17.7844ZM159.091 23.3397L158.479 23.51C158.686 23.487 158.892 23.4651 159.098 23.4421C159.121 23.7796 159.136 24.1381 159.143 24.5195C157.736 24.5916 156.269 24.67 154.781 24.7515C154.799 23.0063 154.978 21.7001 155.321 20.8348C155.681 19.9235 156.237 19.4648 156.977 19.4648C157.718 19.4648 158.263 19.9183 158.62 20.8254C158.857 21.4398 159.015 22.2779 159.091 23.3397ZM163.937 23.0366C164.755 22.9938 165.574 22.9687 166.394 22.9635V24.2206C165.674 24.2373 164.891 24.2614 164.06 24.2938C164.039 23.857 163.997 23.4379 163.937 23.0366ZM178.634 22.0041C178.926 21.9571 179.219 21.908 179.513 21.8589C179.689 21.7972 179.869 21.7325 180.044 21.6708C180.704 21.4336 181.43 21.1023 182.205 20.7146C182.22 20.7512 182.236 20.7877 182.251 20.8254C182.602 21.7366 182.777 23.138 182.777 25.0357C182.777 26.9419 182.602 28.3474 182.251 29.2587C181.894 30.1658 181.348 30.6193 180.608 30.6193C179.859 30.6193 179.303 30.1657 178.946 29.2639C178.591 28.362 178.41 26.9502 178.41 25.0357C178.41 23.8246 178.485 22.814 178.634 22.0041ZM154.785 25.598L159.145 25.3712C159.125 27.108 158.95 28.4028 158.62 29.2587C158.263 30.1658 157.718 30.6193 156.977 30.6193C156.228 30.6193 155.673 30.1657 155.316 29.2639C154.996 28.453 154.818 27.2293 154.785 25.598ZM224.136 19.7417C224.032 19.7438 223.926 19.7542 223.823 19.7563C226.201 17.7718 228.924 17.1793 231.278 15.1217C231.417 14.9994 233.151 13.3639 233.184 13.7809C233.275 14.9597 231.067 16.4217 230.523 16.7634C229.94 17.1302 224.035 20.6268 224.136 19.7417Z" fill="#FAB20B"/>
<path fill-rule="evenodd" clip-rule="evenodd" d="M35.4162 0.121613H28.494C18.0658 0.121613 15.54 1.20216 10.1069 10.1569H8.76614V8.6406C8.76614 8.0951 8.31992 7.64888 7.77442 7.64888H4.74177C4.19627 7.64888 3.75005 8.0951 3.75005 8.6406V9.63337C3.75005 10.7244 4.6425 11.6168 5.73454 11.6168H7.24981H8.76614H9.23535L8.60625 12.6838C8.07851 13.5804 7.28325 14.3213 6.43783 14.6662C3.69989 15.7833 0.606628 18.2757 0.606628 25.5312C0.606628 28.8324 1.35694 32.1326 1.35694 35.4338V42.8001C1.35694 44.1503 2.46155 45.2549 3.81172 45.2549H9.70456C10.5155 45.2549 11.178 44.5924 11.178 43.7814V41.1312C14.9098 41.5764 18.4482 42.3874 22.2897 42.3874H35.4162V40.5795H22.2897C20.254 40.5795 18.2371 40.3297 16.2265 40.0319C13.1019 39.57 9.99193 39.037 6.82239 39.037C4.76893 39.037 4.17432 37.7464 4.3478 35.9291C4.51814 34.1578 5.23083 32.7377 7.27071 32.4273C7.00528 32.49 6.77015 32.6091 6.56428 32.7742C5.55165 33.6082 5.25906 35.207 5.21935 36.436C5.188 37.3911 5.44401 38.1331 6.82239 38.1331C10.0714 38.1331 13.1615 38.664 16.3592 39.1373C18.326 39.4289 20.2979 39.6755 22.2897 39.6755H35.4162H48.5426C50.5355 39.6755 52.5064 39.4289 54.4742 39.1373C57.6719 38.664 60.761 38.1331 64.011 38.1331C65.5858 38.1331 65.6945 37.1633 65.5848 36.0159C65.4343 34.441 64.8523 32.6175 63.4227 32.4001C57.5915 31.516 58.0095 33.4409 56.7178 35.3209C55.214 37.5092 45.1213 37.667 40.3926 37.667H35.4162V36.7631H30.4408C28.3602 36.7631 26.0894 36.5771 24.037 36.2782C21.6387 35.9292 17.3029 35.1632 16.5839 32.3834L19.9374 27.7007L18.4482 30.9768C18.3583 31.1743 18.2977 31.3906 18.2957 31.6091C18.2925 32.0898 18.5715 32.4848 18.9279 32.7826C21.4338 34.8737 27.3027 34.9364 30.4408 34.9542H35.4162H40.3926C42.1774 34.9542 54.007 34.5445 52.3852 30.9768L50.896 27.7007L54.5609 26.4467L55.9654 27.9013C65.6527 27.9013 67.4638 26.5198 66.5588 20.2643H64.5001L60.9815 23.297L50.1593 26.9995H35.4162V25.1905V10.7129C43.0981 10.762 51.336 10.8174 59.4108 11.4757C57.6458 8.52982 56.56 6.36453 54.1648 4.10207C51.8804 1.94515 45.3491 1.93055 42.3384 1.93055H31.7994L35.4162 0.121613ZM35.4162 8.91647L42.3384 3.7384C44.6928 3.7384 51.1751 3.76558 52.9234 5.41776C54.2411 6.66237 55.1994 8.00209 56.0856 9.42541C49.8082 9.03771 41.7062 8.96037 35.4162 8.91647ZM10.1163 24.343C9.82891 25.4205 8.84659 26.2157 7.6793 26.2157C6.28525 26.2157 5.15559 25.085 5.15559 23.692C5.15559 22.7651 5.65615 21.9552 6.4002 21.5173L7.65841 22.5999C7.08051 22.6104 6.61444 23.0828 6.61444 23.6638C6.61444 24.2521 7.09098 24.7286 7.67828 24.7286C8.26663 24.7286 8.7421 24.2521 8.7421 23.6638C8.7421 23.6178 8.74001 23.5718 8.73478 23.5269L9.39419 24.0954L10.1163 24.343ZM60.7171 24.343C61.0045 25.4205 61.9858 26.2157 63.1541 26.2157C64.5471 26.2157 65.6778 25.085 65.6778 23.692C65.6778 22.7651 65.1772 21.9552 64.4321 21.5173L63.175 22.5999C63.7529 22.6104 64.219 23.0828 64.219 23.6638C64.219 24.2521 63.7424 24.7286 63.1541 24.7286C62.5668 24.7286 62.0903 24.2521 62.0903 23.6638C62.0903 23.6178 62.0934 23.5718 62.0986 23.5269L61.4392 24.0954L60.7171 24.343Z" fill="#231F20"/>
</svg>
