<svg width="177" height="100" viewBox="0 0 177 100" fill="none" xmlns="http://www.w3.org/2000/svg">
<path fill-rule="evenodd" clip-rule="evenodd" d="M42.9587 19.3893L53.0818 16.0912C63.9866 -0.191254 64.1308 0.298859 76.9939 -1.52588e-05H89.8393V2.40771L102.657 2.40873C104.795 2.4568 106.989 2.46098 109.118 2.64595C110.409 2.75777 111.749 2.95213 112.948 3.4715C114.742 4.249 116.174 5.78416 117.397 7.26495C118.491 8.58794 119.505 9.99451 120.491 11.398C121.113 12.2831 121.725 13.1756 122.334 14.0711H104.387C104.056 13.5925 103.622 13.1871 103.062 12.8715L103.054 12.8683C103.011 12.8443 102.968 12.8202 102.924 12.7983L102.919 12.7952C102.85 12.7597 102.779 12.7252 102.706 12.6917L102.631 12.6593L102.561 12.628L102.556 12.6259L102.48 12.5956C102.357 12.5464 102.229 12.5005 102.095 12.4587L102.063 12.4482L101.989 12.4263L101.868 12.3918L101.853 12.3876L101.72 12.3531L101.675 12.3417C101.575 12.3176 101.473 12.2946 101.369 12.2748L101.363 12.2727C101.257 12.2528 101.15 12.234 101.039 12.2162L100.997 12.21L100.844 12.1891L100.827 12.187C100.705 12.1713 100.582 12.1577 100.456 12.1462H100.452C100.39 12.14 100.327 12.1347 100.263 12.1306H100.256C100.125 12.1222 99.9916 12.1149 99.8547 12.1107L99.8432 12.1096C99.7074 12.1044 99.5663 12.1034 99.4231 12.1034H89.8393H80.2564C80.1122 12.1034 79.9722 12.1044 79.8353 12.1096L79.8238 12.1107C79.688 12.1149 79.5532 12.1222 79.4225 12.1306H79.4162C79.3515 12.1347 79.2888 12.14 79.2261 12.1462H79.223C79.0965 12.1577 78.9732 12.1713 78.8519 12.187L78.8342 12.1891L78.6816 12.21L78.6398 12.2162C78.5291 12.234 78.4214 12.2528 78.3159 12.2727L78.3096 12.2748C78.2061 12.2946 78.1027 12.3176 78.0034 12.3417L77.9574 12.3531L77.8258 12.3876L77.8101 12.3918L77.6909 12.4263L77.6157 12.4482L77.5823 12.4587C77.4495 12.5005 77.3221 12.5464 77.1987 12.5956L77.1225 12.6259L77.1172 12.628L77.0472 12.6593L76.973 12.6917C76.8999 12.7252 76.8288 12.7597 76.7598 12.7952L76.7556 12.7983C76.7107 12.8202 76.6679 12.8443 76.625 12.8683L76.6177 12.8715C76.0576 13.1871 75.6228 13.5925 75.2926 14.0711C74.4211 15.4516 73.9926 18.3097 73.4576 19.9337H89.8393V21.797H43.7028C39.2437 21.797 35.6028 25.4368 35.6028 29.8959V26.7441C35.6028 22.6988 39.112 20.6422 42.9587 19.3893ZM70.1668 91.9354L70.8534 93.9492L71.1282 94.7549L74.0658 94.7695L70.1417 96.0455L71.68 96.5555L72.5756 99.354L70.8367 98.1293L70.1417 97.6392L67.756 99.354L68.6348 96.5074L66.2668 94.7695L68.3934 94.7382L69.2441 94.7267L70.1668 91.9354ZM107.104 91.9354L107.792 93.9492L108.066 94.7549L111.004 94.7695L107.079 96.0455L108.62 96.5555L109.515 99.354L107.775 98.1293L107.079 97.6392L104.694 99.354L105.573 96.5074L103.205 94.7695L105.333 94.7382L106.183 94.7267L107.104 91.9354ZM97.8692 91.9354L98.5558 93.9492L98.8306 94.7549L101.769 94.7695L97.8452 96.0455L99.3855 96.5555L100.279 99.354L98.5412 98.1293L97.8452 97.6392L95.4594 99.354L96.3382 96.5074L93.9692 94.7695L96.0968 94.7382L96.9485 94.7267L97.8692 91.9354ZM88.6364 91.9354L89.321 93.9492L89.5969 94.7549L92.5354 94.7695L88.6093 96.0455L90.1507 96.5555L91.0452 99.354L89.3063 98.1293L88.6093 97.6392L86.2256 99.354L87.1034 96.5074L84.7344 94.7695L86.8631 94.7382L87.7137 94.7267L88.6364 91.9354ZM79.4006 91.9354L80.0872 93.9492L80.362 94.7549L83.3006 94.7695L79.3755 96.0455L80.9169 96.5555L81.8104 99.354L80.0715 98.1293L79.3755 97.6392L76.9908 99.354L77.8696 96.5074L75.5006 94.7695L77.6282 94.7382L78.4789 94.7267L79.4006 91.9354ZM41.7548 84.9077L42.989 83.105C43.2618 83.4447 43.5554 83.7017 43.8669 83.8846C44.1793 84.0644 44.4897 84.1542 44.8021 84.1542C44.9401 84.1542 45.0488 84.1291 45.1313 84.079C45.2128 84.0288 45.2536 83.963 45.2536 83.8815C45.2536 83.7561 45.0749 83.6213 44.7175 83.476C44.6381 83.4457 44.5764 83.4196 44.5336 83.4008C43.9431 83.1563 43.5126 82.873 43.244 82.5501C42.9754 82.2293 42.8427 81.8406 42.8427 81.3849C42.8427 80.667 43.104 80.0808 43.6286 79.6252C44.1532 79.1727 44.8377 78.9459 45.6862 78.9459C46.1763 78.9459 46.6278 79.018 47.0406 79.1622C47.4523 79.3075 47.8316 79.5217 48.1765 79.8111L47.213 81.502C46.9329 81.2585 46.679 81.0746 46.4501 80.9565C46.2244 80.8373 46.0133 80.7778 45.8221 80.7778C45.7061 80.7778 45.6141 80.8049 45.543 80.8593C45.472 80.9147 45.4365 80.9889 45.4365 81.0777C45.4365 81.2324 45.6434 81.3975 46.0583 81.573C46.168 81.6201 46.2547 81.6587 46.3174 81.6859C46.8546 81.9283 47.2328 82.198 47.4565 82.4958C47.6801 82.7947 47.7909 83.1719 47.7909 83.6328C47.7909 84.3528 47.5119 84.9547 46.9507 85.4365C46.3895 85.9193 45.6831 86.1596 44.8293 86.1596C44.289 86.1596 43.7592 86.0541 43.2378 85.8419C42.7173 85.6298 42.222 85.3194 41.7548 84.9077ZM47.9173 85.9945L49.1891 79.1016H53.9157L53.5772 80.9711H51.3314L51.205 81.6337H53.318L52.9982 83.3809H50.8883L50.7514 84.125H53.2009L52.8571 85.9945H47.9173ZM53.8781 85.9945L55.1499 79.1016H57.8053C58.8001 79.1016 59.5546 79.2771 60.0709 79.6283C60.585 79.9804 60.8421 80.4956 60.8421 81.1728C60.8421 81.7475 60.6948 82.2241 60.398 82.6014C60.1012 82.9797 59.6822 83.2273 59.144 83.3423L60.1367 85.9945H57.5796L56.8313 83.4886L56.3653 85.9945H53.8781ZM57.0706 82.1562H57.2546C57.635 82.1562 57.915 82.0945 58.0927 81.9702C58.2714 81.8469 58.3612 81.6535 58.3612 81.3933C58.3612 81.1927 58.2912 81.0464 58.147 80.9534C58.0049 80.8614 57.7771 80.8144 57.4657 80.8144H57.3215L57.0706 82.1562ZM62.4358 85.9945L61.2664 79.1016H63.7629L64.0169 81.2585C64.0472 81.5448 64.0733 81.8176 64.089 82.0809C64.1068 82.3464 64.1161 82.6045 64.1193 82.8584C64.1883 82.6149 64.2687 82.3651 64.3607 82.1154C64.4506 81.8646 64.5551 81.6096 64.6711 81.3557L65.6931 79.1016H68.4331L64.6711 85.9945H62.4358ZM67.5616 85.9945L68.8376 79.1016H71.3707L70.0999 85.9945H67.5616ZM76.7912 83.4551L76.3251 85.9464C76.1119 86.0248 75.9008 86.0834 75.6918 86.122C75.4828 86.1586 75.2748 86.1774 75.0638 86.1774C74.6363 86.1774 74.2351 86.1105 73.8568 85.9736C73.4774 85.8367 73.1388 85.6382 72.8368 85.378C72.5045 85.0885 72.2464 84.7311 72.0614 84.3047C71.8785 83.8815 71.7866 83.4279 71.7866 82.9472C71.7866 82.4331 71.865 81.9524 72.0249 81.5041C72.1837 81.0579 72.4209 80.6503 72.7334 80.2877C73.1023 79.8498 73.5537 79.5164 74.0804 79.2845C74.6082 79.0525 75.1798 78.9365 75.7984 78.9365C76.1213 78.9365 76.4286 78.9689 76.7191 79.0357C77.0096 79.1016 77.2876 79.1988 77.554 79.3315L77.1256 81.6337C76.8884 81.4999 76.6564 81.3975 76.4317 81.3306C76.207 81.2627 75.9834 81.2292 75.7618 81.2292C75.325 81.2292 74.9676 81.3661 74.6896 81.6409C74.4117 81.9158 74.2727 82.268 74.2727 82.6985C74.2727 83.058 74.3824 83.3454 74.6008 83.5596C74.8182 83.7728 75.1098 83.8794 75.4787 83.8794C75.6793 83.8794 75.8945 83.8428 76.1265 83.7686C76.3564 83.6944 76.578 83.5899 76.7912 83.4551ZM77.5823 85.9945L78.853 79.1016H83.5807L83.241 80.9711H80.9953L80.8689 81.6337H82.9819L82.6621 83.3809H80.5522L80.4153 84.125H82.8648L82.521 85.9945H77.5823ZM90.9438 81.433C91.1445 81.3755 91.2971 81.2961 91.4037 81.1927C91.5082 81.0892 91.5604 80.968 91.5604 80.8259C91.5604 80.7214 91.5259 80.6357 91.4549 80.5646C91.3838 80.4935 91.2961 80.458 91.1905 80.458C91.063 80.458 90.9617 80.505 90.8812 80.5959C90.8007 80.6889 90.761 80.8112 90.761 80.9628C90.761 81.0432 90.7767 81.1247 90.808 81.2052C90.8394 81.2836 90.8843 81.3609 90.9438 81.433ZM90.4464 84.1542L89.7212 83.1981C89.5613 83.2608 89.4432 83.3297 89.3659 83.405C89.2886 83.4813 89.2499 83.5659 89.2499 83.6589C89.2499 83.8198 89.322 83.9536 89.4683 84.0602C89.6157 84.1668 89.7996 84.2201 90.0222 84.2201C90.0629 84.2201 90.1152 84.2148 90.1768 84.2054C90.2406 84.196 90.3304 84.1804 90.4464 84.1542ZM91.6681 85.6559C91.3054 85.8252 90.9585 85.9517 90.6272 86.0342C90.296 86.1178 89.972 86.1596 89.6553 86.1596C88.8852 86.1596 88.2488 85.9443 87.744 85.5117C87.2383 85.0812 86.9864 84.5472 86.9864 83.9149C86.9864 83.4144 87.1504 82.9911 87.4754 82.6411C87.8015 82.291 88.2885 82.0161 88.9395 81.8186C88.835 81.6378 88.7588 81.4623 88.7086 81.2961C88.6584 81.13 88.6333 80.9648 88.6333 80.807C88.6333 80.2605 88.8549 79.8153 89.2969 79.4715C89.74 79.1277 90.319 78.9553 91.0338 78.9553C91.7475 78.9553 92.3296 79.1424 92.7842 79.5165C93.2377 79.8895 93.4634 80.3608 93.4634 80.9335C93.4634 81.3421 93.3297 81.7005 93.059 82.0099C92.7894 82.3192 92.4069 82.5554 91.9105 82.7194L92.4518 83.3444C92.6337 83.2158 92.8145 83.0758 92.9932 82.9253C93.1719 82.7758 93.3547 82.6086 93.5397 82.4268L94.6788 83.8345C94.5001 84.0038 94.3172 84.1584 94.1312 84.3026C93.943 84.4448 93.7529 84.5723 93.5585 84.6809L94.6035 85.9945H91.9565L91.6681 85.6559ZM98.2162 85.9945L99.4869 79.1016H102.142C103.137 79.1016 103.893 79.2771 104.408 79.6283C104.923 79.9804 105.18 80.4956 105.18 81.1728C105.18 81.7475 105.032 82.2241 104.734 82.6014C104.439 82.9797 104.019 83.2273 103.481 83.3423L104.474 85.9945H101.918L101.168 83.4886L100.702 85.9945H98.2162ZM101.408 82.1562H101.593C101.972 82.1562 102.252 82.0945 102.43 81.9702C102.608 81.8469 102.698 81.6535 102.698 81.3933C102.698 81.1927 102.627 81.0464 102.485 80.9534C102.342 80.8614 102.115 80.8144 101.803 80.8144H101.659L101.408 82.1562ZM105.392 85.9945L106.664 79.1016H111.389L111.05 80.9711H108.805L108.678 81.6337H110.792L110.472 83.3809H108.362L108.225 84.125H110.674L110.331 85.9945H105.392ZM114.583 82.083H114.766C115.131 82.083 115.399 82.0266 115.573 81.9158C115.748 81.8051 115.835 81.6326 115.835 81.4048C115.835 81.2313 115.763 81.1059 115.618 81.0255C115.474 80.945 115.243 80.9042 114.922 80.9042H114.804L114.583 82.083ZM111.353 85.9945L112.624 79.1016H115.279C116.297 79.1016 117.058 79.2876 117.567 79.6596C118.073 80.0316 118.325 80.5918 118.325 81.339C118.325 82.1415 118.056 82.7664 117.515 83.2127C116.973 83.6578 116.209 83.8815 115.227 83.8815H114.245L113.858 85.9945H111.353ZM120.83 83.4478H121.71L121.682 82.708C121.679 82.6682 121.675 82.6097 121.673 82.5345C121.658 82.2262 121.65 81.9785 121.65 81.7904C121.65 81.665 121.65 81.5689 121.651 81.5009C121.653 81.433 121.656 81.3693 121.659 81.3097C121.602 81.4936 121.544 81.6734 121.485 81.8427C121.425 82.0151 121.369 82.1677 121.315 82.3035L120.83 83.4478ZM117.082 85.9945L120.679 79.1016H123.404L124.304 85.9945H121.852L121.803 85.077H120.147L119.771 85.9945H117.082ZM124.695 85.9945L125.971 79.1016H128.504L127.233 85.9945H124.695ZM128.552 85.9945L129.823 79.1016H132.478C133.473 79.1016 134.229 79.2771 134.745 79.6283C135.258 79.9804 135.516 80.4956 135.516 81.1728C135.516 81.7475 135.368 82.2241 135.071 82.6014C134.775 82.9797 134.355 83.2273 133.817 83.3423L134.811 85.9945H132.252L131.504 83.4886L131.038 85.9945H128.552ZM131.745 82.1562H131.928C132.308 82.1562 132.588 82.0945 132.765 81.9702C132.944 81.8469 133.034 81.6535 133.034 81.3933C133.034 81.1927 132.964 81.0464 132.821 80.9534C132.678 80.8614 132.451 80.8144 132.138 80.8144H131.994L131.745 82.1562ZM102.783 69.6139H106.692L106.464 60.1272L102.783 69.6139ZM4.47383 58.985H28.2522C27.9418 59.5597 27.6732 60.1596 27.4517 60.7824C27.4005 60.9277 27.3514 61.074 27.3054 61.2213H6.71018L12.5957 67.1069H26.7296C26.8268 67.9951 27.0138 68.8311 27.2939 69.6139H15.1038L18.6662 73.1774H29.5302H34.6467H44.4782L50.2049 62.2015H39.1475L38.184 67.4705H41.1947L40.7673 69.7393C40.5667 69.7717 40.366 69.7988 40.1654 69.8145C39.9658 69.8312 39.7704 69.8364 39.576 69.8364C38.184 69.8364 37.0638 69.4028 36.2236 68.5364C35.3844 67.6701 34.9622 66.5227 34.9622 65.0931C34.9622 63.3814 35.5224 61.6926 36.4535 60.6089C37.3856 59.5263 38.5874 58.985 40.0713 58.985H51.8832L53.7423 55.4215H0.911377L4.47383 58.985ZM140.168 73.1774L143.444 55.4215H176.359L172.796 58.985H151.165L150.738 61.2213H170.56L164.674 67.1069H149.671L149.211 69.6139H162.167L158.604 73.1774H140.168ZM58.1324 69.6139H62.0418L61.8129 60.1272L58.1324 69.6139ZM47.8191 73.1774L57.0832 55.4215H71.4929L70.8356 58.985H68.5157L70.3695 73.1774H47.8191ZM72.4752 66.4276L74.5057 55.4215H92.6963C93.6912 56.5219 94.1887 57.9358 94.1887 59.6674C94.1887 61.6006 93.6901 63.2079 92.688 64.4807C91.6921 65.7535 90.2792 66.5875 88.4651 66.9773L90.7871 73.1774H82.3789L80.6724 67.4705L79.6117 73.1774H73.3562L72.4752 66.4276ZM81.4791 62.9812H82.102C83.4657 62.9812 85.7303 62.7209 85.7303 60.9339C85.7303 60.2578 85.492 59.7625 85.0092 59.451C84.5285 59.1396 83.7635 58.985 82.7133 58.985H82.2263L81.4791 62.9812ZM118.563 73.1774C118.332 72.9412 118.115 72.6977 117.912 72.4459L116.415 60.9872C116.438 60.9183 116.461 60.8504 116.485 60.7824C117.021 59.2776 117.818 57.9128 118.873 56.6838C119.25 56.2293 119.654 55.8092 120.085 55.4215H140.431L139.774 58.985H129.01C127.526 58.985 126.323 59.5263 125.392 60.6089C124.461 61.6926 123.995 63.3814 123.995 65.0931C123.995 66.5227 124.418 67.6701 125.257 68.5364C126.096 69.4028 127.217 69.8364 128.608 69.8364C128.804 69.8364 128.998 69.8312 129.199 69.8145C129.4 69.7988 129.599 69.7717 129.8 69.7393L130.227 67.4705H127.218L128.181 62.2015H139.237L137.231 73.1774H118.563ZM97.1293 58.985H99.8756L93.3317 71.5252L93.9504 73.1774H115.02L112.701 55.4215H101.735H96.2327C96.7563 56.5041 97.053 57.7027 97.1293 58.985ZM50.5968 29.8959H54.7518C54.7518 31.0433 53.8217 31.9734 52.6742 31.9734C51.5268 31.9734 50.5968 31.0433 50.5968 29.8959ZM135.954 31.9734C134.806 31.9734 133.876 31.0433 133.876 29.8959H138.032C138.032 31.0433 137.102 31.9734 135.954 31.9734ZM126.982 31.9734C125.835 31.9734 124.904 31.0433 124.904 29.8959H129.06C129.06 31.0433 128.13 31.9734 126.982 31.9734ZM43.7017 31.9734C42.5543 31.9734 41.6242 31.0433 41.6242 29.8959H45.7803C45.7803 31.0433 44.8492 31.9734 43.7017 31.9734ZM89.8393 14.5111H80.2564C79.247 14.5111 78.2312 14.8016 77.4788 15.9929C77.2009 16.435 76.972 16.9606 76.7859 17.526H89.8393H102.893C102.707 16.9606 102.478 16.435 102.2 15.9929C101.447 14.8016 100.433 14.5111 99.4231 14.5111H89.8393ZM52.6742 26.6134C50.8622 26.6134 49.3918 28.0838 49.3918 29.8959C49.3918 31.7079 50.8622 33.1782 52.6742 33.1782C54.4863 33.1782 55.9567 31.7079 55.9567 29.8959C55.9567 28.0838 54.4863 26.6134 52.6742 26.6134ZM135.954 26.6134C134.142 26.6134 132.672 28.0838 132.672 29.8959C132.672 31.7079 134.142 33.1782 135.954 33.1782C137.766 33.1782 139.236 31.7079 139.236 29.8959C139.236 28.0838 137.766 26.6134 135.954 26.6134ZM126.982 26.6134C128.794 26.6134 130.265 28.0838 130.265 29.8959C130.265 31.7079 128.794 33.1782 126.982 33.1782C125.17 33.1782 123.7 31.7079 123.7 29.8959C123.7 28.0838 125.17 26.6134 126.982 26.6134ZM43.7017 26.6134C45.5138 26.6134 46.9841 28.0838 46.9841 29.8959C46.9841 31.7079 45.5138 33.1782 43.7017 33.1782C41.8897 33.1782 40.4193 31.7079 40.4193 29.8959C40.4193 28.0838 41.8897 26.6134 43.7017 26.6134ZM52.8153 42.7517C54.3849 42.7517 55.6578 44.0235 55.6578 45.5931C55.6578 47.1617 54.3849 48.4345 52.8153 48.4345C51.2457 48.4345 49.9739 47.1617 49.9739 45.5931C49.9739 44.0235 51.2457 42.7517 52.8153 42.7517ZM67.2742 29.0233H70.8868V45.2346L69.081 42.8269V31.431L67.2742 29.0233ZM135.977 35.586C139.107 35.586 141.667 33.0257 141.667 29.8959C141.667 26.766 139.107 24.2057 135.977 24.2057H89.8393H43.7028C40.5719 24.2057 38.0116 26.766 38.0116 29.8959C38.0116 33.0257 40.5719 35.586 43.7028 35.586H67.2742V37.9948H64.8665H48.4221H43.7028C39.2426 37.9948 35.6028 34.355 35.6028 29.8959V33.0487C35.6028 37.0939 38.9134 41.6074 42.9587 44.0151C42.9493 44.1572 42.9493 44.3098 42.9587 44.4728V52.4599H58.7479V50.0511H89.8393H120.931V52.4599H136.721V44.0224V44.0151C134.7 44.6933 133.428 44.9943 129.666 45.127C129.691 45.2785 129.705 45.4342 129.705 45.5931C129.705 47.1617 128.432 48.4345 126.863 48.4345C125.294 48.4345 124.022 47.1617 124.022 45.5931C124.022 45.4666 124.029 45.3412 124.046 45.219C121.613 45.2336 118.599 45.2346 114.801 45.2346C117.075 45.2284 117.887 42.0233 118.202 41.2364H112.404V45.2346L110.598 42.8269V31.431L108.792 29.0233H112.404V35.586H135.977ZM106.383 35.586V41.2364H89.8393V37.9948H75.7033H73.2956V35.586H75.7033H89.8393H103.975H106.383ZM89.8393 9.69462L94.6558 4.81645H102.629C104.72 4.86452 106.824 4.86452 108.909 5.04531C109.92 5.13309 111.053 5.27525 111.991 5.68176C113.374 6.28056 114.598 7.65685 115.542 8.79906C116.305 9.7239 117.025 10.6874 117.726 11.6624H105.47C103.864 10.1722 101.647 9.69462 99.4231 9.69462H89.8393Z" fill="#231F20"/>
</svg>
