<svg width="212" height="69" viewBox="0 0 212 69" fill="none" xmlns="http://www.w3.org/2000/svg">
<path fill-rule="evenodd" clip-rule="evenodd" d="M39.1064 23.7946L73.7057 21.2719V23.9503C73.7057 25.7686 72.2029 27.0269 70.3992 27.2557L39.1064 31.232L7.81342 27.2557L39.1064 33.0848V37.5899L70.7598 34.0431C70.9782 33.9929 71.206 33.9668 71.4401 33.9668C73.1163 33.9668 74.4748 35.3253 74.4748 37.0015C74.4748 38.6767 73.1163 40.0363 71.4401 40.0363C69.7639 40.0363 68.4053 38.6767 68.4053 37.0015C68.4053 36.6295 68.4733 36.2732 68.5955 35.9429L63.6212 36.501C63.87 38.6046 63.2022 39.8231 60.9929 40.2536L39.1064 42.8735L17.2197 40.2536L39.1064 44.7263V46.7693L15.5461 45.6135V46.6366C15.5461 47.8593 14.546 48.8594 13.3225 48.8594H4.42892C2.39114 48.8594 0.723601 47.1926 0.723601 45.1537V45.0346V28.9894L0.249685 24.152C0.0724502 22.3577 0.256582 20.5248 0.946503 18.8496C2.13114 15.9789 4.54565 14.1146 7.08264 13.0602C4.33424 14.3727 3.01324 16.7052 2.71969 19.7358L26.6673 21.297L23.5429 11.9619H12.7792C13.4658 10.688 14.2354 9.44337 15.0457 8.24996C15.9972 6.84859 19.053 2.68208 20.6912 2.19197C21.097 2.07074 21.5957 2.00597 22.0154 1.95163C22.7743 1.8534 23.5417 1.78546 24.3046 1.72799C26.3008 1.57646 28.3092 1.49078 30.3103 1.42285C32.6913 1.34134 36.7241 1.29119 39.1064 1.25671C41.4887 1.29119 45.5213 1.34134 47.9025 1.42285C49.9031 1.49078 51.9115 1.57646 53.908 1.72799C54.6714 1.78546 55.4384 1.8534 56.1973 1.95163C56.6173 2.00597 57.1162 2.07074 57.5219 2.19197C59.1596 2.68208 62.2155 6.84859 63.1667 8.24996C63.9776 9.44337 64.7467 10.688 65.4343 11.9619H54.6694C52.8454 11.9619 52.6711 10.3118 50.8468 10.3118H39.1064H27.3662L27.5283 20.4725H39.1064H50.6849L51.5453 21.297L39.1064 22.109V23.7946ZM96.7274 19.3909H92.8974V17.188C92.9183 17.0814 92.9288 16.932 92.9288 16.7345C92.9288 15.3477 92.5139 14.6549 91.681 14.6549C91.1261 14.6549 90.7217 14.8357 90.4594 15.2035C90.1992 15.5672 90.0706 16.143 90.0706 16.9372V33.0033C90.0706 33.5363 90.2096 33.9794 90.4866 34.342C90.7593 34.6994 91.1052 34.8812 91.5211 34.8812C91.9266 34.8812 92.2579 34.7317 92.5139 34.4329C92.7699 34.1392 92.8974 33.7662 92.8974 33.3178V29.3489H96.7274V32.6773C96.7274 33.4882 96.6104 34.2291 96.369 34.8969C96.1297 35.5636 95.7723 36.1342 95.2978 36.6191C94.8234 37.105 94.258 37.4728 93.6018 37.7289C92.9455 37.9849 92.2255 38.1124 91.4469 38.1124C90.4228 38.1124 89.5262 37.8783 88.7477 37.4039C87.9743 36.9284 87.3724 36.2512 86.945 35.3713C86.5186 34.4914 86.3044 33.4673 86.3044 32.299V17.5778C86.3044 16.2872 86.5186 15.1774 86.9398 14.2494C87.3609 13.3214 87.9691 12.6171 88.7633 12.1259C89.5638 11.6358 90.5127 11.3902 91.6173 11.3902C92.6205 11.3902 93.5108 11.6086 94.2894 12.0413C95.0679 12.4729 95.6709 13.0759 96.092 13.8596C96.5142 14.6382 96.7274 15.5557 96.7274 16.607V19.3909ZM103.837 20.1214L102.621 31.2372H105.07L103.901 20.1214H103.837ZM102.232 11.3589H105.555L109.555 37.894H105.821L105.464 34.4381H102.29L101.917 37.894H98.1361L102.232 11.3589ZM114.809 14.9527V22.41C115.817 22.3995 116.505 22.2929 116.873 22.0902C117.236 21.8874 117.418 21.5248 117.418 21.0013V16.3614C117.418 15.9026 117.268 15.5504 116.975 15.3111C116.676 15.0708 116.249 14.9527 115.7 14.9527H114.809ZM111.027 11.5929H116.249C117.87 11.5929 119.114 12.0726 119.973 13.0382C120.831 14.0038 121.262 15.3958 121.262 17.2204V19.5936C121.262 20.9062 121.049 21.8979 120.628 22.5698C120.207 23.2418 119.492 23.711 118.478 23.967V24.0318C119.161 24.2607 119.705 24.5491 120.116 24.9013C120.527 25.2482 120.82 25.7007 120.985 26.2504C121.152 26.8053 121.236 27.4982 121.236 28.331V37.894H117.391V27.5943C117.391 26.9923 117.215 26.5064 116.868 26.149C116.516 25.7916 116.057 25.6098 115.481 25.6098H114.809V37.894H111.027V11.5929ZM138.486 19.2634H134.672V16.0625C134.672 15.6142 134.571 15.2683 134.373 15.0227C134.176 14.7771 133.904 14.6549 133.562 14.6549C133.136 14.6549 132.832 14.8252 132.651 15.1721C132.464 15.5128 132.373 16.0677 132.373 16.8254C132.373 18.5058 132.763 19.9186 133.531 21.0608C133.883 21.6366 134.512 22.4204 135.409 23.4236C135.553 23.5783 135.792 23.8343 136.123 24.1865C136.646 24.8156 137.035 25.3329 137.296 25.7488C137.558 26.171 137.781 26.6611 137.968 27.2369C138.395 28.331 138.609 29.7386 138.609 31.4567V32.299C138.609 33.4673 138.406 34.4914 137.995 35.3765C137.579 36.2617 136.992 36.9347 136.225 37.3924C135.461 37.8522 134.545 38.081 133.466 38.081C131.893 38.081 130.694 37.6223 129.867 36.6995C129.039 35.7768 128.623 34.4433 128.623 32.7044V30.0794H132.438V33.5039C132.438 33.9104 132.534 34.2291 132.725 34.4643C132.917 34.6994 133.189 34.8164 133.531 34.8164C134.022 34.8164 134.357 34.6461 134.539 34.3096C134.72 33.9679 134.811 33.3544 134.811 32.4589V32.0053V31.4567V31.2696C134.801 30.6718 134.768 30.1702 134.71 29.7606C134.656 29.3489 134.565 28.9977 134.454 28.7041C134.309 28.2986 134.059 27.8503 133.701 27.355C133.349 26.8586 132.704 26.0748 131.766 25.0027C131.002 24.1165 130.4 23.2846 129.952 22.5009C129.503 21.7223 129.184 20.9219 128.981 20.1109C128.783 19.2948 128.687 18.3887 128.687 17.375C128.687 15.4491 129.099 13.9662 129.919 12.9369C130.747 11.9075 131.926 11.3902 133.466 11.3902C135.051 11.3902 136.282 11.8333 137.163 12.7132C138.043 13.5931 138.486 14.8252 138.486 16.4199V19.2634ZM140.155 11.6253H148.439V14.9527H143.985V22.8154H148.22V26.0801H143.985V34.6294H148.594V37.894H140.155V11.6253ZM154.141 14.9527V22.41C155.149 22.3995 155.837 22.2929 156.205 22.0902C156.567 21.8874 156.749 21.5248 156.749 21.0013V16.3614C156.749 15.9026 156.6 15.5504 156.306 15.3111C156.007 15.0708 155.581 14.9527 155.031 14.9527H154.141ZM150.359 11.5929H155.581C157.202 11.5929 158.445 12.0726 159.304 13.0382C160.163 14.0038 160.595 15.3958 160.595 17.2204V19.5936C160.595 20.9062 160.382 21.8979 159.959 22.5698C159.538 23.2418 158.823 23.711 157.811 23.967V24.0318C158.493 24.2607 159.037 24.5491 159.448 24.9013C159.858 25.2482 160.152 25.7007 160.317 26.2504C160.483 26.8053 160.568 27.4982 160.568 28.331V37.894H156.722V27.5943C156.722 26.9923 156.546 26.5064 156.199 26.149C155.847 25.7916 155.39 25.6098 154.813 25.6098H154.141V37.894H150.359V11.5929ZM161.394 11.5929H165.144L167.032 27.7542H167.097L168.974 11.5929H172.756L168.659 38.1124H165.331L161.394 11.5929ZM174.537 11.5929H178.351V37.894H174.537V11.5929ZM190.928 19.3909H187.098V17.188C187.119 17.0814 187.131 16.932 187.131 16.7345C187.131 15.3477 186.714 14.6549 185.882 14.6549C185.327 14.6549 184.923 14.8357 184.66 15.2035C184.4 15.5672 184.272 16.143 184.272 16.9372V33.0033C184.272 33.5363 184.411 33.9794 184.688 34.342C184.959 34.6994 185.306 34.8812 185.722 34.8812C186.128 34.8812 186.458 34.7317 186.714 34.4329C186.97 34.1392 187.098 33.7662 187.098 33.3178V29.3489H190.928V32.6773C190.928 33.4882 190.811 34.2291 190.571 34.8969C190.331 35.5636 189.973 36.1342 189.499 36.6191C189.024 37.105 188.459 37.4728 187.803 37.7289C187.147 37.9849 186.427 38.1124 185.648 38.1124C184.624 38.1124 183.727 37.8783 182.949 37.4039C182.175 36.9284 181.572 36.2512 181.146 35.3713C180.72 34.4914 180.505 33.4673 180.505 32.299V17.5778C180.505 16.2872 180.72 15.1774 181.141 14.2494C181.562 13.3214 182.17 12.6171 182.964 12.1259C183.765 11.6358 184.715 11.3902 185.818 11.3902C186.822 11.3902 187.712 11.6086 188.49 12.0413C189.27 12.4729 189.872 13.0759 190.293 13.8596C190.715 14.6382 190.928 15.5557 190.928 16.607V19.3909ZM192.726 11.6253H201.01V14.9527H196.556V22.8154H200.79V26.0801H196.556V34.6294H201.164V37.894H192.726V11.6253ZM57.9951 0.610867H211.911V48.8594H64.8899C63.6672 48.8594 62.6661 47.8593 62.6661 46.6366V45.6135L70.3804 45.2363C74.1822 45.0492 75.5574 43.1515 75.5574 40.1523V21.1152C75.5574 17.4148 74.2846 14.5692 71.1349 13.0622C70.3115 12.7184 69.4744 12.4603 68.6635 12.2806L69.3103 11.1311L72.2395 10.5866C72.9512 10.4539 73.5573 9.99409 73.5573 9.26885C73.5573 7.82568 72.0232 7.10146 70.5811 7.10146H68.6614C67.9361 7.10146 67.3436 7.69507 67.3436 8.41927L67.3426 12.0538C65.1094 7.61667 60.617 1.39568 57.9951 0.610867ZM42.4027 2.9517C44.218 2.97782 46.0341 3.01026 47.8462 3.07191C49.8264 3.13984 51.807 3.22236 53.7827 3.37389C54.5183 3.42928 55.2535 3.49305 55.9846 3.58815C56.3218 3.63204 56.7203 3.67486 57.0456 3.77205C57.639 3.98523 59.0331 5.57682 59.4544 6.07843C60.2794 7.05866 61.0811 8.11517 61.8017 9.1769C62.0559 9.55102 62.3049 9.9293 62.548 10.3118H54.6694C54.2938 10.3118 54.0877 10.0944 53.8088 9.86346C52.888 9.10269 52.0878 8.66067 50.8468 8.66067H39.1064L42.4027 2.9517ZM63.8762 22.8133L63.8752 22.9032C63.8752 25.0392 65.6068 26.7708 67.7428 26.7708C69.8788 26.7708 71.6104 25.0392 71.6104 22.9032C71.6104 22.6817 71.5926 22.4653 71.5561 22.2542L69.8966 22.3755C69.9384 22.5437 69.9603 22.7214 69.9603 22.9032C69.9603 24.128 68.9676 25.1207 67.7428 25.1207C66.518 25.1207 65.5253 24.128 65.5253 22.9032C65.5253 22.8322 65.5295 22.7621 65.5357 22.6932L63.8762 22.8133ZM14.3365 22.8133L14.3382 22.9032C14.3382 25.0392 12.6062 26.7708 10.4695 26.7708C8.33342 26.7708 6.60183 25.0392 6.60183 22.9032C6.60183 22.6817 6.62095 22.4653 6.65648 22.2542L8.31587 22.3755C8.27469 22.5437 8.25181 22.7214 8.25181 22.9032C8.25181 24.128 9.24499 25.1207 10.4695 25.1207C11.6946 25.1207 12.6878 24.128 12.6878 22.9032C12.6878 22.8322 12.6841 22.7621 12.6776 22.6932L14.3365 22.8133Z" fill="#231F20"/>
<path fill-rule="evenodd" clip-rule="evenodd" d="M0.723572 50.7122H211.911V68.7429H0.723572V50.7122Z" fill="#FAB20B"/>
<path d="M7.72963 62.8112V56.1179H12.5331V57.5078H9.43385V58.8945H12.1236V60.2813H9.43385V62.8112H7.72963ZM13.3507 56.1179H15.037V60.299C15.037 60.7588 15.1235 61.0859 15.2974 61.2824C15.4725 61.4778 15.7611 61.575 16.1628 61.575C16.56 61.575 16.8453 61.4778 17.0176 61.2824C17.1899 61.0859 17.2764 60.7588 17.2764 60.299V56.1179H18.9811V60.0942C18.9811 60.6533 18.9268 61.1006 18.8186 61.4339C18.7084 61.7673 18.528 62.0494 18.2773 62.2793C18.0132 62.5187 17.7062 62.6984 17.3573 62.8175C17.0066 62.9377 16.6127 62.9973 16.1718 62.9973C15.7334 62.9973 15.3395 62.9377 14.9884 62.8175C14.6398 62.6984 14.3324 62.5187 14.0687 62.2793C13.8144 62.0463 13.6311 61.7631 13.518 61.4277C13.4066 61.0922 13.3507 60.6481 13.3507 60.0942V56.1179ZM20.2935 62.8112V56.1179H22.0104V61.3608H25.2508V62.8112H20.2935ZM25.997 62.8112V56.1179H27.7139V61.3608H30.9543V62.8112H25.997ZM34.0832 60.5885H35.7291C35.7414 60.9699 35.8533 61.2573 36.0655 61.4496C36.2777 61.6419 36.5884 61.738 36.9979 61.738C37.3452 61.738 37.6151 61.6805 37.8061 61.5656C37.9971 61.4506 38.093 61.2886 38.093 61.0786C38.093 60.973 38.0694 60.879 38.0249 60.7954C37.9784 60.7128 37.9147 60.6491 37.8326 60.6073C37.7086 60.5404 37.4041 60.4349 36.9187 60.2938C36.4345 60.1517 36.0255 60.0137 35.6916 59.88C35.2111 59.6887 34.8449 59.4359 34.5952 59.1223C34.3453 58.8099 34.22 58.4431 34.22 58.0261C34.22 57.3865 34.4605 56.8787 34.9397 56.5014C35.4205 56.1242 36.0704 55.935 36.8925 55.935C37.6975 55.935 38.3364 56.1336 38.8095 56.5307C39.2826 56.9278 39.5186 57.4628 39.5186 58.139H37.9054C37.8698 57.8276 37.7596 57.5966 37.5763 57.4492C37.3917 57.2998 37.1281 57.2256 36.7823 57.2256C36.508 57.2256 36.2827 57.2831 36.1104 57.396C35.9385 57.5099 35.8516 57.6541 35.8516 57.8307C35.8516 58.1265 36.2627 58.4075 37.0831 58.6719C37.2322 58.72 37.3452 58.7555 37.4244 58.7796C37.4383 58.7858 37.4615 58.7942 37.491 58.8036C38.3397 59.0784 38.8703 59.3011 39.0826 59.4703C39.2982 59.647 39.4614 59.8528 39.5745 60.0911C39.686 60.3293 39.7423 60.5937 39.7423 60.8853C39.7423 61.5499 39.486 62.0703 38.9753 62.4403C38.4654 62.8113 37.7502 62.9973 36.8289 62.9973C35.9586 62.9973 35.2965 62.7998 34.8417 62.4006C34.3873 62.0014 34.1347 61.3984 34.0832 60.5885ZM40.7546 62.8112V56.1179H45.8409V57.4911H42.4675V58.673H45.5495V60.0137H42.4675V61.4433H45.9495V62.8112H40.7546ZM48.667 58.9844H49.9439C50.288 58.9844 50.5422 58.9217 50.7039 58.7942C50.8668 58.6667 50.9472 58.464 50.9472 58.186C50.9472 57.9394 50.8684 57.7575 50.7116 57.6384C50.5533 57.5182 50.3129 57.4587 49.9887 57.4587H48.667V58.9844ZM46.9623 62.8112V56.1179H50.1655C51.0142 56.1179 51.6391 56.2705 52.0408 56.5725C52.4425 56.8745 52.6425 57.3448 52.6425 57.9812C52.6425 58.3564 52.5572 58.6793 52.3853 58.9457C52.2147 59.2143 51.9494 59.439 51.5877 59.6208C51.8812 59.7337 52.089 59.8862 52.2098 60.0785C52.3311 60.2708 52.4008 60.6084 52.4192 61.0943C52.4286 61.2291 52.438 61.4141 52.4474 61.6429C52.4674 62.1832 52.5605 62.4946 52.7246 62.5803V62.8112H50.9289C50.842 62.5751 50.7909 62.2511 50.7782 61.8383C50.7672 61.4276 50.7549 61.1685 50.7423 61.0619C50.7146 60.8007 50.6276 60.6105 50.4786 60.4892C50.3317 60.368 50.1083 60.3085 49.812 60.3085H48.667V62.8112H46.9623ZM55.3289 62.8112L53.0291 56.1179H54.8469L55.7882 59.5581C55.8041 59.6156 55.8286 59.7096 55.8658 59.8392C55.9804 60.252 56.0678 60.5958 56.1294 60.8759C56.1621 60.739 56.2025 60.5791 56.2523 60.3941C56.3001 60.2081 56.3686 59.9667 56.4552 59.6678L57.4419 56.1179H59.2457L56.9333 62.8112H55.3289ZM59.845 62.8112V56.1179H61.5541V62.8112H59.845ZM68.8525 60.4662C68.7365 61.2698 68.4209 61.8916 67.9047 62.3337C67.3874 62.7757 66.7207 62.9973 65.9035 62.9973C64.9243 62.9973 64.1353 62.6786 63.5344 62.039C62.9346 61.3995 62.6347 60.5592 62.6347 59.5173C62.6347 58.4326 62.9409 57.5674 63.5501 56.9215C64.1614 56.2768 64.9786 55.9538 66.0028 55.9538C66.8137 55.9538 67.4773 56.1681 67.9914 56.5945C68.5045 57.0208 68.7971 57.6039 68.8713 58.3438H67.262C67.1826 58.023 67.0342 57.7816 66.8137 57.6196C66.5953 57.4566 66.3069 57.3761 65.9484 57.3761C65.4708 57.3761 65.0905 57.5652 64.8125 57.9435C64.5335 58.3229 64.3945 58.8402 64.3945 59.4986C64.3945 60.1527 64.5262 60.6617 64.7895 61.0232C65.0528 61.3848 65.4238 61.5656 65.9035 61.5656C66.288 61.5656 66.5963 61.4705 66.8283 61.2834C67.0603 61.0953 67.2045 60.8236 67.262 60.4662H68.8525ZM69.8474 62.8112V56.1179H74.9345V57.4911H71.5602V58.673H74.643V60.0137H71.5602V61.4433H75.0422V62.8112H69.8474ZM79.937 55.0739H81.027V64.3809H79.937V55.0739ZM85.8184 62.8112C85.8529 62.2929 85.9741 61.8404 86.1852 61.4506C86.3952 61.0619 86.7223 60.6888 87.1686 60.3346C87.3075 60.2259 87.5186 60.0754 87.8018 59.8842C88.0861 59.694 88.2909 59.5477 88.4184 59.4442C88.6337 59.2655 88.7936 59.0837 88.8991 58.9008C89.0067 58.7179 89.059 58.5287 89.059 58.3354C89.059 58.0543 88.989 57.8349 88.85 57.6802C88.71 57.5266 88.5145 57.4492 88.2606 57.4492C87.9743 57.4492 87.759 57.5506 87.6148 57.7513C87.4685 57.953 87.3964 58.2529 87.3964 58.6531L85.8863 58.6479C85.8926 57.9039 86.112 57.3092 86.5436 56.8672C86.9763 56.4251 87.55 56.2036 88.2679 56.2036C88.9827 56.2036 89.5617 56.3959 90.0037 56.7794C90.4457 57.1619 90.6673 57.6614 90.6673 58.2801C90.6673 58.627 90.5993 58.9394 90.4614 59.2237C90.3224 59.5079 90.0894 59.8026 89.7581 60.112C89.5888 60.2729 89.2962 60.4965 88.8824 60.7839C88.4665 61.0723 88.1728 61.3159 88.0004 61.5165H90.6129V62.8112H85.8184ZM94.049 60.3701V57.8401L92.4083 60.3701H94.049ZM94.0082 62.8112V61.5165H91.2629V60.2614L93.7584 56.3896H95.5904V60.3346H96.2811V61.5165H95.5904V62.8112H94.0082ZM97.1882 62.8112V56.1179H98.9104V58.4943H101.255V56.1179H102.978V62.8112H101.255V59.9897H98.9104V62.8112H97.1882ZM107.046 62.8112V56.1179H109.404L110.286 59.3752C110.366 59.6647 110.437 59.9437 110.501 60.2154C110.563 60.4861 110.62 60.7494 110.668 61.0076C110.725 60.7348 110.79 60.4495 110.863 60.1517C110.936 59.8518 111.02 59.532 111.113 59.1892L111.945 56.1179H114.299V62.8112H112.736V59.8434C112.736 59.6344 112.74 59.3418 112.751 58.9645C112.762 58.5873 112.777 58.1515 112.799 57.6583L111.513 62.8112H109.813L108.555 57.6583C108.577 58.2529 108.592 58.7858 108.605 59.2603C108.618 59.7337 108.623 60.1046 108.623 60.3711V62.8112H107.046ZM115.625 62.8112V56.1179H120.712V57.4911H117.338V58.673H120.42V60.0137H117.338V61.4433H120.82V62.8112H115.625ZM127.781 60.4662C127.666 61.2698 127.351 61.8916 126.834 62.3337C126.317 62.7757 125.65 62.9973 124.833 62.9973C123.854 62.9973 123.065 62.6786 122.464 62.039C121.864 61.3995 121.564 60.5592 121.564 59.5173C121.564 58.4326 121.87 57.5674 122.48 56.9215C123.091 56.2768 123.908 55.9538 124.932 55.9538C125.743 55.9538 126.407 56.1681 126.921 56.5945C127.434 57.0208 127.727 57.6039 127.8 58.3438H126.192C126.112 58.023 125.964 57.7816 125.743 57.6196C125.524 57.4566 125.236 57.3761 124.878 57.3761C124.4 57.3761 124.02 57.5652 123.742 57.9435C123.463 58.3229 123.324 58.8402 123.324 59.4986C123.324 60.1527 123.456 60.6617 123.719 61.0232C123.982 61.3848 124.353 61.5656 124.833 61.5656C125.218 61.5656 125.526 61.4705 125.758 61.2834C125.99 61.0953 126.134 60.8236 126.192 60.4662H127.781ZM128.777 62.8112V56.1179H130.499V58.4943H132.844V56.1179H134.566V62.8112H132.844V59.9897H130.499V62.8112H128.777ZM137.798 60.1977H139.262L138.516 57.8903L137.798 60.1977ZM137.639 56.1179H139.511L141.873 62.8112H140.034L139.624 61.5844H137.389L137.007 62.8112H135.23L137.639 56.1179ZM142.523 62.8112V56.1179H144.377L145.641 58.3177C145.847 58.674 146.043 59.0293 146.228 59.3804C146.413 59.7326 146.586 60.0785 146.75 60.4213C146.725 59.9155 146.708 59.44 146.696 58.998C146.683 58.556 146.678 58.1672 146.678 57.8307V56.1179H148.331V62.8112H146.482L145.168 60.5488C145.013 60.2813 144.846 59.9814 144.664 59.6511C144.482 59.3199 144.288 58.9614 144.088 58.5768C144.12 59.0126 144.144 59.4191 144.159 59.7943C144.174 60.1694 144.182 60.5028 144.182 60.7933V62.8112H142.523ZM149.694 62.8112V56.1179H151.404V62.8112H149.694ZM158.702 60.4662C158.587 61.2698 158.271 61.8916 157.754 62.3337C157.237 62.7757 156.57 62.9973 155.753 62.9973C154.774 62.9973 153.985 62.6786 153.385 62.039C152.784 61.3995 152.485 60.5592 152.485 59.5173C152.485 58.4326 152.79 57.5674 153.4 56.9215C154.011 56.2768 154.828 55.9538 155.852 55.9538C156.664 55.9538 157.328 56.1681 157.841 56.5945C158.354 57.0208 158.648 57.6039 158.721 58.3438H157.112C157.033 58.023 156.884 57.7816 156.664 57.6196C156.445 57.4566 156.156 57.3761 155.798 57.3761C155.32 57.3761 154.94 57.5652 154.663 57.9435C154.384 58.3229 154.244 58.8402 154.244 59.4986C154.244 60.1527 154.376 60.6617 154.639 61.0232C154.903 61.3848 155.273 61.5656 155.753 61.5656C156.138 61.5656 156.446 61.4705 156.678 61.2834C156.91 61.0953 157.055 60.8236 157.112 60.4662H158.702ZM163.906 59.4703C163.906 60.1527 164.044 60.6753 164.322 61.0379C164.599 61.4026 164.996 61.5844 165.515 61.5844C166.036 61.5844 166.436 61.4026 166.716 61.0379C166.997 60.6753 167.138 60.1527 167.138 59.4703C167.138 58.7921 166.997 58.2696 166.716 57.9049C166.436 57.5402 166.036 57.3573 165.515 57.3573C164.996 57.3573 164.599 57.5391 164.322 57.9038C164.044 58.2665 163.906 58.789 163.906 59.4703ZM162.165 59.4703C162.165 58.3825 162.466 57.5235 163.068 56.8923C163.669 56.2611 164.485 55.9444 165.515 55.9444C166.548 55.9444 167.368 56.2611 167.977 56.8933C168.583 57.5276 168.887 58.3856 168.887 59.4703C168.887 60.5561 168.583 61.4141 167.977 62.0484C167.368 62.6817 166.548 62.9973 165.515 62.9973C164.485 62.9973 163.669 62.6817 163.068 62.0494C162.466 61.4182 162.165 60.5593 162.165 59.4703ZM169.909 62.8112V56.1179H171.763L173.027 58.3177C173.233 58.674 173.429 59.0293 173.613 59.3804C173.797 59.7326 173.972 60.0785 174.136 60.4213C174.111 59.9155 174.094 59.44 174.082 58.998C174.069 58.556 174.063 58.1672 174.063 57.8307V56.1179H175.717V62.8112H173.867L172.554 60.5488C172.399 60.2813 172.231 59.9814 172.05 59.6511C171.867 59.3199 171.674 58.9614 171.472 58.5768C171.505 59.0126 171.53 59.4191 171.544 59.7943C171.559 60.1694 171.567 60.5028 171.567 60.7933V62.8112H169.909ZM181.508 61.4078H182.44C182.969 61.4078 183.357 61.251 183.604 60.9386C183.85 60.6272 183.975 60.1381 183.975 59.4714C183.975 58.8015 183.85 58.3114 183.604 58.001C183.357 57.6907 182.969 57.536 182.44 57.536H181.508V61.4078ZM179.785 62.8112V56.1179H182.643C183.633 56.1179 184.394 56.4063 184.923 56.9842C185.451 57.5611 185.716 58.3908 185.716 59.4714C185.716 60.5895 185.442 61.4266 184.894 61.9805C184.349 62.5333 183.523 62.8112 182.421 62.8112H179.785ZM186.711 56.1179H188.397V60.299C188.397 60.7588 188.484 61.0859 188.658 61.2824C188.833 61.4778 189.122 61.575 189.523 61.575C189.92 61.575 190.205 61.4778 190.378 61.2824C190.55 61.0859 190.637 60.7588 190.637 60.299V56.1179H192.341V60.0942C192.341 60.6533 192.287 61.1006 192.179 61.4339C192.069 61.7673 191.889 62.0494 191.638 62.2793C191.374 62.5187 191.066 62.6984 190.717 62.8175C190.367 62.9377 189.973 62.9973 189.532 62.9973C189.093 62.9973 188.699 62.9377 188.349 62.8175C188 62.6984 187.693 62.5187 187.429 62.2793C187.175 62.0463 186.992 61.7631 186.878 61.4277C186.767 61.0922 186.711 60.6481 186.711 60.0942V56.1179ZM194.954 62.8112V57.4775H193.036V56.1179H198.585V57.4775H196.668V62.8112H194.954ZM200.902 62.8112V60.2896L198.589 56.1179H200.511L201.743 58.8172L202.97 56.1179H204.906L202.57 60.2896V62.8112H200.902Z" fill="#231F20"/>
</svg>
