<svg width="216" height="50" viewBox="0 0 216 50" fill="none" xmlns="http://www.w3.org/2000/svg">
<path d="M191.087 33.1593L194.737 13.351C194.898 12.4324 194.973 11.4919 194.973 10.5378C194.973 6.59181 193.432 3.24252 190.137 0.987366C190.054 0.92989 189.969 0.872429 189.883 0.819134H215.607L213.798 10.6287H207.101L202.924 33.1593H191.087ZM85.7036 6.21873C86.2982 5.13296 87.0997 4.15274 88.1081 3.27806C90.5671 1.15041 93.7878 0.819134 97.761 0.819134H107.716L106.265 8.6829C103.956 8.6829 99.1843 8.6829 98.4026 8.6829C97.8592 8.6829 97.4213 8.81143 97.0901 9.0685C96.7567 9.32453 96.5916 9.67253 96.5916 10.0926C96.5916 10.8168 97.5645 11.5933 99.5103 12.4157C100.023 12.6341 100.429 12.8159 100.724 12.9434C103.242 14.0836 105.022 15.348 106.07 16.7431C107.118 18.1455 107.64 19.9179 107.64 22.0737C107.64 25.4607 106.325 28.2801 103.695 30.5415C101.063 32.804 97.7453 33.9358 93.7418 33.9358C93.5224 33.9358 93.304 33.9316 93.0845 33.9243C93.7355 25.9142 93.931 17.4861 90.7008 12.9528C90.2755 12.3551 89.7812 11.8096 89.2274 11.3289C90.635 11.3289 91.7824 10.1773 91.7824 8.7738C91.7824 7.36825 90.635 6.21873 89.2274 6.21873H85.7036ZM119.256 14.8067H120.114C121.826 14.8067 123.086 14.5433 123.901 14.0208C124.722 13.5025 125.128 12.6947 125.128 11.6246C125.128 10.8105 124.79 10.2211 124.111 9.84494C123.432 9.46769 122.347 9.2796 120.846 9.2796H120.289L119.256 14.8067ZM107.483 14.8213L110.064 0.819134H122.521C127.294 0.819134 130.867 1.69277 133.25 3.43482C135.625 5.18522 136.815 7.80821 136.815 11.3153C136.815 15.0847 135.55 18.018 133.007 20.107C130.468 22.195 126.886 23.2431 122.279 23.2431H117.664L115.855 33.1593H104.099C104.475 32.8907 104.842 32.6023 105.2 32.294C108.307 29.623 109.948 26.1786 109.948 22.0737C109.948 19.6566 109.384 17.3221 107.919 15.3595C107.781 15.1745 107.634 14.9948 107.483 14.8213ZM148.825 10.8032C146.986 10.8032 145.456 11.4584 144.234 12.7699C143.012 14.0731 142.401 15.7033 142.401 17.6491C142.401 19.3525 142.892 20.7184 143.872 21.7195C144.852 22.7311 146.156 23.2358 147.792 23.2358C149.602 23.2358 151.125 22.5639 152.362 21.2231C153.599 19.8897 154.216 18.2364 154.216 16.277C154.216 14.6782 153.711 13.3583 152.693 12.3405C151.676 11.3153 150.387 10.8032 148.825 10.8032ZM147.061 34.0183C144.731 34.0183 142.627 33.7017 140.743 33.0684C138.857 32.4351 137.183 31.4841 135.706 30.2186C134.144 28.8601 132.938 27.1943 132.071 25.2025C131.93 24.8754 131.801 24.5442 131.682 24.2087C132.778 23.6946 133.821 23.055 134.782 22.2639C138.162 19.4873 139.609 15.6406 139.609 11.3153C139.609 8.63064 139.008 6.13408 137.629 4.04091C138.803 3.10248 140.102 2.31767 141.526 1.68648C144.007 0.592342 146.685 0.0426674 149.557 0.0426674C154.421 0.0426674 158.357 1.44508 161.366 4.24887C164.373 7.05474 165.88 10.7039 165.88 15.1975C165.88 17.6105 165.504 19.8719 164.758 21.9912C164.005 24.1032 162.902 25.9957 161.441 27.6771C159.675 29.7578 157.573 31.3347 155.122 32.4048C152.678 33.4822 149.994 34.0183 147.061 34.0183ZM159.508 33.1593V33.1583C161.007 32.1352 162.359 30.9104 163.561 29.4976C165.247 27.5549 166.524 25.352 167.389 22.9275C168.268 20.4331 168.676 17.8351 168.676 15.1975C168.676 10.9495 167.482 7.1164 164.896 3.94477L165.474 0.819134H177.93C182.597 0.819134 186.14 1.64156 188.561 3.29268C190.972 4.94381 192.179 7.35572 192.179 10.5378C192.179 13.2308 191.487 15.4703 190.09 17.2416C188.704 19.0129 186.737 20.175 184.209 20.7184L188.87 33.1593H176.873L173.361 21.4039L171.172 33.1593H159.508ZM174.484 15.1526H175.35C177.129 15.1526 178.442 14.8589 179.278 14.2789C180.116 13.6979 180.538 12.7929 180.538 11.5713C180.538 10.6287 180.207 9.94108 179.535 9.50531C178.864 9.07581 177.801 8.85636 176.338 8.85636H175.661L174.484 15.1526Z" fill="#ED1C24"/>
<path fill-rule="evenodd" clip-rule="evenodd" d="M46.6722 33.867L40.2078 9.07077H53.1378L49.4896 24.6395L59.3264 10.7971C62.8293 10.7971 68.511 10.7971 70.715 10.7971C72.9179 10.7971 73.1729 10.2987 74.3109 9.83155L70.53 26.8403L87.6589 22.9799C90.1492 21.4323 88.3204 17.3504 84.968 17.3504H76.0007L82.02 9.02689L76.0728 9.26408L74.3109 9.83155C71.5709 6.31506 68.2446 3.28555 63.9056 1.93538C58.1068 0.136909 35.3944 0.136909 29.5966 1.93538C25.8314 3.1058 22.827 5.54697 20.3075 8.46989C22.2052 4.69528 25.8555 1.79639 29.8193 0.0428467C25.4417 1.22163 21.5688 3.79864 17.4306 9.26408L19.1914 9.83155L22.4069 24.2935L17.5006 17.3504L11.4677 9.04255C11.6213 7.55967 10.4321 6.21891 8.92723 6.21891H4.27272C2.86926 6.21891 1.7187 7.36843 1.7187 8.77398C1.7187 10.1774 2.86926 11.329 4.27272 11.329C3.722 11.8097 3.22563 12.3553 2.80031 12.953C-0.919958 18.177 -0.0943947 28.5677 0.73535 37.535C0.792826 38.1609 0.905675 38.7451 1.06243 39.2937V44.8522C1.06243 47.3048 3.06993 49.3113 5.52258 49.3113H13.6978C14.9246 49.3113 15.9278 48.3081 15.9278 47.0823V46.7938C18.7713 46.9861 21.759 47.0018 24.6516 47.0018H26.7511C19.9898 47.0018 18.5811 45.1228 17.4023 40.1674C17.0209 37.5642 16.4796 36.0051 16.8924 35.0907C17.0261 35.8755 17.2299 36.8327 17.4023 38C18.5811 42.9565 19.9898 44.8323 26.7511 44.8323H46.7517V43.2314H68.9196C72.9241 43.2314 73.3787 38.0481 74.0413 35.1387C74.198 34.4563 73.4686 33.867 72.7684 33.867H46.6722ZM77.5745 46.7938C86.8636 46.7938 89.9725 46.1438 92.4398 39.2937C92.4398 41.1455 92.4398 43.0004 92.4398 44.8522C92.4398 47.3048 90.4324 49.3113 87.9797 49.3113H79.8045C78.5777 49.3113 77.5745 48.3081 77.5745 47.0823V46.7938ZM91.5599 30.851L79.5704 35.1544C78.0489 35.864 77.3926 37.6719 78.1011 39.1913L83.6074 36.6237C84.3169 38.1442 83.6575 39.9521 82.1391 40.6606C80.9144 41.2312 79.5036 40.9156 78.631 39.9782C82.507 44.6934 90.4282 43.7277 91.0155 37.3719C91.1785 35.6184 91.4063 33.334 91.5599 30.851ZM15.4011 39.1913C14.6926 40.7118 12.8847 41.3702 11.3653 40.6596C9.84268 39.951 9.1864 38.1432 9.89597 36.6237L15.4011 39.1913Z" fill="#231F20"/>
<path fill-rule="evenodd" clip-rule="evenodd" d="M158.717 46.5336H161.764L161.587 39.138L158.717 46.5336ZM187.866 49.3113L190.42 35.4669H202.497L201.981 38.2466H196.439L196.105 39.9908H201.657L201.64 40.0775L200.808 44.5794H195.274L194.914 46.5336H200.446L199.929 49.3113H187.866ZM123.904 46.5336H126.953L126.774 39.138L123.904 46.5336ZM115.863 49.3113L123.087 35.4669H134.321L133.808 38.2466H132L133.444 49.3113H115.863ZM101.605 49.3113C100.106 47.7824 99.3589 45.8272 99.3589 43.4393C99.3589 42.0881 99.5658 40.8257 99.9828 39.648C100.401 38.4755 101.021 37.4096 101.845 36.4513C102.139 36.0991 102.455 35.771 102.792 35.4669H120.481L119.032 38.2466H109.822C108.666 38.2466 107.728 38.6699 107.002 39.5132C106.275 40.3586 105.838 41.6753 105.838 43.0088C105.838 44.1228 106.168 45.0173 106.823 45.6945C107.478 46.3696 108.35 46.7071 109.436 46.7071C109.589 46.7071 109.74 46.7019 109.897 46.6904C110.053 46.6768 110.209 46.6559 110.365 46.6319L110.699 44.8616H108.35L109.103 40.7547H117.723L113.258 49.3113H101.605ZM135.087 44.0496L136.669 35.4669H150.853C151.629 36.3259 152.016 37.4284 152.016 38.7785C152.016 40.2855 151.628 41.5405 150.846 42.5322C150.069 43.524 148.969 44.174 147.554 44.4781L149.363 49.3113H142.809L141.478 44.8616L140.651 49.3113H135.773L135.087 44.0496ZM142.108 41.3618H142.592C143.655 41.3618 145.42 41.1601 145.42 39.7671C145.42 39.2384 145.235 38.8538 144.859 38.6092C144.484 38.3678 143.887 38.2466 143.069 38.2466H142.689L142.108 41.3618ZM171.02 49.3113C170.839 49.1284 170.671 48.9382 170.512 48.7417L169.346 39.8079C169.365 39.7536 169.381 39.7003 169.4 39.648C169.818 38.4755 170.439 37.4096 171.262 36.4513C171.556 36.0991 171.871 35.771 172.206 35.4669H188.07L187.557 38.2466H179.165C178.008 38.2466 177.072 38.6699 176.344 39.5132C175.619 40.3586 175.256 41.6753 175.256 43.0088C175.256 44.1228 175.586 45.0173 176.24 45.6945C176.893 46.3696 177.767 46.7071 178.852 46.7071C179.005 46.7071 179.155 46.7019 179.312 46.6904C179.468 46.6768 179.626 46.6559 179.781 46.6319L180.115 44.8616H177.767L178.519 40.7547H187.139L185.576 49.3113H171.02ZM154.31 38.2466H156.449L151.348 48.0238L151.83 49.3113H168.258L166.45 35.4669H157.9H153.611C154.019 36.3123 154.25 37.2465 154.31 38.2466Z" fill="#231F20"/>
</svg>
