<svg width="221" height="55" viewBox="0 0 221 55" fill="none" xmlns="http://www.w3.org/2000/svg">
<path fill-rule="evenodd" clip-rule="evenodd" d="M6.47253 17.9875L15.3817 15.0855C24.9792 0.756195 25.1061 1.18781 36.4262 0.92342H47.7312V3.04374H59.0112C60.8923 3.08659 62.8239 3.09077 64.6967 3.25274C65.8345 3.35098 67.0126 3.52238 68.0681 3.9801C69.6471 4.66354 70.9074 6.01474 71.9838 7.31788C72.9462 8.48203 73.8387 9.72038 74.706 10.9556C75.2536 11.7341 75.7929 12.52 76.3279 13.3069H60.5334C60.2424 12.8857 59.8603 12.5294 59.3672 12.2524L59.3603 12.2493C59.3231 12.2274 59.2847 12.2075 59.2459 12.1876L59.2419 12.1845C59.181 12.1532 59.1185 12.1229 59.0545 12.0936L58.9892 12.0643L58.9271 12.0382L58.9226 12.0361L58.8553 12.009C58.7476 11.9661 58.6345 11.9254 58.5177 11.8888L58.4887 11.8794L58.423 11.8595L58.3172 11.8292L58.3034 11.8261L58.1874 11.7958L58.147 11.7853C58.0593 11.7644 57.9694 11.7435 57.8776 11.7268L57.8724 11.7247C57.7797 11.7069 57.685 11.6902 57.587 11.6756L57.5503 11.6693L57.4159 11.6516L57.4013 11.6495C57.2947 11.6348 57.1853 11.6244 57.0739 11.6139H57.071C57.0163 11.6087 56.9608 11.6045 56.9036 11.6004H56.8983C56.7837 11.592 56.6653 11.5857 56.5445 11.5816H56.5355C56.415 11.5774 56.2914 11.5753 56.1648 11.5753H47.7312H39.2972C39.171 11.5753 39.0469 11.5774 38.9265 11.5816H38.9171C38.7966 11.5857 38.6787 11.592 38.564 11.6004H38.5578C38.5015 11.6045 38.446 11.6087 38.3905 11.6139H38.388C38.2762 11.6244 38.1676 11.6348 38.0614 11.6495L38.046 11.6516L37.9117 11.6693L37.8745 11.6756C37.7774 11.6902 37.6822 11.7069 37.5896 11.7247L37.5843 11.7268C37.4924 11.7435 37.4022 11.7644 37.3153 11.7853L37.2744 11.7958L37.1581 11.8261L37.1446 11.8292L37.0393 11.8595L36.9736 11.8794L36.9442 11.8888C36.8279 11.9254 36.7152 11.9661 36.6063 12.009L36.5393 12.0361L36.5348 12.0382L36.4723 12.0643L36.4078 12.0936C36.3433 12.1229 36.2808 12.1532 36.22 12.1845L36.2159 12.1876C36.1772 12.2075 36.1388 12.2274 36.102 12.2493L36.0947 12.2524C35.602 12.5294 35.2199 12.8857 34.9285 13.3069C34.1627 14.5222 33.7847 17.0376 33.314 18.4672H47.7312V20.1068H7.12734C3.20361 20.1068 0 23.3098 0 27.2349V24.4604C0 20.901 3.08761 19.09 6.47253 17.9875ZM13.1949 27.2349H16.8521C16.8521 28.2443 16.0332 29.0626 15.0233 29.0626C14.0134 29.0626 13.1949 28.2443 13.1949 27.2349ZM88.3153 29.0626C87.3048 29.0626 86.4865 28.2443 86.4865 27.2349H90.143C90.143 28.2443 89.3248 29.0626 88.3153 29.0626ZM80.4181 29.0626C79.4086 29.0626 78.5904 28.2443 78.5904 27.2349H82.2469C82.2469 28.2443 81.4286 29.0626 80.4181 29.0626ZM7.12692 29.0626C6.11743 29.0626 5.29855 28.2443 5.29855 27.2349H8.9557C8.9557 28.2443 8.13724 29.0626 7.12692 29.0626ZM220.028 0.92342L209.431 27.6769L220.028 54.4304H77.1775C76.0311 54.4304 75.0937 53.492 75.0937 52.3456V44.972H47.7312H20.3693V52.3456C20.3693 53.492 19.4307 54.4304 18.2841 54.4304H9.9468C8.03682 54.4304 6.47253 52.8671 6.47253 50.9557V40.0635C6.46563 39.9203 6.46521 39.7855 6.47253 39.6601C2.91257 37.5408 0 33.5687 0 30.0083V27.2349C0 31.1589 3.20319 34.3619 7.12734 34.3619H11.2813H25.7535H27.8729V32.2426H7.12734C4.37267 32.2426 2.1194 29.9895 2.1194 27.2349C2.1194 24.4802 4.37267 22.2271 7.12734 22.2271H47.7312H88.3341C91.0888 22.2271 93.3429 24.4802 93.3429 27.2349C93.3429 29.9895 91.0888 32.2426 88.3341 32.2426H67.5895V26.4657H64.4106L65.9998 28.585V38.6141L67.5895 40.7334V37.2158H72.6923C72.4143 37.9066 71.6995 40.7281 69.6983 40.7334C73.0413 40.7334 75.6936 40.7323 77.8348 40.7198C77.8202 40.8274 77.8129 40.9371 77.8129 41.049C77.8129 42.4294 78.9331 43.5497 80.3136 43.5497C81.6951 43.5497 82.8154 42.4294 82.8154 41.049C82.8154 40.9089 82.8028 40.772 82.7809 40.6393C86.0915 40.5212 87.2107 40.2579 88.9893 39.6601C92.5497 37.5408 95.4622 33.5677 95.4622 30.0083V24.4604C95.4622 20.901 92.3742 19.09 88.9893 17.9875L80.0806 15.0855C70.4831 0.756195 70.3567 1.18781 59.0361 0.92342H220.028ZM47.7312 13.6946H39.2972C38.4085 13.6946 37.5149 13.9496 36.8532 14.9998C36.6082 15.3886 36.4074 15.8515 36.2437 16.3479H47.7312H59.2186C59.0545 15.8515 58.8541 15.3886 58.6087 14.9998C57.9466 13.9496 57.0535 13.6946 56.1648 13.6946H47.7312ZM22.4883 47.0923H72.9744V49.2116L51.9692 50.2712H43.4915L22.4883 49.2116V47.0923ZM15.0233 24.3464C13.4285 24.3464 12.1349 25.6402 12.1349 27.2349C12.1349 28.8296 13.4285 30.1233 15.0233 30.1233C16.6182 30.1233 17.9114 28.8296 17.9114 27.2349C17.9114 25.6402 16.6182 24.3464 15.0233 24.3464ZM88.3153 24.3464C86.7206 24.3464 85.4269 25.6402 85.4269 27.2349C85.4269 28.8296 86.7206 30.1233 88.3153 30.1233C89.91 30.1233 91.2037 28.8296 91.2037 27.2349C91.2037 25.6402 89.91 24.3464 88.3153 24.3464ZM80.4181 24.3464C82.0138 24.3464 83.3076 25.6402 83.3076 27.2349C83.3076 28.8296 82.0138 30.1233 80.4181 30.1233C78.8245 30.1233 77.5307 28.8296 77.5307 27.2349C77.5307 25.6402 78.8245 24.3464 80.4181 24.3464ZM7.12692 24.3464C8.72214 24.3464 10.0154 25.6402 10.0154 27.2349C10.0154 28.8296 8.72214 30.1233 7.12692 30.1233C5.53243 30.1233 4.2388 28.8296 4.2388 27.2349C4.2388 25.6402 5.53243 24.3464 7.12692 24.3464ZM15.1474 38.5482C16.5284 38.5482 17.6485 39.6674 17.6485 41.049C17.6485 42.4294 16.5284 43.5497 15.1474 43.5497C13.7669 43.5497 12.6471 42.4294 12.6471 41.049C12.6471 39.6674 13.7669 38.5482 15.1474 38.5482ZM27.8729 26.4657H31.0517V40.7334L29.4625 38.6141V28.585L27.8729 26.4657ZM62.2908 32.2426V37.2158H47.7312V34.3619H35.291H33.1715V32.2426H35.291H47.7312H60.171H62.2908ZM47.7312 9.45598L51.97 5.16199H58.9872C60.8278 5.20484 62.679 5.20486 64.5139 5.36475C65.4038 5.44208 66.4002 5.56747 67.2258 5.92486C68.4432 6.45259 69.5196 7.66273 70.3504 8.66803C71.0234 9.4821 71.6567 10.3296 72.2732 11.1876H61.4862C60.0746 9.87609 58.1221 9.45598 56.1648 9.45598H47.7312Z" fill="#231F20"/>
<path d="M117.774 20.8477L120.01 22.0965C119.508 24.0068 118.497 25.4865 116.965 26.5368C115.438 27.587 113.683 28.1106 111.698 28.1106C109.096 28.1106 107.009 27.2662 105.432 25.5796C103.858 23.8887 103.073 21.8008 103.073 19.3178C103.073 16.5882 103.862 14.4167 105.444 12.8063C107.025 11.1907 109.091 10.3808 111.634 10.3808C113.882 10.3808 115.775 10.9963 117.306 12.2242V10.6557H119.529V16.1754H117.306C116.813 15.0573 116.05 14.1889 115.021 13.5775C113.991 12.962 112.908 12.6537 111.77 12.6537C110.057 12.6537 108.652 13.2734 107.552 14.5097C106.452 15.7459 105.904 17.3061 105.904 19.1914C105.904 21.1267 106.49 22.7079 107.67 23.9347C108.847 25.1626 110.243 25.7781 111.859 25.7781C113.182 25.7781 114.389 25.3517 115.476 24.5001C116.564 23.6442 117.331 22.4299 117.774 20.8477ZM199.566 20.8477L201.8 22.0965C201.299 24.0068 200.287 25.4865 198.756 26.5368C197.229 27.587 195.475 28.1106 193.488 28.1106C190.887 28.1106 188.799 27.2662 187.222 25.5796C185.648 23.8887 184.865 21.8008 184.865 19.3178C184.865 16.5882 185.653 14.4167 187.235 12.8063C188.816 11.1907 190.883 10.3808 193.425 10.3808C195.673 10.3808 197.567 10.9963 199.097 12.2242V10.6557H201.319V16.1754H199.097C198.604 15.0573 197.841 14.1889 196.811 13.5775C195.783 12.962 194.698 12.6537 193.56 12.6537C191.847 12.6537 190.444 13.2734 189.342 14.5097C188.242 15.7459 187.694 17.3061 187.694 19.1914C187.694 21.1267 188.281 22.7079 189.461 23.9347C190.637 25.1626 192.033 25.7781 193.649 25.7781C194.973 25.7781 196.179 25.3517 197.267 24.5001C198.355 23.6442 199.123 22.4299 199.566 20.8477ZM180.402 25.6893V12.8063H178.539V10.6557H184.865V12.8063H182.996V25.6893H184.865V27.8399H178.539V25.6893H180.402ZM165.466 27.8399V21.5991H167.617V23.1217C168.645 24.9891 169.991 25.9255 171.657 25.9255C172.504 25.9255 173.221 25.6642 173.807 25.1448C174.389 24.6265 174.684 23.9483 174.684 23.1081C174.684 22.294 174.444 21.7046 173.967 21.3462C173.486 20.9878 172.584 20.6325 171.26 20.2792C169.72 19.8654 168.578 19.4777 167.84 19.1109C167.097 18.743 166.508 18.2205 166.065 17.5413C165.626 16.8631 165.403 16.0574 165.403 15.1252C165.403 13.6873 165.883 12.5356 166.845 11.6714C167.802 10.8124 169.009 10.3808 170.458 10.3808C171.833 10.3808 173.111 10.8281 174.288 11.7174V10.5668H176.388V15.7836H174.288V14.5818C173.406 13.2567 172.192 12.5952 170.645 12.5952C169.703 12.5952 168.982 12.8105 168.481 13.2442C167.979 13.6747 167.726 14.1941 167.726 14.7918C167.726 15.2558 167.853 15.6613 168.11 16.0114C168.367 16.3604 168.691 16.6175 169.084 16.7826C169.48 16.9477 170.26 17.1797 171.42 17.4744C172.938 17.8705 174.035 18.2373 174.717 18.579C175.401 18.9207 175.991 19.4944 176.485 20.2918C176.978 21.0881 177.228 22.0077 177.228 23.0454C177.228 24.5126 176.712 25.7227 175.676 26.681C174.642 27.633 173.364 28.1106 171.843 28.1106C170.277 28.1106 168.868 27.5494 167.617 26.4187V27.8399H165.466ZM123.901 25.6893V12.8063H121.68V10.6557H128.709V12.8063H126.596V25.6893H131.859V19.8445H134.279V25.6893H136.355L141.053 12.5952H138.961V10.6557H147.746V12.5952H145.612L150.415 25.6893H152.342V21.5991H154.493V23.1217C155.522 24.9891 156.868 25.9255 158.532 25.9255C159.381 25.9255 160.098 25.6642 160.683 25.1448C161.266 24.6265 161.561 23.9483 161.561 23.1081C161.561 22.294 161.32 21.7046 160.844 21.3462C160.363 20.9878 159.46 20.6325 158.136 20.2792C156.597 19.8654 155.455 19.4777 154.716 19.1109C153.974 18.743 153.383 18.2205 152.941 17.5413C152.502 16.8631 152.279 16.0574 152.279 15.1252C152.279 13.6873 152.76 12.5356 153.721 11.6714C154.678 10.8124 155.884 10.3808 157.335 10.3808C158.71 10.3808 159.987 10.8281 161.165 11.7174V10.5668H163.264V15.7836H161.165V14.5818C160.283 13.2567 159.068 12.5952 157.521 12.5952C156.58 12.5952 155.859 12.8105 155.357 13.2442C154.856 13.6747 154.602 14.1941 154.602 14.7918C154.602 15.2558 154.728 15.6613 154.986 16.0114C155.244 16.3604 155.568 16.6175 155.96 16.7826C156.356 16.9477 157.136 17.1797 158.297 17.4744C159.814 17.8705 160.911 18.2373 161.594 18.579C162.277 18.9207 162.868 19.4944 163.361 20.2918C163.854 21.0881 164.103 22.0077 164.103 23.0454C164.103 24.5126 163.589 25.7227 162.551 26.681C161.518 27.633 160.241 28.1106 158.718 28.1106C157.154 28.1106 155.745 27.5494 154.493 26.4187V27.8399H152.342H145.612V25.6893H147.746L146.463 21.7966H140.285L138.961 25.6893H141.053V27.8399H134.279H121.68V25.6893H123.901ZM145.817 19.7849L143.532 12.5952H143.301L140.926 19.7849H145.817Z" fill="white"/>
<path d="M114.304 36.706H120.34C120.348 36.9223 120.353 37.1136 120.353 37.2797C120.353 39.6101 119.59 41.4744 118.064 42.8758C116.536 44.2761 114.52 44.9731 112.015 44.9731C109.014 44.9731 106.779 44.1215 105.308 42.4149C103.838 40.7084 103.101 38.6884 103.101 36.3591C103.101 33.921 103.855 31.8916 105.358 30.276L105.436 30.1934H110.324C109.148 30.4348 108.175 31.0044 107.41 31.901C106.36 33.1216 105.834 34.6003 105.834 36.3235C105.834 38.3059 106.432 39.8745 107.63 41.0386C108.827 42.1997 110.269 42.7776 111.955 42.7776C113.275 42.7776 114.451 42.4118 115.486 41.674C116.52 40.9404 117.123 39.9769 117.298 38.7835H114.304V36.706ZM119.412 30.1934V33.571H117.298C116.903 32.6534 116.193 31.8393 115.18 31.1308C114.523 30.67 113.808 30.3575 113.03 30.1934H119.412ZM190.182 42.6354V30.1934H192.69V35.1301H198.854V37.2066H192.69V42.6354H199.775V39.6174H201.828V44.7119H188.035V42.6354H190.182ZM201.828 30.1934V33.1143H199.775V30.1934H201.828ZM180.814 36.706H186.849C186.859 36.9223 186.862 37.1136 186.862 37.2797C186.862 39.6101 186.101 41.4744 184.573 42.8758C183.046 44.2761 181.03 44.9731 178.526 44.9731C175.525 44.9731 173.289 44.1215 171.819 42.4149C170.348 40.7084 169.612 38.6884 169.612 36.3591C169.612 33.921 170.364 31.8916 171.868 30.276L171.945 30.1934H176.833C175.657 30.4348 174.685 31.0044 173.92 31.901C172.87 33.1216 172.344 34.6003 172.344 36.3235C172.344 38.3059 172.944 39.8745 174.14 41.0386C175.337 42.1997 176.778 42.7776 178.465 42.7776C179.785 42.7776 180.961 42.4118 181.996 41.674C183.03 40.9404 183.633 39.9769 183.808 38.7835H180.814V36.706ZM185.922 30.1934V33.571H183.808C183.413 32.6534 182.705 31.8393 181.69 31.1308C181.034 30.67 180.317 30.3575 179.539 30.1934H185.922ZM132.117 38.8765H126.151L124.872 42.6354H126.892V44.7119H120.353V42.6354H122.356L126.819 30.1934H128.996L126.77 36.9338H131.493L129.351 30.1934H131.369L135.933 42.6354H137.794H140.075V30.1934H142.579V34.8814H144.534C145.483 34.8814 146.178 34.8198 146.631 34.6985C147.079 34.5721 147.446 34.3234 147.735 33.9451C148.019 33.5657 148.162 33.062 148.162 32.4225C148.162 31.8843 148.015 31.4245 147.727 31.0535C147.437 30.6794 147.079 30.4422 146.651 30.3408C146.228 30.2436 145.576 30.1934 144.7 30.1934H150.187C150.562 30.8288 150.752 31.5823 150.752 32.459C150.752 34.6536 149.613 36.0341 147.328 36.5994L150.263 42.6354H152.169H152.291H154.172L158.637 30.1934H160.812L158.588 36.9338H163.311L161.169 30.1934H163.186L167.75 42.6354H169.612V44.7119H163.112V42.6354H165.172L163.934 38.8765H157.968L156.69 42.6354H158.71V44.7119H152.291H152.169H148.7L144.917 36.9589H142.579V42.6354H144.7V44.7119H137.794H131.294V42.6354H133.356L132.117 38.8765Z" fill="#FAB20B"/>
</svg>
