<svg width="288" height="30" viewBox="0 0 288 30" fill="none" xmlns="http://www.w3.org/2000/svg">
<path d="M71.0679 24H67.0597L73.5327 6.57909H77.0145L83.5234 24H79.5152L78.3785 20.5302H72.2046L71.0679 24ZM73.1977 17.4911H77.3735L75.2796 11.1616L73.1977 17.4911ZM91.3724 11.054H95.1533L90.822 24H87.3283L82.985 11.054H86.7898L89.0751 19.573L91.3724 11.054ZM103.337 15.3733C103.337 14.791 103.194 14.3284 102.907 13.9854C102.619 13.6424 102.161 13.4709 101.531 13.4709C100.98 13.4709 100.553 13.6025 100.25 13.8657C99.9473 14.1289 99.7957 14.4959 99.7957 14.9665H96.1823C96.1823 14.2007 96.4096 13.5068 96.8643 12.8846C97.319 12.2544 97.9611 11.7519 98.7907 11.377C99.6202 11.0021 100.597 10.8147 101.722 10.8147C102.727 10.8147 103.624 10.9862 104.414 11.3292C105.204 11.6642 105.826 12.1707 106.281 12.8487C106.735 13.5267 106.963 14.3762 106.963 15.3972V20.8054C106.963 21.5711 107.007 22.1773 107.094 22.624C107.19 23.0707 107.322 23.4616 107.489 23.7966V24H103.852C103.708 23.6969 103.593 23.318 103.505 22.8633C103.17 23.2462 102.739 23.5733 102.213 23.8445C101.694 24.1077 101.052 24.2393 100.286 24.2393C99.4647 24.2393 98.7189 24.0758 98.0488 23.7487C97.3868 23.4137 96.8603 22.9551 96.4695 22.3728C96.0786 21.7825 95.8832 21.1085 95.8832 20.3507C95.8832 18.9947 96.3857 17.9458 97.3908 17.2039C98.3958 16.4541 99.8914 16.0792 101.878 16.0792H103.337V15.3733ZM101.088 21.4993C101.646 21.4993 102.117 21.3797 102.5 21.1404C102.891 20.8931 103.17 20.6219 103.337 20.3268V18.1611H101.985C101.108 18.1611 100.474 18.3526 100.083 18.7354C99.692 19.1103 99.4966 19.565 99.4966 20.0994C99.4966 20.5062 99.6402 20.8413 99.9273 21.1045C100.214 21.3677 100.601 21.4993 101.088 21.4993ZM109.009 17.4313C109.009 16.1151 109.204 14.9625 109.595 13.9734C109.994 12.9763 110.568 12.2026 111.318 11.6522C112.076 11.0938 112.997 10.8147 114.082 10.8147C114.728 10.8147 115.302 10.9343 115.805 11.1736C116.307 11.4129 116.75 11.7519 117.133 12.1906V5.62189H120.77V24H117.504L117.324 22.636C116.933 23.1385 116.467 23.5334 115.924 23.8205C115.382 24.0997 114.76 24.2393 114.058 24.2393C112.989 24.2393 112.076 23.9561 111.318 23.3898C110.568 22.8155 109.994 22.0338 109.595 21.0447C109.204 20.0556 109.009 18.9349 109.009 17.6825V17.4313ZM112.622 17.6825C112.622 18.6956 112.794 19.553 113.137 20.255C113.488 20.9569 114.102 21.3079 114.979 21.3079C115.506 21.3079 115.944 21.1962 116.295 20.9729C116.654 20.7495 116.933 20.4384 117.133 20.0396V15.0024C116.718 14.1648 116.008 13.7461 115.003 13.7461C114.134 13.7461 113.519 14.101 113.161 14.8109C112.802 15.5129 112.622 16.3863 112.622 17.4313V17.6825ZM130.306 15.3733C130.306 14.791 130.163 14.3284 129.875 13.9854C129.588 13.6424 129.13 13.4709 128.5 13.4709C127.949 13.4709 127.522 13.6025 127.219 13.8657C126.916 14.1289 126.765 14.4959 126.765 14.9665H123.151C123.151 14.2007 123.379 13.5068 123.833 12.8846C124.288 12.2544 124.93 11.7519 125.76 11.377C126.589 11.0021 127.566 10.8147 128.691 10.8147C129.696 10.8147 130.593 10.9862 131.383 11.3292C132.173 11.6642 132.795 12.1707 133.25 12.8487C133.704 13.5267 133.932 14.3762 133.932 15.3972V20.8054C133.932 21.5711 133.975 22.1773 134.063 22.624C134.159 23.0707 134.291 23.4616 134.458 23.7966V24H130.821C130.677 23.6969 130.561 23.318 130.474 22.8633C130.139 23.2462 129.708 23.5733 129.182 23.8445C128.663 24.1077 128.021 24.2393 127.255 24.2393C126.434 24.2393 125.688 24.0758 125.018 23.7487C124.356 23.4137 123.829 22.9551 123.438 22.3728C123.048 21.7825 122.852 21.1085 122.852 20.3507C122.852 18.9947 123.355 17.9458 124.36 17.2039C125.365 16.4541 126.86 16.0792 128.847 16.0792H130.306V15.3733ZM128.057 21.4993C128.615 21.4993 129.086 21.3797 129.469 21.1404C129.86 20.8931 130.139 20.6219 130.306 20.3268V18.1611H128.954C128.077 18.1611 127.443 18.3526 127.052 18.7354C126.661 19.1103 126.465 19.565 126.465 20.0994C126.465 20.5062 126.609 20.8413 126.896 21.1045C127.183 21.3677 127.57 21.4993 128.057 21.4993ZM154.092 6.57909H156.617L150.168 24H148.11L141.673 6.57909H144.197L149.127 20.937L154.092 6.57909ZM158.651 7.60807C158.651 7.2571 158.759 6.95798 158.974 6.7107C159.198 6.46343 159.525 6.33979 159.955 6.33979C160.386 6.33979 160.713 6.46343 160.936 6.7107C161.168 6.95798 161.283 7.2571 161.283 7.60807C161.283 7.95106 161.168 8.2462 160.936 8.49347C160.713 8.73277 160.386 8.85242 159.955 8.85242C159.525 8.85242 159.198 8.73277 158.974 8.49347C158.759 8.2462 158.651 7.95106 158.651 7.60807ZM161.056 24H158.819V11.054H161.056V24ZM164.047 17.4193C164.047 16.1032 164.259 14.9505 164.681 13.9614C165.112 12.9644 165.71 12.1906 166.476 11.6402C167.242 11.0899 168.139 10.8147 169.168 10.8147C169.95 10.8147 170.636 10.9463 171.226 11.2095C171.816 11.4727 172.323 11.8476 172.746 12.3342V5.62189H174.983V24H172.937L172.83 22.624C172.407 23.1425 171.888 23.5413 171.274 23.8205C170.668 24.0997 169.958 24.2393 169.144 24.2393C168.131 24.2393 167.242 23.9561 166.476 23.3898C165.71 22.8155 165.112 22.0338 164.681 21.0447C164.259 20.0556 164.047 18.9309 164.047 17.6706V17.4193ZM166.285 17.6706C166.285 18.532 166.4 19.3217 166.632 20.0396C166.871 20.7495 167.242 21.3159 167.744 21.7386C168.247 22.1614 168.897 22.3728 169.695 22.3728C170.468 22.3728 171.095 22.1973 171.573 21.8463C172.06 21.4953 172.451 21.0487 172.746 20.5062V14.4879C172.459 13.9614 172.072 13.5267 171.585 13.1837C171.099 12.8407 170.476 12.6692 169.719 12.6692C168.913 12.6692 168.255 12.8846 167.744 13.3153C167.242 13.7461 166.871 14.3244 166.632 15.0502C166.4 15.7681 166.285 16.5578 166.285 17.4193V17.6706ZM183.801 24.2393C182.597 24.2393 181.548 23.9721 180.655 23.4376C179.769 22.8952 179.079 22.1534 178.585 21.2122C178.098 20.2709 177.855 19.1941 177.855 17.9816V17.4672C177.855 16.0633 178.122 14.8668 178.656 13.8777C179.199 12.8806 179.901 12.1228 180.762 11.6044C181.632 11.0779 182.549 10.8147 183.514 10.8147C184.759 10.8147 185.772 11.0938 186.553 11.6522C187.343 12.2026 187.921 12.9564 188.288 13.9136C188.663 14.8628 188.851 15.9396 188.851 17.1441V18.1372H180.092C180.116 18.9349 180.28 19.6607 180.583 20.3148C180.894 20.9609 181.333 21.4794 181.899 21.8702C182.465 22.2531 183.139 22.4446 183.921 22.4446C184.703 22.4446 185.365 22.285 185.907 21.966C186.45 21.6469 186.924 21.2202 187.331 20.6857L188.683 21.7386C188.268 22.3768 187.67 22.9551 186.888 23.4735C186.115 23.984 185.086 24.2393 183.801 24.2393ZM183.514 12.6094C182.637 12.6094 181.895 12.9325 181.289 13.5786C180.69 14.2247 180.316 15.146 180.164 16.3425H186.613V16.1749C186.581 15.6006 186.466 15.0423 186.266 14.4999C186.067 13.9495 185.748 13.4988 185.309 13.1478C184.87 12.7889 184.272 12.6094 183.514 12.6094ZM190.861 17.3954C190.861 16.143 191.1 15.0223 191.579 14.0332C192.057 13.0441 192.735 12.2624 193.613 11.6881C194.49 11.1058 195.531 10.8147 196.735 10.8147C197.956 10.8147 199.009 11.1058 199.894 11.6881C200.78 12.2624 201.458 13.0441 201.928 14.0332C202.407 15.0223 202.646 16.143 202.646 17.3954V17.6706C202.646 18.9149 202.407 20.0356 201.928 21.0327C201.458 22.0218 200.78 22.8035 199.894 23.3778C199.017 23.9521 197.972 24.2393 196.759 24.2393C195.547 24.2393 194.498 23.9521 193.613 23.3778C192.735 22.8035 192.057 22.0218 191.579 21.0327C191.1 20.0356 190.861 18.9149 190.861 17.6706V17.3954ZM193.098 17.6706C193.098 18.5241 193.234 19.3137 193.505 20.0396C193.776 20.7655 194.179 21.3478 194.713 21.7865C195.256 22.2252 195.938 22.4446 196.759 22.4446C197.573 22.4446 198.247 22.2252 198.781 21.7865C199.324 21.3478 199.731 20.7655 200.002 20.0396C200.273 19.3137 200.409 18.5241 200.409 17.6706V17.3954C200.409 16.5419 200.273 15.7522 200.002 15.0263C199.731 14.3004 199.324 13.7182 198.781 13.2794C198.239 12.8327 197.557 12.6094 196.735 12.6094C195.93 12.6094 195.256 12.8327 194.713 13.2794C194.171 13.7182 193.764 14.3004 193.493 15.0263C193.23 15.7522 193.098 16.5419 193.098 17.3954V17.6706ZM204.907 17.4193C204.907 16.1032 205.115 14.9505 205.53 13.9614C205.944 12.9644 206.535 12.1906 207.3 11.6402C208.066 11.0899 208.976 10.8147 210.028 10.8147C210.842 10.8147 211.552 10.9582 212.158 11.2454C212.772 11.5326 213.295 11.9394 213.726 12.4658L213.821 11.054H215.855V23.7248C215.855 24.8655 215.62 25.8386 215.149 26.6442C214.687 27.4499 214.041 28.0601 213.211 28.4749C212.39 28.8976 211.44 29.109 210.363 29.109C209.917 29.109 209.39 29.0372 208.784 28.8936C208.186 28.758 207.596 28.5227 207.013 28.1877C206.439 27.8607 205.956 27.418 205.566 26.8596L206.726 25.5554C207.269 26.2095 207.835 26.6642 208.425 26.9194C209.023 27.1827 209.614 27.3143 210.196 27.3143C211.241 27.3143 212.07 27.0152 212.685 26.4169C213.307 25.8266 213.618 24.9652 213.618 23.8325V22.7198C213.195 23.2063 212.685 23.5812 212.086 23.8445C211.488 24.1077 210.794 24.2393 210.005 24.2393C208.968 24.2393 208.066 23.9561 207.3 23.3898C206.543 22.8155 205.952 22.0338 205.53 21.0447C205.115 20.0556 204.907 18.9309 204.907 17.6706V17.4193ZM207.145 17.6706C207.145 18.532 207.261 19.3177 207.492 20.0276C207.731 20.7376 208.102 21.3079 208.605 21.7386C209.107 22.1614 209.757 22.3728 210.555 22.3728C211.337 22.3728 211.971 22.1933 212.457 21.8344C212.944 21.4754 213.331 21.0207 213.618 20.4704V14.5238C213.339 13.9973 212.952 13.5586 212.457 13.2076C211.963 12.8487 211.337 12.6692 210.579 12.6692C209.773 12.6692 209.115 12.8846 208.605 13.3153C208.102 13.7461 207.731 14.3244 207.492 15.0502C207.261 15.7681 207.145 16.5578 207.145 17.4193V17.6706ZM221.431 24H219.194V11.054H221.371L221.419 12.5256C221.746 11.9992 222.161 11.5844 222.663 11.2813C223.174 10.9702 223.78 10.8147 224.482 10.8147C224.634 10.8147 224.813 10.8346 225.02 10.8745C225.236 10.9064 225.383 10.9423 225.463 10.9822V13.0282C225.12 12.9644 224.757 12.9325 224.374 12.9325C223.625 12.9325 223.006 13.104 222.52 13.4469C222.033 13.782 221.67 14.2366 221.431 14.8109V24ZM234.748 15.122C234.748 14.3483 234.517 13.7341 234.054 13.2794C233.599 12.8168 232.925 12.5855 232.032 12.5855C231.202 12.5855 230.532 12.7929 230.022 13.2076C229.511 13.6224 229.256 14.101 229.256 14.6434H227.019C227.019 14.0213 227.23 13.419 227.653 12.8367C228.076 12.2465 228.67 11.7639 229.436 11.389C230.209 11.0061 231.119 10.8147 232.164 10.8147C233.575 10.8147 234.732 11.1736 235.633 11.8915C236.535 12.6094 236.985 13.6942 236.985 15.146V21.1763C236.985 21.607 237.021 22.0657 237.093 22.5522C237.173 23.0388 237.289 23.4576 237.44 23.8086V24H235.107C235.035 23.8405 234.971 23.6411 234.915 23.4018C234.868 23.1625 234.828 22.9112 234.796 22.648C234.381 23.0867 233.863 23.4616 233.24 23.7727C232.626 24.0838 231.92 24.2393 231.123 24.2393C230.245 24.2393 229.475 24.0718 228.813 23.7368C228.159 23.3938 227.649 22.9311 227.282 22.3488C226.923 21.7665 226.743 21.1204 226.743 20.4105C226.743 19.0146 227.27 17.9577 228.323 17.2398C229.376 16.514 230.792 16.151 232.57 16.151H234.748V15.122ZM231.446 22.3249C232.243 22.3249 232.933 22.1255 233.516 21.7267C234.098 21.3199 234.509 20.8692 234.748 20.3746V17.7065H232.929C231.669 17.7065 230.696 17.9059 230.01 18.3047C229.324 18.7035 228.981 19.3018 228.981 20.0994C228.981 20.7216 229.188 21.2481 229.603 21.6788C230.026 22.1095 230.64 22.3249 231.446 22.3249ZM242.705 28.9774H240.467V11.054H242.501L242.621 12.4658C243.06 11.9314 243.59 11.5246 244.212 11.2454C244.834 10.9582 245.552 10.8147 246.366 10.8147C247.451 10.8147 248.368 11.0899 249.118 11.6402C249.868 12.1906 250.438 12.9644 250.829 13.9614C251.22 14.9505 251.415 16.1032 251.415 17.4193V17.6706C251.415 18.9309 251.22 20.0556 250.829 21.0447C250.438 22.0338 249.868 22.8155 249.118 23.3898C248.376 23.9561 247.471 24.2393 246.402 24.2393C245.604 24.2393 244.898 24.1117 244.284 23.8564C243.67 23.6012 243.143 23.2342 242.705 22.7556V28.9774ZM249.178 17.4193C249.178 16.5578 249.054 15.7681 248.807 15.0502C248.567 14.3244 248.189 13.7461 247.67 13.3153C247.16 12.8846 246.501 12.6692 245.696 12.6692C244.954 12.6692 244.34 12.8407 243.853 13.1837C243.375 13.5187 242.992 13.9415 242.705 14.452V20.6857C242.992 21.1962 243.375 21.619 243.853 21.954C244.34 22.281 244.962 22.4446 245.72 22.4446C246.517 22.4446 247.172 22.2252 247.682 21.7865C248.193 21.3478 248.567 20.7695 248.807 20.0516C249.054 19.3257 249.178 18.532 249.178 17.6706V17.4193ZM256.464 24H254.227V5.62189H256.464V12.5855C256.927 12.0351 257.477 11.6044 258.115 11.2933C258.762 10.9742 259.479 10.8147 260.269 10.8147C261.545 10.8147 262.554 11.1776 263.296 11.9035C264.046 12.6214 264.421 13.8258 264.421 15.5169V24H262.183V15.4929C262.183 14.4719 261.964 13.7461 261.525 13.3153C261.087 12.8846 260.449 12.6692 259.611 12.6692C258.901 12.6692 258.275 12.8607 257.733 13.2435C257.198 13.6264 256.775 14.125 256.464 14.7392V24ZM273.107 24.2393C271.903 24.2393 270.854 23.9721 269.961 23.4376C269.075 22.8952 268.385 22.1534 267.891 21.2122C267.404 20.2709 267.161 19.1941 267.161 17.9816V17.4672C267.161 16.0633 267.428 14.8668 267.963 13.8777C268.505 12.8806 269.207 12.1228 270.068 11.6044C270.938 11.0779 271.855 10.8147 272.82 10.8147C274.065 10.8147 275.078 11.0938 275.859 11.6522C276.649 12.2026 277.227 12.9564 277.594 13.9136C277.969 14.8628 278.157 15.9396 278.157 17.1441V18.1372H269.398C269.422 18.9349 269.586 19.6607 269.889 20.3148C270.2 20.9609 270.639 21.4794 271.205 21.8702C271.771 22.2531 272.445 22.4446 273.227 22.4446C274.009 22.4446 274.671 22.285 275.213 21.966C275.756 21.6469 276.23 21.2202 276.637 20.6857L277.989 21.7386C277.574 22.3768 276.976 22.9551 276.194 23.4735C275.421 23.984 274.392 24.2393 273.107 24.2393ZM272.82 12.6094C271.943 12.6094 271.201 12.9325 270.595 13.5786C269.997 14.2247 269.622 15.146 269.47 16.3425H275.919V16.1749C275.887 15.6006 275.772 15.0423 275.572 14.4999C275.373 13.9495 275.054 13.4988 274.615 13.1478C274.176 12.7889 273.578 12.6094 272.82 12.6094ZM282.979 24H280.741V11.054H282.919L282.967 12.5256C283.294 11.9992 283.708 11.5844 284.211 11.2813C284.721 10.9702 285.328 10.8147 286.03 10.8147C286.181 10.8147 286.361 10.8346 286.568 10.8745C286.783 10.9064 286.931 10.9423 287.011 10.9822V13.0282C286.668 12.9644 286.305 12.9325 285.922 12.9325C285.172 12.9325 284.554 13.104 284.067 13.4469C283.581 13.782 283.218 14.2366 282.979 14.8109V24Z" fill="white"/>
<path d="M35.0339 3.81187C35.2642 3.505 35.7009 3.44166 35.9963 3.68652C38.6932 5.92202 40.4884 9.07179 41.0293 12.5489C41.606 16.2553 40.712 20.0403 38.5378 23.097C36.3637 26.1537 33.0815 28.2402 29.3911 28.9115C25.7006 29.5829 21.8939 28.7861 18.7826 26.6909C15.6712 24.5958 13.5014 21.3681 12.7358 17.696C11.9702 14.024 12.6693 10.1981 14.6841 7.03413C16.6989 3.87016 19.87 1.61844 23.5213 0.759053C26.9466 -0.0471508 30.5402 0.431832 33.6257 2.09022C33.9637 2.27186 34.0692 2.70032 33.8715 3.02913V3.02913C33.6737 3.35794 33.2476 3.46239 32.9087 3.28249C30.1346 1.80988 26.9121 1.38839 23.8396 2.11156C20.5411 2.88793 17.6763 4.92213 15.8561 7.78046C14.0359 10.6388 13.4043 14.0951 14.096 17.4124C14.7877 20.7297 16.7479 23.6456 19.5587 25.5384C22.3694 27.4312 25.8084 28.151 29.1424 27.5445C32.4763 26.938 35.4415 25.0531 37.4056 22.2917C39.3697 19.5303 40.1774 16.1108 39.6564 12.7625C39.1711 9.64351 37.5688 6.81606 35.1611 4.79922C34.867 4.55284 34.8035 4.11874 35.0339 3.81187V3.81187Z" fill="#FF7E00"/>
<path d="M33.0865 14.7592C33.0865 18.2219 30.2794 21.029 26.8167 21.029C23.354 21.029 20.5469 18.2219 20.5469 14.7592C20.5469 11.2965 23.354 8.48936 26.8167 8.48936C30.2794 8.48936 33.0865 11.2965 33.0865 14.7592ZM21.9049 14.7592C21.9049 17.4719 24.104 19.6709 26.8167 19.6709C29.5294 19.6709 31.7285 17.4719 31.7285 14.7592C31.7285 12.0465 29.5294 9.84741 26.8167 9.84741C24.104 9.84741 21.9049 12.0465 21.9049 14.7592Z" fill="#FF7E00"/>
<path d="M20.128 22.0735C19.8358 22.393 19.3375 22.4171 19.0403 22.1023C17.3166 20.2772 16.2838 17.8962 16.1387 15.3733C15.9784 12.5887 16.9123 9.85168 18.7412 7.74577C20.5702 5.63987 23.1494 4.33173 25.929 4.10027C28.7086 3.8688 31.4686 4.73233 33.6207 6.50672C35.7727 8.28112 37.1464 10.826 37.449 13.5988C37.7515 16.3715 36.959 19.1528 35.2402 21.3496C33.5215 23.5463 31.0126 24.9848 28.2485 25.3582C25.7443 25.6965 23.2101 25.1364 21.0899 23.7923C20.7242 23.5604 20.6529 23.0667 20.9109 22.719V22.719C21.1689 22.3712 21.6584 22.3017 22.0269 22.5289C23.8162 23.632 25.9397 24.0879 28.0386 23.8043C30.3975 23.4856 32.5386 22.2581 34.0053 20.3834C35.4721 18.5087 36.1485 16.1351 35.8903 13.7688C35.6321 11.4026 34.4597 9.23077 32.6232 7.7165C30.7866 6.20223 28.4312 5.46529 26.0591 5.66283C23.687 5.86036 21.4859 6.97673 19.9251 8.7739C18.3643 10.5711 17.5673 12.9069 17.704 15.2833C17.8257 17.3977 18.678 19.3954 20.1018 20.9416C20.3951 21.2602 20.4202 21.7539 20.128 22.0735V22.0735Z" fill="#FF7E00"/>
<path d="M10.589 1.85172H1.87503C1.3917 1.85172 0.999878 2.24353 0.999878 2.72686V26.4246C0.999878 26.9079 1.39169 27.2998 1.87503 27.2998H10.589" stroke="#FF7E00" stroke-width="1.5" stroke-linecap="round" stroke-linejoin="round"/>
<path d="M43.0446 27.2989L51.7585 27.2989C52.2418 27.2989 52.6337 26.907 52.6337 26.4237L52.6337 2.72597C52.6337 2.24264 52.2419 1.85082 51.7585 1.85082L43.0446 1.85082" stroke="#FF7E00" stroke-width="1.5" stroke-linecap="round" stroke-linejoin="round"/>
</svg>
