<svg width="72" height="27" viewBox="0 0 72 27" fill="none" xmlns="http://www.w3.org/2000/svg">
<path d="M52.101 25.0815C48.4782 25.0454 44.8112 24.4221 41.567 22.8092C39.6238 21.843 37.8682 20.5425 36.1512 19.2154C32.5646 16.4434 29.0785 13.5135 25.1953 11.175C21.3123 8.83658 16.9552 7.0918 12.4241 6.96079C7.89313 6.82979 2.95348 9.00025 0.0704193 12.4981C2.57453 10.2949 5.89055 9.00695 9.23109 9.02735C15.0355 9.06288 20.1404 12.7174 24.5673 16.472C27.8959 19.2952 31.3412 22.2169 35.2945 24.2069C39.6316 26.3902 44.4559 27.1441 49.2752 26.6466C49.7037 26.6024 50.1312 26.5483 50.5573 26.4843C50.7635 26.4534 50.9693 26.4201 51.1747 26.3844C53.4194 25.9954 55.4279 25.1354 57.4942 24.2142C55.818 24.9616 53.9362 25.0997 52.101 25.0815" fill="white"/>
<path d="M50.7626 17.69C47.1237 15.8574 43.7942 13.29 40.3597 11.1638C37.2095 9.21346 34.0097 7.32197 30.6574 5.72563C30.1848 5.5023 29.7135 5.26806 29.228 5.07394C27.4994 4.40453 25.6981 3.92263 23.8658 3.64031C19.9426 3.03621 15.9964 3.58543 12.1049 4.18522C16.5722 3.49666 21.1805 4.33682 25.1493 6.4886C28.7983 8.46715 32.0489 10.8399 35.4405 13.2237C41.8697 17.7425 49.1371 23.4345 57.4941 23.006C62.0034 22.7748 66.0801 20.3922 69.3258 17.2215C65.8637 19.5221 61.5424 20.4948 57.4286 19.8994C55.0517 19.5554 52.8558 18.7443 50.7626 17.69Z" fill="white"/>
<path d="M61.9437 13.9564C58.3144 13.5367 55.0587 12.1773 51.9703 10.2627C47.4408 7.45485 43.0434 4.50217 38.3861 1.89625C35.7643 0.429297 32.3718 -0.139942 29.3884 0.0284161C27.1344 0.15569 25.1104 0.815235 22.9384 1.32155C26.2012 0.560878 29.649 1.04345 32.728 2.29282C35.9726 3.60933 38.6805 6.0353 41.4246 8.15606C42.8025 9.22099 44.1953 10.2702 45.654 11.2228C50.2384 14.2164 55.1271 15.9038 60.6332 15.7119C64.0559 15.5926 67.7984 15.05 70.7447 13.1934C70.7748 13.1746 70.8046 13.1556 70.8345 13.1363C71.2291 12.8826 71.6084 12.6051 71.9685 12.3044C69.734 13.9063 66.8931 14.2465 64.2146 14.1326C63.4596 14.1005 62.7004 14.0439 61.9437 13.9564" fill="white"/>
</svg>
