<svg width="152" height="95" viewBox="0 0 152 95" fill="none" xmlns="http://www.w3.org/2000/svg">
<path d="M23.9305 65.3213L34.0105 40.8213H39.8905L49.8305 65.3213H44.3355L41.8505 58.8813H31.7355L29.2155 65.3213H23.9305ZM33.3105 54.8213H40.3105L36.8455 45.7913L33.3105 54.8213ZM54.1273 65.3213L46.2873 47.0863H51.5023L56.5073 59.2313L61.4773 47.0863H66.5873L58.7473 65.3213H54.1273ZM74.2551 65.6363C72.2951 65.6363 70.6967 65.123 69.46 64.0963C68.2234 63.0463 67.605 61.693 67.605 60.0363C67.605 58.3096 68.27 56.9563 69.6 55.9763C70.93 54.9963 72.7617 54.5063 75.0951 54.5063C75.8417 54.5063 76.5884 54.5646 77.3351 54.6813C78.0817 54.798 78.8167 54.973 79.54 55.2063V53.9113C79.54 52.8613 79.2134 52.068 78.5601 51.5313C77.9067 50.9946 76.9501 50.7263 75.6901 50.7263C74.9201 50.7263 74.0801 50.8546 73.1701 51.1113C72.2834 51.3446 71.2684 51.718 70.125 52.2313L68.375 48.6963C69.7984 48.043 71.175 47.553 72.5051 47.2263C73.8584 46.8996 75.1884 46.7363 76.4951 46.7363C78.9451 46.7363 80.8467 47.3313 82.2001 48.5213C83.5767 49.688 84.265 51.3446 84.265 53.4913V65.3213H79.54V64.0613C78.7701 64.598 77.9534 64.9946 77.0901 65.2513C76.25 65.508 75.305 65.6363 74.2551 65.6363ZM72.1901 59.9313C72.1901 60.6313 72.4934 61.1913 73.1 61.6113C73.7067 62.008 74.5117 62.2063 75.5151 62.2063C76.3084 62.2063 77.0317 62.113 77.685 61.9263C78.3617 61.7163 78.9801 61.4246 79.54 61.0513V58.3213C78.9567 58.088 78.3384 57.9246 77.685 57.8313C77.0551 57.7146 76.3901 57.6563 75.6901 57.6563C74.5934 57.6563 73.7301 57.8663 73.1 58.2863C72.4934 58.683 72.1901 59.2313 72.1901 59.9313ZM101.509 65.3213V63.8163C100.786 64.3996 99.9808 64.843 99.0941 65.1463C98.2074 65.4263 97.2858 65.5663 96.3291 65.5663C95.0458 65.5663 93.8324 65.3213 92.6891 64.8313C91.5691 64.3413 90.5891 63.6763 89.7491 62.8363C88.9091 61.9963 88.2441 61.0046 87.7541 59.8613C87.2874 58.718 87.0541 57.493 87.0541 56.1863C87.0541 54.8796 87.2991 53.6546 87.7891 52.5113C88.2791 51.368 88.9441 50.3763 89.7841 49.5363C90.6241 48.6963 91.6158 48.043 92.7591 47.5763C93.9258 47.0863 95.1624 46.8413 96.4691 46.8413C97.3558 46.8413 98.2191 46.9696 99.0591 47.2263C99.9224 47.4596 100.716 47.8096 101.439 48.2763V40.8213L106.234 39.7713V65.3213H101.509ZM91.7791 56.1863C91.7791 57.6563 92.2924 58.9046 93.3191 59.9313C94.3458 60.958 95.6058 61.4713 97.0991 61.4713C97.9858 61.4713 98.7908 61.3196 99.5141 61.0163C100.261 60.713 100.902 60.2813 101.439 59.7213V52.6163C100.926 52.0796 100.284 51.6596 99.5141 51.3563C98.7674 51.053 97.9624 50.9013 97.0991 50.9013C95.5824 50.9013 94.3108 51.4146 93.2841 52.4413C92.2808 53.4446 91.7791 54.693 91.7791 56.1863ZM115.783 65.6363C113.823 65.6363 112.225 65.123 110.988 64.0963C109.752 63.0463 109.133 61.693 109.133 60.0363C109.133 58.3096 109.798 56.9563 111.128 55.9763C112.458 54.9963 114.29 54.5063 116.623 54.5063C117.37 54.5063 118.117 54.5646 118.863 54.6813C119.61 54.798 120.345 54.973 121.068 55.2063V53.9113C121.068 52.8613 120.742 52.068 120.088 51.5313C119.435 50.9946 118.478 50.7263 117.218 50.7263C116.448 50.7263 115.608 50.8546 114.698 51.1113C113.812 51.3446 112.797 51.718 111.653 52.2313L109.903 48.6963C111.327 48.043 112.703 47.553 114.033 47.2263C115.387 46.8996 116.717 46.7363 118.023 46.7363C120.473 46.7363 122.375 47.3313 123.728 48.5213C125.105 49.688 125.793 51.3446 125.793 53.4913V65.3213H121.068V64.0613C120.298 64.598 119.482 64.9946 118.618 65.2513C117.778 65.508 116.833 65.6363 115.783 65.6363ZM113.718 59.9313C113.718 60.6313 114.022 61.1913 114.628 61.6113C115.235 62.008 116.04 62.2063 117.043 62.2063C117.837 62.2063 118.56 62.113 119.213 61.9263C119.89 61.7163 120.508 61.4246 121.068 61.0513V58.3213C120.485 58.088 119.867 57.9246 119.213 57.8313C118.583 57.7146 117.918 57.6563 117.218 57.6563C116.122 57.6563 115.258 57.8663 114.628 58.2863C114.022 58.683 113.718 59.2313 113.718 59.9313Z" fill="white"/>
<path opacity="0.75" d="M7.09645 88.1596C7.75645 88.1596 8.37445 88.0216 8.95045 87.7456C9.52645 87.4696 10.0364 87.0736 10.4804 86.5576L12.1904 88.2496C11.5904 88.9576 10.8224 89.5216 9.88645 89.9416C8.96245 90.3616 8.00845 90.5716 7.02445 90.5716C6.07645 90.5716 5.18845 90.4036 4.36045 90.0676C3.54445 89.7316 2.83645 89.2756 2.23645 88.6996C1.63645 88.1236 1.16245 87.4396 0.814445 86.6476C0.478445 85.8556 0.310445 85.0036 0.310445 84.0916C0.310445 83.1796 0.484445 82.3276 0.832445 81.5356C1.18045 80.7316 1.65445 80.0416 2.25445 79.4656C2.85445 78.8896 3.56245 78.4336 4.37845 78.0976C5.20645 77.7616 6.08845 77.5936 7.02445 77.5936C8.03245 77.5936 9.01045 77.8096 9.95845 78.2416C10.9064 78.6616 11.6744 79.2316 12.2624 79.9516L10.4984 81.6976C10.0544 81.1456 9.53245 80.7256 8.93245 80.4376C8.33245 80.1376 7.69645 79.9876 7.02445 79.9876C6.46045 79.9876 5.92645 80.0956 5.42245 80.3116C4.93045 80.5156 4.50445 80.8036 4.14445 81.1756C3.78445 81.5356 3.50245 81.9676 3.29845 82.4716C3.09445 82.9636 2.99245 83.5036 2.99245 84.0916C2.99245 84.6676 3.09445 85.2076 3.29845 85.7116C3.51445 86.2036 3.80245 86.6296 4.16245 86.9896C4.53445 87.3496 4.96645 87.6376 5.45845 87.8536C5.96245 88.0576 6.50845 88.1596 7.09645 88.1596ZM16.0204 77.2516V90.3916H13.5544V77.7916L16.0204 77.2516ZM26.3549 89.2216C25.7789 89.6896 25.1849 90.0316 24.5729 90.2476C23.9729 90.4636 23.3009 90.5716 22.5569 90.5716C21.8489 90.5716 21.1829 90.4456 20.5589 90.1936C19.9469 89.9416 19.4129 89.5996 18.9569 89.1676C18.5129 88.7356 18.1589 88.2256 17.8949 87.6376C17.6429 87.0376 17.5169 86.3956 17.5169 85.7116C17.5169 85.0396 17.6369 84.4096 17.8769 83.8216C18.1289 83.2216 18.4709 82.7056 18.9029 82.2736C19.3349 81.8296 19.8449 81.4816 20.4329 81.2296C21.0329 80.9776 21.6689 80.8516 22.3409 80.8516C23.0009 80.8516 23.6129 80.9836 24.1769 81.2476C24.7529 81.4996 25.2449 81.8476 25.6529 82.2916C26.0729 82.7356 26.3969 83.2696 26.6249 83.8936C26.8649 84.5056 26.9849 85.1716 26.9849 85.8916V86.5396H20.0009C20.1689 87.1276 20.4929 87.6016 20.9729 87.9616C21.4529 88.3216 22.0169 88.5016 22.6649 88.5016C23.0729 88.5016 23.4569 88.4356 23.8169 88.3036C24.1769 88.1716 24.4829 87.9856 24.7349 87.7456L26.3549 89.2216ZM22.2869 82.8856C21.7229 82.8856 21.2369 83.0596 20.8289 83.4076C20.4209 83.7436 20.1389 84.1996 19.9829 84.7756H24.5729C24.4169 84.2236 24.1289 83.7736 23.7089 83.4256C23.3009 83.0656 22.8269 82.8856 22.2869 82.8856ZM31.4306 90.5536C30.4226 90.5536 29.6006 90.2896 28.9646 89.7616C28.3286 89.2216 28.0106 88.5256 28.0106 87.6736C28.0106 86.7856 28.3526 86.0896 29.0366 85.5856C29.7206 85.0816 30.6626 84.8296 31.8626 84.8296C32.2466 84.8296 32.6306 84.8596 33.0146 84.9196C33.3986 84.9796 33.7766 85.0696 34.1486 85.1896V84.5236C34.1486 83.9836 33.9806 83.5756 33.6446 83.2996C33.3086 83.0236 32.8166 82.8856 32.1686 82.8856C31.7726 82.8856 31.3406 82.9516 30.8726 83.0836C30.4166 83.2036 29.8946 83.3956 29.3066 83.6596L28.4066 81.8416C29.1386 81.5056 29.8466 81.2536 30.5306 81.0856C31.2266 80.9176 31.9106 80.8336 32.5826 80.8336C33.8426 80.8336 34.8206 81.1396 35.5166 81.7516C36.2246 82.3516 36.5786 83.2036 36.5786 84.3076V90.3916H34.1486V89.7436C33.7526 90.0196 33.3326 90.2236 32.8886 90.3556C32.4566 90.4876 31.9706 90.5536 31.4306 90.5536ZM30.3686 87.6196C30.3686 87.9796 30.5246 88.2676 30.8366 88.4836C31.1486 88.6876 31.5626 88.7896 32.0786 88.7896C32.4866 88.7896 32.8586 88.7416 33.1946 88.6456C33.5426 88.5376 33.8606 88.3876 34.1486 88.1956V86.7916C33.8486 86.6716 33.5306 86.5876 33.1946 86.5396C32.8706 86.4796 32.5286 86.4496 32.1686 86.4496C31.6046 86.4496 31.1606 86.5576 30.8366 86.7736C30.5246 86.9776 30.3686 87.2596 30.3686 87.6196ZM38.445 90.3916V81.0136H40.911V81.7516C41.271 81.4516 41.667 81.2236 42.099 81.0676C42.543 80.9116 43.023 80.8336 43.539 80.8336C44.619 80.8336 45.507 81.1816 46.203 81.8776C46.899 82.5736 47.247 83.4676 47.247 84.5596V90.3916H44.781V84.9196C44.781 84.3316 44.601 83.8576 44.241 83.4976C43.893 83.1376 43.425 82.9576 42.837 82.9576C42.429 82.9576 42.057 83.0416 41.721 83.2096C41.397 83.3656 41.127 83.5936 40.911 83.8936V90.3916H38.445ZM50.3389 79.8976C49.9549 79.8976 49.6249 79.7596 49.3489 79.4836C49.0729 79.2076 48.9349 78.8776 48.9349 78.4936C48.9349 78.1096 49.0729 77.7796 49.3489 77.5036C49.6249 77.2276 49.9549 77.0896 50.3389 77.0896C50.7229 77.0896 51.0529 77.2276 51.3289 77.5036C51.6049 77.7796 51.7429 78.1096 51.7429 78.4936C51.7429 78.8776 51.6049 79.2076 51.3289 79.4836C51.0529 79.7596 50.7229 79.8976 50.3389 79.8976ZM51.5809 81.0136V90.3916H49.1149V81.0136H51.5809ZM53.5094 90.3916V81.0136H55.9754V81.7516C56.3354 81.4516 56.7314 81.2236 57.1634 81.0676C57.6074 80.9116 58.0874 80.8336 58.6034 80.8336C59.6834 80.8336 60.5714 81.1816 61.2674 81.8776C61.9634 82.5736 62.3114 83.4676 62.3114 84.5596V90.3916H59.8454V84.9196C59.8454 84.3316 59.6654 83.8576 59.3054 83.4976C58.9574 83.1376 58.4894 82.9576 57.9014 82.9576C57.4934 82.9576 57.1214 83.0416 56.7854 83.2096C56.4614 83.3656 56.1914 83.5936 55.9754 83.8936V90.3916H53.5094ZM68.4994 90.4456C67.8394 90.4456 67.2154 90.3196 66.6274 90.0676C66.0514 89.8156 65.5474 89.4736 65.1154 89.0416C64.6954 88.6096 64.3594 88.1056 64.1074 87.5296C63.8674 86.9416 63.7474 86.3116 63.7474 85.6396C63.7474 84.9796 63.8734 84.3616 64.1254 83.7856C64.3774 83.1976 64.7194 82.6876 65.1514 82.2556C65.5834 81.8236 66.0934 81.4876 66.6814 81.2476C67.2694 80.9956 67.8994 80.8696 68.5714 80.8696C69.0394 80.8696 69.4834 80.9356 69.9034 81.0676C70.3354 81.1996 70.7374 81.3856 71.1094 81.6256V81.0136H73.5394V90.3916C73.5394 91.6276 73.1374 92.5816 72.3334 93.2536C71.5414 93.9256 70.3954 94.2616 68.8954 94.2616C68.1754 94.2616 67.4794 94.1896 66.8074 94.0456C66.1474 93.9016 65.5414 93.6916 64.9894 93.4156L65.8534 91.4896C66.3694 91.7416 66.8734 91.9276 67.3654 92.0476C67.8574 92.1796 68.3494 92.2456 68.8414 92.2456C69.5734 92.2456 70.1254 92.0836 70.4974 91.7596C70.8814 91.4476 71.0734 90.9856 71.0734 90.3736V89.5996C70.7014 89.8756 70.2934 90.0856 69.8494 90.2296C69.4174 90.3736 68.9674 90.4456 68.4994 90.4456ZM66.1774 85.6396C66.1774 86.3956 66.4354 87.0376 66.9514 87.5656C67.4794 88.0936 68.1214 88.3576 68.8774 88.3576C69.3214 88.3576 69.7294 88.2856 70.1014 88.1416C70.4734 87.9856 70.7974 87.7756 71.0734 87.5116V83.8216C70.8094 83.5576 70.4854 83.3536 70.1014 83.2096C69.7174 83.0536 69.3154 82.9756 68.8954 82.9756C68.1394 82.9756 67.4974 83.2336 66.9694 83.7496C66.4414 84.2656 66.1774 84.8956 66.1774 85.6396ZM78.1852 88.3936L79.6792 86.5216C80.4112 87.1576 81.1132 87.6256 81.7852 87.9256C82.4692 88.2136 83.1892 88.3576 83.9452 88.3576C84.7252 88.3576 85.3492 88.2136 85.8172 87.9256C86.2852 87.6376 86.5192 87.2536 86.5192 86.7736C86.5192 86.3416 86.3572 86.0056 86.0332 85.7656C85.7212 85.5256 85.1932 85.3456 84.4492 85.2256L81.9472 84.7936C80.8672 84.6136 80.0452 84.2356 79.4812 83.6596C78.9292 83.0836 78.6532 82.3396 78.6532 81.4276C78.6532 80.2516 79.0972 79.3216 79.9852 78.6376C80.8852 77.9536 82.0972 77.6116 83.6212 77.6116C84.5332 77.6116 85.4512 77.7676 86.3752 78.0796C87.3112 78.3916 88.1272 78.8236 88.8232 79.3756L87.4192 81.3196C86.7472 80.8036 86.0872 80.4256 85.4392 80.1856C84.7912 79.9336 84.1252 79.8076 83.4412 79.8076C82.7452 79.8076 82.1872 79.9396 81.7672 80.2036C81.3472 80.4556 81.1372 80.7976 81.1372 81.2296C81.1372 81.6136 81.2752 81.9136 81.5512 82.1296C81.8272 82.3456 82.2892 82.5016 82.9372 82.5976L85.3132 82.9936C86.5612 83.1976 87.4972 83.5996 88.1212 84.1996C88.7572 84.7876 89.0752 85.5676 89.0752 86.5396C89.0752 87.7636 88.5892 88.7416 87.6172 89.4736C86.6572 90.2056 85.3732 90.5716 83.7652 90.5716C82.7572 90.5716 81.7612 90.3796 80.7772 89.9956C79.8052 89.6116 78.9412 89.0776 78.1852 88.3936ZM99.058 89.2216C98.482 89.6896 97.888 90.0316 97.276 90.2476C96.676 90.4636 96.004 90.5716 95.26 90.5716C94.552 90.5716 93.886 90.4456 93.262 90.1936C92.65 89.9416 92.116 89.5996 91.66 89.1676C91.216 88.7356 90.862 88.2256 90.598 87.6376C90.346 87.0376 90.22 86.3956 90.22 85.7116C90.22 85.0396 90.34 84.4096 90.58 83.8216C90.832 83.2216 91.174 82.7056 91.606 82.2736C92.038 81.8296 92.548 81.4816 93.136 81.2296C93.736 80.9776 94.372 80.8516 95.044 80.8516C95.704 80.8516 96.316 80.9836 96.88 81.2476C97.456 81.4996 97.948 81.8476 98.356 82.2916C98.776 82.7356 99.1 83.2696 99.328 83.8936C99.568 84.5056 99.688 85.1716 99.688 85.8916V86.5396H92.704C92.872 87.1276 93.196 87.6016 93.676 87.9616C94.156 88.3216 94.72 88.5016 95.368 88.5016C95.776 88.5016 96.16 88.4356 96.52 88.3036C96.88 88.1716 97.186 87.9856 97.438 87.7456L99.058 89.2216ZM94.99 82.8856C94.426 82.8856 93.94 83.0596 93.532 83.4076C93.124 83.7436 92.842 84.1996 92.686 84.7756H97.276C97.12 84.2236 96.832 83.7736 96.412 83.4256C96.004 83.0656 95.53 82.8856 94.99 82.8856ZM101.199 90.3916V81.0136H103.665V82.0396C103.965 81.6316 104.325 81.3256 104.745 81.1216C105.177 80.9056 105.651 80.7976 106.167 80.7976C106.407 80.8096 106.605 80.8336 106.761 80.8696C106.929 80.8936 107.073 80.9416 107.193 81.0136V83.1736C107.013 83.0896 106.815 83.0296 106.599 82.9936C106.383 82.9456 106.161 82.9216 105.933 82.9216C105.453 82.9216 105.009 83.0416 104.601 83.2816C104.205 83.5216 103.893 83.8696 103.665 84.3256V90.3916H101.199ZM111.941 90.3916L107.909 81.0136H110.591L113.165 87.2596L115.721 81.0136H118.349L114.317 90.3916H111.941ZM120.546 79.8976C120.162 79.8976 119.832 79.7596 119.556 79.4836C119.28 79.2076 119.142 78.8776 119.142 78.4936C119.142 78.1096 119.28 77.7796 119.556 77.5036C119.832 77.2276 120.162 77.0896 120.546 77.0896C120.93 77.0896 121.26 77.2276 121.536 77.5036C121.812 77.7796 121.95 78.1096 121.95 78.4936C121.95 78.8776 121.812 79.2076 121.536 79.4836C121.26 79.7596 120.93 79.8976 120.546 79.8976ZM121.788 81.0136V90.3916H119.322V81.0136H121.788ZM128.306 88.4116C128.726 88.4116 129.116 88.3276 129.476 88.1596C129.848 87.9916 130.202 87.7276 130.538 87.3676L132.014 88.8976C131.534 89.4256 130.958 89.8396 130.286 90.1396C129.614 90.4276 128.918 90.5716 128.198 90.5716C127.514 90.5716 126.866 90.4456 126.254 90.1936C125.654 89.9416 125.132 89.5996 124.688 89.1676C124.256 88.7356 123.914 88.2256 123.662 87.6376C123.41 87.0376 123.284 86.3956 123.284 85.7116C123.284 85.0276 123.41 84.3916 123.662 83.8036C123.914 83.2036 124.256 82.6876 124.688 82.2556C125.132 81.8116 125.654 81.4636 126.254 81.2116C126.866 80.9596 127.514 80.8336 128.198 80.8336C128.942 80.8336 129.656 80.9836 130.34 81.2836C131.024 81.5716 131.606 81.9796 132.086 82.5076L130.574 84.1096C130.238 83.7376 129.878 83.4556 129.494 83.2636C129.11 83.0716 128.696 82.9756 128.252 82.9756C127.544 82.9756 126.944 83.2396 126.452 83.7676C125.972 84.2956 125.732 84.9436 125.732 85.7116C125.732 86.4796 125.978 87.1216 126.47 87.6376C126.974 88.1536 127.586 88.4116 128.306 88.4116ZM141.351 89.2216C140.775 89.6896 140.181 90.0316 139.569 90.2476C138.969 90.4636 138.297 90.5716 137.553 90.5716C136.845 90.5716 136.179 90.4456 135.555 90.1936C134.943 89.9416 134.409 89.5996 133.953 89.1676C133.509 88.7356 133.155 88.2256 132.891 87.6376C132.639 87.0376 132.513 86.3956 132.513 85.7116C132.513 85.0396 132.633 84.4096 132.873 83.8216C133.125 83.2216 133.467 82.7056 133.899 82.2736C134.331 81.8296 134.841 81.4816 135.429 81.2296C136.029 80.9776 136.665 80.8516 137.337 80.8516C137.997 80.8516 138.609 80.9836 139.173 81.2476C139.749 81.4996 140.241 81.8476 140.649 82.2916C141.069 82.7356 141.393 83.2696 141.621 83.8936C141.861 84.5056 141.981 85.1716 141.981 85.8916V86.5396H134.997C135.165 87.1276 135.489 87.6016 135.969 87.9616C136.449 88.3216 137.013 88.5016 137.661 88.5016C138.069 88.5016 138.453 88.4356 138.813 88.3036C139.173 88.1716 139.479 87.9856 139.731 87.7456L141.351 89.2216ZM137.283 82.8856C136.719 82.8856 136.233 83.0596 135.825 83.4076C135.417 83.7436 135.135 84.1996 134.979 84.7756H139.569C139.413 84.2236 139.125 83.7736 138.705 83.4256C138.297 83.0656 137.823 82.8856 137.283 82.8856ZM142.788 89.2756L144.012 87.6376C144.564 87.9976 145.086 88.2676 145.578 88.4476C146.07 88.6156 146.562 88.6996 147.054 88.6996C147.606 88.6996 148.044 88.6096 148.368 88.4296C148.704 88.2496 148.872 88.0096 148.872 87.7096C148.872 87.4696 148.776 87.2776 148.584 87.1336C148.404 86.9896 148.11 86.8876 147.702 86.8276L145.902 86.5576C144.978 86.4136 144.27 86.1136 143.778 85.6576C143.298 85.2016 143.058 84.5956 143.058 83.8396C143.058 82.9396 143.412 82.2196 144.12 81.6796C144.828 81.1396 145.776 80.8696 146.964 80.8696C147.648 80.8696 148.314 80.9716 148.962 81.1756C149.61 81.3676 150.228 81.6556 150.816 82.0396L149.628 83.6236C149.112 83.3236 148.62 83.1016 148.152 82.9576C147.684 82.8016 147.21 82.7236 146.73 82.7236C146.286 82.7236 145.926 82.8076 145.65 82.9756C145.386 83.1436 145.254 83.3656 145.254 83.6416C145.254 83.8936 145.35 84.0916 145.542 84.2356C145.746 84.3676 146.076 84.4636 146.532 84.5236L148.332 84.7936C149.244 84.9256 149.946 85.2256 150.438 85.6936C150.942 86.1616 151.194 86.7556 151.194 87.4756C151.194 87.9196 151.086 88.3336 150.87 88.7176C150.666 89.0896 150.384 89.4136 150.024 89.6896C149.664 89.9656 149.232 90.1816 148.728 90.3376C148.224 90.4936 147.678 90.5716 147.09 90.5716C146.238 90.5716 145.44 90.4636 144.696 90.2476C143.952 90.0196 143.316 89.6956 142.788 89.2756Z" fill="white"/>
<path d="M91.101 25.0814C87.4782 25.0453 83.8112 24.422 80.567 22.8091C78.6238 21.8429 76.8683 20.5423 75.1512 19.2153C71.5646 16.4433 68.0785 13.5133 64.1953 11.1749C60.3123 8.83646 55.9552 7.09168 51.4242 6.96067C46.8931 6.82966 41.9535 9.00012 39.0704 12.498C41.5745 10.2948 44.8906 9.00683 48.2311 9.02723C54.0355 9.06276 59.1404 12.7173 63.5673 16.4719C66.8959 19.2951 70.3412 22.2167 74.2945 24.2068C78.6316 26.3901 83.4559 27.1439 88.2752 26.6465C88.7037 26.6023 89.1312 26.5482 89.5573 26.4842C89.7636 26.4533 89.9694 26.4199 90.1747 26.3843C92.4195 25.9953 94.4279 25.1353 96.4942 24.214C94.818 24.9615 92.9362 25.0996 91.101 25.0814Z" fill="white"/>
<path d="M89.7626 17.69C86.1237 15.8574 82.7942 13.29 79.3597 11.1638C76.2095 9.21346 73.0097 7.32197 69.6574 5.72563C69.1848 5.5023 68.7135 5.26806 68.228 5.07394C66.4994 4.40453 64.698 3.92263 62.8658 3.64031C58.9426 3.03621 54.9964 3.58543 51.1049 4.18522C55.5721 3.49666 60.1805 4.33682 64.1493 6.4886C67.7983 8.46715 71.0489 10.8399 74.4405 13.2237C80.8697 17.7425 88.1371 23.4345 96.4941 23.006C101.003 22.7748 105.08 20.3922 108.326 17.2215C104.864 19.5221 100.542 20.4948 96.4286 19.8994C94.0517 19.5554 91.8558 18.7443 89.7626 17.69Z" fill="white"/>
<path d="M100.944 13.9563C97.3144 13.5366 94.0587 12.1772 90.9703 10.2626C86.4408 7.45476 82.0434 4.50208 77.3861 1.89616C74.7643 0.429205 71.3718 -0.140034 68.3883 0.0283243C66.1344 0.155599 64.1103 0.815144 61.9384 1.32146C65.2012 0.560787 68.649 1.04336 71.728 2.29273C74.9726 3.60924 77.6805 6.03521 80.4246 8.15597C81.8025 9.2209 83.1953 10.2701 84.654 11.2227C89.2384 14.2163 94.1271 15.9037 99.6332 15.7118C103.056 15.5925 106.798 15.0499 109.745 13.1933C109.775 13.1745 109.805 13.1555 109.834 13.1362C110.229 12.8825 110.608 12.605 110.968 12.3043C108.734 13.9062 105.893 14.2464 103.215 14.1325C102.46 14.1004 101.7 14.0438 100.944 13.9563Z" fill="white"/>
</svg>
