<?xml version="1.0" encoding="utf-8"?>
<!-- Generator: Adobe Illustrator 24.3.0, SVG Export Plug-In . SVG Version: 6.00 Build 0)  -->
<svg version="1.1" id="Layer_1" xmlns="http://www.w3.org/2000/svg" xmlns:xlink="http://www.w3.org/1999/xlink" x="0px" y="0px"
	 width="553.3px" height="94.2px" viewBox="0 0 553.3 94.2" style="enable-background:new 0 0 553.3 94.2;" xml:space="preserve">
<style type="text/css">
	.st0{fill:#00CA72;}
	.st1{fill:#102E70;}
</style>
<g>
	<path class="st0" d="M47.4-0.6C21.2-0.6,0,20.6,0,46.8s21.2,47.4,47.4,47.4S94.8,73,94.8,46.8S73.6-0.6,47.4-0.6z M64.8,35.1
		c0.6-0.4,1.1-0.9,1.5-1.5l0.7-1.1l1,1.5c0.3,0.4,0.7,0.8,1.1,1.1l1.2,0.7l-1.2,0.7c-0.5,0.3-1,0.8-1.3,1.3L67,39.2L66,37.7
		c-0.3-0.5-0.7-0.8-1.2-1.1l-1.2-0.8L64.8,35.1z M62.8,66.2c-3.2,3.1-7.1,5.1-11.6,6.2c-4.5,1-8.9,0.9-13.4-0.3
		c-4.4-1.2-8.3-3.5-11.5-6.7c-3.3-3.3-5.5-7.1-6.7-11.6c-1.2-4.4-1.2-8.8,0-13.3c1.2-4.4,3.4-8.2,6.7-11.5s7.1-5.5,11.6-6.7
		c4.4-1.2,8.8-1.2,13.3,0c4.4,1.2,8.2,3.4,11.5,6.7l-7.3,7.3c-1.4-1.4-3.1-2.5-5-3.3c-1.9-0.8-3.9-1.2-5.9-1.2c-2.1,0-4,0.4-5.9,1.2
		c-1.9,0.8-3.6,1.9-5,3.3c-2.9,2.9-4.4,6.5-4.5,10.9c0,2.1,0.4,4,1.2,5.9c0.8,1.9,1.9,3.5,3.4,5c1.5,1.5,3.2,2.7,5.3,3.6
		c2.1,0.9,4.1,1.4,6,1.4c4.3-0.1,7.9-1.6,10.8-4.6L74,40.3l7.3,7.3L62.8,66.2z"/>
	<g>
		<path class="st1" d="M120.5,23.7h-6.3l-1.1,3.1h-2.6l5.4-15h2.8l5.4,15h-2.6L120.5,23.7z M119.8,21.8l-2.5-7l-2.5,7H119.8z"/>
		<path class="st1" d="M132.2,11.8l4.4,12.4l4.5-12.4h2.6L138,26.8h-2.8l-5.6-14.9H132.2z"/>
		<path class="st1" d="M159,23.7h-6.3l-1.1,3.1h-2.6l5.4-15h2.8l5.4,15H160L159,23.7z M158.3,21.8l-2.5-7l-2.5,7H158.3z"/>
		<path class="st1" d="M178.3,12.7c1.2,0.6,2.1,1.5,2.8,2.6c0.7,1.1,1,2.5,1,4c0,1.5-0.3,2.8-1,4c-0.7,1.1-1.6,2-2.8,2.6
			c-1.2,0.6-2.6,0.9-4.2,0.9h-4.9V11.8h4.9C175.7,11.8,177.1,12.1,178.3,12.7z M178.1,23.4c0.9-1,1.4-2.3,1.4-4.1
			c0-1.7-0.5-3.1-1.4-4.1c-0.9-1-2.3-1.5-4-1.5h-2.4v11.1h2.4C175.9,24.9,177.2,24.4,178.1,23.4z"/>
		<path class="st1" d="M197.8,23.7h-6.3l-1.1,3.1h-2.6l5.4-15h2.8l5.4,15h-2.6L197.8,23.7z M197.1,21.8l-2.5-7l-2.5,7H197.1z"/>
	</g>
	<g>
		<path class="st1" d="M124.2,49.3c2-1.1,4.3-1.6,6.9-1.6c3,0,5.7,0.7,8.1,2.2c2.4,1.5,4.3,3.6,5.8,6.3c1.4,2.7,2.1,5.9,2.1,9.5
			c0,3.6-0.7,6.8-2.1,9.5c-1.4,2.8-3.3,4.9-5.8,6.4c-2.4,1.5-5.1,2.3-8.1,2.3c-2.6,0-4.9-0.5-6.9-1.6c-2-1-3.5-2.4-4.7-4v5h-8.9
			V36.6h8.9v16.9C120.6,51.8,122.2,50.4,124.2,49.3z M136.7,60.3c-0.9-1.5-2-2.7-3.4-3.5c-1.4-0.8-2.9-1.2-4.6-1.2
			c-1.6,0-3.1,0.4-4.5,1.2c-1.4,0.8-2.6,2-3.4,3.6c-0.9,1.6-1.3,3.4-1.3,5.5c0,2.1,0.4,3.9,1.3,5.5c0.9,1.6,2,2.8,3.4,3.6
			c1.4,0.8,2.9,1.2,4.5,1.2c1.6,0,3.2-0.4,4.6-1.3c1.4-0.8,2.6-2,3.4-3.6c0.9-1.6,1.3-3.4,1.3-5.6C138,63.6,137.6,61.8,136.7,60.3z"
			/>
		<path class="st1" d="M183.5,48.3v35.1h-8.9V79c-1.1,1.5-2.6,2.7-4.5,3.6c-1.8,0.9-3.8,1.3-6,1.3c-2.7,0-5.2-0.6-7.3-1.7
			c-2.1-1.2-3.8-2.9-5-5.1c-1.2-2.3-1.8-4.9-1.8-8.1V48.3h8.9v19.3c0,2.8,0.7,4.9,2.1,6.4c1.4,1.5,3.3,2.2,5.7,2.2
			c2.4,0,4.4-0.7,5.8-2.2c1.4-1.5,2.1-3.6,2.1-6.4V48.3H183.5z"/>
		<path class="st1" d="M194.7,82.4c-2.3-1-4.1-2.4-5.4-4.2c-1.3-1.8-2.1-3.7-2.2-5.9h8.9c0.2,1.5,0.8,2.7,2,3.6
			c1.1,0.9,2.6,1.4,4.4,1.4c1.7,0,3-0.3,4-1s1.4-1.6,1.4-2.8c0-1.1-0.6-2-1.7-2.6c-1.2-0.6-3-1.2-5.6-1.8c-2.6-0.6-4.7-1.3-6.3-1.9
			c-1.6-0.7-3.1-1.7-4.2-3.1c-1.2-1.4-1.8-3.2-1.8-5.5c0-2,0.5-3.8,1.6-5.4c1.1-1.6,2.7-2.9,4.7-3.9c2.1-1,4.5-1.4,7.4-1.4
			c4.2,0,7.5,1,10,3.1s3.9,4.9,4.1,8.5h-8.5c-0.1-1.5-0.7-2.7-1.7-3.5c-1-0.9-2.4-1.3-4.1-1.3c-1.6,0-2.8,0.3-3.7,1
			c-0.9,0.7-1.3,1.6-1.3,2.7c0,1.2,0.6,2.1,1.8,2.7c1.2,0.6,3,1.2,5.5,1.9c2.5,0.6,4.6,1.3,6.3,2c1.6,0.7,3.1,1.7,4.2,3.1
			c1.2,1.4,1.8,3.2,1.8,5.5c0,2-0.5,3.9-1.6,5.5c-1.1,1.6-2.7,2.9-4.7,3.8c-2.1,0.9-4.5,1.4-7.3,1.4C199.6,84,197,83.5,194.7,82.4z"
			/>
		<path class="st1" d="M221,42.7c-1-1-1.6-2.2-1.6-3.7c0-1.5,0.5-2.7,1.6-3.7c1-1,2.3-1.5,3.9-1.5c1.6,0,2.9,0.5,3.9,1.5
			c1,1,1.6,2.2,1.6,3.7c0,1.5-0.5,2.7-1.6,3.7c-1,1-2.3,1.5-3.9,1.5C223.3,44.2,222,43.7,221,42.7z M229.3,48.3v35.1h-8.9V48.3
			H229.3z"/>
		<path class="st1" d="M264.4,51.8c2.6,2.6,3.9,6.3,3.9,11v20.6h-8.9V64c0-2.8-0.7-4.9-2.1-6.4c-1.4-1.5-3.3-2.2-5.7-2.2
			c-2.4,0-4.4,0.8-5.8,2.2c-1.4,1.5-2.1,3.6-2.1,6.4v19.4h-8.9V48.3h8.9v4.4c1.2-1.5,2.7-2.7,4.5-3.6c1.8-0.9,3.9-1.3,6-1.3
			C258.5,47.8,261.8,49.1,264.4,51.8z"/>
		<path class="st1" d="M305.9,68.3h-25.6c0.2,2.6,1,4.6,2.6,6.1c1.6,1.5,3.5,2.2,5.8,2.2c3.3,0,5.6-1.4,7-4.2h9.6
			c-1,3.4-3,6.2-5.8,8.3c-2.9,2.2-6.4,3.3-10.6,3.3c-3.4,0-6.4-0.7-9.1-2.2c-2.7-1.5-4.8-3.6-6.3-6.4c-1.5-2.7-2.2-5.9-2.2-9.5
			c0-3.6,0.7-6.8,2.2-9.6c1.5-2.7,3.5-4.9,6.2-6.3c2.7-1.5,5.7-2.2,9.2-2.2c3.3,0,6.3,0.7,9,2.2c2.6,1.4,4.7,3.5,6.1,6.1
			c1.5,2.6,2.2,5.6,2.2,9.1C306.1,66.2,306,67.3,305.9,68.3z M296.9,63c0-2.4-0.9-4.4-2.4-5.8c-1.6-1.4-3.6-2.1-5.9-2.1
			c-2.2,0-4.1,0.7-5.6,2.1c-1.5,1.4-2.4,3.3-2.7,5.8H296.9z"/>
		<path class="st1" d="M315.1,82.4c-2.3-1-4.1-2.4-5.4-4.2c-1.3-1.8-2.1-3.7-2.2-5.9h8.9c0.2,1.5,0.8,2.7,2,3.6
			c1.1,0.9,2.6,1.4,4.4,1.4c1.7,0,3-0.3,4-1c0.9-0.7,1.4-1.6,1.4-2.8c0-1.1-0.6-2-1.7-2.6c-1.2-0.6-3-1.2-5.6-1.8
			c-2.6-0.6-4.7-1.3-6.3-1.9c-1.6-0.7-3.1-1.7-4.2-3.1c-1.2-1.4-1.8-3.2-1.8-5.5c0-2,0.5-3.8,1.6-5.4c1.1-1.6,2.7-2.9,4.7-3.9
			c2.1-1,4.5-1.4,7.4-1.4c4.2,0,7.5,1,10,3.1s3.9,4.9,4.1,8.5h-8.5c-0.1-1.5-0.7-2.7-1.7-3.5c-1-0.9-2.4-1.3-4.1-1.3
			c-1.6,0-2.8,0.3-3.7,1c-0.9,0.7-1.3,1.6-1.3,2.7c0,1.2,0.6,2.1,1.8,2.7c1.2,0.6,3,1.2,5.5,1.9c2.5,0.6,4.6,1.3,6.3,2
			c1.6,0.7,3.1,1.7,4.2,3.1c1.2,1.4,1.8,3.2,1.8,5.5c0,2-0.5,3.9-1.6,5.5c-1.1,1.6-2.7,2.9-4.7,3.8c-2.1,0.9-4.5,1.4-7.3,1.4
			C319.9,84,317.3,83.5,315.1,82.4z"/>
		<path class="st1" d="M346.4,82.4c-2.3-1-4.1-2.4-5.4-4.2c-1.3-1.8-2.1-3.7-2.2-5.9h8.9c0.2,1.5,0.8,2.7,2,3.6
			c1.1,0.9,2.6,1.4,4.4,1.4c1.7,0,3-0.3,4-1c0.9-0.7,1.4-1.6,1.4-2.8c0-1.1-0.6-2-1.7-2.6c-1.2-0.6-3-1.2-5.6-1.8
			c-2.6-0.6-4.7-1.3-6.3-1.9c-1.6-0.7-3.1-1.7-4.2-3.1c-1.2-1.4-1.8-3.2-1.8-5.5c0-2,0.5-3.8,1.6-5.4c1.1-1.6,2.7-2.9,4.7-3.9
			c2.1-1,4.5-1.4,7.4-1.4c4.2,0,7.5,1,10,3.1s3.9,4.9,4.1,8.5h-8.5c-0.1-1.5-0.7-2.7-1.7-3.5c-1-0.9-2.4-1.3-4.1-1.3
			c-1.6,0-2.8,0.3-3.7,1c-0.9,0.7-1.3,1.6-1.3,2.7c0,1.2,0.6,2.1,1.8,2.7c1.2,0.6,3,1.2,5.5,1.9c2.5,0.6,4.6,1.3,6.3,2
			c1.6,0.7,3.1,1.7,4.2,3.1c1.2,1.4,1.8,3.2,1.8,5.5c0,2-0.5,3.9-1.6,5.5c-1.1,1.6-2.7,2.9-4.7,3.8c-2.1,0.9-4.5,1.4-7.3,1.4
			C351.2,84,348.7,83.5,346.4,82.4z"/>
		<path class="st1" d="M372,56.3c1.5-2.7,3.5-4.8,6.1-6.3c2.6-1.5,5.6-2.2,9-2.2c4.3,0,7.9,1.1,10.8,3.3c2.8,2.2,4.8,5.2,5.7,9.1
			h-9.6c-0.5-1.5-1.4-2.7-2.6-3.6s-2.7-1.3-4.5-1.3c-2.5,0-4.5,0.9-6,2.8c-1.5,1.8-2.2,4.4-2.2,7.8c0,3.3,0.7,5.9,2.2,7.8
			c1.5,1.8,3.5,2.8,6,2.8c3.6,0,5.9-1.6,7-4.8h9.6c-1,3.8-2.9,6.8-5.8,9.1c-2.9,2.2-6.5,3.4-10.8,3.4c-3.4,0-6.4-0.7-9-2.2
			c-2.6-1.5-4.7-3.6-6.1-6.3c-1.5-2.7-2.2-5.9-2.2-9.5C369.8,62.2,370.6,59.1,372,56.3z"/>
		<path class="st1" d="M413.5,81.7c-2.7-1.5-4.8-3.6-6.4-6.4c-1.5-2.7-2.3-5.9-2.3-9.5c0-3.6,0.8-6.8,2.4-9.5
			c1.6-2.7,3.7-4.9,6.5-6.4c2.7-1.5,5.8-2.2,9.2-2.2c3.4,0,6.4,0.8,9.2,2.2c2.7,1.5,4.9,3.6,6.5,6.4c1.6,2.7,2.4,5.9,2.4,9.5
			c0,3.6-0.8,6.8-2.4,9.5c-1.6,2.7-3.8,4.9-6.6,6.4c-2.8,1.5-5.9,2.2-9.3,2.2C419.2,84,416.2,83.2,413.5,81.7z M427.1,75.2
			c1.4-0.8,2.5-2,3.4-3.6c0.8-1.6,1.3-3.5,1.3-5.7c0-2.2-0.4-4.1-1.3-5.7c-0.8-1.6-2-2.8-3.3-3.6c-1.4-0.8-2.9-1.2-4.5-1.2
			c-2.5,0-4.6,0.9-6.3,2.8c-1.7,1.8-2.6,4.4-2.6,7.8c0,3.3,0.8,5.9,2.5,7.8c1.7,1.8,3.8,2.8,6.3,2.8C424.2,76.4,425.7,76,427.1,75.2
			z"/>
		<path class="st1" d="M444.1,56.3c1.4-2.7,3.3-4.9,5.8-6.3c2.4-1.5,5.1-2.2,8.1-2.2c2.6,0,4.9,0.5,6.9,1.6c2,1.1,3.5,2.4,4.7,4v-5
			h8.9v35.1h-8.9v-5.1c-1.1,1.6-2.7,3-4.7,4.1c-2,1.1-4.3,1.6-6.9,1.6c-3,0-5.6-0.8-8.1-2.3c-2.4-1.5-4.3-3.7-5.8-6.4
			c-1.4-2.8-2.1-5.9-2.1-9.5C442,62.2,442.7,59.1,444.1,56.3z M468.3,60.3c-0.8-1.5-2-2.7-3.4-3.5c-1.4-0.8-3-1.2-4.6-1.2
			c-1.6,0-3.2,0.4-4.6,1.2c-1.4,0.8-2.5,2-3.4,3.5c-0.9,1.5-1.3,3.4-1.3,5.5c0,2.1,0.4,4,1.3,5.5c0.9,1.6,2,2.8,3.4,3.6
			c1.4,0.8,2.9,1.3,4.5,1.3c1.6,0,3.2-0.4,4.6-1.2c1.4-0.8,2.6-2,3.4-3.5c0.8-1.5,1.3-3.4,1.3-5.5C469.6,63.7,469.2,61.9,468.3,60.3
			z"/>
		<path class="st1" d="M484,56.3c1.5-2.7,3.5-4.8,6.1-6.3c2.6-1.5,5.6-2.2,9-2.2c4.3,0,7.9,1.1,10.8,3.3c2.8,2.2,4.8,5.2,5.7,9.1
			h-9.6c-0.5-1.5-1.4-2.7-2.6-3.6s-2.7-1.3-4.5-1.3c-2.5,0-4.5,0.9-6,2.8c-1.5,1.8-2.2,4.4-2.2,7.8c0,3.3,0.7,5.9,2.2,7.8
			c1.5,1.8,3.5,2.8,6,2.8c3.6,0,5.9-1.6,7-4.8h9.6c-1,3.8-2.9,6.8-5.8,9.1c-2.9,2.2-6.5,3.4-10.8,3.4c-3.4,0-6.4-0.7-9-2.2
			c-2.6-1.5-4.7-3.6-6.1-6.3c-1.5-2.7-2.2-5.9-2.2-9.5C481.7,62.2,482.5,59.1,484,56.3z"/>
		<path class="st1" d="M545.8,49.6c2.1,1.2,3.7,2.9,4.8,5.1c1.2,2.3,1.7,5,1.7,8.1v20.6h-8.9V64c0-2.8-0.7-4.9-2.1-6.4
			c-1.4-1.5-3.3-2.2-5.7-2.2c-2.4,0-4.4,0.8-5.8,2.2c-1.4,1.5-2.1,3.6-2.1,6.4v19.4H519V36.6h8.9v16.1c1.1-1.5,2.7-2.7,4.6-3.6
			c1.9-0.9,4-1.3,6.3-1.3C541.4,47.8,543.7,48.4,545.8,49.6z"/>
	</g>
</g>
</svg>
