<?xml version="1.0" encoding="utf-8"?>
<!-- Generator: Adobe Illustrator 24.3.0, SVG Export Plug-In . SVG Version: 6.00 Build 0)  -->
<svg version="1.1" id="Layer_1" xmlns="http://www.w3.org/2000/svg" xmlns:xlink="http://www.w3.org/1999/xlink" x="0px" y="0px"
	 width="542.8px" height="622.7px" viewBox="0 0 542.8 622.7" style="enable-background:new 0 0 542.8 622.7;" xml:space="preserve"
	>
<style type="text/css">
	.st0{fill:#004188;}
	.st1{fill:#4074D8;}
	.st2{fill:#B4D7FF;}
	.st3{fill:#E6E7E8;}
	.st4{fill:#FFFFFF;}
	.st5{fill:#00CA72;}
</style>
<g>
	<polygon class="st0" points="142.3,622.5 112.9,622.5 197.9,403.6 407.5,403.6 489.6,622.7 458.1,622.4 388.6,430.8 216.6,430.8 	
		"/>
</g>
<rect x="405.1" y="401" class="st1" width="22.2" height="29.5"/>
<rect x="133" y="382.3" class="st0" width="342.3" height="31"/>
<rect x="55.5" y="9.7" class="st0" width="486.9" height="372.6"/>
<rect x="71.1" y="26.8" class="st1" width="455.7" height="338.3"/>
<path class="st2" d="M526.8,26.8c0,0,21.1,288.2-60.6,389.8c-9.7,12-424-43.9-424-43.9c71.4-123.4,23.6-256.4,29-345.8H526.8z"/>
<path class="st3" d="M526.8,26.8c0,0-2.6,269.1-124.2,374.1C390.9,411,16.4,351.9,16.4,351.9c71.4-123.4,49.3-235.6,54.7-325H526.8z
	"/>
<path class="st4" d="M526.8,26.8c0,0-39.4,316.9-154.1,338.6C214.8,395.4,0.5,323.2,0.5,323.2C71.8,199.8,65.7,116.3,71.1,26.8
	H526.8z"/>
<rect x="149.7" y="-1.3" class="st0" width="24.2" height="39.9"/>
<rect x="416.2" y="-1.3" class="st0" width="24.2" height="39.9"/>
<g>
	<polygon class="st0" points="404,274.3 106.3,268 129.6,108.2 136.4,109.2 114.2,261.4 404.2,267.5 	"/>
</g>
<g>
	<polygon class="st5" points="135.1,227.8 130.9,219.8 162,203.2 174,210.8 272.1,152.9 286.1,165 431.9,69.3 436.9,76.9 
		285.3,176.4 271.1,164 173.8,221.5 161.6,213.7 	"/>
</g>
<polygon class="st5" points="409.1,64.3 451.1,64.3 434.4,102.6 "/>
<g>
	
		<rect x="334.9" y="187" transform="matrix(0.1758 -0.9844 0.9844 0.1758 151.1676 556.814)" class="st3" width="146.5" height="2.3"/>
</g>
<g>
	
		<rect x="284.5" y="206.8" transform="matrix(0.1758 -0.9844 0.9844 0.1758 73.5471 503.7542)" class="st3" width="106.2" height="2.3"/>
</g>
<g>
	
		<rect x="227.1" y="218.2" transform="matrix(0.1758 -0.9844 0.9844 0.1758 5.5067 445.2076)" class="st3" width="83.2" height="2.3"/>
</g>
<g>
	
		<rect x="175.2" y="236.2" transform="matrix(0.1758 -0.9844 0.9844 0.1758 -70.1038 390.996)" class="st3" width="46.5" height="2.3"/>
</g>
<g>
	
		<rect x="119.5" y="248.8" transform="matrix(0.261 -0.9653 0.9653 0.261 -145.029 310.3545)" class="st3" width="21.4" height="2.3"/>
</g>
<rect x="181.5" y="401" class="st1" width="22.2" height="29.5"/>
</svg>
