<?xml version="1.0" encoding="utf-8"?>
<!-- Generator: Adobe Illustrator 24.3.0, SVG Export Plug-In . SVG Version: 6.00 Build 0)  -->
<svg version="1.1" id="Layer_1" xmlns="http://www.w3.org/2000/svg" xmlns:xlink="http://www.w3.org/1999/xlink" x="0px" y="0px"
	 width="568.8px" height="568.8px" viewBox="0 0 568.8 568.8" style="enable-background:new 0 0 568.8 568.8;" xml:space="preserve"
	>
<style type="text/css">
	.st0{fill:#FFFFFF;}
</style>
<path class="st0" d="M284.4,0C127.3,0,0,127.3,0,284.4s127.3,284.4,284.4,284.4s284.4-127.3,284.4-284.4S441.5,0,284.4,0z
	 M388.6,214.5c3.6-2.3,6.7-5.4,9-9l4.1-6.5l5.9,8.9c1.8,2.7,4.1,4.9,6.8,6.6l7.1,4.4l-7.1,4.5c-3.1,2-5.7,4.6-7.7,7.6l-5.1,7.8
	l-5.6-8.5c-1.8-2.8-4.2-5.1-7-6.8l-7.3-4.5L388.6,214.5z M376.5,400.6c-19.5,18.5-42.6,30.8-69.5,37c-26.9,6.2-53.6,5.6-80.2-1.8
	c-26.6-7.4-49.7-20.8-69.1-40.3c-19.7-19.7-33.1-42.8-40.1-69.3c-7-26.5-7.1-53.1-0.2-79.7c7.1-26.4,20.6-49.4,40.3-69.1
	s42.8-33.1,69.3-40.1c26.5-7,53.1-7.1,79.7-0.2c26.1,6.9,49.2,20.3,69.1,40.3l-43.6,43.6c-8.6-8.6-18.6-15.3-29.9-20
	c-11.3-4.7-23.2-7-35.5-7c-12.3,0-24.2,2.3-35.5,7c-11.3,4.7-21.3,11.3-30,20c-17.3,17.3-26.2,39.1-27,65.4
	c0,12.3,2.4,24.1,7.2,35.3c4.8,11.2,11.5,21.1,20.1,29.8c8.9,8.9,19.5,16.2,31.8,21.8c12.3,5.7,24.4,8.5,36.2,8.5
	c25.9-0.7,47.6-9.9,65.1-27.4l109.1-109.1l44,44L376.5,400.6z"/>
</svg>
