<svg width="361" height="95" fill="none" xmlns="http://www.w3.org/2000/svg"><g clip-path="url(#clip0)"><path d="M72.602.735H20.847C9.334.735 0 10.062 0 21.568v51.784c0 11.506 9.334 20.833 20.847 20.833h51.755c11.514 0 20.848-9.327 20.848-20.833V21.568C93.45 10.062 84.116.735 72.602.735z" fill="#9206FF"/><path fill-rule="evenodd" clip-rule="evenodd" d="M0 64.079l16.421-15.583 11.942 12.986 27.618-29.79-6.72-5.719 21.868-6.786-1.714 22.523-6.72-5.194L28.364 73.42 16.048 60.325 0 75.733V64.079z" fill="#fff"/></g><g clip-path="url(#clip1)"><path fill-rule="evenodd" clip-rule="evenodd" d="M108.328 67.989h2.677l5.182-13.05h19.476l5.126 13.05h2.676l-16.059-40.69h-2.734l-16.344 40.69zm8.655-15.216l9.055-23.023h.114l8.713 23.023h-17.882zm48.064-14.077h-2.392l-9.908 26.785h-.114L142.04 38.696h-2.506l11.789 29.292h2.676l11.048-29.292zm21.071 25.018a9.284 9.284 0 00.142 1.681c.082.48.266.937.542 1.34.297.405.701.72 1.167.911.662.255 1.37.371 2.079.342a6.807 6.807 0 001.765-.228v-1.823c-.526.098-1.059.156-1.595.171a1.804 1.804 0 01-1.139-.313 1.71 1.71 0 01-.569-.826 4.167 4.167 0 01-.199-1.14 26.22 26.22 0 01-.03-1.254v-17.04c0-2.241-.807-4.055-2.42-5.442-1.614-1.386-4.186-2.08-7.717-2.08-3.531 0-6.255.808-8.172 2.422-1.917 1.615-2.952 4.037-3.104 7.266h2.164c.152-2.621 1.034-4.578 2.649-5.87 1.615-1.29 3.731-1.937 6.35-1.937a13.384 13.384 0 013.758.456 7.056 7.056 0 012.506 1.254 4.988 4.988 0 011.424 1.823c.307.7.462 1.458.455 2.223.012.858-.045 1.715-.17 2.564a2.92 2.92 0 01-.855 1.681 4.683 4.683 0 01-2.021 1.026 19.783 19.783 0 01-3.674.541l-3.359.285c-1.234.123-2.46.313-3.673.57a11.1 11.1 0 00-3.474 1.34 7.767 7.767 0 00-2.591 2.564c-.683 1.083-1.025 2.479-1.025 4.188 0 2.812.854 4.892 2.563 6.24 1.708 1.349 4.119 2.023 7.232 2.024 1.308.013 2.612-.16 3.872-.513a11.722 11.722 0 003.161-1.424 10.496 10.496 0 002.363-2.08 9.054 9.054 0 001.481-2.48h.114v1.54-.002zm0-6.895a14.49 14.49 0 01-.313 2.194 9.484 9.484 0 01-1.452 3.363 10.378 10.378 0 01-3.304 3.077c-1.443.893-3.398 1.339-5.865 1.339-2.392 0-4.272-.522-5.638-1.567-1.367-1.045-2.05-2.65-2.05-4.816 0-1.367.265-2.478.797-3.333a5.883 5.883 0 012.079-2.024 9.286 9.286 0 012.875-1.054 37.337 37.337 0 013.19-.484l3.644-.342a30.061 30.061 0 003.616-.513c1.083-.228 1.889-.665 2.421-1.311v5.47zm30.24 11.17h2.164v-40.69h-2.164v17.952h-.114a10.032 10.032 0 00-4.186-5.357 12.172 12.172 0 00-3.16-1.396 12.72 12.72 0 00-3.474-.485 12.96 12.96 0 00-5.752 1.197 11.61 11.61 0 00-4.072 3.248 13.793 13.793 0 00-2.42 4.873 23.231 23.231 0 00-.057 11.853 14.543 14.543 0 002.278 4.873 11.235 11.235 0 003.928 3.363c1.595.835 3.493 1.253 5.695 1.254 2.619 0 4.84-.58 6.663-1.739 1.823-1.159 3.342-2.897 4.556-5.214h.114v6.269l.001-.002zm-15.774-2.309a9.881 9.881 0 01-3.388-2.992 13.36 13.36 0 01-1.994-4.302 19.038 19.038 0 01-.655-4.987 21.394 21.394 0 01.598-5.072 12.5 12.5 0 011.937-4.33 9.861 9.861 0 013.388-2.993c1.367-.74 3.018-1.11 4.954-1.11a9.979 9.979 0 014.869 1.14 9.72 9.72 0 013.388 3.048 14.112 14.112 0 011.964 4.331 19.04 19.04 0 01.655 4.987 18.78 18.78 0 01-.655 4.929 13.365 13.365 0 01-1.994 4.302 10.25 10.25 0 01-3.36 3.02 9.64 9.64 0 01-4.812 1.14 10.136 10.136 0 01-4.897-1.11h.002zm42.824-1.965a9.196 9.196 0 00.143 1.68c.081.481.265.938.541 1.34.297.406.701.722 1.167.912.662.255 1.37.371 2.079.342a6.799 6.799 0 001.765-.228v-1.824c-.526.098-1.059.156-1.595.171a1.804 1.804 0 01-1.139-.313 1.71 1.71 0 01-.569-.826 4.166 4.166 0 01-.199-1.14 26.17 26.17 0 01-.029-1.254v-17.04c0-2.241-.806-4.055-2.42-5.442-1.614-1.386-4.186-2.08-7.716-2.08-3.532 0-6.256.808-8.173 2.422-1.916 1.615-2.951 4.037-3.103 7.266h2.164c.151-2.621 1.034-4.578 2.648-5.87 1.615-1.29 3.731-1.937 6.35-1.937a13.395 13.395 0 013.759.456c.91.246 1.762.673 2.506 1.254a4.997 4.997 0 011.423 1.823c.307.7.462 1.458.456 2.223.012.858-.046 1.715-.171 2.564a2.919 2.919 0 01-.854 1.681 4.687 4.687 0 01-2.022 1.026 19.78 19.78 0 01-3.673.541l-3.36.285c-1.234.123-2.46.314-3.673.57-1.225.248-2.4.7-3.474 1.34a7.765 7.765 0 00-2.591 2.564c-.684 1.083-1.025 2.48-1.025 4.189 0 2.812.854 4.892 2.562 6.24 1.709 1.348 4.119 2.022 7.232 2.023 1.309.013 2.613-.16 3.873-.513a11.713 11.713 0 003.16-1.424 10.494 10.494 0 002.364-2.08 9.025 9.025 0 001.48-2.48h.114v1.54-.001zm0-6.896a14.365 14.365 0 01-.313 2.194 9.484 9.484 0 01-1.452 3.363 10.378 10.378 0 01-3.304 3.078c-1.443.893-3.398 1.339-5.866 1.339-2.391 0-4.27-.523-5.637-1.567-1.367-1.045-2.05-2.65-2.05-4.816 0-1.368.265-2.479.797-3.333a5.89 5.89 0 012.078-2.024A9.3 9.3 0 01230.537 54a37.314 37.314 0 013.189-.485l3.645-.342a30.081 30.081 0 003.616-.512c1.082-.228 1.889-.665 2.421-1.311v5.47zm15.205 1.14a6.46 6.46 0 001.965 2.308 8.486 8.486 0 002.875 1.31 13.59 13.59 0 003.418.427c.858-.004 1.714-.07 2.563-.2a8.9 8.9 0 002.562-.769 5.593 5.593 0 001.994-1.567 3.944 3.944 0 00.798-2.536 3.59 3.59 0 00-1.054-2.678 8.38 8.38 0 00-2.765-1.71 27.399 27.399 0 00-3.872-1.197 106.647 106.647 0 01-4.384-1.14 38.808 38.808 0 01-4.442-1.396 15.216 15.216 0 01-3.872-2.136 10.043 10.043 0 01-2.762-3.277c-.703-1.311-1.054-2.897-1.054-4.759a10.658 10.658 0 011.34-5.442 12.115 12.115 0 013.502-3.847 15.259 15.259 0 014.898-2.28 20.848 20.848 0 015.466-.739 25.887 25.887 0 016.121.713 15.283 15.283 0 015.211 2.308 11.697 11.697 0 013.616 4.074c.893 1.653 1.339 3.657 1.339 6.012h-8.657a7.215 7.215 0 00-.768-3.02 5.024 5.024 0 00-1.738-1.88 7.36 7.36 0 00-2.476-.97 15.29 15.29 0 00-3.047-.285c-.728.001-1.453.078-2.164.228a5.796 5.796 0 00-1.964.798 4.921 4.921 0 00-1.452 1.425 3.825 3.825 0 00-.57 2.165 3.642 3.642 0 00.456 1.938c.303.494.901.95 1.794 1.37 1.195.522 2.433.942 3.701 1.253 1.574.418 3.633.95 6.178 1.596.759.152 1.812.427 3.16.826a15.124 15.124 0 014.015 1.91 12.115 12.115 0 013.446 3.504c.968 1.463 1.452 3.334 1.453 5.613a12.451 12.451 0 01-1.081 5.186 11.27 11.27 0 01-3.22 4.132 15.436 15.436 0 01-5.294 2.706 25.029 25.029 0 01-7.318.97c-2.2.004-4.392-.274-6.521-.827a16.373 16.373 0 01-5.581-2.593 12.781 12.781 0 01-3.844-4.502c-.95-1.824-1.406-3.989-1.367-6.497h8.655a7.469 7.469 0 00.741 3.475zm59.112-30.66v7.523h-21.47v8.72h19.705v6.953h-19.705v9.972h21.925v7.523h-30.865V27.3h30.41zm12.841 25.503a13.508 13.508 0 001.908 4.36 9.76 9.76 0 003.417 3.105c1.404.78 3.113 1.169 5.125 1.168 2.011 0 3.721-.39 5.127-1.168a9.816 9.816 0 003.417-3.106 13.508 13.508 0 001.908-4.36c.4-1.631.601-3.306.598-4.986a22.303 22.303 0 00-.598-5.186 13.79 13.79 0 00-1.908-4.473 9.729 9.729 0 00-3.417-3.134c-1.404-.779-3.114-1.168-5.127-1.169-2.014 0-3.723.39-5.125 1.169a9.677 9.677 0 00-3.417 3.134 13.79 13.79 0 00-1.908 4.473c-.402 1.7-.602 3.44-.598 5.186a20.79 20.79 0 00.598 4.987zm-8.172-13.45a20.336 20.336 0 013.931-6.81 17.961 17.961 0 016.292-4.558 20.52 20.52 0 018.399-1.653c3.151 0 5.961.55 8.428 1.653a18.02 18.02 0 016.265 4.559 20.336 20.336 0 013.931 6.81 25.474 25.474 0 011.366 8.462 24.579 24.579 0 01-1.366 8.292 19.815 19.815 0 01-3.931 6.696 18.031 18.031 0 01-6.265 4.474c-2.467 1.083-5.277 1.624-8.428 1.624a20.824 20.824 0 01-8.399-1.624 17.983 17.983 0 01-6.292-4.474 19.815 19.815 0 01-3.931-6.696 24.579 24.579 0 01-1.366-8.292 25.474 25.474 0 011.366-8.462z" fill="#202020"/></g><defs><clipPath id="clip0"><path fill="#fff" transform="translate(0 .735)" d="M0 0h93.45v93.45H0z"/></clipPath><clipPath id="clip1"><path fill="#fff" transform="translate(108.33 26.33)" d="M0 0h252.67v42.568H0z"/></clipPath></defs></svg>