<svg width="361" height="94" fill="none" xmlns="http://www.w3.org/2000/svg"><g clip-path="url(#clip0)"><path d="M72.602 0H20.847C9.334 0 0 9.327 0 20.833v51.784C0 84.123 9.334 93.45 20.847 93.45h51.755c11.514 0 20.848-9.327 20.848-20.833V20.833C93.45 9.327 84.116 0 72.602 0z" fill="#9206FF"/><path fill-rule="evenodd" clip-rule="evenodd" d="M0 63.344L16.421 47.76l11.942 12.986 27.618-29.79-6.72-5.719 21.868-6.786-1.714 22.523-6.72-5.194-34.332 36.904L16.048 59.59 0 74.998V63.344z" fill="#fff"/></g><g clip-path="url(#clip1)"><path fill-rule="evenodd" clip-rule="evenodd" d="M108.328 67.254h2.677l5.182-13.05h19.476l5.126 13.05h2.676l-16.059-40.69h-2.734l-16.344 40.69zm8.655-15.216l9.055-23.023h.114l8.713 23.023h-17.882zm48.064-14.077h-2.392l-9.908 26.785h-.114L142.04 37.961h-2.506l11.789 29.292h2.676l11.048-29.292zm21.071 25.018a9.285 9.285 0 00.142 1.681c.082.48.266.937.542 1.34.297.405.701.72 1.167.911.662.255 1.37.371 2.079.342a6.807 6.807 0 001.765-.228v-1.823c-.526.098-1.059.156-1.595.171a1.805 1.805 0 01-1.139-.313 1.71 1.71 0 01-.569-.826 4.166 4.166 0 01-.199-1.14c-.02-.418-.03-.836-.03-1.254V44.8c0-2.241-.807-4.055-2.42-5.442-1.614-1.386-4.186-2.08-7.717-2.08-3.531 0-6.255.808-8.172 2.422-1.917 1.615-2.952 4.037-3.104 7.266h2.164c.152-2.621 1.034-4.578 2.649-5.87 1.615-1.29 3.731-1.937 6.35-1.937a13.384 13.384 0 013.758.456 7.056 7.056 0 012.506 1.254 4.989 4.989 0 011.424 1.823c.307.7.462 1.458.455 2.223.012.858-.045 1.715-.17 2.564a2.92 2.92 0 01-.855 1.681 4.683 4.683 0 01-2.021 1.026 19.783 19.783 0 01-3.674.541l-3.359.285c-1.234.123-2.46.313-3.673.57-1.225.248-2.4.7-3.474 1.34a7.768 7.768 0 00-2.591 2.564c-.683 1.083-1.025 2.479-1.025 4.188 0 2.812.854 4.892 2.563 6.24 1.708 1.349 4.119 2.023 7.232 2.024 1.308.013 2.612-.16 3.872-.513A11.722 11.722 0 00182.16 66a10.494 10.494 0 002.363-2.08 9.054 9.054 0 001.481-2.479h.114v1.54-.002zm0-6.895a14.49 14.49 0 01-.313 2.193 9.483 9.483 0 01-1.452 3.363 10.378 10.378 0 01-3.304 3.078c-1.443.893-3.398 1.339-5.865 1.339-2.392 0-4.272-.522-5.638-1.567-1.367-1.045-2.05-2.65-2.05-4.816 0-1.367.265-2.479.797-3.333a5.884 5.884 0 012.079-2.024 9.286 9.286 0 012.875-1.054 37.376 37.376 0 013.19-.484l3.644-.343a30.061 30.061 0 003.616-.512c1.083-.228 1.889-.665 2.421-1.311v5.47zm30.24 11.17h2.164v-40.69h-2.164v17.952h-.114a10.033 10.033 0 00-4.186-5.357 12.172 12.172 0 00-3.16-1.396 12.68 12.68 0 00-3.474-.485 12.958 12.958 0 00-5.752 1.197 11.609 11.609 0 00-4.072 3.248 13.792 13.792 0 00-2.42 4.873 23.231 23.231 0 00-.057 11.854 14.544 14.544 0 002.278 4.872 11.235 11.235 0 003.928 3.363c1.595.835 3.493 1.253 5.695 1.254 2.619 0 4.84-.58 6.663-1.739 1.823-1.159 3.342-2.897 4.556-5.214h.114v6.269l.001-.002zm-15.774-2.309a9.881 9.881 0 01-3.388-2.992 13.359 13.359 0 01-1.994-4.302 19.039 19.039 0 01-.655-4.987 21.395 21.395 0 01.598-5.072 12.502 12.502 0 011.937-4.33 9.862 9.862 0 013.388-2.993c1.367-.74 3.018-1.11 4.954-1.11a9.979 9.979 0 014.869 1.14 9.72 9.72 0 013.388 3.048 14.112 14.112 0 011.964 4.331 19.04 19.04 0 01.655 4.986 18.78 18.78 0 01-.655 4.93 13.366 13.366 0 01-1.994 4.302 10.248 10.248 0 01-3.36 3.02 9.64 9.64 0 01-4.812 1.14 10.139 10.139 0 01-4.897-1.11h.002zm42.824-1.965a9.197 9.197 0 00.143 1.68c.081.481.265.938.541 1.34.297.406.701.722 1.167.912a5.23 5.23 0 002.079.342 6.807 6.807 0 001.765-.228v-1.824c-.526.098-1.059.156-1.595.171a1.805 1.805 0 01-1.139-.313 1.71 1.71 0 01-.569-.826 4.166 4.166 0 01-.199-1.14c-.02-.417-.029-.835-.029-1.254V44.8c0-2.241-.806-4.055-2.42-5.442-1.614-1.386-4.186-2.08-7.716-2.08-3.532 0-6.256.808-8.173 2.422-1.916 1.615-2.951 4.037-3.103 7.266h2.164c.151-2.621 1.034-4.578 2.648-5.87 1.615-1.29 3.731-1.937 6.35-1.937a13.395 13.395 0 013.759.456c.91.246 1.762.672 2.506 1.254a4.997 4.997 0 011.423 1.823c.307.7.462 1.458.456 2.223.012.858-.046 1.715-.171 2.564a2.92 2.92 0 01-.854 1.681 4.687 4.687 0 01-2.022 1.026 19.78 19.78 0 01-3.673.541l-3.36.286c-1.234.122-2.46.313-3.673.57-1.225.247-2.4.7-3.474 1.339a7.765 7.765 0 00-2.591 2.564c-.684 1.083-1.025 2.48-1.025 4.188 0 2.813.854 4.893 2.562 6.24 1.709 1.349 4.119 2.023 7.232 2.025 1.309.012 2.613-.16 3.873-.514a11.71 11.71 0 003.16-1.424 10.491 10.491 0 002.364-2.08 9.022 9.022 0 001.48-2.48h.114v1.54-.001zm0-6.896a14.366 14.366 0 01-.313 2.194 9.483 9.483 0 01-1.452 3.363 10.375 10.375 0 01-3.304 3.078c-1.443.893-3.398 1.339-5.866 1.339-2.391 0-4.27-.523-5.637-1.567-1.367-1.045-2.05-2.65-2.05-4.816 0-1.368.265-2.479.797-3.333a5.89 5.89 0 012.078-2.024 9.306 9.306 0 012.876-1.054 37.353 37.353 0 013.189-.485l3.645-.342a30.081 30.081 0 003.616-.512c1.082-.228 1.889-.665 2.421-1.311v5.47zm15.205 1.14a6.463 6.463 0 001.965 2.308 8.49 8.49 0 002.875 1.31c1.117.287 2.265.43 3.418.427a17.7 17.7 0 002.563-.2 8.897 8.897 0 002.562-.769 5.595 5.595 0 001.994-1.567 3.944 3.944 0 00.798-2.536 3.59 3.59 0 00-1.054-2.678 8.378 8.378 0 00-2.765-1.71 27.385 27.385 0 00-3.872-1.197 106.808 106.808 0 01-4.384-1.14 38.808 38.808 0 01-4.442-1.396 15.216 15.216 0 01-3.872-2.137 10.041 10.041 0 01-2.762-3.277c-.703-1.31-1.054-2.896-1.054-4.758a10.659 10.659 0 011.34-5.442 12.117 12.117 0 013.502-3.847 15.259 15.259 0 014.898-2.28 20.848 20.848 0 015.466-.739 25.887 25.887 0 016.121.712 15.285 15.285 0 015.211 2.309 11.696 11.696 0 013.616 4.074c.893 1.653 1.339 3.657 1.339 6.012h-8.657a7.214 7.214 0 00-.768-3.02 5.023 5.023 0 00-1.738-1.88 7.36 7.36 0 00-2.476-.97 15.297 15.297 0 00-3.047-.285c-.728.001-1.453.078-2.164.228a5.799 5.799 0 00-1.964.798A4.92 4.92 0 00259.81 35a3.826 3.826 0 00-.57 2.165 3.642 3.642 0 00.456 1.938c.303.494.901.95 1.794 1.37 1.195.522 2.433.942 3.701 1.253 1.574.418 3.633.95 6.178 1.595.759.153 1.812.428 3.16.827a15.124 15.124 0 014.015 1.91 12.115 12.115 0 013.446 3.504c.968 1.463 1.452 3.334 1.453 5.613a12.45 12.45 0 01-1.081 5.186 11.27 11.27 0 01-3.22 4.132 15.434 15.434 0 01-5.294 2.706 25.026 25.026 0 01-7.318.97c-2.2.004-4.392-.274-6.521-.827a16.373 16.373 0 01-5.581-2.593 12.78 12.78 0 01-3.844-4.502c-.95-1.824-1.406-3.989-1.367-6.497h8.655a7.469 7.469 0 00.741 3.475zm59.112-30.66v7.523h-21.47v8.72h19.705v6.953h-19.705v9.972h21.925v7.523h-30.865v-40.69h30.41zm12.841 25.503a13.507 13.507 0 001.908 4.36 9.761 9.761 0 003.417 3.105c1.404.78 3.113 1.169 5.125 1.168 2.011 0 3.721-.39 5.127-1.168a9.815 9.815 0 003.417-3.106 13.507 13.507 0 001.908-4.36c.4-1.631.601-3.306.598-4.986a22.303 22.303 0 00-.598-5.186 13.789 13.789 0 00-1.908-4.473 9.729 9.729 0 00-3.417-3.135c-1.404-.778-3.114-1.167-5.127-1.168-2.014 0-3.723.39-5.125 1.168a9.675 9.675 0 00-3.417 3.135 13.789 13.789 0 00-1.908 4.473c-.402 1.7-.602 3.44-.598 5.186-.003 1.68.198 3.355.598 4.987zm-8.172-13.45a20.337 20.337 0 013.931-6.81 17.961 17.961 0 016.292-4.558 20.518 20.518 0 018.399-1.653c3.151 0 5.961.55 8.428 1.653a18.019 18.019 0 016.265 4.559 20.337 20.337 0 013.931 6.81 25.475 25.475 0 011.366 8.462 24.579 24.579 0 01-1.366 8.292 19.816 19.816 0 01-3.931 6.696 18.033 18.033 0 01-6.265 4.474c-2.467 1.083-5.277 1.624-8.428 1.624a20.824 20.824 0 01-8.399-1.624 17.983 17.983 0 01-6.292-4.474 19.816 19.816 0 01-3.931-6.696 24.579 24.579 0 01-1.366-8.292 25.475 25.475 0 011.366-8.462z" fill="#fff"/></g><defs><clipPath id="clip0"><path fill="#fff" d="M0 0h93.45v93.45H0z"/></clipPath><clipPath id="clip1"><path fill="#fff" transform="translate(108.33 25.595)" d="M0 0h252.67v42.568H0z"/></clipPath></defs></svg>