<svg width="128" height="128" viewBox="0 0 128 128" fill="none" xmlns="http://www.w3.org/2000/svg">
<path fill-rule="evenodd" clip-rule="evenodd" d="M127.564 128L71.6375 0H128V128H127.564ZM20.7351 0H0V68C0 80.6996 4.02619 92.9842 11.3717 103.147L38.6712 41.0906L20.7351 0ZM11.6058 103.469C11.9471 103.934 12.2954 104.395 12.6506 104.852L33.8933 52.819L11.6058 103.469ZM12.8983 105.168C13.2702 105.639 13.6496 106.105 14.0363 106.566L34.3274 52.7017L12.8983 105.168ZM14.2843 106.86C14.688 107.335 15.0996 107.804 15.5191 108.267L34.6999 52.5746L14.2843 106.86ZM15.7934 108.568C16.23 109.044 16.6749 109.513 17.1281 109.976L35.1349 52.4524L15.7934 108.568ZM17.4073 110.259C17.4626 110.315 17.518 110.371 17.5736 110.426C17.9911 110.844 18.4141 111.255 18.8425 111.658L35.5074 52.3918L17.4073 110.259ZM19.0958 111.896C19.6007 112.366 20.1129 112.827 20.6321 113.279L35.8799 52.3302L19.0958 111.896ZM20.9359 113.541C21.4747 114.004 22.021 114.456 22.5745 114.897L36.2524 52.2696L20.9359 113.541ZM22.8898 115.147C23.4623 115.598 24.0423 116.038 24.6295 116.466L36.6249 52.205L22.8898 115.147ZM24.906 116.667C25.5103 117.102 26.122 117.526 26.7409 117.939L36.9974 52.1474L24.906 116.667ZM27.0693 118.156C27.7052 118.573 28.3485 118.978 28.9987 119.371L37.3073 52.0848L27.0693 118.156ZM29.2945 119.548C29.9598 119.944 30.6322 120.327 31.3115 120.697L37.6808 52.0242L29.2945 119.548ZM31.6651 120.888C32.358 121.259 33.0579 121.617 33.7643 121.96L38.0503 52.0252L31.6651 120.888ZM34.0656 122.106C34.7847 122.45 35.5106 122.781 36.2427 123.096L38.3633 52.0252L34.0656 122.106ZM36.6069 123.252C37.3299 123.558 38.0589 123.85 38.7934 124.127L38.7358 52.0252L36.6069 123.252ZM39.1622 124.265C39.9226 124.547 40.6889 124.813 41.4605 125.064L39.0457 52.0252L39.1622 124.265ZM41.7778 125.166C42.5541 125.414 43.3358 125.645 44.1223 125.861L39.4182 52.0848L41.7778 125.166ZM44.4401 125.947C45.2278 126.159 46.0204 126.355 46.8173 126.534L39.7866 52.0848L44.4401 125.947ZM47.1958 126.618C47.9743 126.788 48.757 126.943 49.5432 127.082L40.1006 52.1474L47.1958 126.618ZM49.9238 127.148C50.7063 127.281 51.4922 127.399 52.2812 127.502L40.4731 52.208L49.9238 127.148ZM52.662 127.55C53.4455 127.646 54.2319 127.728 55.0209 127.793L40.8456 52.2696L52.662 127.55ZM55.3948 127.823C56.177 127.883 56.9617 127.928 57.7483 127.958L41.2181 52.3302L55.3948 127.823ZM58.1265 127.971C58.7498 127.99 59.3744 128 60 128H60.4643L41.5936 52.3918L58.1265 127.971ZM60.8364 128H63.1618L41.9631 52.514L60.8364 128ZM63.5338 128H65.8612L42.3356 52.6362L63.5338 128ZM66.2342 128H68.5625L42.7696 52.7017L66.2342 128ZM68.9345 128H71.202L43.1431 52.819L68.9345 128ZM71.5748 128H73.905L43.5802 52.9412L71.5748 128ZM74.2774 128H76.6012L61.1442 92.5879L44.8138 55.08L74.2774 128Z" fill="#181818"/>
</svg>
