<svg width="390" height="73" fill="none" xmlns="http://www.w3.org/2000/svg"><path d="M132.361 3.169l-.86 9.337h-2.199a35.351 35.351 0 00-.956-3.24c-.319-.889-.797-1.587-1.435-2.095-.637-.572-1.561-.985-2.772-1.24-1.212-.253-2.901-.38-5.068-.38h-5.832v20.58c1.912.128 3.665.16 5.258.096 1.594-.127 2.964-.254 4.112-.381a35.423 35.423 0 003.537-.667c.064.444.096.857.096 1.238 0 .636-.159 1.493-.478 2.573-.319.953-1.02 1.588-2.103 1.906a6.277 6.277 0 01-3.251-.096l-7.171-2v30.68c0 2.223.095 4.065.286 5.526.192 1.398.415 2.541.67 3.43.255 1.017.605 1.81 1.051 2.382H101c.382-.571.701-1.365.956-2.382.255-.889.478-2.032.669-3.43.255-1.46.383-3.271.383-5.43V14.697c0-2.223-.128-4.066-.383-5.526-.191-1.461-.414-2.637-.669-3.526-.255-1.08-.574-1.906-.956-2.477h31.361zM169.92 55.764h-32.318c.383-.572.733-1.397 1.052-2.477.255-.89.478-2.065.669-3.526.255-1.524.383-3.398.383-5.621V14.793c0-2.223-.128-4.065-.383-5.526-.191-1.525-.414-2.732-.669-3.62-.319-1.08-.669-1.907-1.052-2.478h31.362l-.861 9.433h-2.199c-.319-1.27-.637-2.35-.956-3.24-.319-.89-.797-1.62-1.434-2.191-.638-.572-1.562-.985-2.773-1.24-1.211-.253-2.9-.38-5.068-.38h-5.832v17.627c1.912.127 3.665.127 5.259 0 1.593-.127 2.964-.254 4.111-.381a35.447 35.447 0 003.538-.667c.063.38.095.794.095 1.238 0 .7-.159 1.588-.478 2.668-.318.953-1.02 1.588-2.103 1.906a6.277 6.277 0 01-3.251-.095l-7.171-2.001V49.38c0 .318.064.73.191 1.239.191.444.478.89.861 1.334.446.444 1.051.826 1.816 1.143.765.254 1.753.381 2.964.381h3.347c1.466 0 2.645-.254 3.537-.762a6.292 6.292 0 002.104-2.191 10.59 10.59 0 001.243-3.05l.956-3.43h2.199l.861 11.72zm-25.529 12.387a16.332 16.332 0 00-3.92.667c-1.211.317-2.263.73-3.156 1.238.383-1.46 1.052-2.668 2.008-3.62 1.02-1.017 2.104-1.81 3.251-2.383 1.211-.635 2.391-1.08 3.538-1.333 1.147-.318 2.103-.477 2.868-.477 1.403-.063 2.646.032 3.729.286 1.148.254 2.263.572 3.347.953 1.083.318 2.199.603 3.346.857 1.211.255 2.582.35 4.112.286 1.274-.063 2.39-.286 3.346-.667a22.225 22.225 0 002.773-1.334c-.446 1.588-1.179 2.89-2.199 3.907-.956 1.016-2.008 1.81-3.155 2.382-1.148.572-2.263.984-3.347 1.239-1.084.254-1.976.38-2.677.38-1.402.064-2.614-.031-3.633-.285-1.02-.254-2.04-.54-3.06-.858a24.296 24.296 0 00-3.251-.953c-1.084-.254-2.39-.349-3.92-.285zM175.154 52.906c.127-2.922.86-5.559 2.199-7.909a33.678 33.678 0 014.972-6.574 59.06 59.06 0 016.215-5.717 109.098 109.098 0 006.215-5.526c1.976-1.842 3.633-3.748 4.972-5.717 1.338-2.033 2.071-4.288 2.199-6.765a10.137 10.137 0 00-.478-3.62 8.64 8.64 0 00-1.626-3.24c-.701-.953-1.625-1.747-2.773-2.382-1.083-.636-2.326-1.017-3.728-1.144-1.849-.063-3.347.318-4.494 1.144-1.148.762-2.008 1.715-2.582 2.858a8.993 8.993 0 00-.956 3.62c-.064 1.271.064 2.32.382 3.145a7.876 7.876 0 001.53 2.763 9.23 9.23 0 002.486 1.906c.956.444 1.976.73 3.06.857a8.1 8.1 0 003.251-.286c0 .826-.287 1.62-.861 2.383-.51.698-1.211 1.333-2.103 1.905-.829.508-1.785.89-2.869 1.143-1.083.255-2.199.35-3.346.286-.956-.063-2.008-.35-3.155-.857-1.148-.508-2.2-1.239-3.156-2.192-.892-1.016-1.625-2.255-2.199-3.716-.574-1.46-.797-3.176-.669-5.145.064-1.207.382-2.54.956-4.002.574-1.46 1.466-2.795 2.677-4.001 1.275-1.27 2.869-2.287 4.781-3.05 1.976-.825 4.334-1.175 7.075-1.048 2.55.127 4.845.667 6.885 1.62 2.103.953 3.856 2.223 5.258 3.811 1.466 1.525 2.55 3.335 3.251 5.431.765 2.097 1.084 4.352.956 6.765-.191 2.922-.956 5.558-2.294 7.909-1.339 2.287-2.996 4.446-4.972 6.479a70.226 70.226 0 01-6.407 5.812 91.328 91.328 0 00-6.31 5.717 36.636 36.636 0 00-4.972 6.384c-1.339 2.223-2.072 4.732-2.199 7.527a10.53 10.53 0 00.382 3.43 9.628 9.628 0 001.53 3.144c.765.89 1.753 1.652 2.964 2.287s2.677.985 4.398 1.048c1.594.127 3.028-.127 4.303-.762 1.275-.699 2.295-1.588 3.06-2.668.828-1.08 1.37-2.318 1.625-3.716a8.535 8.535 0 00-.287-4.192 7.552 7.552 0 00-1.816-2.859 9.226 9.226 0 00-2.678-2 8.596 8.596 0 00-3.346-1.049 9.055 9.055 0 00-3.442.286c.127-1.778.956-3.271 2.486-4.478 1.53-1.27 3.952-1.81 7.267-1.62 1.083.064 2.231.381 3.442.953 1.211.508 2.294 1.302 3.251 2.382 1.019 1.016 1.848 2.319 2.485 3.907.638 1.588.893 3.43.765 5.526-.127 2.287-.701 4.288-1.721 6.003a12.986 12.986 0 01-4.015 4.097c-1.594 1.016-3.443 1.747-5.546 2.191-2.04.508-4.143.699-6.311.572-5.673-.318-9.848-2.128-12.525-5.431-2.613-3.303-3.761-7.845-3.442-13.625zM250.052 3.264l-.86 9.433h-2.199a158.975 158.975 0 00-.861-3.144 4.281 4.281 0 00-1.434-2.192 6.64 6.64 0 00-2.677-1.334c-1.02-.254-2.614-.38-4.781-.38V35.66h6.693v2.953h-6.693V59.29c0 2.16.096 4.002.287 5.527.128.762.255 1.429.382 2 .128.572.255 1.112.383 1.62.319 1.207.669 2.033 1.052 2.478h-14.342a4.78 4.78 0 00.573-1.144c.192-.444.351-.889.478-1.334.128-.508.255-1.048.383-1.62.127-.571.255-1.238.382-2 .192-1.525.287-3.367.287-5.527V38.614h-6.597V35.66h6.597V5.646c-2.167 0-3.761.127-4.781.381a6.646 6.646 0 00-2.677 1.334c-.637.508-1.083 1.239-1.338 2.192a19.1 19.1 0 01-.478 1.429c-.192.508-.351 1.08-.479 1.715h-2.199l-.86-9.433h35.759zM267.682 59.194c0 2.16.096 4.002.287 5.526.127.763.255 1.43.382 2.001.128.572.255 1.112.383 1.62.319 1.207.669 2.033 1.052 2.478h-14.343c.447-.636.797-1.462 1.052-2.478.128-.508.255-1.048.383-1.62.127-.571.255-1.238.382-2 .191-1.525.287-3.367.287-5.527V36.708c0-2.16-.096-4.002-.287-5.526a38.521 38.521 0 00-.382-2.001 63.156 63.156 0 00-.383-1.62c-.255-1.017-.605-1.842-1.052-2.477h14.343c-.383.444-.733 1.27-1.052 2.477a63.156 63.156 0 00-.383 1.62 38.521 38.521 0 00-.382 2c-.191 1.525-.287 3.367-.287 5.527v22.486zm-5.067-37.35l-5.833-9.719 5.833-9.814 5.736 9.814-5.736 9.719zM313.397 3.169c-.318.38-.605.857-.86 1.429l-.861 1.715c-.255.635-.446 1.398-.573 2.287l-11.856 58.312c.127.699.286 1.302.478 1.81.191.509.35.921.478 1.239.191.381.35.667.478.858h-14.342c.127-.255.287-.54.478-.858.255-.572.542-1.525.86-2.858-.382-2.16-.924-5.082-1.625-8.766-.638-3.684-1.339-7.623-2.104-11.815a448.766 448.766 0 00-2.294-12.768c-.765-4.32-1.466-8.226-2.104-11.72-.574-3.493-1.083-6.352-1.53-8.575l-.573-3.335a22.032 22.032 0 00-.861-2.858 14.393 14.393 0 00-.86-2.192 13.562 13.562 0 00-1.052-1.905h14.342a9.868 9.868 0 00-.956 2.191c-.191.699-.319 1.62-.383 2.763-.063 1.144.064 2.478.383 4.002a2311.06 2311.06 0 003.442 19.342c.446 2.668.924 5.431 1.434 8.29a578.7 578.7 0 011.434 8.385c.51 2.731.988 5.367 1.435 7.908.446 2.54.86 4.796 1.243 6.765L308.33 7.552a6.076 6.076 0 000-1.525V4.598a11.473 11.473 0 01-.096-1.43h5.163zM340.015 70.819c.319-.572.605-1.303.86-2.192.192-.762.319-1.683.383-2.763.127-1.144.032-2.51-.287-4.097l-4.494-23.249h-9.944l-6.31 27.25a9.175 9.175 0 00-.192 1.811v1.62c0 .571.032 1.111.096 1.62h-5.163c.319-.445.605-.953.86-1.525.255-.508.479-1.08.67-1.715.255-.699.51-1.461.765-2.287l13.29-57.36c-.51-1.714-.924-2.921-1.243-3.62l-.574-1.143h10.996l5.928 30.3 5.928 30.299c.191 1.08.446 2.064.765 2.953.319.826.637 1.557.956 2.192.319.699.669 1.334 1.052 1.906h-14.342zm-4.112-35.35l-4.015-20.485-4.685 20.485h8.7zM390 70.819h-32.318c.383-.572.733-1.398 1.052-2.478.255-.89.478-2.064.67-3.525.254-1.525.382-3.399.382-5.622v-44.4c0-2.224-.128-4.066-.382-5.527-.192-1.525-.415-2.732-.67-3.62-.319-1.08-.669-1.907-1.052-2.478h14.343c-.447.571-.797 1.397-1.052 2.477-.319.89-.574 2.096-.765 3.62-.191 1.462-.287 3.304-.287 5.527V64.34c0 .318.064.73.191 1.239.192.445.478.89.861 1.334.446.445 1.052.826 1.816 1.143.765.254 1.753.381 2.965.381h3.346c1.466 0 2.645-.254 3.538-.762a6.298 6.298 0 002.103-2.191 11.33 11.33 0 001.339-2.954l.956-3.43h2.199l.765 11.72zm-6.884-43.068a14.908 14.908 0 00-.67-3.81c-.318-1.271-.733-2.351-1.242-3.24 1.466.38 2.677 1.08 3.633 2.096a10.676 10.676 0 012.39 3.24c.638 1.143 1.084 2.286 1.339 3.43.318 1.143.478 2.096.478 2.858.064 1.397-.032 2.668-.287 3.811a31.242 31.242 0 01-.956 3.24 44.813 44.813 0 00-.861 3.43c-.255 1.143-.35 2.477-.286 4.002.063 1.27.286 2.382.669 3.334.382.953.828 1.874 1.338 2.764-1.593-.445-2.9-1.144-3.92-2.097-1.02-1.016-1.816-2.096-2.39-3.24-.574-1.143-.988-2.254-1.243-3.334-.255-1.08-.383-1.97-.383-2.668-.063-1.397.032-2.604.287-3.62.255-1.017.542-2.033.861-3.05a25.75 25.75 0 00.956-3.144c.255-1.143.351-2.477.287-4.002z" fill="#fff"/><g clip-path="url(#clip0)" fill="#fff"><path d="M48.776 2.107c0 1.127-.873 2.008-1.988 2.008S44.8 3.185 44.8 2.107c0-1.127.873-2.009 1.988-2.009s1.988.882 1.988 2.009zM35.2 2.107c0 1.127-.873 2.008-1.988 2.008s-1.988-.93-1.988-2.008c0-1.127.873-2.009 1.988-2.009S35.2.98 35.2 2.107zM8.34 42.575c.63 0 1.115.49 1.115 1.127s-.485 1.127-1.116 1.127c-.63 0-1.115-.49-1.115-1.127 0-.588.485-1.127 1.115-1.127zM6.933 40.322c-1.115 0-2.036-.931-2.036-2.058 0-1.127.921-2.058 2.036-2.058s2.037.93 2.037 2.058c-.049 1.127-.922 2.057-2.037 2.057zM8.097 31.552a1.76 1.76 0 01-1.745 1.666h-.097c-.97-.05-1.697-.833-1.649-1.813.146-2.646 1.697-7.888 6.788-8.378 2.521-.245 4.46.637 6.012 1.323 2.182.98 2.958 1.224 4.412-.147.291-.294.63-.588.97-.931 2.57-2.499 6.109-5.88 10.473-5.683 2.327.098 4.557 1.175 6.739 3.233 2.182-2.058 4.412-3.135 6.74-3.233 1.6-.098 3.102.343 4.46 1.029 2.376 1.175 4.364 3.086 6.012 4.654.34.343.679.637.97.93 1.454 1.323 2.182 1.078 4.412.148 1.551-.686 3.49-1.568 6.012-1.323 5.14.49 6.691 5.683 6.788 8.378.048.98-.727 1.764-1.649 1.813h-.097a1.76 1.76 0 01-1.745-1.666c0-.196-.242-4.704-3.636-5.047-1.6-.147-2.91.441-4.267 1.03-2.23.98-4.946 2.204-8.145-.785-.34-.294-.68-.637-1.019-.98-1.066-1.028-2.23-2.106-3.442-2.988-1.406-1.029-2.958-1.764-4.51-1.715-1.793.098-3.684 1.225-5.575 3.38 0 .05-.048.05-.097.05-.048.049-.048.049-.048.098l-.049.049c-.048.049-.097.049-.145.098-.049.049-.097.049-.146.098-.048.049-.097.049-.145.049-.049 0-.097.049-.146.049-.048 0-.097.049-.145.049-.049 0-.097 0-.194.049h-.291c-.048 0-.097 0-.194-.05-.048 0-.097 0-.145-.048-.049 0-.097-.05-.146-.05-.048 0-.097-.048-.145-.048-.049-.05-.097-.05-.146-.098-.048-.05-.097-.05-.145-.098l-.049-.05c-.048 0-.048-.048-.048-.097-.049-.05-.049-.05-.097-.05-1.891-2.155-3.782-3.33-5.576-3.38-2.909-.098-5.576 2.45-7.951 4.703-.34.343-.68.686-1.019.98-3.151 2.94-5.915 1.764-8.145.784-1.358-.588-2.667-1.176-4.267-1.029-3.442.343-3.733 4.85-3.733 5.047zM13.721 14.306s-1.648 1.029-2.182 1.029a1.03 1.03 0 010-2.058c.534 0 2.182 1.03 2.182 1.03zM12.364 9.75a.988.988 0 011.406 0c.388.392.824 2.253.824 2.253s-1.842-.44-2.23-.832a1.013 1.013 0 010-1.421zM14.642 16.56s-.436 1.862-.824 2.253a.988.988 0 01-1.406 0 1.013 1.013 0 010-1.42c.388-.392 2.23-.833 2.23-.833zM16.873 12.248c1.115 0 2.036.931 2.036 2.058 0 1.127-.921 2.058-2.036 2.058s-2.037-.931-2.037-2.058c0-1.127.922-2.058 2.037-2.058zM15.855 8.917c0-.54.436-1.03 1.018-1.03.533 0 1.018.442 1.018 1.03 0 .539-1.018 2.204-1.018 2.204s-1.018-1.665-1.018-2.204zM17.891 19.695c0 .54-.436 1.03-1.018 1.03a1.03 1.03 0 01-1.018-1.03c0-.539 1.018-2.204 1.018-2.204s1.018 1.665 1.018 2.204zM21.382 11.17c-.388.392-2.23.833-2.23.833s.436-1.861.824-2.253a.988.988 0 011.406 0 1.013 1.013 0 010 1.42zM22.206 13.277a1.03 1.03 0 010 2.058c-.533 0-2.182-1.029-2.182-1.029s1.649-1.029 2.182-1.029zM21.382 17.393a1.013 1.013 0 010 1.42.988.988 0 01-1.406 0c-.388-.391-.825-2.253-.825-2.253s1.843.44 2.23.833zM28.46 14.306c0-.833.68-1.519 1.504-1.47.824 0 3.927 1.568 3.927 1.568s-3.151 1.47-3.976 1.47c-.824-.098-1.454-.735-1.454-1.568zM37.43 14.306c0-1.519 1.212-2.744 2.715-2.744s2.716 1.225 2.716 2.744c0 1.519-1.212 2.744-2.715 2.744-1.504 0-2.716-1.225-2.716-2.744zM51.879 14.306c0 .49-.194.882-.533 1.176a1.522 1.522 0 01-.922.343c-.824 0-3.975-1.47-3.975-1.47s3.102-1.519 3.927-1.568c.533 0 .97.245 1.212.637.145.245.242.54.29.882zM59.879 14.306s-1.649 1.029-2.182 1.029a1.03 1.03 0 010-2.058c.533 0 2.182 1.03 2.182 1.03zM58.57 9.75a.988.988 0 011.406 0c.388.392.824 2.253.824 2.253s-1.842-.44-2.23-.832a1.013 1.013 0 010-1.421zM60.8 16.56s-.436 1.862-.824 2.253a.988.988 0 01-1.406 0 1.013 1.013 0 010-1.42c.388-.392 2.23-.833 2.23-.833zM63.03 12.248c1.115 0 2.037.931 2.037 2.058 0 1.127-.922 2.058-2.037 2.058-1.115 0-2.036-.931-2.036-2.058 0-1.127.921-2.058 2.036-2.058zM62.06 8.917c0-.54.437-1.03 1.019-1.03.533 0 1.018.442 1.018 1.03 0 .539-1.018 2.204-1.018 2.204S62.06 9.456 62.06 8.917zM64.049 19.695c0 .54-.437 1.03-1.019 1.03a1.03 1.03 0 01-1.018-1.03c0-.539 1.018-2.204 1.018-2.204s1.019 1.665 1.019 2.204zM67.54 11.17c-.389.392-2.23.833-2.23.833s.435-1.861.823-2.253a.988.988 0 011.406 0 1.013 1.013 0 010 1.42zM68.412 13.277a1.03 1.03 0 010 2.058c-.533 0-2.182-1.029-2.182-1.029s1.6-1.029 2.182-1.029zM67.54 17.393a1.013 1.013 0 010 1.42.988.988 0 01-1.407 0c-.388-.391-.824-2.253-.824-2.253s1.843.44 2.23.833zM70.982 38.264c0-1.127.921-2.058 2.036-2.058s2.037.93 2.037 2.058c0 1.127-.922 2.057-2.037 2.057-1.115 0-2.036-.93-2.036-2.057zM72.727 43.702c0 .637-.485 1.127-1.115 1.127s-1.115-.49-1.115-1.127.485-1.127 1.115-1.127c.582 0 1.115.54 1.115 1.127zM57.794 71.236c-.63 0-1.115-.49-1.115-1.127 0-.636.485-1.126 1.115-1.126s1.115.49 1.115 1.126c.049.637-.485 1.127-1.115 1.127z"/><path d="M48.921 51.688a15.333 15.333 0 01-1.988-4.948c-.775-3.577-.242-7.105 1.212-9.848.873-1.666 2.085-3.038 3.588-4.018a9.407 9.407 0 013.055-1.273c5.867-1.323 11.879 3.38 13.382 10.435.727 3.38.29 6.712-.97 9.358-1.406 2.94-3.83 5.095-6.885 5.781-4.315.98-8.776-1.372-11.394-5.487zM39.952 47.132s3.49 4.8 3.49 6.712c0 1.96-1.551 3.527-3.49 3.527-1.94 0-3.491-1.568-3.491-3.527.048-1.911 3.49-6.712 3.49-6.712zM29.818 29.494c-.97-1.47-.533-3.43.873-4.41 1.454-.98 3.394-.538 4.364.883.97 1.47 1.987 8.77 1.987 8.77s-6.254-3.773-7.224-5.243zM37.964 41.4c0-1.127.92-2.058 2.036-2.058 1.115 0 2.036.93 2.036 2.057 0 1.127-.92 2.058-2.036 2.058-1.164-.049-2.036-.93-2.036-2.058zM42.86 34.785s1.019-7.3 1.989-8.77a3.114 3.114 0 014.363-.881 3.187 3.187 0 01.873 4.409c-.921 1.42-7.224 5.242-7.224 5.242zM48.727 56.293a1.927 1.927 0 012.522 1.127c.387 1.029.096 5.585.096 5.585S48 59.87 47.613 58.89c-.388-1.029.146-2.156 1.115-2.597zM65.31 32.483a2.003 2.003 0 01.387-2.842 1.956 1.956 0 012.812.392c.679.882 1.649 5.536 1.649 5.536s-4.17-2.205-4.849-3.087zM11.442 29.984c.68-.882 1.94-1.078 2.813-.392.872.686 1.066 1.96.387 2.842-.678.881-4.848 3.037-4.848 3.037s.97-4.605 1.648-5.487zM12.267 42.036c1.551-7.055 7.515-11.758 13.381-10.435 2.91.637 5.237 2.645 6.643 5.29 1.455 2.745 1.988 6.272 1.212 9.849-1.551 7.055-7.515 11.758-13.382 10.435-3.054-.686-5.478-2.841-6.885-5.781-1.26-2.695-1.697-5.977-.97-9.358zM32.29 58.89c-.387 1.029-3.732 4.115-3.732 4.115s-.291-4.556.097-5.585c.387-1.029 1.551-1.519 2.52-1.127a2.033 2.033 0 011.116 2.597zM22.109 71.236c-.63 0-1.115-.49-1.115-1.127 0-.636.485-1.126 1.115-1.126s1.115.49 1.115 1.126c.049.637-.485 1.127-1.115 1.127zM34.473 73c-1.115 0-2.037-.93-2.037-2.058 0-1.126.922-2.057 2.037-2.057 1.115 0 2.036.93 2.036 2.057A2.028 2.028 0 0134.473 73zM45.43 73c-1.115 0-2.036-.93-2.036-2.058 0-1.126.921-2.057 2.036-2.057s2.037.93 2.037 2.057A2.028 2.028 0 0145.43 73z"/><path d="M54.012 69.424a1.62 1.62 0 01-1.309.636c-.29 0-.63-.098-.873-.245l-6.788-4.36-3.49 2.744c-.049.098-.097.147-.146.196-.34.44-.873.686-1.406.637a1.608 1.608 0 01-1.406-.637c-.049-.05-.097-.147-.146-.196l-1.745-1.372-1.745-1.372-6.788 4.36c-.291.196-.582.245-.873.245-.485 0-.97-.245-1.31-.636l-3.781-4.998c-.533-.735-.436-1.764.29-2.352.728-.538 1.746-.44 2.328.294l2.86 3.773 6.498-4.165a1.589 1.589 0 011.89.099l3.443 2.694.533.392 3.928-3.087c.533-.44 1.309-.49 1.89-.097l6.498 4.164 2.86-3.773a1.623 1.623 0 012.328-.294c.727.54.872 1.617.29 2.352l-3.83 4.998z"/><path d="M63.515 69.914s-.485 1.47-1.697 1.372c-.824-.05-1.309-.294-1.503-.98v-8.378c9.94-6.32 16.533-17.099 16.533-29.396 0-10.974-3.83-20.724-11.539-27.191h-.049l.049.049c-1.018-.294-1.89-.686-2.715-1.03-2.182-.979-2.958-1.224-4.412.148-.291.294-.63.588-.97.93-1.26 1.226-2.764 2.646-4.51 3.822-1.744 1.176-3.78 1.96-5.963 1.862-2.327-.098-4.557-1.176-6.74-3.234-2.18 2.058-4.411 3.136-6.739 3.234-4.363.196-7.902-3.185-10.472-5.683-.34-.343-.679-.637-.97-.931-1.454-1.323-2.182-1.078-4.412-.147-.727.294-1.503.637-2.376.93C7.224 11.76 3.345 21.559 3.345 32.533c0 12.297 6.594 23.125 16.534 29.396v6.957c0 1.862-.437 2.303-1.649 2.352-1.26.098-1.697-1.372-1.697-1.372V63.74C5.043 54.04-4.46 40.37 2.23 19.353 5.43 9.21 12.46 3.38 18.91.049a6.824 6.824 0 013.636.637c.097.05.243.147.34.196 0 0 .048 0 .048.05.049.048.146.097.194.146.097.05.146.098.243.147l.048.05c.097.097.242.195.34.244.145.098.29.245.436.392.34.294.679.637 1.018.98 2.376 2.254 5.043 4.85 7.952 4.703 1.794-.098 3.684-1.224 5.575-3.38 0-.05.049-.05.097-.05.049-.048.049-.048.049-.097l.048-.05c.049-.048.097-.048.146-.097.048-.05.097-.05.145-.098.049-.05.097-.05.146-.05.048.001.097-.048.145-.048.049 0 .097-.049.145-.049.049 0 .098 0 .195-.049h.29c.049 0 .097 0 .194.049.049 0 .097 0 .146.049.048 0 .097.049.145.049.049 0 .097.049.146.049.048.049.097.049.145.098.049.049.097.049.146.098l.048.049c.049 0 .049.049.049.098.048.049.048.049.096.049 1.891 2.156 3.782 3.331 5.576 3.38 2.91.098 5.576-2.45 7.952-4.703.34-.343.679-.686 1.018-.98.145-.147.29-.245.436-.392.097-.098.194-.147.291-.245.049 0 .049-.049.097-.098.049-.049.146-.098.194-.147.049-.049.146-.098.194-.147 0 0 .049 0 .049-.049.097-.049.242-.147.339-.196A6.824 6.824 0 0161.042 0c6.4 3.332 13.43 9.162 16.68 19.304 6.69 21.018-2.813 34.687-14.255 44.437.048 2.302.048 4.36.048 6.173z"/></g><defs><clipPath id="clip0"><path fill="#fff" d="M0 0h80v73H0z"/></clipPath></defs></svg>