<svg width="357" height="67" viewBox="0 0 357 67" fill="none" xmlns="http://www.w3.org/2000/svg">
<path fill-rule="evenodd" clip-rule="evenodd" d="M0.152344 35.4827C0.152344 44.1325 3.65761 51.9636 9.32534 57.6313C14.9939 63.2999 22.825 66.8052 31.4748 66.8052C40.1247 66.8052 47.9557 63.2999 53.6235 57.6313C59.2912 51.9636 62.7973 44.1325 62.7973 35.4827C62.7973 26.8329 59.2912 19.0018 53.6235 13.3341C47.9557 7.66633 40.1247 4.1602 31.4748 4.1602C22.825 4.1602 14.9939 7.66633 9.32534 13.3341C3.65761 19.0018 0.152344 26.8329 0.152344 35.4827ZM31.4748 37.5348L30.5276 35.8938L29.5804 34.2536L30.5276 32.6126L31.4748 30.9725L32.422 29.3314L33.3692 27.6904L31.4748 24.4092L29.5804 27.6904L28.6332 29.3314L27.6851 30.9725L26.7388 32.6126L25.7916 34.2536L24.8435 35.8938L23.8972 37.5348L22.9491 39.175L22.0019 40.816L21.0547 42.457L20.1075 44.0972L19.1603 45.7382H21.0547H22.9491L23.8972 44.0972L24.8435 42.457L25.7916 40.816L26.7388 39.175L27.6851 37.5348L28.6332 39.175L29.5804 40.816L28.6332 42.457L27.6851 44.0972L26.7388 45.7382L25.7916 47.3792L24.8435 49.0194H22.9491H21.0547H19.1603H17.2658H15.3715H13.477L14.4242 47.3792L15.3715 45.7382L16.3186 44.0972L17.2658 42.457L18.2131 40.816L19.1603 39.175L20.1075 37.5348L21.0547 35.8938L22.0019 34.2536L22.9491 32.6126L23.8972 30.9725L24.8435 29.3314L25.7916 27.6904L27.6851 24.4092L29.5804 21.1281L31.4748 17.8469L33.3692 21.1281L35.2637 24.4092L37.1581 27.6904L36.2109 29.3314L35.2637 30.9725L34.3164 32.6126L33.3692 34.2536L32.422 35.8938L31.4748 37.5348ZM49.4726 49.0194H43.7885L44.7357 47.3792L43.7885 45.7382L42.8422 44.0972L41.8941 45.7382L40.9478 47.3792L40.0005 49.0194H38.1053H36.2109H34.3164H32.422H30.5276H28.6332L29.5804 47.3792L30.5276 45.7382L31.4748 44.0972L32.422 42.457L33.3692 40.816L34.3164 39.175L35.2637 37.5348L36.2109 35.8938L37.1581 34.2536L38.1053 32.6126L39.0525 30.9725L40.0005 32.6126L40.9478 34.2536L40.0005 35.8938L39.0525 37.5348L38.1053 39.175L37.1581 40.816L36.2109 42.457L35.2637 44.0972L34.3164 45.7382H36.2109H38.1053L39.0525 44.0972L40.0005 42.457L40.9478 40.816L41.8941 39.175L42.8422 37.5348L43.7885 39.175L44.7357 40.816L45.6838 42.457L46.631 44.0972L47.5782 45.7382L48.5254 47.3792L49.4726 49.0194Z" fill="white"/>
<path d="M83.7159 23.878V22.2994H89.9348V23.878H83.7159ZM81.308 26.2859L85.8526 15.9529H87.8299L92.4224 26.2859H90.4132L86.4426 16.9575H87.2399L83.2853 26.2859H81.308ZM98.0741 25.0102H97.4363L100.195 18.3448H102.156L98.6163 26.2859H96.9101L93.4179 18.3448H95.3952L98.0741 25.0102ZM107.809 26.4613C107.075 26.4613 106.406 26.2859 105.8 25.9351C105.194 25.5843 104.71 25.1006 104.348 24.484C103.998 23.8568 103.822 23.1392 103.822 22.3313C103.822 21.5021 104.003 20.7792 104.364 20.1626C104.726 19.5354 105.215 19.0464 105.831 18.6956C106.459 18.3448 107.16 18.1694 107.936 18.1694C108.797 18.1694 109.478 18.3554 109.977 18.7275C110.477 19.0996 110.833 19.5992 111.046 20.2264C111.269 20.8536 111.381 21.5552 111.381 22.3313C111.381 22.7778 111.317 23.2402 111.189 23.7186C111.062 24.197 110.86 24.6435 110.583 25.058C110.307 25.4726 109.94 25.8128 109.483 26.0786C109.026 26.3337 108.468 26.4613 107.809 26.4613ZM108.367 24.9943C108.962 24.9943 109.472 24.8773 109.898 24.6435C110.323 24.4096 110.642 24.096 110.854 23.7026C111.078 23.2987 111.189 22.8416 111.189 22.3313C111.189 21.7679 111.078 21.2895 110.854 20.8961C110.631 20.4922 110.307 20.1839 109.882 19.9713C109.467 19.7587 108.962 19.6524 108.367 19.6524C107.506 19.6524 106.841 19.9022 106.374 20.4018C105.906 20.8908 105.672 21.534 105.672 22.3313C105.672 22.8522 105.784 23.3146 106.007 23.7186C106.241 24.1119 106.56 24.4255 106.964 24.6594C107.368 24.8826 107.835 24.9943 108.367 24.9943ZM111.189 18.3448H112.991V26.2859H111.317C111.317 26.2859 111.306 26.1849 111.285 25.9829C111.264 25.7809 111.242 25.5311 111.221 25.2335C111.2 24.9358 111.189 24.6541 111.189 24.3883V18.3448ZM119.639 26.4613C118.895 26.4613 118.22 26.2859 117.614 25.9351C117.008 25.5843 116.529 25.1006 116.178 24.484C115.828 23.8568 115.652 23.1392 115.652 22.3313C115.652 21.5021 115.822 20.7792 116.162 20.1626C116.513 19.5354 116.986 19.0464 117.582 18.6956C118.188 18.3448 118.873 18.1694 119.639 18.1694C120.308 18.1694 120.872 18.281 121.329 18.5042C121.797 18.7169 122.163 19.0145 122.429 19.3972C122.706 19.7693 122.902 20.2051 123.019 20.7048C123.147 21.2044 123.211 21.7466 123.211 22.3313C123.211 22.7778 123.147 23.2402 123.019 23.7186C122.892 24.197 122.69 24.6435 122.413 25.058C122.137 25.4726 121.77 25.8128 121.313 26.0786C120.856 26.3337 120.298 26.4613 119.639 26.4613ZM120.197 24.9943C120.792 24.9943 121.302 24.8773 121.728 24.6435C122.153 24.4096 122.472 24.096 122.684 23.7026C122.908 23.2987 123.019 22.8416 123.019 22.3313C123.019 21.7679 122.908 21.2895 122.684 20.8961C122.461 20.4922 122.137 20.1839 121.712 19.9713C121.297 19.748 120.792 19.6364 120.197 19.6364C119.336 19.6364 118.671 19.8862 118.204 20.3859C117.736 20.8855 117.502 21.534 117.502 22.3313C117.502 22.8522 117.614 23.3146 117.837 23.7186C118.071 24.1119 118.39 24.4255 118.794 24.6594C119.198 24.8826 119.665 24.9943 120.197 24.9943ZM123.019 15.1556H124.821V26.2859H123.147C123.126 26.0414 123.099 25.7384 123.067 25.377C123.035 25.0155 123.019 24.686 123.019 24.3883V15.1556ZM131.78 26.4613C131.047 26.4613 130.377 26.2859 129.771 25.9351C129.165 25.5843 128.681 25.1006 128.32 24.484C127.969 23.8568 127.794 23.1392 127.794 22.3313C127.794 21.5021 127.974 20.7792 128.336 20.1626C128.697 19.5354 129.186 19.0464 129.803 18.6956C130.43 18.3448 131.132 18.1694 131.908 18.1694C132.769 18.1694 133.449 18.3554 133.949 18.7275C134.448 19.0996 134.805 19.5992 135.017 20.2264C135.24 20.8536 135.352 21.5552 135.352 22.3313C135.352 22.7778 135.288 23.2402 135.161 23.7186C135.033 24.197 134.831 24.6435 134.555 25.058C134.278 25.4726 133.912 25.8128 133.454 26.0786C132.997 26.3337 132.439 26.4613 131.78 26.4613ZM132.338 24.9943C132.934 24.9943 133.444 24.8773 133.869 24.6435C134.294 24.4096 134.613 24.096 134.826 23.7026C135.049 23.2987 135.161 22.8416 135.161 22.3313C135.161 21.7679 135.049 21.2895 134.826 20.8961C134.603 20.4922 134.278 20.1839 133.853 19.9713C133.438 19.7587 132.934 19.6524 132.338 19.6524C131.477 19.6524 130.813 19.9022 130.345 20.4018C129.877 20.8908 129.643 21.534 129.643 22.3313C129.643 22.8522 129.755 23.3146 129.978 23.7186C130.212 24.1119 130.531 24.4255 130.935 24.6594C131.339 24.8826 131.807 24.9943 132.338 24.9943ZM135.161 18.3448H136.963V26.2859H135.288C135.288 26.2859 135.278 26.1849 135.256 25.9829C135.235 25.7809 135.214 25.5311 135.193 25.2335C135.171 24.9358 135.161 24.6541 135.161 24.3883V18.3448Z" fill="white"/>
<path d="M91.4715 36.7815C93.5407 36.7815 95.2681 37.0283 96.6539 37.5219C98.0397 38.0154 99.1407 38.6893 99.957 39.5436C100.792 40.3789 101.381 41.347 101.722 42.448C102.083 43.5491 102.264 44.7071 102.264 45.922C102.264 47.1369 102.064 48.3044 101.666 49.4244C101.286 50.5444 100.669 51.5411 99.8147 52.4143C98.9794 53.2685 97.8689 53.9519 96.4831 54.4645C95.1163 54.9581 93.4457 55.2048 91.4715 55.2048H80.9357V36.7815H91.4715ZM84.7229 51.9587H91.3861C92.7529 51.9587 93.8824 51.7973 94.7746 51.4746C95.6858 51.1329 96.4071 50.6773 96.9387 50.1078C97.4702 49.5383 97.8499 48.8929 98.0777 48.1715C98.3055 47.4501 98.4194 46.7003 98.4194 45.922C98.4194 45.1437 98.3055 44.4033 98.0777 43.7009C97.8499 42.9986 97.4702 42.3721 96.9387 41.8216C96.4071 41.2711 95.6858 40.8345 94.7746 40.5117C93.8824 40.189 92.7529 40.0277 91.3861 40.0277H84.7229V51.9587ZM106.504 36.7815H110.291V55.2048H106.504V36.7815ZM125.787 55.575C124.079 55.575 122.532 55.3757 121.146 54.977C119.779 54.5784 118.593 53.9804 117.587 53.1831C116.599 52.3858 115.84 51.3987 115.309 50.2217C114.777 49.0447 114.511 47.6874 114.511 46.1498C114.511 44.5932 114.787 43.2169 115.337 42.0209C115.907 40.806 116.704 39.7809 117.729 38.9456C118.773 38.1104 120.007 37.4839 121.431 37.0663C122.873 36.6297 124.468 36.4113 126.215 36.4113C128.284 36.4113 130.068 36.7056 131.568 37.2941C133.068 37.8636 134.244 38.6704 135.099 39.7144C135.972 40.7585 136.466 42.0019 136.579 43.4447H132.935C132.688 42.6853 132.28 42.0304 131.71 41.4799C131.16 40.9104 130.429 40.4738 129.518 40.17C128.606 39.8473 127.505 39.686 126.215 39.686C124.563 39.686 123.149 39.9517 121.972 40.4833C120.814 41.0148 119.931 41.7646 119.324 42.7328C118.716 43.7009 118.412 44.8399 118.412 46.1498C118.412 47.4217 118.678 48.5227 119.21 49.4529C119.741 50.3641 120.557 51.0665 121.659 51.56C122.779 52.0536 124.202 52.3004 125.93 52.3004C127.259 52.3004 128.426 52.1295 129.432 51.7878C130.457 51.4272 131.312 50.9526 131.995 50.3641C132.678 49.7566 133.162 49.0827 133.447 48.3424L134.928 47.8013C134.681 50.2502 133.751 52.158 132.137 53.5248C130.543 54.8916 128.426 55.575 125.787 55.575ZM133.96 55.2048C133.96 54.6164 133.998 53.9424 134.074 53.1831C134.15 52.4048 134.244 51.6265 134.358 50.8482C134.472 50.0509 134.577 49.32 134.672 48.6556H126.243V46.2352H137.234V55.2048H133.96ZM141.764 36.7815H145.551V55.2048H141.764V36.7815ZM148.832 36.7815H168.252V39.9422H148.832V36.7815ZM156.662 39.5436H160.449V55.2048H156.662V39.5436ZM172.713 51.1899V48.0291H184.9V51.1899H172.713ZM168.128 55.2048L176.785 36.7815H180.885L189.627 55.2048H185.498L177.924 38.6039H179.746L172.229 55.2048H168.128ZM196.092 36.7815V52.0441H208.337V55.2048H192.305V36.7815H196.092ZM221.598 51.1899V48.0291H233.786V51.1899H221.598ZM217.014 55.2048L225.67 36.7815H229.771L238.513 55.2048H234.384L226.809 38.6039H228.632L221.114 55.2048H217.014ZM250.838 55.575C249.13 55.575 247.583 55.3757 246.197 54.977C244.83 54.5784 243.643 53.9804 242.637 53.1831C241.65 52.3858 240.891 51.3987 240.359 50.2217C239.828 49.0447 239.562 47.6874 239.562 46.1498C239.562 44.5932 239.837 43.2169 240.388 42.0209C240.957 40.806 241.755 39.7809 242.78 38.9456C243.824 38.1104 245.058 37.4839 246.481 37.0663C247.924 36.6297 249.519 36.4113 251.265 36.4113C253.334 36.4113 255.119 36.7056 256.619 37.2941C258.118 37.8636 259.295 38.6704 260.149 39.7144C261.023 40.7585 261.516 42.0019 261.63 43.4447H257.985C257.739 42.6853 257.33 42.0304 256.761 41.4799C256.21 40.9104 255.48 40.4738 254.568 40.17C253.657 39.8473 252.556 39.686 251.265 39.686C249.614 39.686 248.199 39.9517 247.023 40.4833C245.865 41.0148 244.982 41.7646 244.374 42.7328C243.767 43.7009 243.463 44.8399 243.463 46.1498C243.463 47.4217 243.729 48.5227 244.26 49.4529C244.792 50.3641 245.608 51.0665 246.709 51.56C247.829 52.0536 249.253 52.3004 250.981 52.3004C252.309 52.3004 253.477 52.1295 254.483 51.7878C255.508 51.4272 256.362 50.9526 257.046 50.3641C257.729 49.7566 258.213 49.0827 258.498 48.3424L259.979 47.8013C259.732 50.2502 258.802 52.158 257.188 53.5248C255.593 54.8916 253.477 55.575 250.838 55.575ZM259.01 55.2048C259.01 54.6164 259.048 53.9424 259.124 53.1831C259.2 52.4048 259.295 51.6265 259.409 50.8482C259.523 50.0509 259.627 49.32 259.722 48.6556H251.294V46.2352H262.285V55.2048H259.01ZM270.061 47.5166V52.0441H284.27V55.2048H266.273V36.7815H284.241V39.9422H270.061V44.5267H281.678V47.5166H270.061ZM306.838 51.4461L305.642 51.9302V36.7815H309.429V55.2048H305.642L290.749 40.6541L291.945 40.17V55.2048H288.158V36.7815H291.945L306.838 51.4461ZM335.323 48.5702C335.152 50.0509 334.63 51.3133 333.757 52.3573C332.884 53.4014 331.697 54.1987 330.198 54.7492C328.698 55.2998 326.913 55.575 324.844 55.575C323.117 55.575 321.532 55.3757 320.089 54.977C318.665 54.5784 317.431 53.9804 316.387 53.1831C315.362 52.3858 314.565 51.3987 313.995 50.2217C313.426 49.0258 313.141 47.6305 313.141 46.0359C313.141 44.4413 313.426 43.046 313.995 41.8501C314.565 40.6541 315.362 39.6575 316.387 38.8602C317.431 38.0439 318.665 37.4364 320.089 37.0378C321.532 36.6202 323.117 36.4113 324.844 36.4113C326.913 36.4113 328.698 36.6961 330.198 37.2656C331.716 37.8351 332.912 38.6514 333.785 39.7144C334.659 40.7585 335.171 42.0304 335.323 43.5301H331.564C331.318 42.7328 330.9 42.0494 330.311 41.4799C329.742 40.8914 329.002 40.4453 328.09 40.1416C327.179 39.8378 326.097 39.686 324.844 39.686C323.288 39.686 321.921 39.9328 320.744 40.4263C319.567 40.9009 318.656 41.6128 318.01 42.5619C317.365 43.4921 317.042 44.6501 317.042 46.0359C317.042 47.4027 317.365 48.5512 318.01 49.4814C318.656 50.4115 319.567 51.1234 320.744 51.617C321.921 52.0916 323.288 52.3289 324.844 52.3289C326.097 52.3289 327.17 52.177 328.062 51.8733C328.973 51.5695 329.713 51.1329 330.283 50.5634C330.871 49.9939 331.299 49.3295 331.564 48.5702H335.323ZM355.966 36.7815L347.879 49.3959V55.2048H344.063V49.3959L335.976 36.7815H340.361L347.167 47.8013H344.889L351.58 36.7815H355.966Z" fill="white"/>
</svg>
