<svg width="1926" height="47" viewBox="0 0 1926 47" fill="none" xmlns="http://www.w3.org/2000/svg">
<path opacity="0.9" d="M1789.47 28.7745C1829.25 29.9296 1866.99 19.4642 1891.31 5.75491C1894.62 3.88884 1897.73 1.96773 1900.66 0H1926V47H1553.62C1532.46 40.893 1513.56 33.4033 1502.24 23.6547C1493.92 16.4821 1491 7.84827 1494.37 0H1666.7C1704.97 13.1943 1742.31 27.4025 1789.47 28.7745Z" fill="black" fill-opacity="0.08"/>
<path d="M38.3902 11.9801C39.3236 11.9801 40.0802 11.2235 40.0802 10.2901C40.0802 9.35674 39.3236 8.6001 38.3902 8.6001C37.4568 8.6001 36.7002 9.35674 36.7002 10.2901C36.7002 11.2235 37.4568 11.9801 38.3902 11.9801Z" fill="white"/>
<path d="M53.5904 11.9801C54.5238 11.9801 55.2804 11.2235 55.2804 10.2901C55.2804 9.35674 54.5238 8.6001 53.5904 8.6001C52.657 8.6001 51.9004 9.35674 51.9004 10.2901C51.9004 11.2235 52.657 11.9801 53.5904 11.9801Z" fill="white"/>
<path d="M68.7901 11.9801C69.7235 11.9801 70.4801 11.2235 70.4801 10.2901C70.4801 9.35674 69.7235 8.6001 68.7901 8.6001C67.8567 8.6001 67.1001 9.35674 67.1001 10.2901C67.1001 11.2235 67.8567 11.9801 68.7901 11.9801Z" fill="white"/>
<path d="M85.6803 10.2901C85.6803 11.2201 84.9203 11.9801 83.9903 11.9801C83.0603 11.9801 82.3003 11.2201 82.3003 10.2901C82.3003 9.3601 83.0603 8.6001 83.9903 8.6001C84.9203 8.6001 85.6803 9.3601 85.6803 10.2901Z" fill="white"/>
<path d="M100.88 10.2901C100.88 11.2201 100.12 11.9801 99.19 11.9801C98.26 11.9801 97.5 11.2201 97.5 10.2901C97.5 9.3601 98.26 8.6001 99.19 8.6001C100.12 8.6001 100.88 9.3601 100.88 10.2901Z" fill="white"/>
<path d="M114.39 11.9801C115.324 11.9801 116.08 11.2235 116.08 10.2901C116.08 9.35674 115.324 8.6001 114.39 8.6001C113.457 8.6001 112.7 9.35674 112.7 10.2901C112.7 11.2235 113.457 11.9801 114.39 11.9801Z" fill="white"/>
<path d="M129.59 11.9801C130.524 11.9801 131.28 11.2235 131.28 10.2901C131.28 9.35674 130.524 8.6001 129.59 8.6001C128.657 8.6001 127.9 9.35674 127.9 10.2901C127.9 11.2235 128.657 11.9801 129.59 11.9801Z" fill="white"/>
<path d="M144.79 11.9801C145.723 11.9801 146.48 11.2235 146.48 10.2901C146.48 9.35674 145.723 8.6001 144.79 8.6001C143.857 8.6001 143.1 9.35674 143.1 10.2901C143.1 11.2235 143.857 11.9801 144.79 11.9801Z" fill="white"/>
<path d="M159.99 11.9801C160.924 11.9801 161.68 11.2235 161.68 10.2901C161.68 9.35674 160.924 8.6001 159.99 8.6001C159.057 8.6001 158.3 9.35674 158.3 10.2901C158.3 11.2235 159.057 11.9801 159.99 11.9801Z" fill="white"/>
<path d="M175.19 11.9801C176.123 11.9801 176.88 11.2235 176.88 10.2901C176.88 9.35674 176.123 8.6001 175.19 8.6001C174.257 8.6001 173.5 9.35674 173.5 10.2901C173.5 11.2235 174.257 11.9801 175.19 11.9801Z" fill="white"/>
<path d="M190.39 11.9801C191.324 11.9801 192.08 11.2235 192.08 10.2901C192.08 9.35674 191.324 8.6001 190.39 8.6001C189.457 8.6001 188.7 9.35674 188.7 10.2901C188.7 11.2235 189.457 11.9801 190.39 11.9801Z" fill="white"/>
<path d="M40.0802 23.8004C40.0802 24.7304 39.3202 25.4904 38.3902 25.4904C37.4602 25.4904 36.7002 24.7304 36.7002 23.8004C36.7002 22.8704 37.4602 22.1104 38.3902 22.1104C39.3202 22.1104 40.0802 22.8704 40.0802 23.8004Z" fill="white"/>
<path d="M55.2804 23.8004C55.2804 24.7304 54.5204 25.4904 53.5904 25.4904C52.6604 25.4904 51.9004 24.7304 51.9004 23.8004C51.9004 22.8704 52.6604 22.1104 53.5904 22.1104C54.5204 22.1104 55.2804 22.8704 55.2804 23.8004Z" fill="white"/>
<path d="M70.4801 23.8004C70.4801 24.7304 69.7201 25.4904 68.7901 25.4904C67.8601 25.4904 67.1001 24.7304 67.1001 23.8004C67.1001 22.8704 67.8601 22.1104 68.7901 22.1104C69.7201 22.1104 70.4801 22.8704 70.4801 23.8004Z" fill="white"/>
<path d="M85.6803 23.8004C85.6803 24.7304 84.9203 25.4904 83.9903 25.4904C83.0603 25.4904 82.3003 24.7304 82.3003 23.8004C82.3003 22.8704 83.0603 22.1104 83.9903 22.1104C84.9203 22.1104 85.6803 22.8704 85.6803 23.8004Z" fill="white"/>
<path d="M100.88 23.8004C100.88 24.7304 100.12 25.4904 99.19 25.4904C98.26 25.4904 97.5 24.7304 97.5 23.8004C97.5 22.8704 98.26 22.1104 99.19 22.1104C100.12 22.1104 100.88 22.8704 100.88 23.8004Z" fill="white"/>
<path d="M116.08 23.8004C116.08 24.7304 115.32 25.4904 114.39 25.4904C113.46 25.4904 112.7 24.7304 112.7 23.8004C112.7 22.8704 113.46 22.1104 114.39 22.1104C115.32 22.1104 116.08 22.8704 116.08 23.8004Z" fill="white"/>
<path d="M131.28 23.8004C131.28 24.7304 130.52 25.4904 129.59 25.4904C128.66 25.4904 127.9 24.7304 127.9 23.8004C127.9 22.8704 128.66 22.1104 129.59 22.1104C130.52 22.1104 131.28 22.8704 131.28 23.8004Z" fill="white"/>
<path d="M146.48 23.8004C146.48 24.7304 145.72 25.4904 144.79 25.4904C143.86 25.4904 143.1 24.7304 143.1 23.8004C143.1 22.8704 143.86 22.1104 144.79 22.1104C145.72 22.1104 146.48 22.8704 146.48 23.8004Z" fill="white"/>
<path d="M161.68 23.8004C161.68 24.7304 160.92 25.4904 159.99 25.4904C159.06 25.4904 158.3 24.7304 158.3 23.8004C158.3 22.8704 159.06 22.1104 159.99 22.1104C160.92 22.1104 161.68 22.8704 161.68 23.8004Z" fill="white"/>
<path d="M176.88 23.8004C176.88 24.7304 176.12 25.4904 175.19 25.4904C174.26 25.4904 173.5 24.7304 173.5 23.8004C173.5 22.8704 174.26 22.1104 175.19 22.1104C176.12 22.1104 176.88 22.8704 176.88 23.8004Z" fill="white"/>
<path d="M192.08 23.8004C192.08 24.7304 191.32 25.4904 190.39 25.4904C189.46 25.4904 188.7 24.7304 188.7 23.8004C188.7 22.8704 189.46 22.1104 190.39 22.1104C191.32 22.1104 192.08 22.8704 192.08 23.8004Z" fill="white"/>
<path opacity="0.3" d="M424.255 0C409.249 10.7059 390.897 17.0099 371.1 17.0099C351.303 17.0099 332.95 10.7059 317.944 0H312.623C328.751 12.6497 349.06 20.1999 371.1 20.1999C393.135 20.1999 413.442 12.6497 429.569 0H424.255Z" fill="white" fill-opacity="0.3"/>
</svg>
