<svg width="42" height="42" viewBox="0 0 42 42" fill="none" xmlns="http://www.w3.org/2000/svg">
<path d="M20.9925 0.282104C9.39866 0.282104 0 9.68076 0 21.2746C0 24.3767 0.672865 27.3217 1.88061 29.9715C3.0531 28.8219 5.69797 26.1329 6.89754 24.5734C8.397 22.6241 12.2956 18.1257 15.2945 16.4763C17.6937 15.1568 20.7926 11.628 22.0421 10.0286C22.1921 7.92937 24.8911 4.4806 25.341 4.33066C25.7008 4.2107 26.7904 7.77942 27.2903 9.57878L29.0896 7.47953V11.3781C30.3892 12.7276 33.0782 15.5167 33.4381 15.8765C33.7979 16.2364 34.0878 17.7259 34.1878 18.4256C35.8372 19.7751 39.136 22.5341 39.136 22.7741C39.136 23.0739 38.3863 24.7234 36.8868 25.773C35.3874 26.8226 30.5891 26.5227 29.3895 26.5227C28.1899 26.5227 23.5416 18.5756 22.9418 18.5756C22.462 18.5756 22.2421 19.3753 22.1921 19.7751C21.9921 20.4249 21.2624 21.7244 19.9429 21.7244C18.2935 21.7244 18.1435 21.1246 17.0939 20.5249C16.0443 19.9251 15.1446 19.6252 15.1446 19.7751C15.1446 19.9251 17.0939 23.2239 17.0939 23.6737C17.0939 24.1236 16.1942 25.3231 15.8943 26.0729C15.5944 26.8226 16.0443 28.7719 16.1942 29.2217C16.3442 29.6716 15.8943 30.8712 16.4941 31.9208C16.9739 32.7605 20.0928 32.8704 21.5923 32.8205C21.5923 36.779 23.4916 40.5797 24.4413 41.9851C34.3943 40.3401 41.985 31.6938 41.985 21.2746C41.985 9.68076 32.5863 0.282104 20.9925 0.282104Z" fill="black"/>
</svg>
