<svg width="276" height="42" viewBox="0 0 276 42" fill="none" xmlns="http://www.w3.org/2000/svg">
<g clip-path="url(#clip0)">
<path d="M20.9925 0.282104C9.39866 0.282104 0 9.68076 0 21.2746C0 24.3767 0.672865 27.3217 1.88061 29.9715C3.0531 28.8219 5.69797 26.1329 6.89754 24.5734C8.397 22.6241 12.2956 18.1257 15.2945 16.4763C17.6937 15.1568 20.7926 11.628 22.0421 10.0286C22.1921 7.92937 24.8911 4.4806 25.341 4.33066C25.7008 4.2107 26.7904 7.77942 27.2903 9.57878L29.0896 7.47953V11.3781C30.3892 12.7276 33.0782 15.5167 33.4381 15.8765C33.7979 16.2364 34.0878 17.7259 34.1878 18.4256C35.8372 19.7751 39.136 22.5341 39.136 22.7741C39.136 23.0739 38.3863 24.7234 36.8868 25.773C35.3874 26.8226 30.5891 26.5227 29.3895 26.5227C28.1899 26.5227 23.5416 18.5756 22.9418 18.5756C22.462 18.5756 22.2421 19.3753 22.1921 19.7751C21.9921 20.4249 21.2624 21.7244 19.9429 21.7244C18.2935 21.7244 18.1435 21.1246 17.0939 20.5249C16.0443 19.9251 15.1446 19.6252 15.1446 19.7751C15.1446 19.9251 17.0939 23.2239 17.0939 23.6737C17.0939 24.1236 16.1942 25.3231 15.8943 26.0729C15.5944 26.8226 16.0443 28.7719 16.1942 29.2217C16.3442 29.6716 15.8943 30.8712 16.4941 31.9208C16.9739 32.7605 20.0928 32.8704 21.5923 32.8205C21.5923 36.779 23.4916 40.5797 24.4413 41.9851C34.3943 40.3401 41.985 31.6938 41.985 21.2746C41.985 9.68076 32.5863 0.282104 20.9925 0.282104Z" fill="black"/>
<path d="M63.2496 28.6337L68.7135 13.6702H72.4544L77.9183 28.6337H74.6762L73.4293 24.9835H67.6706L66.4463 28.6337H63.2496ZM69.8924 18.4086L68.4414 22.671H72.6584L71.2528 18.454L70.5726 16.1868H70.5273L69.8924 18.4086ZM86.2826 17.2977H89.502L85.1944 28.6337H81.6122L77.3046 17.2977H80.6373L83.426 26.2531L86.2826 17.2977ZM97.4408 21.4013C97.4408 20.7514 97.2518 20.2451 96.874 19.8823C96.5112 19.5196 96.0275 19.3382 95.423 19.3382C94.8637 19.3382 94.3725 19.4818 93.9493 19.769C93.5261 20.0561 93.2162 20.5322 93.0197 21.1973L90.3671 20.3811C90.6241 19.3835 91.1833 18.5825 92.0448 17.9779C92.9215 17.3733 94.0929 17.071 95.559 17.071C97.0402 17.071 98.2343 17.4262 99.1411 18.1366C100.063 18.8318 100.524 19.8748 100.524 21.2653V25.8677C100.524 26.442 100.796 26.7292 101.34 26.7292C101.597 26.7292 101.839 26.6914 102.066 26.6159L101.884 28.543C101.491 28.7395 101 28.8377 100.411 28.8377C99.7608 28.8377 99.1941 28.7017 98.7104 28.4296C98.2418 28.1576 97.9244 27.7495 97.7582 27.2053C97.3954 27.7495 96.874 28.1651 96.1938 28.4523C95.5288 28.7244 94.841 28.8604 94.1307 28.8604C92.9819 28.8604 92.0675 28.6034 91.3874 28.0895C90.7223 27.5605 90.3898 26.7972 90.3898 25.7997C90.3898 24.9533 90.6619 24.2655 91.206 23.7365C91.7501 23.1924 92.5285 22.8221 93.5412 22.6256L97.4408 21.8321V21.4013ZM93.4958 25.5049C93.4958 25.8828 93.6319 26.17 93.9039 26.3665C94.1911 26.563 94.5312 26.6612 94.9242 26.6612C95.3625 26.6612 95.7706 26.5932 96.1485 26.4572C96.5263 26.3211 96.8362 26.0944 97.078 25.777C97.3198 25.4445 97.4408 25.0062 97.4408 24.462V23.7592L95.0602 24.2353C94.5463 24.3411 94.1533 24.4847 93.8813 24.6661C93.6243 24.8323 93.4958 25.112 93.4958 25.5049ZM108.239 28.8604C107.301 28.8604 106.463 28.6261 105.722 28.1576C104.997 27.689 104.422 27.024 103.999 26.1624C103.591 25.2858 103.387 24.2278 103.387 22.9884C103.387 21.7338 103.606 20.6683 104.044 19.7916C104.483 18.8999 105.072 18.2273 105.813 17.7738C106.568 17.3053 107.415 17.071 108.352 17.071C109.168 17.071 109.871 17.2675 110.46 17.6605C111.05 18.0534 111.496 18.5749 111.798 19.2248V12.3326H114.904V28.6337H112.115L111.979 26.4345C111.662 27.1902 111.171 27.7872 110.506 28.2256C109.841 28.6488 109.085 28.8604 108.239 28.8604ZM109.145 26.4798C109.947 26.4798 110.589 26.17 111.073 25.5503C111.556 24.9155 111.798 24.0237 111.798 22.875C111.798 21.7868 111.556 20.9479 111.073 20.3584C110.604 19.7538 109.977 19.4515 109.191 19.4515C108.344 19.4515 107.679 19.7538 107.196 20.3584C106.727 20.9479 106.493 21.817 106.493 22.9657C106.493 24.1144 106.727 24.991 107.196 25.5956C107.664 26.1851 108.314 26.4798 109.145 26.4798ZM124.629 21.4013C124.629 20.7514 124.44 20.2451 124.063 19.8823C123.7 19.5196 123.216 19.3382 122.612 19.3382C122.052 19.3382 121.561 19.4818 121.138 19.769C120.715 20.0561 120.405 20.5322 120.208 21.1973L117.556 20.3811C117.813 19.3835 118.372 18.5825 119.233 17.9779C120.11 17.3733 121.281 17.071 122.748 17.071C124.229 17.071 125.423 17.4262 126.33 18.1366C127.252 18.8318 127.713 19.8748 127.713 21.2653V25.8677C127.713 26.442 127.985 26.7292 128.529 26.7292C128.786 26.7292 129.028 26.6914 129.254 26.6159L129.073 28.543C128.68 28.7395 128.189 28.8377 127.599 28.8377C126.949 28.8377 126.383 28.7017 125.899 28.4296C125.43 28.1576 125.113 27.7495 124.947 27.2053C124.584 27.7495 124.063 28.1651 123.382 28.4523C122.717 28.7244 122.03 28.8604 121.319 28.8604C120.171 28.8604 119.256 28.6034 118.576 28.0895C117.911 27.5605 117.578 26.7972 117.578 25.7997C117.578 24.9533 117.85 24.2655 118.395 23.7365C118.939 23.1924 119.717 22.8221 120.73 22.6256L124.629 21.8321V21.4013ZM120.684 25.5049C120.684 25.8828 120.82 26.17 121.093 26.3665C121.38 26.563 121.72 26.6612 122.113 26.6612C122.551 26.6612 122.959 26.5932 123.337 26.4572C123.715 26.3211 124.025 26.0944 124.267 25.777C124.508 25.4445 124.629 25.0062 124.629 24.462V23.7592L122.249 24.2353C121.735 24.3411 121.342 24.4847 121.07 24.6661C120.813 24.8323 120.684 25.112 120.684 25.5049ZM144.404 13.6702C146.112 13.6702 147.457 14.101 148.44 14.9625C149.422 15.8089 149.913 16.9879 149.913 18.4993C149.913 20.0259 149.422 21.2124 148.44 22.0588C147.457 22.9052 146.112 23.3284 144.404 23.3284H141.253V28.6337H138.124V13.6702H144.404ZM143.928 20.8572C145.802 20.8572 146.739 20.0712 146.739 18.4993C146.739 16.9274 145.802 16.1414 143.928 16.1414H141.253V20.8572H143.928ZM157.436 28.8604C155.652 28.8604 154.224 28.3465 153.151 27.3187C152.077 26.2758 151.541 24.8248 151.541 22.9657C151.541 21.7263 151.783 20.6683 152.266 19.7916C152.75 18.915 153.423 18.2424 154.284 17.7738C155.161 17.3053 156.158 17.071 157.277 17.071C158.426 17.071 159.4 17.3053 160.202 17.7738C161.003 18.2273 161.615 18.8545 162.038 19.6556C162.461 20.4416 162.673 21.3409 162.673 22.3535C162.673 22.6558 162.665 22.943 162.65 23.2151C162.635 23.4871 162.612 23.729 162.582 23.9406H154.579C154.7 24.8172 155.002 25.4747 155.486 25.913C155.985 26.3362 156.627 26.5479 157.413 26.5479C158.078 26.5479 158.615 26.4194 159.023 26.1624C159.431 25.9055 159.748 25.5503 159.975 25.0968L162.446 26.0491C162.083 26.9408 161.449 27.6361 160.542 28.1349C159.635 28.6186 158.599 28.8604 157.436 28.8604ZM157.254 19.3609C155.788 19.3609 154.904 20.1695 154.602 21.7868H159.703C159.612 21.0008 159.355 20.4038 158.932 19.9957C158.524 19.5725 157.965 19.3609 157.254 19.3609ZM172.746 17.2977V19.6102H169.119V24.9381C169.119 25.4823 169.255 25.8828 169.527 26.1398C169.814 26.3816 170.199 26.5025 170.683 26.5025C171.076 26.5025 171.409 26.4496 171.681 26.3438C171.968 26.2229 172.225 26.0642 172.451 25.8677L172.95 27.9308C172.572 28.218 172.111 28.4447 171.567 28.611C171.038 28.7773 170.471 28.8604 169.867 28.8604C168.733 28.8604 167.804 28.6034 167.078 28.0895C166.368 27.5605 166.013 26.6763 166.013 25.4369V19.6102H163.927V17.2977H166.013V14.6904L169.119 13.8289V17.2977H172.746ZM187.559 13.4435C188.919 13.4435 190.113 13.6778 191.141 14.1463C192.169 14.6149 193.046 15.3101 193.771 16.2321L192.025 18.2499C191.406 17.464 190.725 16.8896 189.985 16.5269C189.259 16.149 188.413 15.9601 187.446 15.9601C186.478 15.9601 185.775 16.1414 185.337 16.5042C184.899 16.8518 184.68 17.275 184.68 17.7738C184.68 18.1819 184.831 18.5296 185.133 18.8167C185.45 19.0888 186.002 19.3155 186.788 19.4969L189.577 20.1317C191.043 20.4642 192.101 20.963 192.751 21.628C193.401 22.278 193.726 23.1244 193.726 24.1673C193.726 25.1498 193.469 25.9962 192.955 26.7066C192.441 27.4018 191.723 27.9384 190.801 28.3163C189.879 28.679 188.821 28.8604 187.627 28.8604C186.07 28.8604 184.702 28.5883 183.523 28.0442C182.344 27.5001 181.415 26.7972 180.735 25.9357L182.503 23.8272C183.017 24.5527 183.72 25.1573 184.612 25.641C185.518 26.1095 186.524 26.3438 187.627 26.3438C188.549 26.3438 189.259 26.1927 189.758 25.8904C190.257 25.573 190.506 25.1271 190.506 24.5527C190.506 24.1749 190.37 23.8423 190.098 23.5552C189.841 23.268 189.358 23.0488 188.647 22.8977L185.609 22.2175C184.279 21.9303 183.251 21.4618 182.526 20.8119C181.8 20.1619 181.438 19.2777 181.438 18.1592C181.438 17.2675 181.679 16.4664 182.163 15.756C182.647 15.0456 183.342 14.4864 184.249 14.0783C185.171 13.6551 186.274 13.4435 187.559 13.4435ZM200.247 28.8604C199.491 28.8604 198.811 28.7244 198.206 28.4523C197.602 28.1802 197.118 27.7495 196.755 27.16C196.408 26.5705 196.234 25.7921 196.234 24.8248V17.2977H199.34V24.0766C199.34 24.9533 199.521 25.5654 199.884 25.913C200.247 26.2456 200.768 26.4118 201.448 26.4118C202.098 26.4118 202.673 26.1775 203.171 25.709C203.685 25.2253 203.942 24.4545 203.942 23.3965V17.2977H207.048V28.6337H204.282L204.169 26.6612C203.791 27.4018 203.27 27.9535 202.605 28.3163C201.94 28.679 201.154 28.8604 200.247 28.8604ZM210.317 33.3948V17.2977H213.105L213.241 19.5196C213.559 18.7941 214.042 18.2046 214.692 17.7512C215.357 17.2977 216.136 17.071 217.028 17.071C217.95 17.071 218.773 17.3053 219.499 17.7738C220.224 18.2424 220.791 18.915 221.199 19.7916C221.622 20.6532 221.834 21.7036 221.834 22.943C221.834 24.1824 221.622 25.248 221.199 26.1398C220.776 27.0164 220.194 27.689 219.454 28.1576C218.728 28.6261 217.897 28.8604 216.96 28.8604C216.128 28.8604 215.41 28.6639 214.806 28.2709C214.216 27.8779 213.755 27.3565 213.423 26.7066V33.3948H210.317ZM216.053 26.4798C216.884 26.4798 217.534 26.1851 218.003 25.5956C218.486 24.991 218.728 24.1144 218.728 22.9657C218.728 21.817 218.494 20.9479 218.025 20.3584C217.572 19.7538 216.929 19.4515 216.098 19.4515C215.297 19.4515 214.647 19.7614 214.148 20.3811C213.665 21.0008 213.423 21.8623 213.423 22.9657C213.423 24.0539 213.657 24.9155 214.126 25.5503C214.609 26.17 215.252 26.4798 216.053 26.4798ZM224.531 33.3948V17.2977H227.32L227.456 19.5196C227.773 18.7941 228.257 18.2046 228.907 17.7512C229.572 17.2977 230.35 17.071 231.242 17.071C232.164 17.071 232.988 17.3053 233.713 17.7738C234.439 18.2424 235.005 18.915 235.413 19.7916C235.837 20.6532 236.048 21.7036 236.048 22.943C236.048 24.1824 235.837 25.248 235.413 26.1398C234.99 27.0164 234.408 27.689 233.668 28.1576C232.942 28.6261 232.111 28.8604 231.174 28.8604C230.343 28.8604 229.625 28.6639 229.02 28.2709C228.431 27.8779 227.97 27.3565 227.637 26.7066V33.3948H224.531ZM230.267 26.4798C231.098 26.4798 231.748 26.1851 232.217 25.5956C232.7 24.991 232.942 24.1144 232.942 22.9657C232.942 21.817 232.708 20.9479 232.239 20.3584C231.786 19.7538 231.144 19.4515 230.312 19.4515C229.511 19.4515 228.861 19.7614 228.363 20.3811C227.879 21.0008 227.637 21.8623 227.637 22.9657C227.637 24.0539 227.871 24.9155 228.34 25.5503C228.824 26.17 229.466 26.4798 230.267 26.4798ZM241.806 12.3326V25.1422C241.806 25.6712 241.897 26.0415 242.078 26.2531C242.259 26.4647 242.562 26.5705 242.985 26.5705C243.242 26.5705 243.453 26.5554 243.62 26.5252C243.786 26.495 243.998 26.4345 244.254 26.3438L243.982 28.3843C243.725 28.5354 243.4 28.6488 243.008 28.7244C242.63 28.815 242.252 28.8604 241.874 28.8604C240.771 28.8604 239.962 28.5959 239.448 28.0669C238.949 27.5227 238.7 26.6612 238.7 25.4823V12.3326H241.806ZM247.55 15.6653C246.265 15.6653 245.622 15.1137 245.622 14.0103C245.622 12.8918 246.265 12.3326 247.55 12.3326C248.834 12.3326 249.477 12.8918 249.477 14.0103C249.477 15.1137 248.834 15.6653 247.55 15.6653ZM249.091 17.2977V28.6337H245.985V17.2977H249.091ZM257.644 28.8604C255.86 28.8604 254.432 28.3465 253.359 27.3187C252.286 26.2758 251.749 24.8248 251.749 22.9657C251.749 21.7263 251.991 20.6683 252.474 19.7916C252.958 18.915 253.631 18.2424 254.492 17.7738C255.369 17.3053 256.366 17.071 257.485 17.071C258.634 17.071 259.609 17.3053 260.41 17.7738C261.211 18.2273 261.823 18.8545 262.246 19.6556C262.669 20.4416 262.881 21.3409 262.881 22.3535C262.881 22.6558 262.873 22.943 262.858 23.2151C262.843 23.4871 262.82 23.729 262.79 23.9406H254.787C254.908 24.8172 255.21 25.4747 255.694 25.913C256.193 26.3362 256.835 26.5479 257.621 26.5479C258.286 26.5479 258.823 26.4194 259.231 26.1624C259.639 25.9055 259.956 25.5503 260.183 25.0968L262.654 26.0491C262.291 26.9408 261.657 27.6361 260.75 28.1349C259.843 28.6186 258.807 28.8604 257.644 28.8604ZM257.462 19.3609C255.996 19.3609 255.112 20.1695 254.81 21.7868H259.911C259.82 21.0008 259.563 20.4038 259.14 19.9957C258.732 19.5725 258.173 19.3609 257.462 19.3609ZM270.047 28.8604C268.899 28.8604 267.848 28.6563 266.896 28.2482C265.959 27.8402 265.196 27.2658 264.606 26.5252L266.397 24.7114C266.76 25.2556 267.244 25.7014 267.848 26.0491C268.453 26.3967 269.171 26.5705 270.002 26.5705C270.592 26.5705 271.06 26.4874 271.408 26.3211C271.771 26.1398 271.952 25.8601 271.952 25.4823C271.952 25.2404 271.869 25.0364 271.703 24.8701C271.536 24.6888 271.204 24.5452 270.705 24.4394L268.71 24.0313C267.395 23.7592 266.458 23.3511 265.899 22.807C265.354 22.2477 265.082 21.5298 265.082 20.6532C265.082 20.0335 265.264 19.4515 265.626 18.9074C266.004 18.3633 266.564 17.925 267.304 17.5924C268.045 17.2448 268.967 17.071 270.07 17.071C272.368 17.071 274.015 17.7738 275.013 19.1795L273.154 20.9932C272.821 20.4642 272.383 20.0637 271.839 19.7916C271.31 19.5044 270.75 19.3609 270.161 19.3609C268.831 19.3609 268.166 19.7312 268.166 20.4718C268.166 20.7136 268.272 20.9252 268.483 21.1066C268.695 21.2729 269.08 21.4164 269.639 21.5374L271.952 22.0135C273.07 22.2402 273.871 22.6256 274.355 23.1697C274.839 23.6987 275.081 24.3411 275.081 25.0968C275.081 26.1851 274.642 27.0844 273.766 27.7948C272.904 28.5052 271.665 28.8604 270.047 28.8604Z" fill="black"/>
</g>
<defs>
<clipPath id="clip0">
<rect width="275.978" height="41.703" fill="white" transform="translate(0 0.282104)"/>
</clipPath>
</defs>
</svg>
