<svg width="142" height="62" fill="none" xmlns="http://www.w3.org/2000/svg"><path d="M75.58 30c-.293 0-.587-.08-.88-.24-.293-.173-.44-.387-.44-.64a.93.93 0 01.02-.18l3.98-12.96c.08-.24.247-.42.5-.54.267-.12.547-.18.84-.18.307 0 .587.06.84.18.267.12.44.3.52.54l3.96 12.96a.49.49 0 01.04.18c0 .253-.153.467-.46.64-.293.16-.587.24-.88.24-.173 0-.327-.033-.46-.1a.491.491 0 01-.26-.34l-.82-2.84h-4.94l-.82 2.84a.556.556 0 01-.28.34c-.133.067-.287.1-.46.1zm2.02-4.98h4l-2-6.86-2 6.86zm15.669 5.1c-.294 0-.574-.06-.84-.18a.903.903 0 01-.5-.54l-3.98-12.96a.493.493 0 01-.04-.18c0-.253.146-.46.44-.62.306-.173.6-.26.88-.26.186 0 .346.033.48.1a.49.49 0 01.26.34l3.3 11.4 3.28-11.4a.557.557 0 01.28-.34c.133-.067.286-.1.46-.1.293 0 .586.087.88.26.306.16.46.367.46.62 0 .027-.007.06-.02.1a.178.178 0 00-.02.08l-3.96 12.96c-.08.24-.254.42-.52.54-.254.12-.534.18-.84.18zm9.629-.12c-.293 0-.587-.08-.88-.24-.293-.173-.44-.387-.44-.64 0-.053.007-.113.02-.18l3.98-12.96c.08-.24.247-.42.5-.54.267-.12.547-.18.84-.18.307 0 .587.06.84.18.267.12.44.3.52.54l3.96 12.96c.027.067.04.127.04.18 0 .253-.153.467-.46.64-.293.16-.587.24-.88.24-.173 0-.327-.033-.46-.1a.492.492 0 01-.26-.34l-.82-2.84h-4.94l-.82 2.84a.556.556 0 01-.28.34c-.133.067-.287.1-.46.1zm2.02-4.98h4l-2-6.86-2 6.86zm13.09 4.98c-.28 0-.506-.067-.68-.2-.173-.147-.26-.313-.26-.5V16.06c0-.173.087-.327.26-.46.174-.147.4-.22.68-.22h3.54c.84 0 1.6.147 2.28.44.68.293 1.22.767 1.62 1.42.4.653.6 1.52.6 2.6v5.68c0 1.093-.2 1.967-.6 2.62-.4.653-.94 1.127-1.62 1.42-.68.293-1.44.44-2.28.44h-3.54zm1.18-1.88h2.36c.747 0 1.327-.213 1.74-.64.427-.427.64-1.08.64-1.96v-5.68c0-.88-.213-1.527-.64-1.94-.413-.427-.993-.64-1.74-.64h-2.36v10.86zM132.013 30a1.82 1.82 0 01-.88-.24c-.294-.173-.44-.387-.44-.64 0-.053.006-.113.02-.18l3.98-12.96c.08-.24.246-.42.5-.54.266-.12.546-.18.84-.18.306 0 .586.06.84.18.266.12.44.3.52.54l3.96 12.96c.026.067.04.127.04.18 0 .253-.154.467-.46.64-.294.16-.587.24-.88.24-.174 0-.327-.033-.46-.1a.49.49 0 01-.26-.34l-.82-2.84h-4.94l-.82 2.84a.56.56 0 01-.28.34c-.134.067-.287.1-.46.1zm2.02-4.98h4l-2-6.86-2 6.86zM76.38 52c-.267 0-.513-.053-.74-.16a.583.583 0 01-.32-.54V38.08c0-.227.1-.4.3-.52.2-.12.413-.18.64-.18h7.02c.24 0 .413.1.52.3.12.2.18.407.18.62 0 .253-.06.48-.18.68a.581.581 0 01-.52.28h-5.84v4.56h3.1c.213 0 .38.093.5.28.12.173.18.373.18.6 0 .187-.053.373-.16.56-.107.173-.28.26-.52.26h-3.1v5.78c0 .24-.113.42-.34.54-.213.107-.453.16-.72.16zm16.304.12c-.84 0-1.6-.147-2.28-.44a3.483 3.483 0 01-1.62-1.42c-.387-.653-.58-1.527-.58-2.62v-5.8c0-1.08.194-1.947.58-2.6.4-.653.94-1.127 1.62-1.42.68-.293 1.44-.44 2.28-.44.84 0 1.6.147 2.28.44.68.293 1.22.767 1.62 1.42.4.653.6 1.52.6 2.6v5.8c0 1.093-.2 1.967-.6 2.62-.4.653-.94 1.127-1.62 1.42-.68.293-1.44.44-2.28.44zm0-1.88c.734 0 1.314-.207 1.74-.62.427-.427.64-1.087.64-1.98v-5.8c0-.88-.213-1.527-.64-1.94-.427-.427-1.007-.64-1.74-.64-.746 0-1.326.213-1.74.64-.413.413-.62 1.06-.62 1.94v5.8c0 .893.207 1.553.62 1.98.413.413.993.62 1.74.62zm14.548 1.88c-.84 0-1.6-.147-2.28-.44a3.483 3.483 0 01-1.62-1.42c-.387-.653-.58-1.527-.58-2.62v-5.8c0-1.08.193-1.947.58-2.6.4-.653.94-1.127 1.62-1.42.68-.293 1.44-.44 2.28-.44.84 0 1.6.147 2.28.44.68.293 1.22.767 1.62 1.42.4.653.6 1.52.6 2.6v5.8c0 1.093-.2 1.967-.6 2.62-.4.653-.94 1.127-1.62 1.42-.68.293-1.44.44-2.28.44zm0-1.88c.733 0 1.313-.207 1.74-.62.427-.427.64-1.087.64-1.98v-5.8c0-.88-.213-1.527-.64-1.94-.427-.427-1.007-.64-1.74-.64-.747 0-1.327.213-1.74.64-.413.413-.62 1.06-.62 1.94v5.8c0 .893.207 1.553.62 1.98.413.413.993.62 1.74.62zM118.379 52c-.28 0-.506-.067-.68-.2-.173-.147-.26-.313-.26-.5V38.06c0-.173.087-.327.26-.46.174-.147.4-.22.68-.22h3.54c.84 0 1.6.147 2.28.44.68.293 1.22.767 1.62 1.42.4.653.6 1.52.6 2.6v5.68c0 1.093-.2 1.967-.6 2.62-.4.653-.94 1.127-1.62 1.42-.68.293-1.44.44-2.28.44h-3.54zm1.18-1.88h2.36c.747 0 1.327-.213 1.74-.64.427-.427.64-1.08.64-1.96v-5.68c0-.88-.213-1.527-.64-1.94-.413-.427-.993-.64-1.74-.64h-2.36v10.86z" fill="#333338"/><path d="M31 57.283c14.516 0 26.283-11.767 26.283-26.283 0-4.39-1.077-8.53-2.98-12.168a2.02 2.02 0 001.161-.687A27.51 27.51 0 0158.63 31c0 15.26-12.37 27.63-27.63 27.63-8.346 0-15.827-3.7-20.893-9.549.439-.154.809-.457 1.05-.847 4.818 5.544 11.921 9.049 19.843 9.049zM8.896 45.225A26.16 26.16 0 014.717 31C4.717 16.485 16.485 4.717 31 4.717c8.77 0 16.537 4.296 21.311 10.897.278-.36.675-.625 1.133-.733C48.428 7.909 40.244 3.37 31 3.37 15.74 3.37 3.37 15.74 3.37 31a27.502 27.502 0 004.42 14.998 2.025 2.025 0 011.106-.773z" fill="#F97423"/><path fill-rule="evenodd" clip-rule="evenodd" d="M60.652 31c0 16.376-13.276 29.652-29.652 29.652a29.515 29.515 0 01-17.79-5.927C6.003 49.312 1.347 40.7 1.347 31c0-11.804 6.897-21.997 16.88-26.769a2.02 2.02 0 01-.674-1.171C7.167 8.067 0 18.697 0 31c0 10.142 4.87 19.147 12.4 24.802A30.863 30.863 0 0031 62c17.12 0 31-13.88 31-31 0-9.602-4.365-18.184-11.22-23.87A30.874 30.874 0 0031 0c-3.416 0-6.702.552-9.775 1.573a2.012 2.012 0 01.332 1.31A29.62 29.62 0 0131 1.348c7.193 0 13.785 2.56 18.92 6.82C56.48 13.607 60.652 21.815 60.652 31z" fill="#F97423"/><circle cx="53.913" cy="16.848" r=".674" fill="#F97423"/><circle cx="9.435" cy="47.174" r=".674" fill="#F97423"/><circle cx="19.544" cy="2.696" r=".674" fill="#F97423"/><path d="M36.458 28.717c.004-1.941-1.036-7.92-6.298-8.1-5.262.18-6.301 6.159-6.297 8.1-.212 1.658 1.837 3.68 4.532 4.369-.111 8.81-.344 17.31-1.087 25.993 0 .752.301 1.473.836 2.005a2.861 2.861 0 004.034 0 2.828 2.828 0 00.836-2.005c-.742-8.683-.974-17.184-1.088-25.993 2.695-.69 4.744-2.711 4.532-4.369z" fill="#C9C9C9" fill-opacity=".55"/><path d="M46.333 20.616h-3.166a.747.747 0 00-.75.745v12.65c0 .412.336.746.75.746h3.166c.414 0 .75-.334.75-.745V21.36a.747.747 0 00-.75-.745z" fill="#FFC776"/><path d="M47.338 61.93V37.175a.751.751 0 00-.75-.745h-6.224a.758.758 0 00-.75.755c.15 24.747 7.724 24.747 7.724 24.747zM20.689 30.204l-1.221-8.943a.743.743 0 00-.742-.644h-.231a.752.752 0 00-.522.21.742.742 0 00-.227.513l-.217 7.508h-1.615l-.71-7.553a.743.743 0 00-.749-.676h-.118a.752.752 0 00-.75.676l-.701 7.552H11.27l-.216-7.508a.743.743 0 00-.75-.723h-.23a.752.752 0 00-.743.644l-1.22 8.944a2.526 2.526 0 00.607 2.013 2.553 2.553 0 001.924.869h1.988c-.114 8.714-.349 17.406-1.083 25.993 0 .752.3 1.473.836 2.005a2.861 2.861 0 004.034 0 2.828 2.828 0 00.836-2.005c-.734-8.587-.97-17.279-1.083-25.993h1.988a2.566 2.566 0 001.923-.87 2.536 2.536 0 00.608-2.012z" fill="#C9C9C9" fill-opacity=".55"/><path d="M45.418 32.708h3.167a.941.941 0 00.662-.273.93.93 0 00.274-.658l-.007-10.088a.742.742 0 00-.463-.687.753.753 0 00-.979.404.73.73 0 00-.056.286l.006 9.527h-2.04l-.007-11.533h2.79a.743.743 0 100-1.49H45.41a.94.94 0 00-.662.273.929.929 0 00-.274.658l.01 12.651c0 .247.1.483.274.657a.94.94 0 00.66.273zM48.837 33.916h-6.226a1.04 1.04 0 00-.955.64c-.051.126-.077.26-.076.396.15 24.74 7.688 25.024 8.009 25.024h.28V34.94c0-.272-.109-.533-.302-.725a1.035 1.035 0 00-.73-.3zm-.655 23.486c-1.71-1.655-4.74-6.715-4.915-21.81h4.915v21.81zM38.892 26.47c0-2.25-1.158-8.09-6.49-8.274-5.33.184-6.484 6.044-6.478 8.264-.225 1.742 1.84 3.794 4.529 4.535-.085 6.625-.252 14.463-.825 22.508a.742.742 0 001.24.603.761.761 0 00.254-.503c.582-8.128.75-16.054.833-22.734l.012-1.023-.995-.256c-2.364-.605-3.648-2.25-3.56-2.941l.012-.168c0-.066.213-6.595 4.979-6.794 4.76.198 4.993 6.73 4.994 6.794l.01.166c.089.695-1.198 2.338-3.558 2.943l-.996.256.013 1.023c.103 8.125.307 16.912 1.094 26.112a1.19 1.19 0 01-.344.885 1.634 1.634 0 01-1.863.39 1.633 1.633 0 01-.547-.39 1.202 1.202 0 01-.341-.91c.038-.447.075-.894.105-1.337a.739.739 0 00-.423-.728.753.753 0 00-.288-.072.76.76 0 00-.783.703c-.033.435-.067.871-.104 1.305a2.655 2.655 0 00.723 2.036 3.13 3.13 0 002.317 1.02 3.145 3.145 0 002.317-1.02 2.658 2.658 0 00.722-2.033c-.776-9.086-.982-17.783-1.084-25.834 2.679-.74 4.737-2.785 4.525-4.525z" fill="#333338"/><path d="M17.986 38.685c.414 0 .75-.333.75-.745a.747.747 0 00-.75-.744.747.747 0 00-.749.745c0 .41.335.744.75.744z" fill="#000"/><path d="M23.122 27.945L21.902 19a.942.942 0 00-.927-.806h-.233a.934.934 0 00-.654.262.924.924 0 00-.282.643l-.212 7.326h-1.263l-.692-7.386a.935.935 0 00-.933-.844h-.118a.936.936 0 00-.631.241.926.926 0 00-.302.602l-.692 7.387H13.7l-.212-7.326a.924.924 0 00-.282-.642.934.934 0 00-.653-.262h-.232a.943.943 0 00-.928.805l-1.22 8.944a2.71 2.71 0 00.652 2.16 2.742 2.742 0 002.065.933h1.798c-.102 7.734-.313 16.824-1.08 25.788a2.652 2.652 0 00.724 2.036 3.13 3.13 0 002.317 1.02 3.147 3.147 0 002.318-1.02 2.665 2.665 0 00.721-2.033c-.427-5.002-.71-10.338-.893-16.792a.741.741 0 00-.237-.525.755.755 0 00-1.267.565c.18 6.341.476 11.87.907 16.906a1.19 1.19 0 01-.346.88 1.632 1.632 0 01-1.205.528 1.64 1.64 0 01-1.205-.528 1.203 1.203 0 01-.342-.91c.777-9.086.986-18.286 1.087-26.086l.017-1.32h-3.315a1.252 1.252 0 01-.938-.426 1.237 1.237 0 01-.294-.982l.489-3.585.071 2.458a.924.924 0 00.282.642c.175.169.41.263.654.262h2.323a.935.935 0 00.631-.242.925.925 0 00.3-.603l.241-2.561.24 2.561c.02.231.128.447.3.603a.936.936 0 00.633.242h2.322a.934.934 0 00.654-.262c.175-.169.276-.4.282-.642l.07-2.458.49 3.585a1.23 1.23 0 01-.294.982 1.246 1.246 0 01-.938.426h-3.318l.017 1.32c.02 1.598.047 3.262.081 4.966a.742.742 0 00.236.53.81.81 0 00.543.204.742.742 0 00.72-.757c-.031-1.59-.058-3.18-.08-4.774h1.798a2.757 2.757 0 002.066-.933 2.723 2.723 0 00.652-2.16v.002z" fill="#333338"/></svg>