<svg width="152" height="121" fill="none" xmlns="http://www.w3.org/2000/svg"><path d="M11.745 117c-.294 0-.587-.08-.88-.24-.294-.173-.44-.387-.44-.64 0-.053.006-.113.02-.18l3.98-12.96c.08-.24.246-.42.5-.54.266-.12.546-.18.84-.18.306 0 .586.06.84.18.266.12.44.3.52.54l3.96 12.96c.026.067.04.127.04.18 0 .253-.154.467-.46.64-.294.16-.587.24-.88.24-.174 0-.327-.033-.46-.1a.492.492 0 01-.26-.34l-.82-2.84h-4.94l-.82 2.84a.557.557 0 01-.28.34 1.01 1.01 0 01-.46.1zm2.02-4.98h4l-2-6.86-2 6.86zm15.668 5.1c-.293 0-.573-.06-.84-.18a.903.903 0 01-.5-.54l-3.98-12.96a.493.493 0 01-.04-.18c0-.253.147-.46.44-.62.307-.173.6-.26.88-.26.187 0 .347.033.48.1.134.067.22.18.26.34l3.3 11.4 3.28-11.4a.557.557 0 01.28-.34c.134-.067.287-.1.46-.1.294 0 .587.087.88.26.307.16.46.367.46.62 0 .027-.006.06-.02.1a.177.177 0 00-.02.08l-3.96 12.96c-.08.24-.253.42-.52.54-.253.12-.533.18-.84.18zm9.63-.12c-.294 0-.587-.08-.88-.24-.294-.173-.44-.387-.44-.64 0-.053.006-.113.02-.18l3.98-12.96c.08-.24.246-.42.5-.54.266-.12.546-.18.84-.18.306 0 .586.06.84.18.266.12.44.3.52.54l3.96 12.96c.026.067.04.127.04.18 0 .253-.154.467-.46.64-.294.16-.587.24-.88.24a1.01 1.01 0 01-.46-.1.491.491 0 01-.26-.34l-.82-2.84h-4.94l-.82 2.84a.557.557 0 01-.28.34c-.134.067-.287.1-.46.1zm2.02-4.98h4l-2-6.86-2 6.86zm13.09 4.98c-.28 0-.507-.067-.68-.2-.173-.147-.26-.313-.26-.5v-13.24c0-.173.087-.327.26-.46.173-.147.4-.22.68-.22h3.54c.84 0 1.6.147 2.28.44.68.293 1.22.767 1.62 1.42.4.653.6 1.52.6 2.6v5.68c0 1.093-.2 1.967-.6 2.62-.4.653-.94 1.127-1.62 1.42-.68.293-1.44.44-2.28.44h-3.54zm1.18-1.88h2.36c.747 0 1.327-.213 1.74-.64.427-.427.64-1.08.64-1.96v-5.68c0-.88-.213-1.527-.64-1.94-.413-.427-.993-.64-1.74-.64h-2.36v10.86zM68.177 117c-.293 0-.586-.08-.88-.24-.293-.173-.44-.387-.44-.64 0-.053.007-.113.02-.18l3.98-12.96c.08-.24.247-.42.5-.54.267-.12.547-.18.84-.18.307 0 .587.06.84.18.267.12.44.3.52.54l3.96 12.96c.027.067.04.127.04.18 0 .253-.153.467-.46.64-.293.16-.586.24-.88.24a1.01 1.01 0 01-.46-.1.491.491 0 01-.26-.34l-.82-2.84h-4.94l-.82 2.84a.557.557 0 01-.28.34c-.133.067-.286.1-.46.1zm2.02-4.98h4l-2-6.86-2 6.86zM90.631 117c-.266 0-.513-.053-.74-.16a.583.583 0 01-.32-.54v-13.22c0-.227.1-.4.3-.52.2-.12.413-.18.64-.18h7.02c.24 0 .413.1.52.3.12.2.18.407.18.62 0 .253-.06.48-.18.68a.58.58 0 01-.52.28h-5.84v4.56h3.1c.213 0 .38.093.5.28.12.173.18.373.18.6 0 .187-.053.373-.16.56-.107.173-.28.26-.52.26h-3.1v5.78c0 .24-.113.42-.34.54-.213.107-.453.16-.72.16zm16.304.12c-.84 0-1.6-.147-2.28-.44a3.483 3.483 0 01-1.62-1.42c-.386-.653-.58-1.527-.58-2.62v-5.8c0-1.08.194-1.947.58-2.6.4-.653.94-1.127 1.62-1.42.68-.293 1.44-.44 2.28-.44.84 0 1.6.147 2.28.44.68.293 1.22.767 1.62 1.42.4.653.6 1.52.6 2.6v5.8c0 1.093-.2 1.967-.6 2.62-.4.653-.94 1.127-1.62 1.42-.68.293-1.44.44-2.28.44zm0-1.88c.734 0 1.314-.207 1.74-.62.427-.427.64-1.087.64-1.98v-5.8c0-.88-.213-1.527-.64-1.94-.426-.427-1.006-.64-1.74-.64-.746 0-1.326.213-1.74.64-.413.413-.62 1.06-.62 1.94v5.8c0 .893.207 1.553.62 1.98.414.413.994.62 1.74.62zm14.548 1.88c-.84 0-1.6-.147-2.28-.44a3.483 3.483 0 01-1.62-1.42c-.387-.653-.58-1.527-.58-2.62v-5.8c0-1.08.193-1.947.58-2.6.4-.653.94-1.127 1.62-1.42.68-.293 1.44-.44 2.28-.44.84 0 1.6.147 2.28.44.68.293 1.22.767 1.62 1.42.4.653.6 1.52.6 2.6v5.8c0 1.093-.2 1.967-.6 2.62-.4.653-.94 1.127-1.62 1.42-.68.293-1.44.44-2.28.44zm0-1.88c.733 0 1.313-.207 1.74-.62.427-.427.64-1.087.64-1.98v-5.8c0-.88-.213-1.527-.64-1.94-.427-.427-1.007-.64-1.74-.64-.747 0-1.327.213-1.74.64-.413.413-.62 1.06-.62 1.94v5.8c0 .893.207 1.553.62 1.98.413.413.993.62 1.74.62zm11.148 1.76c-.28 0-.507-.067-.68-.2-.174-.147-.26-.313-.26-.5v-13.24c0-.173.086-.327.26-.46.173-.147.4-.22.68-.22h3.54c.84 0 1.6.147 2.28.44.68.293 1.22.767 1.62 1.42.4.653.6 1.52.6 2.6v5.68c0 1.093-.2 1.967-.6 2.62-.4.653-.94 1.127-1.62 1.42-.68.293-1.44.44-2.28.44h-3.54zm1.18-1.88h2.36c.746 0 1.326-.213 1.74-.64.426-.427.64-1.08.64-1.96v-5.68c0-.88-.214-1.527-.64-1.94-.414-.427-.994-.64-1.74-.64h-2.36v10.86z" fill="#333338"/><path d="M76 85c21.54 0 39-17.46 39-39a38.84 38.84 0 00-4.422-18.056 3.001 3.001 0 001.724-1.02A40.825 40.825 0 01117 46c0 22.644-18.356 41-41 41-12.384 0-23.485-5.49-31.003-14.17a3.01 3.01 0 001.558-1.256C53.705 79.799 64.245 85 76 85zM43.2 67.108A38.818 38.818 0 0137 46C37 24.46 54.46 7 76 7c13.013 0 24.538 6.374 31.623 16.17a3.002 3.002 0 011.681-1.089C101.861 11.736 89.717 5 76 5 53.356 5 35 23.356 35 46c0 8.204 2.41 15.845 6.56 22.255.394-.55.97-.962 1.64-1.147z" fill="#F97423"/><path fill-rule="evenodd" clip-rule="evenodd" d="M120 46c0 24.3-19.699 44-44 44a43.796 43.796 0 01-26.399-8.796C38.91 73.174 32 60.394 32 46c0-17.515 10.234-32.64 25.049-39.721a2.997 2.997 0 01-1-1.739C40.634 11.971 30 27.743 30 46c0 15.05 7.227 28.411 18.4 36.803A45.797 45.797 0 0076 92c25.405 0 46-20.595 46-46 0-14.248-6.477-26.982-16.648-35.42A45.813 45.813 0 0076 0c-5.068 0-9.945.82-14.505 2.334a2.986 2.986 0 01.492 1.944A43.95 43.95 0 0176 2a43.813 43.813 0 0128.075 10.12C113.807 20.192 120 32.372 120 46z" fill="#F97423"/><circle cx="110" cy="25" r="1" fill="#F97423"/><circle cx="44" cy="70" r="1" fill="#F97423"/><circle cx="59" cy="4" r="1" fill="#F97423"/><path d="M84.099 42.613c.006-2.882-1.538-11.752-9.345-12.021-7.808.27-9.35 9.14-9.344 12.02-.315 2.46 2.725 5.46 6.725 6.483-.165 13.073-.511 25.688-1.613 38.57 0 1.116.446 2.187 1.24 2.976a4.246 4.246 0 002.993 1.233c1.123 0 2.2-.444 2.994-1.233a4.196 4.196 0 001.24-2.976c-1.102-12.884-1.446-25.498-1.615-38.57 3.999-1.024 7.04-4.022 6.725-6.482z" fill="#C9C9C9" fill-opacity=".55"/><path d="M98.752 30.592h-4.698c-.614 0-1.111.495-1.111 1.105v18.772c0 .61.497 1.105 1.111 1.105h4.698c.614 0 1.112-.494 1.112-1.105V31.697c0-.61-.498-1.105-1.112-1.105z" fill="#FFC776"/><path d="M100.244 91.897V55.162a1.1 1.1 0 00-.326-.782 1.115 1.115 0 00-.786-.324h-9.238c-.296.003-.58.122-.788.332-.208.21-.324.493-.323.788.222 36.721 11.461 36.721 11.461 36.721zM60.7 44.82l-1.812-13.271a1.103 1.103 0 00-.37-.684 1.115 1.115 0 00-.732-.272h-.342c-.29 0-.567.112-.775.312-.207.2-.328.473-.337.761l-.321 11.14h-2.397l-1.052-11.207a1.103 1.103 0 00-.36-.716 1.115 1.115 0 00-.752-.287h-.176a1.116 1.116 0 00-.751.287c-.206.185-.335.44-.36.716L49.12 42.805h-2.398l-.32-11.14a1.102 1.102 0 00-.338-.76 1.115 1.115 0 00-.775-.313h-.342a1.104 1.104 0 00-1.102.956l-1.811 13.27a3.75 3.75 0 00.9 2.988 3.79 3.79 0 002.857 1.29h2.949c-.169 12.93-.517 25.828-1.606 38.57 0 1.115.446 2.186 1.24 2.975a4.246 4.246 0 002.993 1.233c1.122 0 2.2-.444 2.993-1.233a4.196 4.196 0 001.24-2.976c-1.09-12.742-1.439-25.64-1.606-38.57h2.949a3.812 3.812 0 002.854-1.29 3.764 3.764 0 00.902-2.985z" fill="#C9C9C9" fill-opacity=".55"/><path d="M97.395 48.535h4.699c.368 0 .721-.146.982-.406.26-.259.407-.61.407-.976l-.01-14.969a1.101 1.101 0 00-.687-1.02 1.12 1.12 0 00-1.212.241 1.105 1.105 0 00-.324.783l.009 14.137h-3.027L98.22 29.21h4.141a1.103 1.103 0 100-2.21h-4.98c-.368 0-.721.146-.982.405-.26.26-.407.61-.407.977l.016 18.772c0 .365.147.715.406.974.26.259.612.405.98.406zM102.468 50.327h-9.239a1.546 1.546 0 00-1.086.452 1.53 1.53 0 00-.444 1.085c.222 36.71 11.408 37.133 11.884 37.133H104v-37.15a1.516 1.516 0 00-.45-1.076 1.534 1.534 0 00-1.082-.444zm-.973 34.85c-2.535-2.455-7.033-9.965-7.292-32.364h7.292v32.365zM87.711 39.28c0-3.34-1.718-12.006-9.632-12.279-7.908.273-9.62 8.968-9.611 12.262-.334 2.585 2.729 5.63 6.72 6.73-.126 9.83-.374 21.461-1.223 33.4a1.1 1.1 0 00.626 1.071c.133.064.277.1.424.109.29.008.573-.095.79-.286a1.13 1.13 0 00.376-.747c.864-12.061 1.112-23.823 1.236-33.735l.018-1.518-1.477-.38c-3.507-.897-5.412-3.337-5.281-4.363l.016-.25c0-.097.316-9.786 7.388-10.081 7.064.293 7.41 9.986 7.412 10.08l.015.248c.131 1.03-1.778 3.47-5.28 4.367l-1.479.379.02 1.518c.153 12.058.455 25.096 1.623 38.748a1.767 1.767 0 01-.51 1.313 2.423 2.423 0 01-1.788.783 2.436 2.436 0 01-1.788-.783 1.786 1.786 0 01-.507-1.35c.057-.663.111-1.327.157-1.984a1.1 1.1 0 00-.628-1.08c-.134-.065-.28-.101-.428-.108a1.129 1.129 0 00-.794.288 1.116 1.116 0 00-.368.755c-.049.646-.099 1.293-.154 1.936a3.94 3.94 0 001.072 3.022 4.642 4.642 0 003.44 1.514 4.666 4.666 0 003.438-1.514 3.945 3.945 0 001.07-3.016c-1.151-13.483-1.456-26.388-1.608-38.335 3.975-1.1 7.03-4.133 6.715-6.715z" fill="#333338"/><path d="M56.689 57.404c.614 0 1.112-.495 1.112-1.105s-.498-1.105-1.112-1.105c-.614 0-1.112.494-1.112 1.105 0 .61.498 1.105 1.112 1.105z" fill="#000"/><path d="M64.31 41.467l-1.812-13.271a1.383 1.383 0 00-.463-.854 1.399 1.399 0 00-.913-.342h-.343a1.387 1.387 0 00-.97.389c-.26.25-.411.593-.42.953l-.313 10.871h-1.874l-1.029-10.96a1.373 1.373 0 00-.447-.895A1.389 1.389 0 0054.79 27h-.174a1.39 1.39 0 00-.937.359c-.256.231-.416.55-.447.893l-1.029 10.961h-1.874l-.313-10.871a1.37 1.37 0 00-.419-.953c-.26-.25-.608-.39-.97-.389h-.343a1.4 1.4 0 00-.913.342c-.253.22-.418.523-.464.854l-1.81 13.27a4.023 4.023 0 00.967 3.206 4.069 4.069 0 003.065 1.384h2.668c-.153 11.476-.465 24.966-1.602 38.266a3.936 3.936 0 001.072 3.022 4.647 4.647 0 003.44 1.513 4.669 4.669 0 003.438-1.513 3.953 3.953 0 001.07-3.017c-.633-7.422-1.054-15.34-1.324-24.917a1.1 1.1 0 00-.353-.78 1.157 1.157 0 00-.8-.298c-.294.01-.572.135-.775.348a1.109 1.109 0 00-.305.788c.267 9.41.708 17.613 1.347 25.087a1.766 1.766 0 01-.514 1.307 2.424 2.424 0 01-1.788.783 2.435 2.435 0 01-1.788-.783 1.785 1.785 0 01-.507-1.35c1.153-13.484 1.462-27.136 1.613-38.71l.024-1.958h-4.918a1.858 1.858 0 01-1.393-.632 1.836 1.836 0 01-.436-1.458l.726-5.32.105 3.648c.01.36.16.702.42.953.26.25.608.39.97.388h3.446c.346.002.68-.126.937-.358.256-.232.415-.552.446-.895l.357-3.8.355 3.8c.031.343.19.663.447.895.256.232.59.36.937.358h3.446c.363.002.711-.137.97-.388.26-.25.41-.593.419-.953l.105-3.647.726 5.32a1.829 1.829 0 01-.437 1.457 1.849 1.849 0 01-1.391.632h-4.923l.025 1.958c.031 2.372.07 4.842.121 7.37a1.099 1.099 0 00.35.786c.22.197.508.305.805.303.29-.011.566-.135.766-.345.2-.21.309-.49.303-.779-.047-2.358-.087-4.719-.119-7.084h2.668a4.088 4.088 0 003.066-1.384 4.04 4.04 0 00.967-3.206v.004z" fill="#333338"/></svg>