<svg width="250" height="50" viewBox="0 0 250 50" fill="none" xmlns="http://www.w3.org/2000/svg">
<path d="M79.424 28.85H72.599L71.297 32H67.811L74.363 17.3H77.723L84.296 32H80.726L79.424 28.85ZM78.353 26.267L76.022 20.639L73.691 26.267H78.353ZM99.1543 17.3L92.7913 32H89.4313L83.0893 17.3H86.7643L91.2373 27.8L95.7733 17.3H99.1543ZM109.57 28.85H102.745L101.443 32H97.9575L104.509 17.3H107.869L114.442 32H110.872L109.57 28.85ZM108.499 26.267L106.168 20.639L103.837 26.267H108.499ZM115.968 17.3H122.646C124.242 17.3 125.649 17.608 126.867 18.224C128.099 18.826 129.051 19.68 129.723 20.786C130.409 21.892 130.752 23.18 130.752 24.65C130.752 26.12 130.409 27.408 129.723 28.514C129.051 29.62 128.099 30.481 126.867 31.097C125.649 31.699 124.242 32 122.646 32H115.968V17.3ZM122.478 29.207C123.948 29.207 125.117 28.801 125.985 27.989C126.867 27.163 127.308 26.05 127.308 24.65C127.308 23.25 126.867 22.144 125.985 21.332C125.117 20.506 123.948 20.093 122.478 20.093H119.37V29.207H122.478ZM142.793 28.85H135.968L134.666 32H131.18L137.732 17.3H141.092L147.665 32H144.095L142.793 28.85ZM141.722 26.267L139.391 20.639L137.06 26.267H141.722ZM159.968 32.252C158.806 32.252 157.679 32.098 156.587 31.79C155.509 31.468 154.641 31.055 153.983 30.551L155.138 27.989C155.768 28.451 156.517 28.822 157.385 29.102C158.253 29.382 159.121 29.522 159.989 29.522C160.955 29.522 161.669 29.382 162.131 29.102C162.593 28.808 162.824 28.423 162.824 27.947C162.824 27.597 162.684 27.31 162.404 27.086C162.138 26.848 161.788 26.659 161.354 26.519C160.934 26.379 160.36 26.225 159.632 26.057C158.512 25.791 157.595 25.525 156.881 25.259C156.167 24.993 155.551 24.566 155.033 23.978C154.529 23.39 154.277 22.606 154.277 21.626C154.277 20.772 154.508 20.002 154.97 19.316C155.432 18.616 156.125 18.063 157.049 17.657C157.987 17.251 159.128 17.048 160.472 17.048C161.41 17.048 162.327 17.16 163.223 17.384C164.119 17.608 164.903 17.93 165.575 18.35L164.525 20.933C163.167 20.163 161.809 19.778 160.451 19.778C159.499 19.778 158.792 19.932 158.33 20.24C157.882 20.548 157.658 20.954 157.658 21.458C157.658 21.962 157.917 22.34 158.435 22.592C158.967 22.83 159.772 23.068 160.85 23.306C161.97 23.572 162.887 23.838 163.601 24.104C164.315 24.37 164.924 24.79 165.428 25.364C165.946 25.938 166.205 26.715 166.205 27.695C166.205 28.535 165.967 29.305 165.491 30.005C165.029 30.691 164.329 31.237 163.391 31.643C162.453 32.049 161.312 32.252 159.968 32.252ZM175.564 32.252C174.066 32.252 172.708 31.93 171.49 31.286C170.286 30.628 169.334 29.725 168.634 28.577C167.948 27.415 167.605 26.106 167.605 24.65C167.605 23.194 167.948 21.892 168.634 20.744C169.334 19.582 170.286 18.679 171.49 18.035C172.708 17.377 174.073 17.048 175.585 17.048C176.859 17.048 178.007 17.272 179.029 17.72C180.065 18.168 180.933 18.812 181.633 19.652L179.449 21.668C178.455 20.52 177.223 19.946 175.753 19.946C174.843 19.946 174.031 20.149 173.317 20.555C172.603 20.947 172.043 21.5 171.637 22.214C171.245 22.928 171.049 23.74 171.049 24.65C171.049 25.56 171.245 26.372 171.637 27.086C172.043 27.8 172.603 28.36 173.317 28.766C174.031 29.158 174.843 29.354 175.753 29.354C177.223 29.354 178.455 28.773 179.449 27.611L181.633 29.627C180.933 30.481 180.065 31.132 179.029 31.58C177.993 32.028 176.838 32.252 175.564 32.252ZM183.931 17.3H187.333V32H183.931V17.3ZM202.203 29.27V32H190.821V17.3H201.93V20.03H194.202V23.222H201.027V25.868H194.202V29.27H202.203ZM218.392 17.3V32H215.599L208.27 23.075V32H204.91V17.3H207.724L215.032 26.225V17.3H218.392ZM228.905 32.252C227.407 32.252 226.049 31.93 224.831 31.286C223.627 30.628 222.675 29.725 221.975 28.577C221.289 27.415 220.946 26.106 220.946 24.65C220.946 23.194 221.289 21.892 221.975 20.744C222.675 19.582 223.627 18.679 224.831 18.035C226.049 17.377 227.414 17.048 228.926 17.048C230.2 17.048 231.348 17.272 232.37 17.72C233.406 18.168 234.274 18.812 234.974 19.652L232.79 21.668C231.796 20.52 230.564 19.946 229.094 19.946C228.184 19.946 227.372 20.149 226.658 20.555C225.944 20.947 225.384 21.5 224.978 22.214C224.586 22.928 224.39 23.74 224.39 24.65C224.39 25.56 224.586 26.372 224.978 27.086C225.384 27.8 225.944 28.36 226.658 28.766C227.372 29.158 228.184 29.354 229.094 29.354C230.564 29.354 231.796 28.773 232.79 27.611L234.974 29.627C234.274 30.481 233.406 31.132 232.37 31.58C231.334 32.028 230.179 32.252 228.905 32.252ZM248.653 29.27V32H237.271V17.3H248.38V20.03H240.652V23.222H247.477V25.868H240.652V29.27H248.653Z" fill="#4C5166"/>
<path d="M39 39.5C39 45.299 34.299 50 28.5 50C22.701 50 18 45.299 18 39.5C18 33.701 22.701 29 28.5 29C34.299 29 39 33.701 39 39.5ZM21.6352 39.5C21.6352 43.2913 24.7087 46.3648 28.5 46.3648C32.2913 46.3648 35.3648 43.2913 35.3648 39.5C35.3648 35.7087 32.2913 32.6352 28.5 32.6352C24.7087 32.6352 21.6352 35.7087 21.6352 39.5Z" fill="#C4C4C4"/>
<path d="M39 39.5C39 45.299 34.299 50 28.5 50C22.701 50 18 45.299 18 39.5C18 33.701 22.701 29 28.5 29C34.299 29 39 33.701 39 39.5ZM21.6352 39.5C21.6352 43.2913 24.7087 46.3648 28.5 46.3648C32.2913 46.3648 35.3648 43.2913 35.3648 39.5C35.3648 35.7087 32.2913 32.6352 28.5 32.6352C24.7087 32.6352 21.6352 35.7087 21.6352 39.5Z" fill="url(#paint0_linear)"/>
<path fill-rule="evenodd" clip-rule="evenodd" d="M49 8.5C49 13.1944 45.1944 17 40.5 17C38.3901 17 36.4598 16.2312 34.9738 14.9586L31.8231 16.7776C31.9773 17.1367 32.1173 17.5027 32.2426 17.8751C33.1574 20.5931 33.2456 23.5213 32.496 26.2895L28.0705 25.0913C28.583 23.1984 28.5227 21.1961 27.8972 19.3375C27.2717 17.4789 26.1091 15.8475 24.5565 14.6496C23.0039 13.4518 21.1309 12.7412 19.1744 12.6079C17.2179 12.4745 15.2658 12.9243 13.565 13.9003C11.8641 14.8764 10.4909 16.3349 9.61891 18.0914C8.74702 19.8479 8.41548 21.8236 8.66639 23.7685C8.91725 25.7134 9.73927 27.5402 11.0284 29.018C12.3175 30.4957 14.0159 31.558 15.9088 32.0705L14.7105 36.4961C11.9423 35.7466 9.45863 34.1931 7.57338 32.032C5.68812 29.8709 4.48604 27.1993 4.11915 24.355C3.75227 21.5108 4.23707 18.6216 5.51216 16.0528C6.7873 13.4841 8.79554 11.3511 11.2828 9.92371C13.7702 8.4963 16.625 7.83853 19.4862 8.03358C22.3474 8.22862 25.0865 9.26773 27.3571 11.0195C27.9759 11.4969 28.5523 12.0213 29.0819 12.5867L32.2958 10.7311C32.1029 10.0201 32 9.27208 32 8.5C32 3.80558 35.8056 0 40.5 0C45.1944 0 49 3.80558 49 8.5ZM36.4727 8.5C36.4727 10.7242 38.2758 12.5273 40.5 12.5273C42.7243 12.5273 44.5273 10.7242 44.5273 8.5C44.5273 6.27578 42.7243 4.4727 40.5 4.4727C38.2758 4.4727 36.4727 6.27578 36.4727 8.5Z" fill="#C4C4C4"/>
<path fill-rule="evenodd" clip-rule="evenodd" d="M49 8.5C49 13.1944 45.1944 17 40.5 17C38.3901 17 36.4598 16.2312 34.9738 14.9586L31.8231 16.7776C31.9773 17.1367 32.1173 17.5027 32.2426 17.8751C33.1574 20.5931 33.2456 23.5213 32.496 26.2895L28.0705 25.0913C28.583 23.1984 28.5227 21.1961 27.8972 19.3375C27.2717 17.4789 26.1091 15.8475 24.5565 14.6496C23.0039 13.4518 21.1309 12.7412 19.1744 12.6079C17.2179 12.4745 15.2658 12.9243 13.565 13.9003C11.8641 14.8764 10.4909 16.3349 9.61891 18.0914C8.74702 19.8479 8.41548 21.8236 8.66639 23.7685C8.91725 25.7134 9.73927 27.5402 11.0284 29.018C12.3175 30.4957 14.0159 31.558 15.9088 32.0705L14.7105 36.4961C11.9423 35.7466 9.45863 34.1931 7.57338 32.032C5.68812 29.8709 4.48604 27.1993 4.11915 24.355C3.75227 21.5108 4.23707 18.6216 5.51216 16.0528C6.7873 13.4841 8.79554 11.3511 11.2828 9.92371C13.7702 8.4963 16.625 7.83853 19.4862 8.03358C22.3474 8.22862 25.0865 9.26773 27.3571 11.0195C27.9759 11.4969 28.5523 12.0213 29.0819 12.5867L32.2958 10.7311C32.1029 10.0201 32 9.27208 32 8.5C32 3.80558 35.8056 0 40.5 0C45.1944 0 49 3.80558 49 8.5ZM36.4727 8.5C36.4727 10.7242 38.2758 12.5273 40.5 12.5273C42.7243 12.5273 44.5273 10.7242 44.5273 8.5C44.5273 6.27578 42.7243 4.4727 40.5 4.4727C38.2758 4.4727 36.4727 6.27578 36.4727 8.5Z" fill="url(#paint1_linear)"/>
<path d="M14.9932 3.01474C13.5555 1.31277 11.5069 0.243346 9.28855 0.036656C7.07018 -0.170034 4.85934 0.502534 3.13189 1.9096C1.40445 3.31666 0.298512 5.34572 0.0521327 7.56003C-0.194247 9.77435 0.438626 11.9969 1.81453 13.7492L5.13186 11.1446C4.43868 10.2617 4.11984 9.14202 4.24396 8.02644C4.36809 6.91087 4.92526 5.88863 5.79555 5.17976C6.66583 4.47088 7.77965 4.13204 8.89727 4.23617C10.0149 4.3403 11.0469 4.87907 11.7713 5.73653L14.9932 3.01474Z" fill="#65C6CA"/>
<defs>
<linearGradient id="paint0_linear" x1="16.5" y1="40" x2="39" y2="40" gradientUnits="userSpaceOnUse">
<stop stop-color="#73BBC6"/>
<stop offset="1" stop-color="#9899BC"/>
</linearGradient>
<linearGradient id="paint1_linear" x1="0.785713" y1="19.117" x2="49" y2="19.117" gradientUnits="userSpaceOnUse">
<stop stop-color="#65C6CA"/>
<stop offset="1" stop-color="#9999BC"/>
</linearGradient>
</defs>
</svg>
