<svg width="240" height="40" viewBox="0 0 240 40" fill="none" xmlns="http://www.w3.org/2000/svg">
<path fill-rule="evenodd" clip-rule="evenodd" d="M0.600373 22.1892C0.802089 23.7194 1.18002 25.194 1.71329 26.5917L12.8637 15.4425L10.1054 12.6842L0.600373 22.1892ZM3.35716 29.9119C6.81338 35.4931 12.9908 39.2129 20.037 39.2129C28.0005 39.2129 34.8562 34.4629 37.9256 27.6417H35.5436L20.5857 12.6842L3.35716 29.9119ZM39.1173 24.1313C39.3368 23.2028 39.4895 22.2487 39.5718 21.2745L35.5073 17.0643L32.7606 19.8949L36.997 24.1313H39.1173ZM39.3021 15.9545C37.5898 6.87264 29.6154 0 20.037 0C10.0068 0 1.73493 7.53614 0.571777 17.2537L10.1054 7.72047L15.3454 12.9605L20.5857 7.72047L30.2847 17.4191L35.5147 12.0307L39.3021 15.9545ZM17.0147 23.7434C17.0039 23.794 16.9943 23.845 16.9854 23.896H19.816V20.9294H17.002V23.6518L16.9854 23.7434H17.0147ZM24.1683 20.9294V23.6502L24.1857 23.7434H24.1563C24.1672 23.794 24.1768 23.845 24.1857 23.896H21.3547V20.9294H24.1683ZM17.002 25.2817H19.816V28.0957H17.002V25.2817ZM24.1683 25.2817V28.0957H21.3547V25.2817H24.1683Z" fill="black"/>
<path d="M66.8813 10.8086L75.1079 28.6065H70.8101L69.4653 25.3106H62.478L61.1333 28.6065H56.8354L65.062 10.8086H66.8813ZM65.9849 16.794L63.77 22.1992H68.1997L65.9849 16.794Z" fill="black"/>
<path d="M89.3726 15.291L83.0708 28.6065H80.9351L74.7124 15.291H78.6147L81.9634 23.544L85.4702 15.291H89.3726Z" fill="black"/>
<path d="M96.1753 14.9483C96.896 14.9483 97.6255 15.1152 98.3638 15.4492C99.1021 15.7832 99.7173 16.2315 100.209 16.794V15.291H103.558V28.6065H100.209V26.3652C99.8228 27.0859 99.2603 27.71 98.522 28.2373C97.7837 28.7471 96.9224 29.002 95.938 29.002C94.8657 29.002 93.8726 28.7295 92.9585 28.1846C92.062 27.6397 91.3413 26.8486 90.7964 25.8115C90.2515 24.7744 89.979 23.5176 89.979 22.041C89.979 20.5645 90.2515 19.2988 90.7964 18.2442C91.3589 17.1895 92.106 16.3809 93.0376 15.8184C93.9868 15.2383 95.0327 14.9483 96.1753 14.9483ZM96.8608 18.2178C96.1577 18.2178 95.5513 18.4024 95.0415 18.7715C94.5493 19.1231 94.1626 19.5889 93.8813 20.169C93.6001 20.749 93.4595 21.3731 93.4595 22.041C93.4595 23.043 93.7583 23.8955 94.356 24.5986C94.9712 25.3018 95.7798 25.6533 96.7817 25.6533C97.3794 25.6533 97.9331 25.4951 98.4429 25.1787C98.9702 24.8623 99.3921 24.4229 99.7085 23.8604C100.042 23.2803 100.209 22.5859 100.209 21.7774V19.8789C99.7349 19.3692 99.2163 18.9649 98.6538 18.666C98.1089 18.3672 97.5112 18.2178 96.8608 18.2178Z" fill="black"/>
<path d="M120.328 9.62208V28.6065H116.979V26.3652C116.592 27.0859 116.03 27.71 115.292 28.2373C114.553 28.7471 113.692 29.002 112.708 29.002C111.635 29.002 110.642 28.7295 109.728 28.1846C108.832 27.6397 108.111 26.8486 107.566 25.8115C107.021 24.7744 106.749 23.5176 106.749 22.041C106.749 20.5645 107.021 19.2988 107.566 18.2442C108.128 17.1895 108.875 16.3809 109.807 15.8184C110.756 15.2383 111.802 14.9483 112.945 14.9483C113.666 14.9483 114.395 15.1152 115.133 15.4492C115.872 15.7832 116.487 16.2315 116.979 16.794V9.62208H120.328ZM113.63 18.2442C112.927 18.2442 112.321 18.4287 111.811 18.7979C111.319 19.1494 110.932 19.6152 110.651 20.1953C110.37 20.7578 110.229 21.3731 110.229 22.041C110.229 23.043 110.528 23.8955 111.125 24.5986C111.741 25.3018 112.549 25.6533 113.551 25.6533C114.149 25.6533 114.703 25.4951 115.212 25.1787C115.74 24.8623 116.162 24.4229 116.478 23.8604C116.812 23.2803 116.979 22.5859 116.979 21.7774V19.8789C116.504 19.3692 115.986 18.9736 115.423 18.6924C114.878 18.3936 114.281 18.2442 113.63 18.2442Z" fill="black"/>
<path d="M129.714 14.9483C130.435 14.9483 131.165 15.1152 131.903 15.4492C132.641 15.7832 133.256 16.2315 133.749 16.794V15.291H137.097V28.6065H133.749V26.3652C133.362 27.0859 132.799 27.71 132.061 28.2373C131.323 28.7471 130.461 29.002 129.477 29.002C128.405 29.002 127.412 28.7295 126.498 28.1846C125.601 27.6397 124.88 26.8486 124.335 25.8115C123.791 24.7744 123.518 23.5176 123.518 22.041C123.518 20.5645 123.791 19.2988 124.335 18.2442C124.898 17.1895 125.645 16.3809 126.577 15.8184C127.526 15.2383 128.572 14.9483 129.714 14.9483ZM130.4 18.2178C129.697 18.2178 129.09 18.4024 128.581 18.7715C128.088 19.1231 127.702 19.5889 127.42 20.169C127.139 20.749 126.999 21.3731 126.999 22.041C126.999 23.043 127.297 23.8955 127.895 24.5986C128.51 25.3018 129.319 25.6533 130.321 25.6533C130.918 25.6533 131.472 25.4951 131.982 25.1787C132.509 24.8623 132.931 24.4229 133.248 23.8604C133.582 23.2803 133.749 22.5859 133.749 21.7774V19.8789C133.274 19.3692 132.755 18.9649 132.193 18.666C131.648 18.3672 131.05 18.2178 130.4 18.2178Z" fill="black"/>
<path d="M156.372 10.5186C157.743 10.5186 158.938 10.7383 159.958 11.1777C160.977 11.5996 161.768 12.1885 162.331 12.9443C162.911 13.7002 163.201 14.5703 163.201 15.5547C163.201 16.4336 162.963 17.2158 162.489 17.9014C162.032 18.5869 161.452 19.1143 160.749 19.4834C161.276 19.624 161.786 19.8613 162.278 20.1953C162.77 20.5117 163.174 20.9424 163.491 21.4873C163.807 22.0147 163.965 22.6914 163.965 23.5176C163.965 24.502 163.667 25.4072 163.069 26.2334C162.471 27.042 161.636 27.6924 160.564 28.1846C159.492 28.6768 158.244 28.9229 156.82 28.9229C156.046 28.9229 155.211 28.8877 154.315 28.8174C153.418 28.7647 152.566 28.6856 151.757 28.5801C150.949 28.457 150.263 28.334 149.701 28.2109V11.1777C150.685 10.9668 151.749 10.8086 152.891 10.7031C154.034 10.5801 155.194 10.5186 156.372 10.5186ZM156.372 13.8672C155.247 13.8672 154.245 13.9551 153.366 14.1309V18.4024H156.662C157.558 18.4024 158.261 18.1826 158.771 17.7432C159.298 17.3037 159.562 16.7412 159.562 16.0557C159.562 15.3525 159.246 14.8164 158.613 14.4473C157.998 14.0606 157.25 13.8672 156.372 13.8672ZM153.366 25.3106C153.858 25.4336 154.42 25.5215 155.053 25.5742C155.704 25.6094 156.222 25.627 156.609 25.627C157.628 25.627 158.463 25.4248 159.114 25.0205C159.782 24.6162 160.116 24.0449 160.116 23.3067C160.116 22.5684 159.773 22.0234 159.087 21.6719C158.402 21.3027 157.576 21.1182 156.609 21.1182H153.366V25.3106Z" fill="black"/>
<path d="M179.206 15.291V23.2275C179.206 24.4053 178.942 25.4248 178.415 26.2861C177.887 27.1299 177.167 27.7803 176.252 28.2373C175.356 28.6943 174.336 28.9229 173.194 28.9229C172.034 28.9229 170.997 28.6943 170.083 28.2373C169.186 27.7803 168.474 27.1299 167.947 26.2861C167.437 25.4248 167.182 24.4053 167.182 23.2275V15.291H170.557L170.583 22.6211C170.583 23.6582 170.821 24.4317 171.295 24.9414C171.77 25.4512 172.403 25.7061 173.194 25.7061C173.967 25.7061 174.591 25.4512 175.066 24.9414C175.558 24.4317 175.804 23.6582 175.804 22.6211V15.291H179.206Z" fill="black"/>
<path d="M185.824 8.35645C186.457 8.35645 187.001 8.58497 187.458 9.042C187.916 9.48145 188.144 10.0088 188.144 10.624C188.144 11.2217 187.916 11.749 187.458 12.2061C187.001 12.6631 186.457 12.8916 185.824 12.8916C185.191 12.8916 184.646 12.6631 184.189 12.2061C183.75 11.749 183.53 11.2217 183.53 10.624C183.53 10.0088 183.75 9.48145 184.189 9.042C184.646 8.58497 185.191 8.35645 185.824 8.35645ZM187.775 15.291V28.6065H184.426V18.1387H182.291V15.291H187.775Z" fill="black"/>
<path d="M195.342 9.62208V28.6065H191.994V9.62208H195.342Z" fill="black"/>
<path d="M212.085 9.62208V28.6065H208.737V26.3652C208.35 27.0859 207.788 27.71 207.049 28.2373C206.311 28.7471 205.45 29.002 204.465 29.002C203.393 29.002 202.4 28.7295 201.486 28.1846C200.589 27.6397 199.869 26.8486 199.324 25.8115C198.779 24.7744 198.506 23.5176 198.506 22.041C198.506 20.5645 198.779 19.2988 199.324 18.2442C199.886 17.1895 200.633 16.3809 201.565 15.8184C202.514 15.2383 203.56 14.9483 204.703 14.9483C205.423 14.9483 206.153 15.1152 206.891 15.4492C207.629 15.7832 208.245 16.2315 208.737 16.794V9.62208H212.085ZM205.388 18.2442C204.685 18.2442 204.079 18.4287 203.569 18.7979C203.077 19.1494 202.69 19.6152 202.409 20.1953C202.127 20.7578 201.987 21.3731 201.987 22.041C201.987 23.043 202.286 23.8955 202.883 24.5986C203.499 25.3018 204.307 25.6533 205.309 25.6533C205.907 25.6533 206.46 25.4951 206.97 25.1787C207.498 24.8623 207.919 24.4229 208.236 23.8604C208.57 23.2803 208.737 22.5859 208.737 21.7774V19.8789C208.262 19.3692 207.744 18.9736 207.181 18.6924C206.636 18.3936 206.039 18.2442 205.388 18.2442Z" fill="black"/>
<path d="M222.026 14.9483C223.327 14.9483 224.443 15.2295 225.375 15.792C226.324 16.3545 227.044 17.1367 227.537 18.1387C228.046 19.1231 228.301 20.2656 228.301 21.5664V22.9902H218.651C218.827 23.8867 219.266 24.6074 219.969 25.1524C220.672 25.6973 221.534 25.9697 222.553 25.9697C223.52 25.9697 224.399 25.7764 225.19 25.3897C225.981 25.0029 226.614 24.6074 227.088 24.2031L227.062 27.3145C226.64 27.6836 226.007 28.0615 225.164 28.4483C224.337 28.8174 223.423 29.002 222.421 29.002C221.103 29.002 219.899 28.7031 218.809 28.1055C217.737 27.5078 216.875 26.6904 216.225 25.6533C215.592 24.6162 215.276 23.4297 215.276 22.0938C215.276 20.793 215.566 19.6065 216.146 18.5342C216.726 17.4619 217.526 16.6006 218.545 15.9502C219.565 15.2822 220.725 14.9483 222.026 14.9483ZM221.947 17.875C221.121 17.875 220.426 18.1299 219.864 18.6397C219.301 19.1494 218.915 19.835 218.704 20.6963H225.084C225.014 19.7471 224.663 19.044 224.03 18.5869C223.397 18.1123 222.703 17.875 221.947 17.875Z" fill="black"/>
<path d="M239.745 19.0352C239.182 18.7188 238.593 18.5606 237.978 18.5606C237.205 18.5606 236.563 18.8154 236.053 19.3252C235.543 19.8174 235.095 20.4326 234.708 21.1709V28.6065H231.36V15.291H234.708V17.7959C235.166 17.0049 235.702 16.3457 236.317 15.8184C236.95 15.291 237.662 15.0274 238.453 15.0274C238.927 15.0274 239.358 15.1065 239.745 15.2647V19.0352Z" fill="black"/>
</svg>
