<svg width="91" height="84" fill="none" xmlns="http://www.w3.org/2000/svg"><path fill-rule="evenodd" clip-rule="evenodd" d="M88.226 44.02L67.58 8.26a16.516 16.516 0 00-22.561-6.046L9.257 22.86A16.515 16.515 0 003.21 45.42l17.695 30.653C22.604 62.73 39.74 60.386 50.47 60.387h2.2v-.7c0-6.7-4.3-9-9.6-9-5 0-10.1 2.1-14.2 4.9l-4.7-9.1c4.2-3.4 12.4-6.3 20-6.3 13.3 0 21.2 7.4 21.2 20.3v15.8l16.81-9.706a16.518 16.518 0 006.046-22.56zM50.57 69.088c-6.4 0-17.2.9-17.2 8.1h.001c0 3.4 2.6 6.7 7.699 6.7 7.1 0 11.7-7.2 11.7-13.4v-1.4h-2.2z" fill="#35BAF2"/><path fill-rule="evenodd" clip-rule="evenodd" d="M88.226 44.02L67.58 8.26a16.516 16.516 0 00-22.561-6.046L9.257 22.86A16.515 16.515 0 003.21 45.42l17.695 30.653C22.604 62.73 39.74 60.386 50.47 60.387h2.2v-.7c0-6.7-4.3-9-9.6-9-5 0-10.1 2.1-14.2 4.9l-4.7-9.1c4.2-3.4 12.4-6.3 20-6.3 13.3 0 21.2 7.4 21.2 20.3v15.8l16.81-9.706a16.518 16.518 0 006.046-22.56zM50.57 69.088c-6.4 0-17.2.9-17.2 8.1h.001c0 3.4 2.6 6.7 7.699 6.7 7.1 0 11.7-7.2 11.7-13.4v-1.4h-2.2z" fill="url(#paint0_linear)"/><defs><linearGradient id="paint0_linear" x1="45.718" y1="0" x2="45.718" y2="89.44" gradientUnits="userSpaceOnUse"><stop stop-color="#93A4D5"/><stop offset="1" stop-color="#8BA9D3"/></linearGradient></defs></svg>