<svg width="406" height="84" fill="none" xmlns="http://www.w3.org/2000/svg"><path fill-rule="evenodd" clip-rule="evenodd" d="M133 76.89h2.839V71.5h3.19a4.845 4.845 0 004.686-3.17c.232-.633.33-1.307.287-1.98a4.78 4.78 0 00-1.356-3.646 4.79 4.79 0 00-3.617-1.436H133V76.89zm2.839-7.854V63.71h2.706a2.42 2.42 0 012.574 2.64 2.451 2.451 0 01-1.571 2.53c-.334.126-.691.18-1.047.154h-2.662zm19.491 7.855h2.838V71.06h2.729l3.08 5.83h3.191l-3.213-5.808a5.658 5.658 0 00-.506-.814v-.044a4.5 4.5 0 002.619-4.27 4.33 4.33 0 00-2.641-4.268 7.031 7.031 0 00-2.948-.418h-5.149V76.89zm2.838-8.3v-4.88h2.069a4.022 4.022 0 011.716.264 2.1 2.1 0 011.232 2.134 2.297 2.297 0 01-1.486 2.35 2.292 2.292 0 01-.978.136h-2.553v-.004zm18.986.374a8.078 8.078 0 0011.195 7.576 8.071 8.071 0 004.377-4.447 8.076 8.076 0 10-15.572-3.124v-.005zm2.926 0a5.149 5.149 0 015.15-5.329 5.158 5.158 0 014.81 3.304c.248.645.364 1.334.34 2.025 0 3.168-2.156 5.589-5.149 5.589s-5.151-2.416-5.151-5.584v-.005zm24.882 7.92h5.325c4.818 0 7.965-2.9 7.965-7.832 0-4.933-3.147-7.79-7.965-7.79h-5.325v15.628-.005zm2.838-2.441V63.71h2.333c3.124 0 5.192 1.87 5.192 5.347 0 3.52-2.024 5.39-5.192 5.39H207.8v-.004zm22-3.168c0 3.5 2.53 5.875 6.315 5.875 3.762 0 6.271-2.376 6.271-5.875V61.268h-2.839v9.99a3.456 3.456 0 01-3.455 3.302 3.456 3.456 0 01-3.454-3.302v-9.99H229.8V71.28v-.004zm24.09-2.266a7.777 7.777 0 004.92 7.606 7.781 7.781 0 003.155.535 8.378 8.378 0 006.143-2.527l-1.5-2.046a6.7 6.7 0 01-4.533 1.98c-3.389 0-5.259-2.662-5.259-5.59a5.04 5.04 0 011.418-3.855 5.029 5.029 0 013.819-1.513 6.955 6.955 0 014.269 1.65l1.364-2.112a8.341 8.341 0 00-5.765-2.134 7.786 7.786 0 00-8.031 8.01v-.004zm29 7.877h2.816V63.71h5.127v-2.443h-13.07v2.442h5.127v13.18-.003zm32.581 0h2.837V71.5h3.19a4.845 4.845 0 004.686-3.17c.232-.633.33-1.307.287-1.98a4.78 4.78 0 00-1.356-3.646 4.79 4.79 0 00-3.617-1.436h-6.029V76.89l.002-.004zm2.839-7.855V63.71h2.698a2.42 2.42 0 012.575 2.64 2.45 2.45 0 01-.687 1.949 2.47 2.47 0 01-1.932.735h-2.656l.002-.003zm16.917 7.855h2.9l1.32-4h5.479l1.342 4h2.9l-5.478-15.622h-2.993l-5.47 15.622zm4.929-6.315l1.408-4.181c.264-.88.616-2.42.616-2.42h.044s.352 1.54.616 2.42l1.387 4.18h-4.071zm18.633-1.518c0 4.907 3.543 8.1 7.658 8.1a6.71 6.71 0 004.532-1.672h.044s-.022.33-.022.66v.748h2.421v-8.228h-4.951v2.442h2.4v1.826a5.78 5.78 0 01-3.916 1.628 5.231 5.231 0 01-5.237-5.59 5.081 5.081 0 013.267-5.043 5.09 5.09 0 012.102-.325 6.827 6.827 0 014.158 1.5l1.408-2.112a8.9 8.9 0 00-5.808-1.98 7.882 7.882 0 00-8.06 8.05l.004-.004zm26.554 7.833h9.7v-2.44h-6.865v-4.2h5.259v-2.444h-5.259V63.71h6.513v-2.443h-9.352V76.89l.004-.004z" fill="#7F8795"/><path fill-rule="evenodd" clip-rule="evenodd" d="M121 40.406h5.28l2.4-7.282h9.962l2.44 7.282h5.281L136.401 12h-5.441L121 40.406zm8.962-11.482l2.561-7.6c.48-1.6 1.12-4.4 1.12-4.4h.08s.64 2.8 1.12 4.4l2.521 7.6h-7.402zm24.64 11.482h6l7.322-20.4h-5.362l-4.241 12.643c-.36 1.2-.72 3.081-.72 3.081h-.08s-.36-1.88-.72-3.081l-4.241-12.643h-5.36l7.402 20.4zm15.678-5.641c0 3.721 3.04 6.121 6.721 6.121a7.464 7.464 0 006.441-3.681h.081c-.082.49-.122.984-.121 1.48v1.72h4.721V27.639c0-5.161-3.16-8.122-8.481-8.122a13.986 13.986 0 00-8 2.521l1.88 3.641a10.457 10.457 0 015.682-1.96c2.12 0 3.84.92 3.84 3.6v.28h-.88c-4.522.004-11.884 1.04-11.884 7.166zm5.041-.44c0-2.881 4.321-3.241 6.881-3.241h.88v.555c0 2.48-1.84 5.361-4.681 5.361a2.769 2.769 0 01-3.079-2.676l-.001.001zm17.838-4.121c0 6.321 3.561 10.682 9.042 10.682a7.258 7.258 0 006.442-3.521h.08a9.286 9.286 0 00-.08 1.28v1.76h4.761V12h-5.041v9c-.001.401.026.802.08 1.2h-.08a7.263 7.263 0 00-5.962-2.681c-5.4.002-9.241 4.203-9.241 10.685h-.001zm5.121 0c0-4.041 2.361-6.321 5.121-6.321 3.441 0 5.082 3.121 5.082 6.281 0 4.521-2.481 6.441-5.122 6.441-2.999 0-5.081-2.521-5.081-6.401zm20.039 4.561c0 3.721 3.041 6.121 6.722 6.121a7.466 7.466 0 006.441-3.681h.08c-.081.49-.121.984-.12 1.48v1.72h4.721V27.639c0-5.161-3.161-8.122-8.482-8.122a13.989 13.989 0 00-8 2.521l1.881 3.641a10.454 10.454 0 015.681-1.96c2.12 0 3.841.92 3.841 3.6v.28h-.88c-4.524.004-11.884 1.04-11.884 7.166h-.001zm5.041-.44c0-2.881 4.321-3.241 6.882-3.241h.88v.555c0 2.48-1.841 5.361-4.681 5.361a2.769 2.769 0 01-3.08-2.676l-.001.001zm30.72 6.081h17.444v-4.441h-12.283V12h-5.161v28.406zm20.159-5.641c0 3.721 3.041 6.121 6.722 6.121a7.466 7.466 0 006.441-3.681h.08c-.081.49-.121.984-.12 1.48v1.72h4.718V27.639c0-5.161-3.16-8.122-8.482-8.122a13.986 13.986 0 00-8 2.521l1.88 3.641a10.454 10.454 0 015.681-1.96c2.121 0 3.841.92 3.841 3.6v.28h-.88c-4.519.004-11.881 1.04-11.881 7.166zm5.041-.44c0-2.881 4.321-3.241 6.882-3.241h.88v.555c0 2.48-1.84 5.361-4.681 5.361a2.769 2.769 0 01-3.081-2.676v.001zm19 6.081h5.081v-9.567c0-3.681 2.281-6.681 5.882-6.681 2.56 0 3.2 1.68 3.2 4.161v12.087h5.081V27.283c0-5.4-2.6-7.762-7.121-7.762a7.909 7.909 0 00-7.243 4.318h-.08c.053-.478.08-.959.08-1.44v-2.4h-4.88v20.407zm24.32-10.2c0 6.321 3.561 10.682 9.042 10.682a7.259 7.259 0 006.441-3.521h.08a9.286 9.286 0 00-.08 1.28v1.76h4.761V12h-5.041v9c-.001.401.026.802.08 1.2h-.08a7.256 7.256 0 00-5.961-2.681c-5.402.002-9.243 4.203-9.243 10.685l.001.002zm5.121 0c0-4.041 2.361-6.321 5.121-6.321 3.441 0 5.081 3.121 5.081 6.281 0 4.521-2.48 6.441-5.121 6.441-3.001-.002-5.082-2.523-5.082-6.403l.001.002zm21.6-13.683h5.081V12h-5.081v4.523zm0 23.885h5.081v-20.4h-5.081v20.4zm11.52 0h5.081v-9.569c0-3.681 2.28-6.681 5.881-6.681 2.56 0 3.2 1.68 3.2 4.161v12.087h5.077V27.283c0-5.4-2.6-7.762-7.122-7.762a7.904 7.904 0 00-7.238 4.318h-.08c.053-.478.08-.959.08-1.44v-2.4h-4.881v20.4l.002.009zm27.8 2.761l-1.56 3.881a16.568 16.568 0 007.281 1.76c5.321 0 10.763-2.641 10.763-9.642V20.001h-4.8v1.638c-.001.19.026.378.08.56h-.125a7.429 7.429 0 00-6.082-2.681c-5.881 0-9 4.561-9 10.162 0 5.601 3.281 10.322 9.122 10.322a6.348 6.348 0 005.721-2.841h.08c-.046.358-.073.719-.08 1.08v1.28c0 3.641-2.64 4.961-5.761 4.961a13.147 13.147 0 01-5.641-1.316l.002.003zm1.68-13.643c0-3.441 1.721-5.681 4.8-5.681 2.721 0 5.042 1.24 5.042 5.881 0 4.6-2.321 6-4.722 6-3.321-.001-5.122-2.642-5.122-6.203l.002.003z" fill="#515B69"/><path fill-rule="evenodd" clip-rule="evenodd" d="M88.226 44.02L67.58 8.26a16.516 16.516 0 00-22.561-6.046L9.257 22.86A16.515 16.515 0 003.21 45.42l17.695 30.653C22.604 62.73 39.74 60.386 50.47 60.387h2.2v-.7c0-6.7-4.3-9-9.6-9-5 0-10.1 2.1-14.2 4.9l-4.7-9.1c4.2-3.4 12.4-6.3 20-6.3 13.3 0 21.2 7.4 21.2 20.3v15.8l16.81-9.706a16.518 16.518 0 006.046-22.56zM50.57 69.088c-6.4 0-17.2.9-17.2 8.1h.001c0 3.4 2.6 6.7 7.699 6.7 7.1 0 11.7-7.2 11.7-13.4v-1.4h-2.2z" fill="#35BAF2"/><path fill-rule="evenodd" clip-rule="evenodd" d="M88.226 44.02L67.58 8.26a16.516 16.516 0 00-22.561-6.046L9.257 22.86A16.515 16.515 0 003.21 45.42l17.695 30.653C22.604 62.73 39.74 60.386 50.47 60.387h2.2v-.7c0-6.7-4.3-9-9.6-9-5 0-10.1 2.1-14.2 4.9l-4.7-9.1c4.2-3.4 12.4-6.3 20-6.3 13.3 0 21.2 7.4 21.2 20.3v15.8l16.81-9.706a16.518 16.518 0 006.046-22.56zM50.57 69.088c-6.4 0-17.2.9-17.2 8.1h.001c0 3.4 2.6 6.7 7.699 6.7 7.1 0 11.7-7.2 11.7-13.4v-1.4h-2.2z" fill="url(#paint0_linear)"/><defs><linearGradient id="paint0_linear" x1="45.718" y1="0" x2="45.718" y2="89.44" gradientUnits="userSpaceOnUse"><stop stop-color="#93A4D5"/><stop offset="1" stop-color="#8BA9D3"/></linearGradient></defs></svg>