<svg width="289" height="36" fill="none" xmlns="http://www.w3.org/2000/svg"><path d="M27 30H3a3 3 0 100 6h24a3 3 0 100-6z" fill="#fff"/><path opacity=".5" d="M37 36a3 3 0 100-6 3 3 0 000 6z" fill="#fff"/><path d="M43 20H19a3 3 0 100 6h24a3 3 0 100-6z" fill="#fff"/><path opacity=".5" d="M9 26a3 3 0 100-6 3 3 0 000 6z" fill="#fff"/><path d="M27 10H3a3 3 0 100 6h24a3 3 0 100-6z" fill="#fff"/><path opacity=".5" d="M37 16a3 3 0 100-6 3 3 0 000 6z" fill="#fff"/><path d="M43 0H19a3 3 0 100 6h24a3 3 0 100-6z" fill="#fff"/><path opacity=".5" d="M9 6a3 3 0 100-6 3 3 0 000 6z" fill="#fff"/><path d="M77.914 23.207h-8.632l-1.384 4.067H62l8.369-23.027h6.524l8.368 23.027h-5.963l-1.384-4.067zm-1.45-4.33l-2.866-8.43-2.834 8.43h5.7zM95.42 22.026L99.406 8.97h5.997l-6.524 18.304h-6.952L85.403 8.97h6.03l3.987 13.056zM105.995 18.09c0-1.881.352-3.532 1.055-4.954.724-1.421 1.702-2.515 2.932-3.28 1.23-.766 2.603-1.148 4.119-1.148 1.296 0 2.427.262 3.393.787.989.525 1.746 1.214 2.274 2.067V8.97h5.634v18.304h-5.634v-2.591c-.549.853-1.318 1.542-2.307 2.067-.966.524-2.097.787-3.393.787-1.494 0-2.856-.383-4.086-1.148-1.23-.788-2.208-1.892-2.932-3.313-.703-1.444-1.055-3.106-1.055-4.986zm13.773.032c0-1.4-.396-2.504-1.186-3.313-.769-.809-1.714-1.214-2.834-1.214s-2.076.405-2.867 1.214c-.768.787-1.153 1.88-1.153 3.28s.385 2.515 1.153 3.346c.791.81 1.747 1.214 2.867 1.214 1.12 0 2.065-.405 2.834-1.214.79-.809 1.186-1.913 1.186-3.313zM127.699 18.09c0-1.881.351-3.532 1.054-4.954.725-1.421 1.702-2.515 2.932-3.28 1.231-.766 2.603-1.148 4.119-1.148 1.208 0 2.306.251 3.295.754 1.01.503 1.801 1.181 2.372 2.034V3h5.634v24.274h-5.634V24.65c-.527.875-1.285 1.575-2.273 2.1-.967.524-2.098.787-3.394.787-1.516 0-2.888-.383-4.119-1.148-1.23-.788-2.207-1.892-2.932-3.313-.703-1.444-1.054-3.106-1.054-4.986zm13.772.032c0-1.4-.395-2.504-1.186-3.313-.769-.809-1.713-1.214-2.834-1.214-1.12 0-2.075.405-2.866 1.214-.769.787-1.153 1.88-1.153 3.28s.384 2.515 1.153 3.346c.791.81 1.746 1.214 2.866 1.214 1.121 0 2.065-.405 2.834-1.214.791-.809 1.186-1.913 1.186-3.313zM149.402 18.09c0-1.881.352-3.532 1.054-4.954.725-1.421 1.703-2.515 2.933-3.28 1.23-.766 2.603-1.148 4.118-1.148 1.296 0 2.428.262 3.394.787.989.525 1.746 1.214 2.274 2.067V8.97h5.634v18.304h-5.634v-2.591c-.55.853-1.318 1.542-2.307 2.067-.966.524-2.098.787-3.394.787-1.493 0-2.855-.383-4.085-1.148-1.23-.788-2.208-1.892-2.933-3.313-.702-1.444-1.054-3.106-1.054-4.986zm13.773.032c0-1.4-.396-2.504-1.187-3.313-.768-.809-1.713-1.214-2.833-1.214s-2.076.405-2.867 1.214c-.768.787-1.153 1.88-1.153 3.28s.385 2.515 1.153 3.346c.791.81 1.747 1.214 2.867 1.214 1.12 0 2.065-.405 2.833-1.214.791-.809 1.187-1.913 1.187-3.313zM177.594 15.728c0-2.275.494-4.298 1.482-6.069.989-1.793 2.361-3.182 4.119-4.166 1.779-1.006 3.789-1.509 6.029-1.509 2.746 0 5.096.722 7.051 2.165s3.262 3.412 3.921 5.905h-6.194c-.461-.963-1.12-1.695-1.977-2.198-.835-.503-1.79-.755-2.867-.755-1.735 0-3.141.602-4.217 1.805-1.076 1.202-1.614 2.81-1.614 4.822s.538 3.619 1.614 4.822c1.076 1.203 2.482 1.804 4.217 1.804 1.077 0 2.032-.252 2.867-.755.857-.503 1.516-1.235 1.977-2.197h6.194c-.659 2.493-1.966 4.46-3.921 5.904-1.955 1.422-4.305 2.132-7.051 2.132-2.24 0-4.25-.492-6.029-1.476a10.747 10.747 0 01-4.119-4.166c-.988-1.771-1.482-3.794-1.482-6.068zM208.622 12.02c.659-1.005 1.482-1.792 2.471-2.36.988-.591 2.086-.887 3.295-.887v5.938h-1.549c-1.406 0-2.46.306-3.163.918-.703.59-1.054 1.64-1.054 3.15v8.495h-5.635V8.97h5.635v3.05z" fill="#fff"/><path d="M235.202 8.97L223.67 35.967h-6.062l4.217-9.316-7.479-17.68h6.293l4.25 11.448 4.218-11.449h6.095zM242.215 11.562c.549-.853 1.307-1.542 2.273-2.067.967-.525 2.098-.787 3.394-.787 1.515 0 2.888.382 4.118 1.148 1.23.765 2.197 1.859 2.9 3.28.725 1.422 1.087 3.073 1.087 4.954 0 1.88-.362 3.542-1.087 4.986-.703 1.421-1.67 2.525-2.9 3.313-1.23.765-2.603 1.148-4.118 1.148-1.274 0-2.405-.263-3.394-.787-.966-.525-1.724-1.203-2.273-2.034V36h-5.634V8.97h5.634v2.592zm8.039 6.528c0-1.4-.395-2.494-1.186-3.28-.769-.81-1.724-1.215-2.867-1.215-1.12 0-2.075.405-2.866 1.214-.769.81-1.153 1.914-1.153 3.313 0 1.4.384 2.504 1.153 3.313.791.81 1.746 1.214 2.866 1.214 1.121 0 2.076-.405 2.867-1.214.791-.83 1.186-1.946 1.186-3.345zM268.531 22.518v4.756h-2.867c-2.042 0-3.635-.492-4.777-1.476-1.142-1.006-1.713-2.635-1.713-4.887v-7.283h-2.241V8.97h2.241V4.51h5.634V8.97h3.69v4.658h-3.69v7.348c0 .547.131.94.395 1.181.264.24.703.36 1.318.36h2.01zM279.379 27.537c-1.801 0-3.427-.383-4.876-1.148a8.568 8.568 0 01-3.394-3.28c-.813-1.422-1.219-3.084-1.219-4.987 0-1.88.417-3.531 1.252-4.953a8.45 8.45 0 013.427-3.313c1.449-.766 3.075-1.148 4.876-1.148 1.801 0 3.427.382 4.876 1.148a8.45 8.45 0 013.427 3.313c.835 1.421 1.252 3.072 1.252 4.953 0 1.881-.428 3.543-1.285 4.986a8.459 8.459 0 01-3.46 3.28c-1.449.766-3.075 1.149-4.876 1.149zm0-4.855c1.076 0 1.988-.394 2.735-1.181.769-.787 1.153-1.914 1.153-3.379s-.373-2.591-1.12-3.379c-.725-.787-1.626-1.18-2.702-1.18-1.098 0-2.01.393-2.735 1.18-.725.766-1.087 1.892-1.087 3.38 0 1.464.351 2.59 1.054 3.378.725.787 1.626 1.18 2.702 1.18z" fill="#fff"/></svg>