<?xml version="1.0" encoding="utf-8"?>
<!-- Generator: Adobe Illustrator 24.2.3, SVG Export Plug-In . SVG Version: 6.00 Build 0)  -->
<svg version="1.1" id="Layer_1" xmlns="http://www.w3.org/2000/svg" xmlns:xlink="http://www.w3.org/1999/xlink" x="0px" y="0px"
	 viewBox="0 0 1444.6 437.3" style="enable-background:new 0 0 1444.6 437.3;" xml:space="preserve">
<style type="text/css">
	.st0{fill:url(#SVGID_1_);}
	.st1{fill:#53A7BC;}
	.st2{fill:#5A64EC;}
</style>
<linearGradient id="SVGID_1_" gradientUnits="userSpaceOnUse" x1="1.566345e-05" y1="218.6287" x2="1445.1635" y2="218.6287">
	<stop  offset="0" style="stop-color:#584DE2"/>
	<stop  offset="1" style="stop-color:#4338C9"/>
</linearGradient>
<rect x="0" class="st0" width="1445.2" height="437.3"/>
<path class="st1" d="M1074.9,0c0,9.8,0.1,19.5,0,29.3c-0.1,9.3-3.5,17.7-9.1,25c-4.9,6.4-11.1,11.1-19.2,12.6
	c-8.4,1.6-16.9,2.9-25.4,4.4c-10.3,1.8-20.6,3.5-30.8,5.3c-11.9,2.1-23.9,4.1-35.8,6.2c-11.8,2-23.6,4.1-35.4,6.1
	c-12,2.1-24,4.1-36,6.2c-11.7,2-23.5,4-35.2,6.1c-6.1,1.1-12.2,2.2-18.3,3.2c-3.6,0.6-7-2.2-7-5.9c0-20.2-0.6-40.5,0.2-60.7
	c0.6-14.9,11.1-31,26-34.9c4.3-1.1,8.7-1.7,13.1-2.5c0.4-0.1,0.9,0,1.1-0.4C933.6,0,1004.3,0,1074.9,0z"/>
<path class="st1" d="M0,391.8c5-0.3,9.9-1.5,14.8-2.3c11.9-2,23.8-4.1,35.6-6.2c11.9-2,23.8-4.1,35.6-6.1c11.3-1.9,22.6-3.9,34-5.8
	c11-1.9,21.9-3.8,32.9-5.7c11.9-2.1,23.9-4.1,35.8-6.2c6.9-1.2,13.8-2.3,20.6-3.6c4.4-0.8,7.7,1.7,7.7,6.1c0,19.9,0.1,39.9,0,59.8
	c0,4.9-1.7,9.6-3.6,14.1c-0.4,0.9-0.9,1.4-1.9,1.3c-0.6-0.1-1.1,0-1.7,0c-70,0-139.9,0-209.9,0C0,422.1,0,407,0,391.8z"/>
<path class="st2" d="M105.8,0c-0.1,5.6,0.5,11.3-1.7,16.7c-3.1,7.6-7.6,13.8-15.9,16.1c-4.2,1.2-8.6,1.6-12.9,2.4
	c-11.1,1.9-22.2,3.8-33.3,5.7c-12.8,2.2-25.7,4.4-38.5,6.6C2.4,47.8,1.3,48.2,0,48c0-15.4,0-30.8,0-46.3C0,0.3,0.3,0,1.7,0
	C36.4,0.1,71.1,0,105.8,0z"/>
<path class="st2" d="M254.5,219.6c0-6.2-0.2-12.5,0-18.7c0.4-9.4,4.4-16.9,12.2-22.4c3.6-2.5,7.8-2.9,11.8-3.6
	c11.9-2.1,23.9-4.1,35.8-6.2c11.3-1.9,22.5-3.8,33.8-5.8c11-1.9,21.9-3.8,32.9-5.7c12.6-2.2,25.1-4.4,37.7-6.5
	c2.7-0.5,4.7,1.3,4.8,4.3c0.1,4,0,7.9,0,11.9c0,8.9,0.2,17.8-0.1,26.7c-0.3,10-4.6,17.9-13.1,23.4c-3.7,2.4-8,2.5-12.2,3.2
	c-11.1,2-22.2,3.9-33.3,5.8c-11.1,1.9-22.2,3.8-33.3,5.7c-11.1,1.9-22.2,3.8-33.3,5.7c-12.6,2.2-25.1,4.4-37.7,6.5
	c-3.9,0.6-6.1-0.2-6.1-5.1C254.6,232.5,254.5,226,254.5,219.6C254.5,219.6,254.5,219.6,254.5,219.6z"/>
<path class="st2" d="M1186.7,371.9c0,6.1,0.2,12.2,0,18.2c-0.3,9.9-4.6,17.8-12.9,23.3c-3.7,2.5-8.2,2.6-12.4,3.4
	c-11.9,2.1-23.9,4.1-35.8,6.2c-12.9,2.2-25.7,4.4-38.6,6.6c-11.8,2-23.7,3.9-35.4,6.2c-7.1,1.4-14.2,1.5-21.3,1.4
	c-3.6,0-7.2-0.1-10.8,0c-1.3,0-1.9-0.2-1.9-1.7c0.1-13.3-0.4-26.6,0.2-39.9c0.4-9.9,7.8-21,18.4-23.2c8.4-1.7,16.9-3,25.4-4.4
	c11.1-1.9,22.2-3.8,33.4-5.7c12.9-2.2,25.7-4.4,38.6-6.6c11.7-2,23.5-4,35.2-6.1c4.4-0.8,8.7-1.6,13.1-2.3c2.9-0.5,4.9,1.3,4.9,4.6
	C1186.7,358.6,1186.7,365.2,1186.7,371.9z"/>
<path class="st2" d="M1444.6,291.9c0,15.6,0,31.3,0,46.9c0,1.7-0.6,2.3-2.2,2.6c-16.3,2.8-32.5,5.6-48.8,8.4c-11.5,2-23.1,4-34.6,6
	c-4,0.7-7.1-2.1-7.1-6.4c0-15.8-0.1-31.5,0-47.3c0-5.3-0.6-10.6,0.5-15.9c2.6-13.1,8.8-23.8,21-30.2c4.7-2.5,9.9-2.8,14.9-3.7
	c12.8-2.3,25.6-4.4,38.4-6.6c5.2-0.9,10.4-1.8,15.6-2.7c1.8-0.3,2.2,0.3,2.2,2.1C1444.6,260.6,1444.6,276.2,1444.6,291.9z"/>
<path class="st2" d="M1444.6,120.3c0,10.3,0,20.5,0,30.8c0,1.5-0.3,2.1-2,2.4c-20.5,3.4-41,7-61.5,10.5c-11.8,2-23.6,4.1-35.4,6.2
	c-1.6,0.3-3.3,0.6-4.8-0.3c-1.2-0.7-1.8-1.9-1.8-3.4c0-13.7-0.4-27.5,0.2-41.1c0.4-10,7.8-21,18.4-23.1c8.4-1.7,16.9-3,25.4-4.4
	c10.3-1.8,20.6-3.5,30.8-5.3c9.6-1.6,19.2-3.2,28.8-4.9c1.7-0.3,1.8,0.3,1.8,1.7C1444.6,99.5,1444.6,109.9,1444.6,120.3z"/>
</svg>
