<?xml version="1.0" encoding="utf-8"?>
<!-- Generator: Adobe Illustrator 24.2.3, SVG Export Plug-In . SVG Version: 6.00 Build 0)  -->
<svg version="1.1" id="Layer_1" xmlns="http://www.w3.org/2000/svg" xmlns:xlink="http://www.w3.org/1999/xlink" x="0px" y="0px"
	 viewBox="0 0 1445.9 692.1" style="enable-background:new 0 0 1445.9 692.1;" xml:space="preserve">
<style type="text/css">
	.st0{fill:url(#SVGID_1_);}
	.st1{fill:#52E5A5;}
	.st2{fill:#6360EF;}
	.st3{fill:#594EE2;}
</style>
<g>
	<linearGradient id="SVGID_1_" gradientUnits="userSpaceOnUse" x1="1.566345e-05" y1="346.044" x2="1445.1635" y2="346.044">
		<stop  offset="0" style="stop-color:#584DE2"/>
		<stop  offset="1" style="stop-color:#4338C9"/>
	</linearGradient>
	<rect x="0" class="st0" width="1445.2" height="692.1"/>
	<path class="st1" d="M0,557.5c6.2-0.3,12.3-1.9,18.4-2.9C41,550.9,63.5,546.9,86,543c22-3.8,44-7.7,66-11.5
		c8.2-1.4,16.4-2.8,24.6-4.2c4-0.7,7,1.5,7.6,5.5c0.1,0.8,0.1,1.7,0.1,2.5c0,18.7,0.3,37.4-0.1,56c-0.3,13.2-5.8,24.3-16.4,32.6
		c-4,3.1-8.6,4.9-13.5,5.7c-34.1,5.9-68.2,11.8-102.3,17.7c-15.2,2.6-30.3,5.2-45.5,7.8c-0.8,0.1-1.7,0-2.2,0.9c-1.4,0-2.8,0-4.2,0
		C0,623.2,0,590.4,0,557.5z"/>
	<path class="st2" d="M0,147.3c3.3,0.8,6.4-0.5,9.6-1c18.8-3.2,37.6-6.5,56.4-9.8c5.2-0.9,6.8,0.4,6.9,5.6c0,12.2,0.1,24.3,0,36.5
		c-0.1,7.2-2.7,13.5-7.4,18.9c-3.4,3.9-7.6,6.2-12.7,7.1c-16.6,2.9-33.2,5.7-49.7,8.6c-1,0.2-2,0.2-3,0.2C0,191.4,0,169.3,0,147.3z"
		/>
	<path class="st3" d="M1443.9,408.2c0.9,1.6,0.6,2.9,0.6,4.1c0,30,0,60,0,90c0,4.3,0,4.3-4.3,5c-27.3,4.7-54.6,9.4-81.9,14.1
		c-10.2,1.8-20.3,3.5-30.5,5.3c-6.5,1.1-9.2-1.2-9.2-8c0-18.4-0.2-36.8,0.1-55.2c0.2-12.8,5.3-23.6,14.9-32.1
		c3.8-3.3,8.2-5.6,13.2-6.5c30.8-5.4,61.6-10.7,92.3-16C1440.8,408.8,1442.3,408.9,1443.9,408.2z"/>
	<path class="st3" d="M1063.6,185.9c0-6.2-0.1-12.5,0-18.7c0.2-8.1,3.6-14.7,9.5-20.1c2.9-2.6,6.4-4.2,10.2-4.8
		c30.1-5.2,60.2-10.3,90.3-15.5c17.3-3,34.6-6,51.8-9c5.6-1,7.2,0.3,7.2,6.2c0,11.9,0,23.8,0,35.7c0,7.1-2.5,13.3-6.9,18.7
		c-3.5,4.3-8.1,6.9-13.7,7.9c-36.9,6.3-73.9,12.6-110.8,19c-10.2,1.7-20.3,3.5-30.5,5.3c-0.7,0.1-1.4,0.3-2.1,0.4
		c-3.6,0.3-5-0.9-5.1-4.5c-0.1-5.2,0-10.5,0-15.7C1063.6,189,1063.6,187.5,1063.6,185.9C1063.6,185.9,1063.6,185.9,1063.6,185.9z"/>
	<path class="st2" d="M221.7,390.3c0-6.1-0.1-12.2,0-18.3c0.2-8.1,3.6-14.7,9.5-20.1c2.9-2.6,6.4-4.2,10.2-4.8
		c30.1-5.2,60.2-10.3,90.3-15.5c17.1-3,34.3-6,51.4-8.9c1-0.2,2-0.3,2.9-0.4c2.6-0.1,4,1.1,4.5,3.5c0.2,1,0.1,2,0.1,3
		c0,11.7,0,23.5,0,35.2c0,6.9-2.3,13-6.5,18.5c-3.6,4.7-8.4,7.4-14.3,8.4c-30.2,5.1-60.5,10.3-90.7,15.5
		c-16.9,2.9-33.7,5.8-50.6,8.7c-0.4,0.1-0.8,0.2-1.2,0.3c-4,0.5-5.6-0.7-5.6-4.7c-0.1-4.5,0-9.1,0-13.6
		C221.7,394.8,221.7,392.5,221.7,390.3C221.7,390.3,221.7,390.3,221.7,390.3z"/>
</g>
</svg>
