<?xml version="1.0" encoding="utf-8"?>
<!-- Generator: Adobe Illustrator 24.2.3, SVG Export Plug-In . SVG Version: 6.00 Build 0)  -->
<svg version="1.1" id="Layer_1" xmlns="http://www.w3.org/2000/svg" xmlns:xlink="http://www.w3.org/1999/xlink" x="0px" y="0px"
	 viewBox="0 0 1445.2 148.3" style="enable-background:new 0 0 1445.2 148.3;" xml:space="preserve">
<style type="text/css">
	.st0{fill:url(#SVGID_1_);}
	.st1{fill:#97EEC8;}
	.st2{fill:#9EACF9;}
</style>
<linearGradient id="SVGID_1_" gradientUnits="userSpaceOnUse" x1="1.566345e-05" y1="74.1495" x2="1445.1635" y2="74.1495">
	<stop  offset="0" style="stop-color:#584DE2"/>
	<stop  offset="1" style="stop-color:#4338C9"/>
</linearGradient>
<rect x="0" y="0" class="st0" width="1445.2" height="148.2"/>
<path class="st1" d="M0,73.6c1.4,2.1,4,3.2,7,2.6c3.1-0.6,6.1-1.1,9.2-1.6c12.1-2.1,24.2-4.1,36.3-6.2c11.8-2,23.6-4,35.4-6.1
	c12.8-2.2,25.7-4.4,38.5-6.6c10.9-1.9,21.8-3.8,32.7-5.6c12.1-2.1,24.2-4.1,36.3-6.2c11.1-1.9,22.1-3.7,33.2-5.7
	c5.2-0.9,10.6-1.3,15.6-3.1c11.5-4.3,18.6-13,23-24c1.4-3.5,2.8-7.1,2.7-11H0V73.6z"/>
<path class="st2" d="M1385.5,0.7c-11.6,2.4-19.8,14.2-20.4,25.4c-0.7,15.3-0.2,30.6-0.2,45.8c0,2.5,1.6,4,4.2,4
	c1.2,0,2.3-0.1,3.5-0.3c8.5-1.5,17-2.9,25.4-4.4c15.3-2.6,30.7-5.3,46-7.8c0.4-0.1,0.7-0.1,1-0.2v-63h-56.9
	C1387.4,0.3,1386.4,0.5,1385.5,0.7z"/>
</svg>
