<svg width="383" height="57" fill="none" xmlns="http://www.w3.org/2000/svg"><path d="M30.532 56.448c-2.403 0-4.346-.448-5.829-1.344-1.431-.946-2.48-2.265-3.144-3.957-1.482 1.593-2.99 2.887-4.524 3.882-1.483.946-3.605 1.419-6.366 1.419-3.016 0-5.444-.846-7.285-2.539C1.594 52.217.7 49.852.7 46.816c0-1.941.435-3.659 1.304-5.152.92-1.543 2.505-2.937 4.754-4.181 2.301-1.295 5.522-2.464 9.663-3.51l2.147-.522a37.321 37.321 0 012.531-.672V30.09c0-3.186-.383-5.376-1.15-6.571-.716-1.195-2.275-1.792-4.678-1.792H14.12v2.539c0 3.036-.639 5.201-1.917 6.496-1.278 1.244-2.735 1.866-4.371 1.866-3.119 0-5.061-1.344-5.828-4.032 0-3.235 1.559-5.849 4.678-7.84 3.17-2.04 7.848-3.061 14.034-3.061 5.317 0 9.049 1.145 11.196 3.435 2.199 2.24 3.298 5.923 3.298 11.05V49.28c0 .846.434 1.27 1.303 1.27.307 0 .614-.1.92-.3.308-.248.691-.696 1.151-1.343l2.224 1.194c-.92 2.29-2.198 3.933-3.834 4.928-1.585.946-3.732 1.419-6.442 1.419zM13.89 44.501c0 1.842.384 3.211 1.15 4.107.768.896 1.713 1.344 2.838 1.344.358 0 .741-.075 1.15-.224.46-.2 1.15-.597 2.071-1.195V36.288c-.767.2-1.508.473-2.224.821-1.073.498-2.173 1.344-3.297 2.539-1.125 1.195-1.688 2.812-1.688 4.853zM42.58 39.947V32.48h59.051v7.467h-59.05zM106.131 55.253v-3.808l3.451-.746c.051-1.842.076-3.759.076-5.75v-8.96c0-2.04-.025-3.733-.076-5.077 0-1.394-.051-2.837-.154-4.33l-4.141-.673v-3.061l17.792-5.152 1.38.821-.23 11.126v15.381c0 2.04.026 3.957.077 5.75l3.221.671v3.808h-21.396zm10.66-41.962c-1.943 0-3.605-.598-4.985-1.792-1.381-1.245-2.071-2.788-2.071-4.63 0-1.891.69-3.434 2.071-4.629 1.38-1.195 3.042-1.792 4.985-1.792 1.942 0 3.604.597 4.984 1.792 1.381 1.195 2.071 2.738 2.071 4.63 0 1.841-.69 3.384-2.071 4.629-1.38 1.194-3.042 1.792-4.984 1.792zM129.927 55.253v-3.808l3.527-.821c.051-1.792.077-3.684.077-5.675V34.944c0-1.394-.026-2.514-.077-3.36 0-.846-.025-1.643-.076-2.39 0-.746-.026-1.617-.077-2.613l-4.141-.672v-3.061l16.948-5.152 1.38.821.384 5.152c2.096-2.389 4.013-3.982 5.751-4.778 1.79-.797 3.758-1.195 5.905-1.195 3.324 0 6.084 1.07 8.283 3.21 2.198 2.091 3.297 5.178 3.297 9.26v14.858c0 2.04.026 3.957.077 5.75l3.221.671v3.808h-21.243v-3.808l3.298-.746c.051-1.792.076-3.709.076-5.75V31.136c0-1.991-.281-3.385-.843-4.181-.511-.847-1.38-1.27-2.607-1.27-1.432 0-3.094.647-4.985 1.942v17.397c0 2.04.025 3.982.076 5.824l2.915.597v3.808h-21.166zM191.838 56.448c-3.784 0-6.723-.846-8.819-2.539-2.097-1.742-3.145-4.604-3.145-8.586v-3.958a98.81 98.81 0 00.077-4.032V24.491h-4.371v-4.928l5.215-.672 4.601-10.603h9.126v10.603h7.055v5.6h-7.055V44.5c0 1.693.358 2.937 1.073 3.734.716.796 1.611 1.194 2.685 1.194 1.175 0 2.428-.497 3.757-1.493l1.918 1.717c-1.023 2.14-2.506 3.808-4.448 5.003-1.943 1.195-4.499 1.792-7.669 1.792zM223.53 21.728c-1.176 0-2.173.846-2.991 2.539-.818 1.692-1.278 4.853-1.38 9.482h3.604c1.841 0 3.068-.348 3.681-1.045.665-.747.997-2.066.997-3.957 0-2.589-.409-4.406-1.227-5.451-.767-1.045-1.662-1.568-2.684-1.568zm.23 34.72c-3.834 0-7.26-.772-10.276-2.315-2.966-1.543-5.317-3.758-7.056-6.645-1.738-2.937-2.607-6.446-2.607-10.528 0-3.236.588-6.048 1.764-8.437 1.176-2.39 2.761-4.38 4.755-5.974a20.205 20.205 0 016.671-3.658 23.964 23.964 0 017.439-1.195c3.681 0 6.723.747 9.126 2.24 2.454 1.444 4.295 3.41 5.522 5.899 1.227 2.439 1.84 5.177 1.84 8.213 0 .796-.025 1.493-.076 2.09-.052.548-.154 1.17-.307 1.867h-21.32c.409 3.634 1.509 6.272 3.298 7.915 1.841 1.643 3.886 2.464 6.135 2.464 1.943 0 3.604-.324 4.985-.97 1.431-.698 2.684-1.544 3.758-2.54l2.99 2.838c-1.636 3.036-3.885 5.252-6.748 6.645-2.812 1.394-6.11 2.091-9.893 2.091zM243.426 55.253v-3.808l3.681-.821c.051-1.792.077-3.684.077-5.675V34.87a58.4 58.4 0 00-.077-3.36c0-.846-.026-1.617-.077-2.314 0-.747-.025-1.618-.076-2.614l-4.142-.672v-3.061l16.949-5.152 1.38.821.614 8.662c1.022-3.236 2.479-5.625 4.371-7.168 1.943-1.543 3.834-2.315 5.675-2.315 1.891 0 3.476.548 4.754 1.643 1.33 1.045 2.122 2.713 2.378 5.002-.102 1.991-.716 3.56-1.841 4.704-1.125 1.095-2.454 1.643-3.988 1.643-2.351 0-4.499-1.369-6.441-4.107l-.384-.522c-.92.995-1.84 2.29-2.761 3.882a16.304 16.304 0 00-1.763 4.928v9.782c0 1.941.025 3.783.076 5.525l5.982 1.27v3.807h-24.387zM280.349 55.253v-3.808l3.451-.746c.051-1.842.077-3.759.077-5.75v-8.96c0-2.04-.026-3.733-.077-5.077 0-1.394-.051-2.837-.153-4.33l-4.141-.673v-3.061l17.791-5.152 1.381.821-.23 11.126v15.381c0 2.04.025 3.957.076 5.75l3.221.671v3.808h-21.396zm10.66-41.962c-1.943 0-3.604-.598-4.985-1.792-1.38-1.245-2.07-2.788-2.07-4.63 0-1.891.69-3.434 2.07-4.629 1.381-1.195 3.042-1.792 4.985-1.792 1.943 0 3.604.597 4.985 1.792 1.38 1.195 2.07 2.738 2.07 4.63 0 1.841-.69 3.384-2.07 4.629-1.381 1.194-3.042 1.792-4.985 1.792zM324.314 56.448c-4.397 0-8.103-.846-11.12-2.539-3.016-1.742-5.291-4.106-6.825-7.093-1.534-2.987-2.301-6.322-2.301-10.005 0-3.734.869-7.019 2.608-9.856 1.738-2.887 4.115-5.152 7.132-6.795 3.067-1.643 6.569-2.464 10.506-2.464 3.937 0 7.413.821 10.43 2.464 3.067 1.593 5.47 3.833 7.208 6.72 1.739 2.837 2.608 6.148 2.608 9.93 0 3.784-.793 7.169-2.377 10.155-1.534 2.937-3.809 5.252-6.826 6.944-2.965 1.693-6.646 2.539-11.043 2.539zm0-4.107c1.687 0 2.914-1.194 3.681-3.584.818-2.389 1.227-6.297 1.227-11.722 0-5.426-.409-9.309-1.227-11.648-.767-2.39-1.994-3.584-3.681-3.584s-2.94 1.194-3.758 3.584c-.767 2.34-1.15 6.222-1.15 11.648 0 5.425.383 9.333 1.15 11.722.818 2.39 2.071 3.584 3.758 3.584zM347.193 55.253v-3.808l3.681-.821c.051-1.792.077-3.684.077-5.675V34.87a58.4 58.4 0 00-.077-3.36c0-.846-.025-1.617-.076-2.314 0-.747-.026-1.618-.077-2.614l-4.141-.672v-3.061l16.948-5.152 1.38.821.614 8.662c1.022-3.236 2.479-5.625 4.371-7.168 1.943-1.543 3.834-2.315 5.675-2.315 1.892 0 3.476.548 4.755 1.643 1.329 1.045 2.121 2.713 2.377 5.002-.102 1.991-.716 3.56-1.841 4.704-1.124 1.095-2.454 1.643-3.987 1.643-2.352 0-4.499-1.369-6.442-4.107l-.384-.522c-.92.995-1.84 2.29-2.76 3.882a16.28 16.28 0 00-1.764 4.928v9.782c0 1.941.025 3.783.076 5.525l5.982 1.27v3.807h-24.387z" fill="#181B20"/></svg>